G04 #@! TF.FileFunction,Legend,Bot*
%FSLAX46Y46*%
G04 Gerber Fmt 4.6, Leading zero omitted, Abs format (unit mm)*
G04 Created by KiCad (PCBNEW 4.0.6) date Fri Apr 28 14:46:48 2017*
%MOMM*%
%LPD*%
G01*
G04 APERTURE LIST*
%ADD10C,0.100000*%
%ADD11C,0.120000*%
%ADD12C,0.150000*%
G04 APERTURE END LIST*
D10*
D11*
X55000000Y-32875000D02*
X54000000Y-32875000D01*
X54000000Y-31175000D02*
X55000000Y-31175000D01*
X55000000Y-30575000D02*
X54000000Y-30575000D01*
X54000000Y-28875000D02*
X55000000Y-28875000D01*
X61800000Y-29175000D02*
X62800000Y-29175000D01*
X62800000Y-30875000D02*
X61800000Y-30875000D01*
X55000000Y-37075000D02*
X54000000Y-37075000D01*
X54000000Y-35375000D02*
X55000000Y-35375000D01*
X55000000Y-35375000D02*
X54000000Y-35375000D01*
X54000000Y-33675000D02*
X55000000Y-33675000D01*
X53900000Y-40675000D02*
X54900000Y-40675000D01*
X54900000Y-42375000D02*
X53900000Y-42375000D01*
X62600000Y-39700000D02*
X63600000Y-39700000D01*
X63600000Y-41400000D02*
X62600000Y-41400000D01*
X56800000Y-40675000D02*
X55800000Y-40675000D01*
X55800000Y-38975000D02*
X56800000Y-38975000D01*
X62600000Y-37925000D02*
X63600000Y-37925000D01*
X63600000Y-39625000D02*
X62600000Y-39625000D01*
X61800000Y-31175000D02*
X62800000Y-31175000D01*
X62800000Y-32875000D02*
X61800000Y-32875000D01*
X43250000Y-33525000D02*
X43250000Y-32525000D01*
X44950000Y-32525000D02*
X44950000Y-33525000D01*
X44950000Y-37025000D02*
X44950000Y-38025000D01*
X43250000Y-38025000D02*
X43250000Y-37025000D01*
X54450000Y-38425000D02*
X54450000Y-39425000D01*
X52750000Y-39425000D02*
X52750000Y-38425000D01*
X83590000Y-44680000D02*
X83590000Y-47220000D01*
X81810000Y-47220000D02*
X81810000Y-44680000D01*
X81810000Y-47220000D02*
X83590000Y-47220000D01*
X83590000Y-44680000D02*
X81810000Y-44680000D01*
X107030000Y-34600000D02*
X107030000Y-33400000D01*
X105270000Y-33400000D02*
X105270000Y-34600000D01*
X62750000Y-26430000D02*
X63950000Y-26430000D01*
X63950000Y-24670000D02*
X62750000Y-24670000D01*
X67750000Y-26430000D02*
X68950000Y-26430000D01*
X68950000Y-24670000D02*
X67750000Y-24670000D01*
X72550000Y-26430000D02*
X73750000Y-26430000D01*
X73750000Y-24670000D02*
X72550000Y-24670000D01*
X57750000Y-26430000D02*
X58950000Y-26430000D01*
X58950000Y-24670000D02*
X57750000Y-24670000D01*
X52950000Y-26430000D02*
X54150000Y-26430000D01*
X54150000Y-24670000D02*
X52950000Y-24670000D01*
X100790000Y-47450000D02*
X100790000Y-45650000D01*
X104010000Y-45650000D02*
X104010000Y-48100000D01*
D12*
X51816666Y-32407143D02*
X51864285Y-32454762D01*
X52007142Y-32502381D01*
X52102380Y-32502381D01*
X52245238Y-32454762D01*
X52340476Y-32359524D01*
X52388095Y-32264286D01*
X52435714Y-32073810D01*
X52435714Y-31930952D01*
X52388095Y-31740476D01*
X52340476Y-31645238D01*
X52245238Y-31550000D01*
X52102380Y-31502381D01*
X52007142Y-31502381D01*
X51864285Y-31550000D01*
X51816666Y-31597619D01*
X50864285Y-32502381D02*
X51435714Y-32502381D01*
X51150000Y-32502381D02*
X51150000Y-31502381D01*
X51245238Y-31645238D01*
X51340476Y-31740476D01*
X51435714Y-31788095D01*
X51916666Y-30107143D02*
X51964285Y-30154762D01*
X52107142Y-30202381D01*
X52202380Y-30202381D01*
X52345238Y-30154762D01*
X52440476Y-30059524D01*
X52488095Y-29964286D01*
X52535714Y-29773810D01*
X52535714Y-29630952D01*
X52488095Y-29440476D01*
X52440476Y-29345238D01*
X52345238Y-29250000D01*
X52202380Y-29202381D01*
X52107142Y-29202381D01*
X51964285Y-29250000D01*
X51916666Y-29297619D01*
X51059523Y-29535714D02*
X51059523Y-30202381D01*
X51297619Y-29154762D02*
X51535714Y-29869048D01*
X50916666Y-29869048D01*
X65516666Y-30407143D02*
X65564285Y-30454762D01*
X65707142Y-30502381D01*
X65802380Y-30502381D01*
X65945238Y-30454762D01*
X66040476Y-30359524D01*
X66088095Y-30264286D01*
X66135714Y-30073810D01*
X66135714Y-29930952D01*
X66088095Y-29740476D01*
X66040476Y-29645238D01*
X65945238Y-29550000D01*
X65802380Y-29502381D01*
X65707142Y-29502381D01*
X65564285Y-29550000D01*
X65516666Y-29597619D01*
X64611904Y-29502381D02*
X65088095Y-29502381D01*
X65135714Y-29978571D01*
X65088095Y-29930952D01*
X64992857Y-29883333D01*
X64754761Y-29883333D01*
X64659523Y-29930952D01*
X64611904Y-29978571D01*
X64564285Y-30073810D01*
X64564285Y-30311905D01*
X64611904Y-30407143D01*
X64659523Y-30454762D01*
X64754761Y-30502381D01*
X64992857Y-30502381D01*
X65088095Y-30454762D01*
X65135714Y-30407143D01*
X51716666Y-36707143D02*
X51764285Y-36754762D01*
X51907142Y-36802381D01*
X52002380Y-36802381D01*
X52145238Y-36754762D01*
X52240476Y-36659524D01*
X52288095Y-36564286D01*
X52335714Y-36373810D01*
X52335714Y-36230952D01*
X52288095Y-36040476D01*
X52240476Y-35945238D01*
X52145238Y-35850000D01*
X52002380Y-35802381D01*
X51907142Y-35802381D01*
X51764285Y-35850000D01*
X51716666Y-35897619D01*
X50859523Y-35802381D02*
X51050000Y-35802381D01*
X51145238Y-35850000D01*
X51192857Y-35897619D01*
X51288095Y-36040476D01*
X51335714Y-36230952D01*
X51335714Y-36611905D01*
X51288095Y-36707143D01*
X51240476Y-36754762D01*
X51145238Y-36802381D01*
X50954761Y-36802381D01*
X50859523Y-36754762D01*
X50811904Y-36707143D01*
X50764285Y-36611905D01*
X50764285Y-36373810D01*
X50811904Y-36278571D01*
X50859523Y-36230952D01*
X50954761Y-36183333D01*
X51145238Y-36183333D01*
X51240476Y-36230952D01*
X51288095Y-36278571D01*
X51335714Y-36373810D01*
X51816666Y-35007143D02*
X51864285Y-35054762D01*
X52007142Y-35102381D01*
X52102380Y-35102381D01*
X52245238Y-35054762D01*
X52340476Y-34959524D01*
X52388095Y-34864286D01*
X52435714Y-34673810D01*
X52435714Y-34530952D01*
X52388095Y-34340476D01*
X52340476Y-34245238D01*
X52245238Y-34150000D01*
X52102380Y-34102381D01*
X52007142Y-34102381D01*
X51864285Y-34150000D01*
X51816666Y-34197619D01*
X51245238Y-34530952D02*
X51340476Y-34483333D01*
X51388095Y-34435714D01*
X51435714Y-34340476D01*
X51435714Y-34292857D01*
X51388095Y-34197619D01*
X51340476Y-34150000D01*
X51245238Y-34102381D01*
X51054761Y-34102381D01*
X50959523Y-34150000D01*
X50911904Y-34197619D01*
X50864285Y-34292857D01*
X50864285Y-34340476D01*
X50911904Y-34435714D01*
X50959523Y-34483333D01*
X51054761Y-34530952D01*
X51245238Y-34530952D01*
X51340476Y-34578571D01*
X51388095Y-34626190D01*
X51435714Y-34721429D01*
X51435714Y-34911905D01*
X51388095Y-35007143D01*
X51340476Y-35054762D01*
X51245238Y-35102381D01*
X51054761Y-35102381D01*
X50959523Y-35054762D01*
X50911904Y-35007143D01*
X50864285Y-34911905D01*
X50864285Y-34721429D01*
X50911904Y-34626190D01*
X50959523Y-34578571D01*
X51054761Y-34530952D01*
X51516666Y-41907143D02*
X51564285Y-41954762D01*
X51707142Y-42002381D01*
X51802380Y-42002381D01*
X51945238Y-41954762D01*
X52040476Y-41859524D01*
X52088095Y-41764286D01*
X52135714Y-41573810D01*
X52135714Y-41430952D01*
X52088095Y-41240476D01*
X52040476Y-41145238D01*
X51945238Y-41050000D01*
X51802380Y-41002381D01*
X51707142Y-41002381D01*
X51564285Y-41050000D01*
X51516666Y-41097619D01*
X51040476Y-42002381D02*
X50850000Y-42002381D01*
X50754761Y-41954762D01*
X50707142Y-41907143D01*
X50611904Y-41764286D01*
X50564285Y-41573810D01*
X50564285Y-41192857D01*
X50611904Y-41097619D01*
X50659523Y-41050000D01*
X50754761Y-41002381D01*
X50945238Y-41002381D01*
X51040476Y-41050000D01*
X51088095Y-41097619D01*
X51135714Y-41192857D01*
X51135714Y-41430952D01*
X51088095Y-41526190D01*
X51040476Y-41573810D01*
X50945238Y-41621429D01*
X50754761Y-41621429D01*
X50659523Y-41573810D01*
X50611904Y-41526190D01*
X50564285Y-41430952D01*
X67192857Y-41007143D02*
X67240476Y-41054762D01*
X67383333Y-41102381D01*
X67478571Y-41102381D01*
X67621429Y-41054762D01*
X67716667Y-40959524D01*
X67764286Y-40864286D01*
X67811905Y-40673810D01*
X67811905Y-40530952D01*
X67764286Y-40340476D01*
X67716667Y-40245238D01*
X67621429Y-40150000D01*
X67478571Y-40102381D01*
X67383333Y-40102381D01*
X67240476Y-40150000D01*
X67192857Y-40197619D01*
X66240476Y-41102381D02*
X66811905Y-41102381D01*
X66526191Y-41102381D02*
X66526191Y-40102381D01*
X66621429Y-40245238D01*
X66716667Y-40340476D01*
X66811905Y-40388095D01*
X65621429Y-40102381D02*
X65526190Y-40102381D01*
X65430952Y-40150000D01*
X65383333Y-40197619D01*
X65335714Y-40292857D01*
X65288095Y-40483333D01*
X65288095Y-40721429D01*
X65335714Y-40911905D01*
X65383333Y-41007143D01*
X65430952Y-41054762D01*
X65526190Y-41102381D01*
X65621429Y-41102381D01*
X65716667Y-41054762D01*
X65764286Y-41007143D01*
X65811905Y-40911905D01*
X65859524Y-40721429D01*
X65859524Y-40483333D01*
X65811905Y-40292857D01*
X65764286Y-40197619D01*
X65716667Y-40150000D01*
X65621429Y-40102381D01*
X60092857Y-40207143D02*
X60140476Y-40254762D01*
X60283333Y-40302381D01*
X60378571Y-40302381D01*
X60521429Y-40254762D01*
X60616667Y-40159524D01*
X60664286Y-40064286D01*
X60711905Y-39873810D01*
X60711905Y-39730952D01*
X60664286Y-39540476D01*
X60616667Y-39445238D01*
X60521429Y-39350000D01*
X60378571Y-39302381D01*
X60283333Y-39302381D01*
X60140476Y-39350000D01*
X60092857Y-39397619D01*
X59140476Y-40302381D02*
X59711905Y-40302381D01*
X59426191Y-40302381D02*
X59426191Y-39302381D01*
X59521429Y-39445238D01*
X59616667Y-39540476D01*
X59711905Y-39588095D01*
X58807143Y-39302381D02*
X58188095Y-39302381D01*
X58521429Y-39683333D01*
X58378571Y-39683333D01*
X58283333Y-39730952D01*
X58235714Y-39778571D01*
X58188095Y-39873810D01*
X58188095Y-40111905D01*
X58235714Y-40207143D01*
X58283333Y-40254762D01*
X58378571Y-40302381D01*
X58664286Y-40302381D01*
X58759524Y-40254762D01*
X58807143Y-40207143D01*
X67192857Y-39107143D02*
X67240476Y-39154762D01*
X67383333Y-39202381D01*
X67478571Y-39202381D01*
X67621429Y-39154762D01*
X67716667Y-39059524D01*
X67764286Y-38964286D01*
X67811905Y-38773810D01*
X67811905Y-38630952D01*
X67764286Y-38440476D01*
X67716667Y-38345238D01*
X67621429Y-38250000D01*
X67478571Y-38202381D01*
X67383333Y-38202381D01*
X67240476Y-38250000D01*
X67192857Y-38297619D01*
X66240476Y-39202381D02*
X66811905Y-39202381D01*
X66526191Y-39202381D02*
X66526191Y-38202381D01*
X66621429Y-38345238D01*
X66716667Y-38440476D01*
X66811905Y-38488095D01*
X65383333Y-38535714D02*
X65383333Y-39202381D01*
X65621429Y-38154762D02*
X65859524Y-38869048D01*
X65240476Y-38869048D01*
X66492857Y-32407143D02*
X66540476Y-32454762D01*
X66683333Y-32502381D01*
X66778571Y-32502381D01*
X66921429Y-32454762D01*
X67016667Y-32359524D01*
X67064286Y-32264286D01*
X67111905Y-32073810D01*
X67111905Y-31930952D01*
X67064286Y-31740476D01*
X67016667Y-31645238D01*
X66921429Y-31550000D01*
X66778571Y-31502381D01*
X66683333Y-31502381D01*
X66540476Y-31550000D01*
X66492857Y-31597619D01*
X65540476Y-32502381D02*
X66111905Y-32502381D01*
X65826191Y-32502381D02*
X65826191Y-31502381D01*
X65921429Y-31645238D01*
X66016667Y-31740476D01*
X66111905Y-31788095D01*
X64635714Y-31502381D02*
X65111905Y-31502381D01*
X65159524Y-31978571D01*
X65111905Y-31930952D01*
X65016667Y-31883333D01*
X64778571Y-31883333D01*
X64683333Y-31930952D01*
X64635714Y-31978571D01*
X64588095Y-32073810D01*
X64588095Y-32311905D01*
X64635714Y-32407143D01*
X64683333Y-32454762D01*
X64778571Y-32502381D01*
X65016667Y-32502381D01*
X65111905Y-32454762D01*
X65159524Y-32407143D01*
X42957143Y-32382143D02*
X43004762Y-32334524D01*
X43052381Y-32191667D01*
X43052381Y-32096429D01*
X43004762Y-31953571D01*
X42909524Y-31858333D01*
X42814286Y-31810714D01*
X42623810Y-31763095D01*
X42480952Y-31763095D01*
X42290476Y-31810714D01*
X42195238Y-31858333D01*
X42100000Y-31953571D01*
X42052381Y-32096429D01*
X42052381Y-32191667D01*
X42100000Y-32334524D01*
X42147619Y-32382143D01*
X43052381Y-33334524D02*
X43052381Y-32763095D01*
X43052381Y-33048809D02*
X42052381Y-33048809D01*
X42195238Y-32953571D01*
X42290476Y-32858333D01*
X42338095Y-32763095D01*
X42052381Y-34191667D02*
X42052381Y-34001190D01*
X42100000Y-33905952D01*
X42147619Y-33858333D01*
X42290476Y-33763095D01*
X42480952Y-33715476D01*
X42861905Y-33715476D01*
X42957143Y-33763095D01*
X43004762Y-33810714D01*
X43052381Y-33905952D01*
X43052381Y-34096429D01*
X43004762Y-34191667D01*
X42957143Y-34239286D01*
X42861905Y-34286905D01*
X42623810Y-34286905D01*
X42528571Y-34239286D01*
X42480952Y-34191667D01*
X42433333Y-34096429D01*
X42433333Y-33905952D01*
X42480952Y-33810714D01*
X42528571Y-33763095D01*
X42623810Y-33715476D01*
X42907143Y-36907143D02*
X42954762Y-36859524D01*
X43002381Y-36716667D01*
X43002381Y-36621429D01*
X42954762Y-36478571D01*
X42859524Y-36383333D01*
X42764286Y-36335714D01*
X42573810Y-36288095D01*
X42430952Y-36288095D01*
X42240476Y-36335714D01*
X42145238Y-36383333D01*
X42050000Y-36478571D01*
X42002381Y-36621429D01*
X42002381Y-36716667D01*
X42050000Y-36859524D01*
X42097619Y-36907143D01*
X43002381Y-37859524D02*
X43002381Y-37288095D01*
X43002381Y-37573809D02*
X42002381Y-37573809D01*
X42145238Y-37478571D01*
X42240476Y-37383333D01*
X42288095Y-37288095D01*
X42002381Y-38192857D02*
X42002381Y-38859524D01*
X43002381Y-38430952D01*
X52107143Y-38207143D02*
X52154762Y-38159524D01*
X52202381Y-38016667D01*
X52202381Y-37921429D01*
X52154762Y-37778571D01*
X52059524Y-37683333D01*
X51964286Y-37635714D01*
X51773810Y-37588095D01*
X51630952Y-37588095D01*
X51440476Y-37635714D01*
X51345238Y-37683333D01*
X51250000Y-37778571D01*
X51202381Y-37921429D01*
X51202381Y-38016667D01*
X51250000Y-38159524D01*
X51297619Y-38207143D01*
X52202381Y-39159524D02*
X52202381Y-38588095D01*
X52202381Y-38873809D02*
X51202381Y-38873809D01*
X51345238Y-38778571D01*
X51440476Y-38683333D01*
X51488095Y-38588095D01*
X52202381Y-39635714D02*
X52202381Y-39826190D01*
X52154762Y-39921429D01*
X52107143Y-39969048D01*
X51964286Y-40064286D01*
X51773810Y-40111905D01*
X51392857Y-40111905D01*
X51297619Y-40064286D01*
X51250000Y-40016667D01*
X51202381Y-39921429D01*
X51202381Y-39730952D01*
X51250000Y-39635714D01*
X51297619Y-39588095D01*
X51392857Y-39540476D01*
X51630952Y-39540476D01*
X51726190Y-39588095D01*
X51773810Y-39635714D01*
X51821429Y-39730952D01*
X51821429Y-39921429D01*
X51773810Y-40016667D01*
X51726190Y-40064286D01*
X51630952Y-40111905D01*
X80372381Y-45116667D02*
X81086667Y-45116667D01*
X81229524Y-45069047D01*
X81324762Y-44973809D01*
X81372381Y-44830952D01*
X81372381Y-44735714D01*
X81372381Y-45592857D02*
X80372381Y-45592857D01*
X80372381Y-45973810D01*
X80420000Y-46069048D01*
X80467619Y-46116667D01*
X80562857Y-46164286D01*
X80705714Y-46164286D01*
X80800952Y-46116667D01*
X80848571Y-46069048D01*
X80896190Y-45973810D01*
X80896190Y-45592857D01*
X81372381Y-47116667D02*
X81372381Y-46545238D01*
X81372381Y-46830952D02*
X80372381Y-46830952D01*
X80515238Y-46735714D01*
X80610476Y-46640476D01*
X80658095Y-46545238D01*
X103627381Y-33858334D02*
X103151190Y-33525000D01*
X103627381Y-33286905D02*
X102627381Y-33286905D01*
X102627381Y-33667858D01*
X102675000Y-33763096D01*
X102722619Y-33810715D01*
X102817857Y-33858334D01*
X102960714Y-33858334D01*
X103055952Y-33810715D01*
X103103571Y-33763096D01*
X103151190Y-33667858D01*
X103151190Y-33286905D01*
X102627381Y-34191667D02*
X102627381Y-34858334D01*
X103627381Y-34429762D01*
X105002381Y-33241667D02*
X105002381Y-32670238D01*
X105002381Y-32955952D02*
X104002381Y-32955952D01*
X104145238Y-32860714D01*
X104240476Y-32765476D01*
X104288095Y-32670238D01*
X104907143Y-33670238D02*
X104954762Y-33717857D01*
X105002381Y-33670238D01*
X104954762Y-33622619D01*
X104907143Y-33670238D01*
X105002381Y-33670238D01*
X104002381Y-34622619D02*
X104002381Y-34146428D01*
X104478571Y-34098809D01*
X104430952Y-34146428D01*
X104383333Y-34241666D01*
X104383333Y-34479762D01*
X104430952Y-34575000D01*
X104478571Y-34622619D01*
X104573810Y-34670238D01*
X104811905Y-34670238D01*
X104907143Y-34622619D01*
X104954762Y-34575000D01*
X105002381Y-34479762D01*
X105002381Y-34241666D01*
X104954762Y-34146428D01*
X104907143Y-34098809D01*
X105002381Y-35098809D02*
X104002381Y-35098809D01*
X104621429Y-35194047D02*
X105002381Y-35479762D01*
X104335714Y-35479762D02*
X104716667Y-35098809D01*
X63516666Y-24352381D02*
X63850000Y-23876190D01*
X64088095Y-24352381D02*
X64088095Y-23352381D01*
X63707142Y-23352381D01*
X63611904Y-23400000D01*
X63564285Y-23447619D01*
X63516666Y-23542857D01*
X63516666Y-23685714D01*
X63564285Y-23780952D01*
X63611904Y-23828571D01*
X63707142Y-23876190D01*
X64088095Y-23876190D01*
X63040476Y-24352381D02*
X62850000Y-24352381D01*
X62754761Y-24304762D01*
X62707142Y-24257143D01*
X62611904Y-24114286D01*
X62564285Y-23923810D01*
X62564285Y-23542857D01*
X62611904Y-23447619D01*
X62659523Y-23400000D01*
X62754761Y-23352381D01*
X62945238Y-23352381D01*
X63040476Y-23400000D01*
X63088095Y-23447619D01*
X63135714Y-23542857D01*
X63135714Y-23780952D01*
X63088095Y-23876190D01*
X63040476Y-23923810D01*
X62945238Y-23971429D01*
X62754761Y-23971429D01*
X62659523Y-23923810D01*
X62611904Y-23876190D01*
X62564285Y-23780952D01*
X68992857Y-24352381D02*
X69326191Y-23876190D01*
X69564286Y-24352381D02*
X69564286Y-23352381D01*
X69183333Y-23352381D01*
X69088095Y-23400000D01*
X69040476Y-23447619D01*
X68992857Y-23542857D01*
X68992857Y-23685714D01*
X69040476Y-23780952D01*
X69088095Y-23828571D01*
X69183333Y-23876190D01*
X69564286Y-23876190D01*
X68040476Y-24352381D02*
X68611905Y-24352381D01*
X68326191Y-24352381D02*
X68326191Y-23352381D01*
X68421429Y-23495238D01*
X68516667Y-23590476D01*
X68611905Y-23638095D01*
X67421429Y-23352381D02*
X67326190Y-23352381D01*
X67230952Y-23400000D01*
X67183333Y-23447619D01*
X67135714Y-23542857D01*
X67088095Y-23733333D01*
X67088095Y-23971429D01*
X67135714Y-24161905D01*
X67183333Y-24257143D01*
X67230952Y-24304762D01*
X67326190Y-24352381D01*
X67421429Y-24352381D01*
X67516667Y-24304762D01*
X67564286Y-24257143D01*
X67611905Y-24161905D01*
X67659524Y-23971429D01*
X67659524Y-23733333D01*
X67611905Y-23542857D01*
X67564286Y-23447619D01*
X67516667Y-23400000D01*
X67421429Y-23352381D01*
X73792857Y-24352381D02*
X74126191Y-23876190D01*
X74364286Y-24352381D02*
X74364286Y-23352381D01*
X73983333Y-23352381D01*
X73888095Y-23400000D01*
X73840476Y-23447619D01*
X73792857Y-23542857D01*
X73792857Y-23685714D01*
X73840476Y-23780952D01*
X73888095Y-23828571D01*
X73983333Y-23876190D01*
X74364286Y-23876190D01*
X72840476Y-24352381D02*
X73411905Y-24352381D01*
X73126191Y-24352381D02*
X73126191Y-23352381D01*
X73221429Y-23495238D01*
X73316667Y-23590476D01*
X73411905Y-23638095D01*
X71888095Y-24352381D02*
X72459524Y-24352381D01*
X72173810Y-24352381D02*
X72173810Y-23352381D01*
X72269048Y-23495238D01*
X72364286Y-23590476D01*
X72459524Y-23638095D01*
X58992857Y-24352381D02*
X59326191Y-23876190D01*
X59564286Y-24352381D02*
X59564286Y-23352381D01*
X59183333Y-23352381D01*
X59088095Y-23400000D01*
X59040476Y-23447619D01*
X58992857Y-23542857D01*
X58992857Y-23685714D01*
X59040476Y-23780952D01*
X59088095Y-23828571D01*
X59183333Y-23876190D01*
X59564286Y-23876190D01*
X58040476Y-24352381D02*
X58611905Y-24352381D01*
X58326191Y-24352381D02*
X58326191Y-23352381D01*
X58421429Y-23495238D01*
X58516667Y-23590476D01*
X58611905Y-23638095D01*
X57659524Y-23447619D02*
X57611905Y-23400000D01*
X57516667Y-23352381D01*
X57278571Y-23352381D01*
X57183333Y-23400000D01*
X57135714Y-23447619D01*
X57088095Y-23542857D01*
X57088095Y-23638095D01*
X57135714Y-23780952D01*
X57707143Y-24352381D01*
X57088095Y-24352381D01*
X54192857Y-24352381D02*
X54526191Y-23876190D01*
X54764286Y-24352381D02*
X54764286Y-23352381D01*
X54383333Y-23352381D01*
X54288095Y-23400000D01*
X54240476Y-23447619D01*
X54192857Y-23542857D01*
X54192857Y-23685714D01*
X54240476Y-23780952D01*
X54288095Y-23828571D01*
X54383333Y-23876190D01*
X54764286Y-23876190D01*
X53240476Y-24352381D02*
X53811905Y-24352381D01*
X53526191Y-24352381D02*
X53526191Y-23352381D01*
X53621429Y-23495238D01*
X53716667Y-23590476D01*
X53811905Y-23638095D01*
X52383333Y-23685714D02*
X52383333Y-24352381D01*
X52621429Y-23304762D02*
X52859524Y-24019048D01*
X52240476Y-24019048D01*
X104052381Y-48835714D02*
X103052381Y-48835714D01*
X103052381Y-49073809D01*
X103100000Y-49216667D01*
X103195238Y-49311905D01*
X103290476Y-49359524D01*
X103480952Y-49407143D01*
X103623810Y-49407143D01*
X103814286Y-49359524D01*
X103909524Y-49311905D01*
X104004762Y-49216667D01*
X104052381Y-49073809D01*
X104052381Y-48835714D01*
X104052381Y-50359524D02*
X104052381Y-49788095D01*
X104052381Y-50073809D02*
X103052381Y-50073809D01*
X103195238Y-49978571D01*
X103290476Y-49883333D01*
X103338095Y-49788095D01*
X104052381Y-51311905D02*
X104052381Y-50740476D01*
X104052381Y-51026190D02*
X103052381Y-51026190D01*
X103195238Y-50930952D01*
X103290476Y-50835714D01*
X103338095Y-50740476D01*
M02*
