G04 #@! TF.FileFunction,Legend,Top*
%FSLAX46Y46*%
G04 Gerber Fmt 4.6, Leading zero omitted, Abs format (unit mm)*
G04 Created by KiCad (PCBNEW 4.0.6) date Fri Apr 28 14:46:48 2017*
%MOMM*%
%LPD*%
G01*
G04 APERTURE LIST*
%ADD10C,0.100000*%
%ADD11C,0.200000*%
%ADD12C,0.150000*%
%ADD13C,0.120000*%
G04 APERTURE END LIST*
D10*
D11*
X47952381Y-58488095D02*
X46952381Y-58488095D01*
X46952381Y-58107142D01*
X47000000Y-58011904D01*
X47047619Y-57964285D01*
X47142857Y-57916666D01*
X47285714Y-57916666D01*
X47380952Y-57964285D01*
X47428571Y-58011904D01*
X47476190Y-58107142D01*
X47476190Y-58488095D01*
X47952381Y-57488095D02*
X46952381Y-57488095D01*
X46952381Y-57107142D01*
X47000000Y-57011904D01*
X47047619Y-56964285D01*
X47142857Y-56916666D01*
X47285714Y-56916666D01*
X47380952Y-56964285D01*
X47428571Y-57011904D01*
X47476190Y-57107142D01*
X47476190Y-57488095D01*
X47904762Y-56535714D02*
X47952381Y-56392857D01*
X47952381Y-56154761D01*
X47904762Y-56059523D01*
X47857143Y-56011904D01*
X47761905Y-55964285D01*
X47666667Y-55964285D01*
X47571429Y-56011904D01*
X47523810Y-56059523D01*
X47476190Y-56154761D01*
X47428571Y-56345238D01*
X47380952Y-56440476D01*
X47333333Y-56488095D01*
X47238095Y-56535714D01*
X47142857Y-56535714D01*
X47047619Y-56488095D01*
X47000000Y-56440476D01*
X46952381Y-56345238D01*
X46952381Y-56107142D01*
X47000000Y-55964285D01*
X54857143Y-61404762D02*
X55000000Y-61452381D01*
X55238096Y-61452381D01*
X55333334Y-61404762D01*
X55380953Y-61357143D01*
X55428572Y-61261905D01*
X55428572Y-61166667D01*
X55380953Y-61071429D01*
X55333334Y-61023810D01*
X55238096Y-60976190D01*
X55047619Y-60928571D01*
X54952381Y-60880952D01*
X54904762Y-60833333D01*
X54857143Y-60738095D01*
X54857143Y-60642857D01*
X54904762Y-60547619D01*
X54952381Y-60500000D01*
X55047619Y-60452381D01*
X55285715Y-60452381D01*
X55428572Y-60500000D01*
X55857143Y-61452381D02*
X55857143Y-60785714D01*
X55857143Y-60452381D02*
X55809524Y-60500000D01*
X55857143Y-60547619D01*
X55904762Y-60500000D01*
X55857143Y-60452381D01*
X55857143Y-60547619D01*
X56761905Y-60785714D02*
X56761905Y-61595238D01*
X56714286Y-61690476D01*
X56666667Y-61738095D01*
X56571428Y-61785714D01*
X56428571Y-61785714D01*
X56333333Y-61738095D01*
X56761905Y-61404762D02*
X56666667Y-61452381D01*
X56476190Y-61452381D01*
X56380952Y-61404762D01*
X56333333Y-61357143D01*
X56285714Y-61261905D01*
X56285714Y-60976190D01*
X56333333Y-60880952D01*
X56380952Y-60833333D01*
X56476190Y-60785714D01*
X56666667Y-60785714D01*
X56761905Y-60833333D01*
X57238095Y-60785714D02*
X57238095Y-61452381D01*
X57238095Y-60880952D02*
X57285714Y-60833333D01*
X57380952Y-60785714D01*
X57523810Y-60785714D01*
X57619048Y-60833333D01*
X57666667Y-60928571D01*
X57666667Y-61452381D01*
X58571429Y-61452381D02*
X58571429Y-60928571D01*
X58523810Y-60833333D01*
X58428572Y-60785714D01*
X58238095Y-60785714D01*
X58142857Y-60833333D01*
X58571429Y-61404762D02*
X58476191Y-61452381D01*
X58238095Y-61452381D01*
X58142857Y-61404762D01*
X58095238Y-61309524D01*
X58095238Y-61214286D01*
X58142857Y-61119048D01*
X58238095Y-61071429D01*
X58476191Y-61071429D01*
X58571429Y-61023810D01*
X59190476Y-61452381D02*
X59095238Y-61404762D01*
X59047619Y-61309524D01*
X59047619Y-60452381D01*
D12*
X51225000Y-28400000D02*
X51225000Y-29050000D01*
X65475000Y-28400000D02*
X65475000Y-29160000D01*
X65475000Y-42650000D02*
X65475000Y-41890000D01*
X51225000Y-42650000D02*
X51225000Y-41890000D01*
X51225000Y-28400000D02*
X51985000Y-28400000D01*
X51225000Y-42650000D02*
X51985000Y-42650000D01*
X65475000Y-42650000D02*
X64715000Y-42650000D01*
X65475000Y-28400000D02*
X64715000Y-28400000D01*
X51225000Y-29050000D02*
X49700000Y-29050000D01*
D13*
X95036000Y-59750000D02*
G75*
G03X95036000Y-59750000I-2286000J0D01*
G01*
X45036000Y-59750000D02*
G75*
G03X45036000Y-59750000I-2286000J0D01*
G01*
X95036000Y-24750000D02*
G75*
G03X95036000Y-24750000I-2286000J0D01*
G01*
X83150000Y-34950000D02*
G75*
G03X83150000Y-34950000I-6100000J0D01*
G01*
X99600000Y-37000000D02*
X100600000Y-37000000D01*
X100600000Y-35300000D02*
X99600000Y-35300000D01*
X94400000Y-35550000D02*
X94400000Y-30800000D01*
X97700000Y-35550000D02*
X97700000Y-30800000D01*
X94400000Y-35550000D02*
X97700000Y-35550000D01*
X89050000Y-41200000D02*
X88050000Y-41200000D01*
X88050000Y-42900000D02*
X89050000Y-42900000D01*
X73450000Y-47000000D02*
X72450000Y-47000000D01*
X72450000Y-48700000D02*
X73450000Y-48700000D01*
X61725000Y-51450000D02*
X61725000Y-50450000D01*
X60025000Y-50450000D02*
X60025000Y-51450000D01*
X65800000Y-54525000D02*
X70550000Y-54525000D01*
X65800000Y-57825000D02*
X70550000Y-57825000D01*
X65800000Y-54525000D02*
X65800000Y-57825000D01*
X85450000Y-37100000D02*
X90200000Y-37100000D01*
X85450000Y-40400000D02*
X90200000Y-40400000D01*
X85450000Y-37100000D02*
X85450000Y-40400000D01*
X83850000Y-55350000D02*
X82150000Y-55350000D01*
X82150000Y-55350000D02*
X82150000Y-57900000D01*
X83850000Y-55350000D02*
X83850000Y-57900000D01*
X55450000Y-55350000D02*
X53750000Y-55350000D01*
X53750000Y-55350000D02*
X53750000Y-57900000D01*
X55450000Y-55350000D02*
X55450000Y-57900000D01*
X72625000Y-53150000D02*
X72625000Y-54850000D01*
X72625000Y-54850000D02*
X75175000Y-54850000D01*
X72625000Y-53150000D02*
X75175000Y-53150000D01*
X100800000Y-30790000D02*
X99000000Y-30790000D01*
X99000000Y-34010000D02*
X101450000Y-34010000D01*
X65075000Y-54850000D02*
X65075000Y-53150000D01*
X65075000Y-53150000D02*
X62525000Y-53150000D01*
X65075000Y-54850000D02*
X62525000Y-54850000D01*
X60150000Y-24350000D02*
X60150000Y-22950000D01*
X60150000Y-22950000D02*
X57350000Y-22950000D01*
X60150000Y-24350000D02*
X57350000Y-24350000D01*
X65050000Y-24350000D02*
X65050000Y-22950000D01*
X65050000Y-22950000D02*
X62250000Y-22950000D01*
X65050000Y-24350000D02*
X62250000Y-24350000D01*
X69950000Y-24350000D02*
X69950000Y-22950000D01*
X69950000Y-22950000D02*
X67150000Y-22950000D01*
X69950000Y-24350000D02*
X67150000Y-24350000D01*
X74850000Y-24350000D02*
X74850000Y-22950000D01*
X74850000Y-22950000D02*
X72050000Y-22950000D01*
X74850000Y-24350000D02*
X72050000Y-24350000D01*
X55250000Y-24350000D02*
X55250000Y-22950000D01*
X55250000Y-22950000D02*
X52450000Y-22950000D01*
X55250000Y-24350000D02*
X52450000Y-24350000D01*
X22530000Y-29830000D02*
X22530000Y-45070000D01*
X40560000Y-45070000D02*
X31570000Y-45060000D01*
X40560000Y-45070000D02*
X40560000Y-29830000D01*
X40560000Y-29830000D02*
X31560000Y-29830000D01*
X29230000Y-45060000D02*
X22530000Y-45070000D01*
X29240000Y-29830000D02*
X22530000Y-29830000D01*
X80420000Y-26380000D02*
X88100000Y-26380000D01*
X88100000Y-26380000D02*
X88100000Y-23720000D01*
X88100000Y-23720000D02*
X80420000Y-23720000D01*
X80420000Y-23720000D02*
X80420000Y-26380000D01*
X79150000Y-26380000D02*
X77820000Y-26380000D01*
X77820000Y-26380000D02*
X77820000Y-25050000D01*
X81680000Y-45400000D02*
X81680000Y-46600000D01*
X79920000Y-46600000D02*
X79920000Y-45400000D01*
X72770000Y-57550000D02*
X72770000Y-56350000D01*
X74530000Y-56350000D02*
X74530000Y-57550000D01*
X62970000Y-57550000D02*
X62970000Y-56350000D01*
X64730000Y-56350000D02*
X64730000Y-57550000D01*
X85170000Y-57350000D02*
X85170000Y-56150000D01*
X86930000Y-56150000D02*
X86930000Y-57350000D01*
X50120000Y-57375000D02*
X50120000Y-56175000D01*
X51880000Y-56175000D02*
X51880000Y-57375000D01*
X77470000Y-52850000D02*
X77470000Y-51650000D01*
X79230000Y-51650000D02*
X79230000Y-52850000D01*
X58305000Y-51650000D02*
X58305000Y-52850000D01*
X56545000Y-52850000D02*
X56545000Y-51650000D01*
X68820000Y-51475000D02*
X68820000Y-50275000D01*
X70580000Y-50275000D02*
X70580000Y-51475000D01*
X47050000Y-44930000D02*
X45850000Y-44930000D01*
X45850000Y-43170000D02*
X47050000Y-43170000D01*
X70230000Y-35350000D02*
X70230000Y-36550000D01*
X68470000Y-36550000D02*
X68470000Y-35350000D01*
X79150000Y-55340000D02*
X77350000Y-55340000D01*
X77350000Y-58560000D02*
X79800000Y-58560000D01*
X59850000Y-55290000D02*
X58050000Y-55290000D01*
X58050000Y-58510000D02*
X60500000Y-58510000D01*
X86640000Y-29540000D02*
X86640000Y-30800000D01*
X86640000Y-36360000D02*
X86640000Y-35100000D01*
X90400000Y-29540000D02*
X86640000Y-29540000D01*
X92650000Y-36360000D02*
X86640000Y-36360000D01*
X82800000Y-50640000D02*
X81000000Y-50640000D01*
X81000000Y-53860000D02*
X83450000Y-53860000D01*
X53750000Y-50640000D02*
X51950000Y-50640000D01*
X51950000Y-53860000D02*
X54400000Y-53860000D01*
X74000000Y-49140000D02*
X72200000Y-49140000D01*
X72200000Y-52360000D02*
X74650000Y-52360000D01*
X65400000Y-49140000D02*
X63600000Y-49140000D01*
X63600000Y-52360000D02*
X66050000Y-52360000D01*
X48875000Y-32090000D02*
X48875000Y-38340000D01*
X43825000Y-32090000D02*
X43825000Y-38340000D01*
X43825000Y-32090000D02*
G75*
G02X48875000Y-32090000I2525000J0D01*
G01*
X43825000Y-38340000D02*
G75*
G03X48875000Y-38340000I2525000J0D01*
G01*
X45036000Y-24750000D02*
G75*
G03X45036000Y-24750000I-2286000J0D01*
G01*
X87800000Y-52200000D02*
X88800000Y-52200000D01*
X88800000Y-50500000D02*
X87800000Y-50500000D01*
X87800000Y-50250000D02*
X88800000Y-50250000D01*
X88800000Y-48550000D02*
X87800000Y-48550000D01*
X87800000Y-48300000D02*
X88800000Y-48300000D01*
X88800000Y-46600000D02*
X87800000Y-46600000D01*
X92700000Y-46650000D02*
X91700000Y-46650000D01*
X91700000Y-48350000D02*
X92700000Y-48350000D01*
X92700000Y-48550000D02*
X91700000Y-48550000D01*
X91700000Y-50250000D02*
X92700000Y-50250000D01*
X92700000Y-50500000D02*
X91700000Y-50500000D01*
X91700000Y-52200000D02*
X92700000Y-52200000D01*
X112770000Y-55070000D02*
X112770000Y-39830000D01*
X94740000Y-39830000D02*
X103730000Y-39840000D01*
X94740000Y-39830000D02*
X94740000Y-55070000D01*
X94740000Y-55070000D02*
X103740000Y-55070000D01*
X106070000Y-39840000D02*
X112770000Y-39830000D01*
X106060000Y-55070000D02*
X112770000Y-55070000D01*
X108980000Y-38600000D02*
X108980000Y-29900000D01*
X102570000Y-38600000D02*
X102570000Y-29900000D01*
X102570000Y-29900000D02*
X108980000Y-29900000D01*
X107750000Y-29900000D02*
X107750000Y-38600000D01*
X108980000Y-38600000D02*
X102570000Y-38600000D01*
X87700000Y-52620000D02*
X88900000Y-52620000D01*
X88900000Y-54380000D02*
X87700000Y-54380000D01*
X91600000Y-52620000D02*
X92800000Y-52620000D01*
X92800000Y-54380000D02*
X91600000Y-54380000D01*
X31550000Y-47550000D02*
X33550000Y-47550000D01*
X31550000Y-54150000D02*
X33550000Y-54150000D01*
X35850000Y-49850000D02*
X35850000Y-51850000D01*
X29250000Y-49850000D02*
X29250000Y-51850000D01*
D12*
X37270000Y-53536000D02*
X37270000Y-48710000D01*
X37270000Y-48710000D02*
X47430000Y-48710000D01*
X47430000Y-48710000D02*
X47430000Y-53536000D01*
X47430000Y-53536000D02*
X37270000Y-53536000D01*
X47430000Y-51758000D02*
X46795000Y-51758000D01*
X46795000Y-51758000D02*
X46795000Y-50488000D01*
X46795000Y-50488000D02*
X47430000Y-50488000D01*
D13*
X51980000Y-59170000D02*
X46840000Y-59170000D01*
X46840000Y-59170000D02*
X46840000Y-61830000D01*
X46840000Y-61830000D02*
X51980000Y-61830000D01*
X51980000Y-61830000D02*
X51980000Y-59170000D01*
X53250000Y-59170000D02*
X54580000Y-59170000D01*
X54580000Y-59170000D02*
X54580000Y-60500000D01*
X95036000Y-103000000D02*
G75*
G03X95036000Y-103000000I-2286000J0D01*
G01*
X95036000Y-68000000D02*
G75*
G03X95036000Y-68000000I-2286000J0D01*
G01*
X45036000Y-103000000D02*
G75*
G03X45036000Y-103000000I-2286000J0D01*
G01*
X49060000Y-91560000D02*
X41440000Y-91560000D01*
X49060000Y-86440000D02*
X41440000Y-86440000D01*
X49060000Y-91560000D02*
X49060000Y-90195000D01*
X49060000Y-87805000D02*
X49060000Y-86440000D01*
X41440000Y-91560000D02*
X41440000Y-90195000D01*
X41440000Y-87805000D02*
X41440000Y-86440000D01*
X49060000Y-84560000D02*
X41440000Y-84560000D01*
X49060000Y-79440000D02*
X41440000Y-79440000D01*
X49060000Y-84560000D02*
X49060000Y-83195000D01*
X49060000Y-80805000D02*
X49060000Y-79440000D01*
X41440000Y-84560000D02*
X41440000Y-83195000D01*
X41440000Y-80805000D02*
X41440000Y-79440000D01*
X56500000Y-71350000D02*
X61250000Y-71350000D01*
X56500000Y-74650000D02*
X61250000Y-74650000D01*
X56500000Y-71350000D02*
X56500000Y-74650000D01*
X84650000Y-75600000D02*
X84650000Y-84400000D01*
X79850000Y-75600000D02*
X79850000Y-84400000D01*
X84650000Y-75600000D02*
X79850000Y-75600000D01*
X78350000Y-81500000D02*
X78350000Y-80500000D01*
X76650000Y-80500000D02*
X76650000Y-81500000D01*
X89600000Y-82000000D02*
X89600000Y-81000000D01*
X87900000Y-81000000D02*
X87900000Y-82000000D01*
X93850000Y-82000000D02*
X93850000Y-81000000D01*
X92150000Y-81000000D02*
X92150000Y-82000000D01*
X63850000Y-79250000D02*
X63850000Y-78250000D01*
X62150000Y-78250000D02*
X62150000Y-79250000D01*
X54400000Y-94500000D02*
X56100000Y-94500000D01*
X56100000Y-94500000D02*
X56100000Y-91950000D01*
X54400000Y-94500000D02*
X54400000Y-91950000D01*
X54400000Y-90250000D02*
X56100000Y-90250000D01*
X56100000Y-90250000D02*
X56100000Y-87700000D01*
X54400000Y-90250000D02*
X54400000Y-87700000D01*
X54400000Y-82500000D02*
X56100000Y-82500000D01*
X56100000Y-82500000D02*
X56100000Y-79950000D01*
X54400000Y-82500000D02*
X54400000Y-79950000D01*
X54400000Y-78250000D02*
X56100000Y-78250000D01*
X56100000Y-78250000D02*
X56100000Y-75700000D01*
X54400000Y-78250000D02*
X54400000Y-75700000D01*
X86200000Y-86050000D02*
X86200000Y-87450000D01*
X86200000Y-87450000D02*
X89000000Y-87450000D01*
X86200000Y-86050000D02*
X89000000Y-86050000D01*
X32500000Y-88200000D02*
X34500000Y-88200000D01*
X32500000Y-94800000D02*
X34500000Y-94800000D01*
X36800000Y-90500000D02*
X36800000Y-92500000D01*
X30200000Y-90500000D02*
X30200000Y-92500000D01*
X32500000Y-76200000D02*
X34500000Y-76200000D01*
X32500000Y-82800000D02*
X34500000Y-82800000D01*
X36800000Y-78500000D02*
X36800000Y-80500000D01*
X30200000Y-78500000D02*
X30200000Y-80500000D01*
X84980000Y-66670000D02*
X79840000Y-66670000D01*
X79840000Y-66670000D02*
X79840000Y-69330000D01*
X79840000Y-69330000D02*
X84980000Y-69330000D01*
X84980000Y-69330000D02*
X84980000Y-66670000D01*
X86250000Y-66670000D02*
X87580000Y-66670000D01*
X87580000Y-66670000D02*
X87580000Y-68000000D01*
X84980000Y-101670000D02*
X79840000Y-101670000D01*
X79840000Y-101670000D02*
X79840000Y-104330000D01*
X79840000Y-104330000D02*
X84980000Y-104330000D01*
X84980000Y-104330000D02*
X84980000Y-101670000D01*
X86250000Y-101670000D02*
X87580000Y-101670000D01*
X87580000Y-101670000D02*
X87580000Y-103000000D01*
X112970000Y-88170000D02*
X112970000Y-72930000D01*
X94940000Y-72930000D02*
X103930000Y-72940000D01*
X94940000Y-72930000D02*
X94940000Y-88170000D01*
X94940000Y-88170000D02*
X103940000Y-88170000D01*
X106270000Y-72940000D02*
X112970000Y-72930000D01*
X106260000Y-88170000D02*
X112970000Y-88170000D01*
X58770000Y-69330000D02*
X63910000Y-69330000D01*
X63910000Y-69330000D02*
X63910000Y-66670000D01*
X63910000Y-66670000D02*
X58770000Y-66670000D01*
X58770000Y-66670000D02*
X58770000Y-69330000D01*
X57500000Y-69330000D02*
X56170000Y-69330000D01*
X56170000Y-69330000D02*
X56170000Y-68000000D01*
X92600000Y-78130000D02*
X91400000Y-78130000D01*
X91400000Y-76370000D02*
X92600000Y-76370000D01*
X40690000Y-92940000D02*
X49810000Y-92940000D01*
X40690000Y-98060000D02*
X49810000Y-98060000D01*
X40690000Y-92940000D02*
X40690000Y-98060000D01*
X49810000Y-92940000D02*
X49810000Y-98060000D01*
X40690000Y-72940000D02*
X49810000Y-72940000D01*
X40690000Y-78060000D02*
X49810000Y-78060000D01*
X40690000Y-72940000D02*
X40690000Y-78060000D01*
X49810000Y-72940000D02*
X49810000Y-78060000D01*
X53380000Y-92400000D02*
X53380000Y-93600000D01*
X51620000Y-93600000D02*
X51620000Y-92400000D01*
X53380000Y-88150000D02*
X53380000Y-89350000D01*
X51620000Y-89350000D02*
X51620000Y-88150000D01*
X53380000Y-80400000D02*
X53380000Y-81600000D01*
X51620000Y-81600000D02*
X51620000Y-80400000D01*
X53380000Y-76150000D02*
X53380000Y-77350000D01*
X51620000Y-77350000D02*
X51620000Y-76150000D01*
X67350000Y-68880000D02*
X66150000Y-68880000D01*
X66150000Y-67120000D02*
X67350000Y-67120000D01*
X64620000Y-79350000D02*
X64620000Y-78150000D01*
X66380000Y-78150000D02*
X66380000Y-79350000D01*
X52900000Y-67120000D02*
X54100000Y-67120000D01*
X54100000Y-68880000D02*
X52900000Y-68880000D01*
X87150000Y-76370000D02*
X88350000Y-76370000D01*
X88350000Y-78130000D02*
X87150000Y-78130000D01*
X91400000Y-85870000D02*
X92600000Y-85870000D01*
X92600000Y-87630000D02*
X91400000Y-87630000D01*
X57390000Y-90100000D02*
X57390000Y-91900000D01*
X60610000Y-91900000D02*
X60610000Y-89450000D01*
X57890000Y-77850000D02*
X57890000Y-79650000D01*
X61110000Y-79650000D02*
X61110000Y-77200000D01*
X45036000Y-68000000D02*
G75*
G03X45036000Y-68000000I-2286000J0D01*
G01*
D12*
X49888095Y-27102381D02*
X49888095Y-27911905D01*
X49935714Y-28007143D01*
X49983333Y-28054762D01*
X50078571Y-28102381D01*
X50269048Y-28102381D01*
X50364286Y-28054762D01*
X50411905Y-28007143D01*
X50459524Y-27911905D01*
X50459524Y-27102381D01*
X51078571Y-27530952D02*
X50983333Y-27483333D01*
X50935714Y-27435714D01*
X50888095Y-27340476D01*
X50888095Y-27292857D01*
X50935714Y-27197619D01*
X50983333Y-27150000D01*
X51078571Y-27102381D01*
X51269048Y-27102381D01*
X51364286Y-27150000D01*
X51411905Y-27197619D01*
X51459524Y-27292857D01*
X51459524Y-27340476D01*
X51411905Y-27435714D01*
X51364286Y-27483333D01*
X51269048Y-27530952D01*
X51078571Y-27530952D01*
X50983333Y-27578571D01*
X50935714Y-27626190D01*
X50888095Y-27721429D01*
X50888095Y-27911905D01*
X50935714Y-28007143D01*
X50983333Y-28054762D01*
X51078571Y-28102381D01*
X51269048Y-28102381D01*
X51364286Y-28054762D01*
X51411905Y-28007143D01*
X51459524Y-27911905D01*
X51459524Y-27721429D01*
X51411905Y-27626190D01*
X51364286Y-27578571D01*
X51269048Y-27530952D01*
X76169048Y-27678571D02*
X76311905Y-27726190D01*
X76359524Y-27773810D01*
X76407143Y-27869048D01*
X76407143Y-28011905D01*
X76359524Y-28107143D01*
X76311905Y-28154762D01*
X76216667Y-28202381D01*
X75835714Y-28202381D01*
X75835714Y-27202381D01*
X76169048Y-27202381D01*
X76264286Y-27250000D01*
X76311905Y-27297619D01*
X76359524Y-27392857D01*
X76359524Y-27488095D01*
X76311905Y-27583333D01*
X76264286Y-27630952D01*
X76169048Y-27678571D01*
X75835714Y-27678571D01*
X76740476Y-27202381D02*
X77407143Y-27202381D01*
X76740476Y-28202381D01*
X77407143Y-28202381D01*
X78311905Y-28202381D02*
X77740476Y-28202381D01*
X78026190Y-28202381D02*
X78026190Y-27202381D01*
X77930952Y-27345238D01*
X77835714Y-27440476D01*
X77740476Y-27488095D01*
X72859048Y-32481429D02*
X73620953Y-32481429D01*
X73240001Y-32862381D02*
X73240001Y-32100476D01*
X99933334Y-38157143D02*
X99885715Y-38204762D01*
X99742858Y-38252381D01*
X99647620Y-38252381D01*
X99504762Y-38204762D01*
X99409524Y-38109524D01*
X99361905Y-38014286D01*
X99314286Y-37823810D01*
X99314286Y-37680952D01*
X99361905Y-37490476D01*
X99409524Y-37395238D01*
X99504762Y-37300000D01*
X99647620Y-37252381D01*
X99742858Y-37252381D01*
X99885715Y-37300000D01*
X99933334Y-37347619D01*
X100314286Y-37347619D02*
X100361905Y-37300000D01*
X100457143Y-37252381D01*
X100695239Y-37252381D01*
X100790477Y-37300000D01*
X100838096Y-37347619D01*
X100885715Y-37442857D01*
X100885715Y-37538095D01*
X100838096Y-37680952D01*
X100266667Y-38252381D01*
X100885715Y-38252381D01*
X95207143Y-28616666D02*
X95254762Y-28664285D01*
X95302381Y-28807142D01*
X95302381Y-28902380D01*
X95254762Y-29045238D01*
X95159524Y-29140476D01*
X95064286Y-29188095D01*
X94873810Y-29235714D01*
X94730952Y-29235714D01*
X94540476Y-29188095D01*
X94445238Y-29140476D01*
X94350000Y-29045238D01*
X94302381Y-28902380D01*
X94302381Y-28807142D01*
X94350000Y-28664285D01*
X94397619Y-28616666D01*
X94302381Y-28283333D02*
X94302381Y-27664285D01*
X94683333Y-27997619D01*
X94683333Y-27854761D01*
X94730952Y-27759523D01*
X94778571Y-27711904D01*
X94873810Y-27664285D01*
X95111905Y-27664285D01*
X95207143Y-27711904D01*
X95254762Y-27759523D01*
X95302381Y-27854761D01*
X95302381Y-28140476D01*
X95254762Y-28235714D01*
X95207143Y-28283333D01*
X85183334Y-42407143D02*
X85135715Y-42454762D01*
X84992858Y-42502381D01*
X84897620Y-42502381D01*
X84754762Y-42454762D01*
X84659524Y-42359524D01*
X84611905Y-42264286D01*
X84564286Y-42073810D01*
X84564286Y-41930952D01*
X84611905Y-41740476D01*
X84659524Y-41645238D01*
X84754762Y-41550000D01*
X84897620Y-41502381D01*
X84992858Y-41502381D01*
X85135715Y-41550000D01*
X85183334Y-41597619D01*
X85516667Y-41502381D02*
X86183334Y-41502381D01*
X85754762Y-42502381D01*
X72307143Y-46707143D02*
X72259524Y-46754762D01*
X72116667Y-46802381D01*
X72021429Y-46802381D01*
X71878571Y-46754762D01*
X71783333Y-46659524D01*
X71735714Y-46564286D01*
X71688095Y-46373810D01*
X71688095Y-46230952D01*
X71735714Y-46040476D01*
X71783333Y-45945238D01*
X71878571Y-45850000D01*
X72021429Y-45802381D01*
X72116667Y-45802381D01*
X72259524Y-45850000D01*
X72307143Y-45897619D01*
X73259524Y-46802381D02*
X72688095Y-46802381D01*
X72973809Y-46802381D02*
X72973809Y-45802381D01*
X72878571Y-45945238D01*
X72783333Y-46040476D01*
X72688095Y-46088095D01*
X74211905Y-46802381D02*
X73640476Y-46802381D01*
X73926190Y-46802381D02*
X73926190Y-45802381D01*
X73830952Y-45945238D01*
X73735714Y-46040476D01*
X73640476Y-46088095D01*
X61207143Y-48392857D02*
X61254762Y-48440476D01*
X61302381Y-48583333D01*
X61302381Y-48678571D01*
X61254762Y-48821429D01*
X61159524Y-48916667D01*
X61064286Y-48964286D01*
X60873810Y-49011905D01*
X60730952Y-49011905D01*
X60540476Y-48964286D01*
X60445238Y-48916667D01*
X60350000Y-48821429D01*
X60302381Y-48678571D01*
X60302381Y-48583333D01*
X60350000Y-48440476D01*
X60397619Y-48392857D01*
X61302381Y-47440476D02*
X61302381Y-48011905D01*
X61302381Y-47726191D02*
X60302381Y-47726191D01*
X60445238Y-47821429D01*
X60540476Y-47916667D01*
X60588095Y-48011905D01*
X60397619Y-47059524D02*
X60350000Y-47011905D01*
X60302381Y-46916667D01*
X60302381Y-46678571D01*
X60350000Y-46583333D01*
X60397619Y-46535714D01*
X60492857Y-46488095D01*
X60588095Y-46488095D01*
X60730952Y-46535714D01*
X61302381Y-47107143D01*
X61302381Y-46488095D01*
X68107143Y-54007143D02*
X68059524Y-54054762D01*
X67916667Y-54102381D01*
X67821429Y-54102381D01*
X67678571Y-54054762D01*
X67583333Y-53959524D01*
X67535714Y-53864286D01*
X67488095Y-53673810D01*
X67488095Y-53530952D01*
X67535714Y-53340476D01*
X67583333Y-53245238D01*
X67678571Y-53150000D01*
X67821429Y-53102381D01*
X67916667Y-53102381D01*
X68059524Y-53150000D01*
X68107143Y-53197619D01*
X69059524Y-54102381D02*
X68488095Y-54102381D01*
X68773809Y-54102381D02*
X68773809Y-53102381D01*
X68678571Y-53245238D01*
X68583333Y-53340476D01*
X68488095Y-53388095D01*
X69630952Y-53530952D02*
X69535714Y-53483333D01*
X69488095Y-53435714D01*
X69440476Y-53340476D01*
X69440476Y-53292857D01*
X69488095Y-53197619D01*
X69535714Y-53150000D01*
X69630952Y-53102381D01*
X69821429Y-53102381D01*
X69916667Y-53150000D01*
X69964286Y-53197619D01*
X70011905Y-53292857D01*
X70011905Y-53340476D01*
X69964286Y-53435714D01*
X69916667Y-53483333D01*
X69821429Y-53530952D01*
X69630952Y-53530952D01*
X69535714Y-53578571D01*
X69488095Y-53626190D01*
X69440476Y-53721429D01*
X69440476Y-53911905D01*
X69488095Y-54007143D01*
X69535714Y-54054762D01*
X69630952Y-54102381D01*
X69821429Y-54102381D01*
X69916667Y-54054762D01*
X69964286Y-54007143D01*
X70011905Y-53911905D01*
X70011905Y-53721429D01*
X69964286Y-53626190D01*
X69916667Y-53578571D01*
X69821429Y-53530952D01*
X82957143Y-39107143D02*
X82909524Y-39154762D01*
X82766667Y-39202381D01*
X82671429Y-39202381D01*
X82528571Y-39154762D01*
X82433333Y-39059524D01*
X82385714Y-38964286D01*
X82338095Y-38773810D01*
X82338095Y-38630952D01*
X82385714Y-38440476D01*
X82433333Y-38345238D01*
X82528571Y-38250000D01*
X82671429Y-38202381D01*
X82766667Y-38202381D01*
X82909524Y-38250000D01*
X82957143Y-38297619D01*
X83338095Y-38297619D02*
X83385714Y-38250000D01*
X83480952Y-38202381D01*
X83719048Y-38202381D01*
X83814286Y-38250000D01*
X83861905Y-38297619D01*
X83909524Y-38392857D01*
X83909524Y-38488095D01*
X83861905Y-38630952D01*
X83290476Y-39202381D01*
X83909524Y-39202381D01*
X84528571Y-38202381D02*
X84623810Y-38202381D01*
X84719048Y-38250000D01*
X84766667Y-38297619D01*
X84814286Y-38392857D01*
X84861905Y-38583333D01*
X84861905Y-38821429D01*
X84814286Y-39011905D01*
X84766667Y-39107143D01*
X84719048Y-39154762D01*
X84623810Y-39202381D01*
X84528571Y-39202381D01*
X84433333Y-39154762D01*
X84385714Y-39107143D01*
X84338095Y-39011905D01*
X84290476Y-38821429D01*
X84290476Y-38583333D01*
X84338095Y-38392857D01*
X84385714Y-38297619D01*
X84433333Y-38250000D01*
X84528571Y-38202381D01*
X83402381Y-60088095D02*
X82402381Y-60088095D01*
X82402381Y-59850000D01*
X82450000Y-59707142D01*
X82545238Y-59611904D01*
X82640476Y-59564285D01*
X82830952Y-59516666D01*
X82973810Y-59516666D01*
X83164286Y-59564285D01*
X83259524Y-59611904D01*
X83354762Y-59707142D01*
X83402381Y-59850000D01*
X83402381Y-60088095D01*
X83402381Y-58564285D02*
X83402381Y-59135714D01*
X83402381Y-58850000D02*
X82402381Y-58850000D01*
X82545238Y-58945238D01*
X82640476Y-59040476D01*
X82688095Y-59135714D01*
X53452381Y-57738095D02*
X52452381Y-57738095D01*
X52452381Y-57500000D01*
X52500000Y-57357142D01*
X52595238Y-57261904D01*
X52690476Y-57214285D01*
X52880952Y-57166666D01*
X53023810Y-57166666D01*
X53214286Y-57214285D01*
X53309524Y-57261904D01*
X53404762Y-57357142D01*
X53452381Y-57500000D01*
X53452381Y-57738095D01*
X52547619Y-56785714D02*
X52500000Y-56738095D01*
X52452381Y-56642857D01*
X52452381Y-56404761D01*
X52500000Y-56309523D01*
X52547619Y-56261904D01*
X52642857Y-56214285D01*
X52738095Y-56214285D01*
X52880952Y-56261904D01*
X53452381Y-56833333D01*
X53452381Y-56214285D01*
X75861905Y-54952381D02*
X75861905Y-53952381D01*
X76100000Y-53952381D01*
X76242858Y-54000000D01*
X76338096Y-54095238D01*
X76385715Y-54190476D01*
X76433334Y-54380952D01*
X76433334Y-54523810D01*
X76385715Y-54714286D01*
X76338096Y-54809524D01*
X76242858Y-54904762D01*
X76100000Y-54952381D01*
X75861905Y-54952381D01*
X76766667Y-53952381D02*
X77385715Y-53952381D01*
X77052381Y-54333333D01*
X77195239Y-54333333D01*
X77290477Y-54380952D01*
X77338096Y-54428571D01*
X77385715Y-54523810D01*
X77385715Y-54761905D01*
X77338096Y-54857143D01*
X77290477Y-54904762D01*
X77195239Y-54952381D01*
X76909524Y-54952381D01*
X76814286Y-54904762D01*
X76766667Y-54857143D01*
X99161905Y-30477381D02*
X99161905Y-29477381D01*
X99400000Y-29477381D01*
X99542858Y-29525000D01*
X99638096Y-29620238D01*
X99685715Y-29715476D01*
X99733334Y-29905952D01*
X99733334Y-30048810D01*
X99685715Y-30239286D01*
X99638096Y-30334524D01*
X99542858Y-30429762D01*
X99400000Y-30477381D01*
X99161905Y-30477381D01*
X100590477Y-29810714D02*
X100590477Y-30477381D01*
X100352381Y-29429762D02*
X100114286Y-30144048D01*
X100733334Y-30144048D01*
X60211905Y-54402381D02*
X60211905Y-53402381D01*
X60450000Y-53402381D01*
X60592858Y-53450000D01*
X60688096Y-53545238D01*
X60735715Y-53640476D01*
X60783334Y-53830952D01*
X60783334Y-53973810D01*
X60735715Y-54164286D01*
X60688096Y-54259524D01*
X60592858Y-54354762D01*
X60450000Y-54402381D01*
X60211905Y-54402381D01*
X61688096Y-53402381D02*
X61211905Y-53402381D01*
X61164286Y-53878571D01*
X61211905Y-53830952D01*
X61307143Y-53783333D01*
X61545239Y-53783333D01*
X61640477Y-53830952D01*
X61688096Y-53878571D01*
X61735715Y-53973810D01*
X61735715Y-54211905D01*
X61688096Y-54307143D01*
X61640477Y-54354762D01*
X61545239Y-54402381D01*
X61307143Y-54402381D01*
X61211905Y-54354762D01*
X61164286Y-54307143D01*
X57611905Y-25552381D02*
X57611905Y-24552381D01*
X57850000Y-24552381D01*
X57992858Y-24600000D01*
X58088096Y-24695238D01*
X58135715Y-24790476D01*
X58183334Y-24980952D01*
X58183334Y-25123810D01*
X58135715Y-25314286D01*
X58088096Y-25409524D01*
X57992858Y-25504762D01*
X57850000Y-25552381D01*
X57611905Y-25552381D01*
X59040477Y-24552381D02*
X58850000Y-24552381D01*
X58754762Y-24600000D01*
X58707143Y-24647619D01*
X58611905Y-24790476D01*
X58564286Y-24980952D01*
X58564286Y-25361905D01*
X58611905Y-25457143D01*
X58659524Y-25504762D01*
X58754762Y-25552381D01*
X58945239Y-25552381D01*
X59040477Y-25504762D01*
X59088096Y-25457143D01*
X59135715Y-25361905D01*
X59135715Y-25123810D01*
X59088096Y-25028571D01*
X59040477Y-24980952D01*
X58945239Y-24933333D01*
X58754762Y-24933333D01*
X58659524Y-24980952D01*
X58611905Y-25028571D01*
X58564286Y-25123810D01*
X62511905Y-25552381D02*
X62511905Y-24552381D01*
X62750000Y-24552381D01*
X62892858Y-24600000D01*
X62988096Y-24695238D01*
X63035715Y-24790476D01*
X63083334Y-24980952D01*
X63083334Y-25123810D01*
X63035715Y-25314286D01*
X62988096Y-25409524D01*
X62892858Y-25504762D01*
X62750000Y-25552381D01*
X62511905Y-25552381D01*
X63416667Y-24552381D02*
X64083334Y-24552381D01*
X63654762Y-25552381D01*
X67411905Y-25552381D02*
X67411905Y-24552381D01*
X67650000Y-24552381D01*
X67792858Y-24600000D01*
X67888096Y-24695238D01*
X67935715Y-24790476D01*
X67983334Y-24980952D01*
X67983334Y-25123810D01*
X67935715Y-25314286D01*
X67888096Y-25409524D01*
X67792858Y-25504762D01*
X67650000Y-25552381D01*
X67411905Y-25552381D01*
X68554762Y-24980952D02*
X68459524Y-24933333D01*
X68411905Y-24885714D01*
X68364286Y-24790476D01*
X68364286Y-24742857D01*
X68411905Y-24647619D01*
X68459524Y-24600000D01*
X68554762Y-24552381D01*
X68745239Y-24552381D01*
X68840477Y-24600000D01*
X68888096Y-24647619D01*
X68935715Y-24742857D01*
X68935715Y-24790476D01*
X68888096Y-24885714D01*
X68840477Y-24933333D01*
X68745239Y-24980952D01*
X68554762Y-24980952D01*
X68459524Y-25028571D01*
X68411905Y-25076190D01*
X68364286Y-25171429D01*
X68364286Y-25361905D01*
X68411905Y-25457143D01*
X68459524Y-25504762D01*
X68554762Y-25552381D01*
X68745239Y-25552381D01*
X68840477Y-25504762D01*
X68888096Y-25457143D01*
X68935715Y-25361905D01*
X68935715Y-25171429D01*
X68888096Y-25076190D01*
X68840477Y-25028571D01*
X68745239Y-24980952D01*
X72311905Y-25552381D02*
X72311905Y-24552381D01*
X72550000Y-24552381D01*
X72692858Y-24600000D01*
X72788096Y-24695238D01*
X72835715Y-24790476D01*
X72883334Y-24980952D01*
X72883334Y-25123810D01*
X72835715Y-25314286D01*
X72788096Y-25409524D01*
X72692858Y-25504762D01*
X72550000Y-25552381D01*
X72311905Y-25552381D01*
X73359524Y-25552381D02*
X73550000Y-25552381D01*
X73645239Y-25504762D01*
X73692858Y-25457143D01*
X73788096Y-25314286D01*
X73835715Y-25123810D01*
X73835715Y-24742857D01*
X73788096Y-24647619D01*
X73740477Y-24600000D01*
X73645239Y-24552381D01*
X73454762Y-24552381D01*
X73359524Y-24600000D01*
X73311905Y-24647619D01*
X73264286Y-24742857D01*
X73264286Y-24980952D01*
X73311905Y-25076190D01*
X73359524Y-25123810D01*
X73454762Y-25171429D01*
X73645239Y-25171429D01*
X73740477Y-25123810D01*
X73788096Y-25076190D01*
X73835715Y-24980952D01*
X52235714Y-25552381D02*
X52235714Y-24552381D01*
X52473809Y-24552381D01*
X52616667Y-24600000D01*
X52711905Y-24695238D01*
X52759524Y-24790476D01*
X52807143Y-24980952D01*
X52807143Y-25123810D01*
X52759524Y-25314286D01*
X52711905Y-25409524D01*
X52616667Y-25504762D01*
X52473809Y-25552381D01*
X52235714Y-25552381D01*
X53759524Y-25552381D02*
X53188095Y-25552381D01*
X53473809Y-25552381D02*
X53473809Y-24552381D01*
X53378571Y-24695238D01*
X53283333Y-24790476D01*
X53188095Y-24838095D01*
X54378571Y-24552381D02*
X54473810Y-24552381D01*
X54569048Y-24600000D01*
X54616667Y-24647619D01*
X54664286Y-24742857D01*
X54711905Y-24933333D01*
X54711905Y-25171429D01*
X54664286Y-25361905D01*
X54616667Y-25457143D01*
X54569048Y-25504762D01*
X54473810Y-25552381D01*
X54378571Y-25552381D01*
X54283333Y-25504762D01*
X54235714Y-25457143D01*
X54188095Y-25361905D01*
X54140476Y-25171429D01*
X54140476Y-24933333D01*
X54188095Y-24742857D01*
X54235714Y-24647619D01*
X54283333Y-24600000D01*
X54378571Y-24552381D01*
X40902381Y-30683333D02*
X41616667Y-30683333D01*
X41759524Y-30730953D01*
X41854762Y-30826191D01*
X41902381Y-30969048D01*
X41902381Y-31064286D01*
X41902381Y-29683333D02*
X41902381Y-30254762D01*
X41902381Y-29969048D02*
X40902381Y-29969048D01*
X41045238Y-30064286D01*
X41140476Y-30159524D01*
X41188095Y-30254762D01*
X76272381Y-25383333D02*
X76986667Y-25383333D01*
X77129524Y-25430953D01*
X77224762Y-25526191D01*
X77272381Y-25669048D01*
X77272381Y-25764286D01*
X76272381Y-24430952D02*
X76272381Y-24907143D01*
X76748571Y-24954762D01*
X76700952Y-24907143D01*
X76653333Y-24811905D01*
X76653333Y-24573809D01*
X76700952Y-24478571D01*
X76748571Y-24430952D01*
X76843810Y-24383333D01*
X77081905Y-24383333D01*
X77177143Y-24430952D01*
X77224762Y-24478571D01*
X77272381Y-24573809D01*
X77272381Y-24811905D01*
X77224762Y-24907143D01*
X77177143Y-24954762D01*
X81492857Y-27554762D02*
X81635714Y-27602381D01*
X81873810Y-27602381D01*
X81969048Y-27554762D01*
X82016667Y-27507143D01*
X82064286Y-27411905D01*
X82064286Y-27316667D01*
X82016667Y-27221429D01*
X81969048Y-27173810D01*
X81873810Y-27126190D01*
X81683333Y-27078571D01*
X81588095Y-27030952D01*
X81540476Y-26983333D01*
X81492857Y-26888095D01*
X81492857Y-26792857D01*
X81540476Y-26697619D01*
X81588095Y-26650000D01*
X81683333Y-26602381D01*
X81921429Y-26602381D01*
X82064286Y-26650000D01*
X82397619Y-26602381D02*
X82635714Y-27602381D01*
X82826191Y-26888095D01*
X83016667Y-27602381D01*
X83254762Y-26602381D01*
X83635714Y-27602381D02*
X83635714Y-26602381D01*
X83873809Y-26602381D01*
X84016667Y-26650000D01*
X84111905Y-26745238D01*
X84159524Y-26840476D01*
X84207143Y-27030952D01*
X84207143Y-27173810D01*
X84159524Y-27364286D01*
X84111905Y-27459524D01*
X84016667Y-27554762D01*
X83873809Y-27602381D01*
X83635714Y-27602381D01*
X79602381Y-46166666D02*
X79602381Y-46642857D01*
X78602381Y-46642857D01*
X79602381Y-45309523D02*
X79602381Y-45880952D01*
X79602381Y-45595238D02*
X78602381Y-45595238D01*
X78745238Y-45690476D01*
X78840476Y-45785714D01*
X78888095Y-45880952D01*
X74102381Y-59616666D02*
X73626190Y-59950000D01*
X74102381Y-60188095D02*
X73102381Y-60188095D01*
X73102381Y-59807142D01*
X73150000Y-59711904D01*
X73197619Y-59664285D01*
X73292857Y-59616666D01*
X73435714Y-59616666D01*
X73530952Y-59664285D01*
X73578571Y-59711904D01*
X73626190Y-59807142D01*
X73626190Y-60188095D01*
X74102381Y-58664285D02*
X74102381Y-59235714D01*
X74102381Y-58950000D02*
X73102381Y-58950000D01*
X73245238Y-59045238D01*
X73340476Y-59140476D01*
X73388095Y-59235714D01*
X74702381Y-57592857D02*
X74702381Y-58069048D01*
X75178571Y-58116667D01*
X75130952Y-58069048D01*
X75083333Y-57973810D01*
X75083333Y-57735714D01*
X75130952Y-57640476D01*
X75178571Y-57592857D01*
X75273810Y-57545238D01*
X75511905Y-57545238D01*
X75607143Y-57592857D01*
X75654762Y-57640476D01*
X75702381Y-57735714D01*
X75702381Y-57973810D01*
X75654762Y-58069048D01*
X75607143Y-58116667D01*
X74702381Y-56926191D02*
X74702381Y-56830952D01*
X74750000Y-56735714D01*
X74797619Y-56688095D01*
X74892857Y-56640476D01*
X75083333Y-56592857D01*
X75321429Y-56592857D01*
X75511905Y-56640476D01*
X75607143Y-56688095D01*
X75654762Y-56735714D01*
X75702381Y-56830952D01*
X75702381Y-56926191D01*
X75654762Y-57021429D01*
X75607143Y-57069048D01*
X75511905Y-57116667D01*
X75321429Y-57164286D01*
X75083333Y-57164286D01*
X74892857Y-57116667D01*
X74797619Y-57069048D01*
X74750000Y-57021429D01*
X74702381Y-56926191D01*
X75702381Y-56164286D02*
X74702381Y-56164286D01*
X75321429Y-56069048D02*
X75702381Y-55783333D01*
X75035714Y-55783333D02*
X75416667Y-56164286D01*
X64302381Y-59616666D02*
X63826190Y-59950000D01*
X64302381Y-60188095D02*
X63302381Y-60188095D01*
X63302381Y-59807142D01*
X63350000Y-59711904D01*
X63397619Y-59664285D01*
X63492857Y-59616666D01*
X63635714Y-59616666D01*
X63730952Y-59664285D01*
X63778571Y-59711904D01*
X63826190Y-59807142D01*
X63826190Y-60188095D01*
X63397619Y-59235714D02*
X63350000Y-59188095D01*
X63302381Y-59092857D01*
X63302381Y-58854761D01*
X63350000Y-58759523D01*
X63397619Y-58711904D01*
X63492857Y-58664285D01*
X63588095Y-58664285D01*
X63730952Y-58711904D01*
X64302381Y-59283333D01*
X64302381Y-58664285D01*
X61552381Y-57592857D02*
X61552381Y-58069048D01*
X62028571Y-58116667D01*
X61980952Y-58069048D01*
X61933333Y-57973810D01*
X61933333Y-57735714D01*
X61980952Y-57640476D01*
X62028571Y-57592857D01*
X62123810Y-57545238D01*
X62361905Y-57545238D01*
X62457143Y-57592857D01*
X62504762Y-57640476D01*
X62552381Y-57735714D01*
X62552381Y-57973810D01*
X62504762Y-58069048D01*
X62457143Y-58116667D01*
X61552381Y-56926191D02*
X61552381Y-56830952D01*
X61600000Y-56735714D01*
X61647619Y-56688095D01*
X61742857Y-56640476D01*
X61933333Y-56592857D01*
X62171429Y-56592857D01*
X62361905Y-56640476D01*
X62457143Y-56688095D01*
X62504762Y-56735714D01*
X62552381Y-56830952D01*
X62552381Y-56926191D01*
X62504762Y-57021429D01*
X62457143Y-57069048D01*
X62361905Y-57116667D01*
X62171429Y-57164286D01*
X61933333Y-57164286D01*
X61742857Y-57116667D01*
X61647619Y-57069048D01*
X61600000Y-57021429D01*
X61552381Y-56926191D01*
X62552381Y-56164286D02*
X61552381Y-56164286D01*
X62171429Y-56069048D02*
X62552381Y-55783333D01*
X61885714Y-55783333D02*
X62266667Y-56164286D01*
X86502381Y-59491666D02*
X86026190Y-59825000D01*
X86502381Y-60063095D02*
X85502381Y-60063095D01*
X85502381Y-59682142D01*
X85550000Y-59586904D01*
X85597619Y-59539285D01*
X85692857Y-59491666D01*
X85835714Y-59491666D01*
X85930952Y-59539285D01*
X85978571Y-59586904D01*
X86026190Y-59682142D01*
X86026190Y-60063095D01*
X85502381Y-59158333D02*
X85502381Y-58539285D01*
X85883333Y-58872619D01*
X85883333Y-58729761D01*
X85930952Y-58634523D01*
X85978571Y-58586904D01*
X86073810Y-58539285D01*
X86311905Y-58539285D01*
X86407143Y-58586904D01*
X86454762Y-58634523D01*
X86502381Y-58729761D01*
X86502381Y-59015476D01*
X86454762Y-59110714D01*
X86407143Y-59158333D01*
X88202381Y-57370238D02*
X88202381Y-57941667D01*
X88202381Y-57655953D02*
X87202381Y-57655953D01*
X87345238Y-57751191D01*
X87440476Y-57846429D01*
X87488095Y-57941667D01*
X87202381Y-56751191D02*
X87202381Y-56655952D01*
X87250000Y-56560714D01*
X87297619Y-56513095D01*
X87392857Y-56465476D01*
X87583333Y-56417857D01*
X87821429Y-56417857D01*
X88011905Y-56465476D01*
X88107143Y-56513095D01*
X88154762Y-56560714D01*
X88202381Y-56655952D01*
X88202381Y-56751191D01*
X88154762Y-56846429D01*
X88107143Y-56894048D01*
X88011905Y-56941667D01*
X87821429Y-56989286D01*
X87583333Y-56989286D01*
X87392857Y-56941667D01*
X87297619Y-56894048D01*
X87250000Y-56846429D01*
X87202381Y-56751191D01*
X88202381Y-55989286D02*
X87202381Y-55989286D01*
X87821429Y-55894048D02*
X88202381Y-55608333D01*
X87535714Y-55608333D02*
X87916667Y-55989286D01*
X49952381Y-57666666D02*
X49476190Y-58000000D01*
X49952381Y-58238095D02*
X48952381Y-58238095D01*
X48952381Y-57857142D01*
X49000000Y-57761904D01*
X49047619Y-57714285D01*
X49142857Y-57666666D01*
X49285714Y-57666666D01*
X49380952Y-57714285D01*
X49428571Y-57761904D01*
X49476190Y-57857142D01*
X49476190Y-58238095D01*
X49285714Y-56809523D02*
X49952381Y-56809523D01*
X48904762Y-57047619D02*
X49619048Y-57285714D01*
X49619048Y-56666666D01*
X49952381Y-55095238D02*
X49952381Y-55666667D01*
X49952381Y-55380953D02*
X48952381Y-55380953D01*
X49095238Y-55476191D01*
X49190476Y-55571429D01*
X49238095Y-55666667D01*
X48952381Y-54476191D02*
X48952381Y-54380952D01*
X49000000Y-54285714D01*
X49047619Y-54238095D01*
X49142857Y-54190476D01*
X49333333Y-54142857D01*
X49571429Y-54142857D01*
X49761905Y-54190476D01*
X49857143Y-54238095D01*
X49904762Y-54285714D01*
X49952381Y-54380952D01*
X49952381Y-54476191D01*
X49904762Y-54571429D01*
X49857143Y-54619048D01*
X49761905Y-54666667D01*
X49571429Y-54714286D01*
X49333333Y-54714286D01*
X49142857Y-54666667D01*
X49047619Y-54619048D01*
X49000000Y-54571429D01*
X48952381Y-54476191D01*
X49952381Y-53714286D02*
X48952381Y-53714286D01*
X49571429Y-53619048D02*
X49952381Y-53333333D01*
X49285714Y-53333333D02*
X49666667Y-53714286D01*
X78752381Y-49916666D02*
X78276190Y-50250000D01*
X78752381Y-50488095D02*
X77752381Y-50488095D01*
X77752381Y-50107142D01*
X77800000Y-50011904D01*
X77847619Y-49964285D01*
X77942857Y-49916666D01*
X78085714Y-49916666D01*
X78180952Y-49964285D01*
X78228571Y-50011904D01*
X78276190Y-50107142D01*
X78276190Y-50488095D01*
X77752381Y-49011904D02*
X77752381Y-49488095D01*
X78228571Y-49535714D01*
X78180952Y-49488095D01*
X78133333Y-49392857D01*
X78133333Y-49154761D01*
X78180952Y-49059523D01*
X78228571Y-49011904D01*
X78323810Y-48964285D01*
X78561905Y-48964285D01*
X78657143Y-49011904D01*
X78704762Y-49059523D01*
X78752381Y-49154761D01*
X78752381Y-49392857D01*
X78704762Y-49488095D01*
X78657143Y-49535714D01*
X76152381Y-52642857D02*
X76152381Y-53119048D01*
X76628571Y-53166667D01*
X76580952Y-53119048D01*
X76533333Y-53023810D01*
X76533333Y-52785714D01*
X76580952Y-52690476D01*
X76628571Y-52642857D01*
X76723810Y-52595238D01*
X76961905Y-52595238D01*
X77057143Y-52642857D01*
X77104762Y-52690476D01*
X77152381Y-52785714D01*
X77152381Y-53023810D01*
X77104762Y-53119048D01*
X77057143Y-53166667D01*
X76152381Y-51976191D02*
X76152381Y-51880952D01*
X76200000Y-51785714D01*
X76247619Y-51738095D01*
X76342857Y-51690476D01*
X76533333Y-51642857D01*
X76771429Y-51642857D01*
X76961905Y-51690476D01*
X77057143Y-51738095D01*
X77104762Y-51785714D01*
X77152381Y-51880952D01*
X77152381Y-51976191D01*
X77104762Y-52071429D01*
X77057143Y-52119048D01*
X76961905Y-52166667D01*
X76771429Y-52214286D01*
X76533333Y-52214286D01*
X76342857Y-52166667D01*
X76247619Y-52119048D01*
X76200000Y-52071429D01*
X76152381Y-51976191D01*
X77152381Y-51214286D02*
X76152381Y-51214286D01*
X76771429Y-51119048D02*
X77152381Y-50833333D01*
X76485714Y-50833333D02*
X76866667Y-51214286D01*
X57902381Y-49916666D02*
X57426190Y-50250000D01*
X57902381Y-50488095D02*
X56902381Y-50488095D01*
X56902381Y-50107142D01*
X56950000Y-50011904D01*
X56997619Y-49964285D01*
X57092857Y-49916666D01*
X57235714Y-49916666D01*
X57330952Y-49964285D01*
X57378571Y-50011904D01*
X57426190Y-50107142D01*
X57426190Y-50488095D01*
X56902381Y-49059523D02*
X56902381Y-49250000D01*
X56950000Y-49345238D01*
X56997619Y-49392857D01*
X57140476Y-49488095D01*
X57330952Y-49535714D01*
X57711905Y-49535714D01*
X57807143Y-49488095D01*
X57854762Y-49440476D01*
X57902381Y-49345238D01*
X57902381Y-49154761D01*
X57854762Y-49059523D01*
X57807143Y-49011904D01*
X57711905Y-48964285D01*
X57473810Y-48964285D01*
X57378571Y-49011904D01*
X57330952Y-49059523D01*
X57283333Y-49154761D01*
X57283333Y-49345238D01*
X57330952Y-49440476D01*
X57378571Y-49488095D01*
X57473810Y-49535714D01*
X55302381Y-52892857D02*
X55302381Y-53369048D01*
X55778571Y-53416667D01*
X55730952Y-53369048D01*
X55683333Y-53273810D01*
X55683333Y-53035714D01*
X55730952Y-52940476D01*
X55778571Y-52892857D01*
X55873810Y-52845238D01*
X56111905Y-52845238D01*
X56207143Y-52892857D01*
X56254762Y-52940476D01*
X56302381Y-53035714D01*
X56302381Y-53273810D01*
X56254762Y-53369048D01*
X56207143Y-53416667D01*
X55302381Y-52226191D02*
X55302381Y-52130952D01*
X55350000Y-52035714D01*
X55397619Y-51988095D01*
X55492857Y-51940476D01*
X55683333Y-51892857D01*
X55921429Y-51892857D01*
X56111905Y-51940476D01*
X56207143Y-51988095D01*
X56254762Y-52035714D01*
X56302381Y-52130952D01*
X56302381Y-52226191D01*
X56254762Y-52321429D01*
X56207143Y-52369048D01*
X56111905Y-52416667D01*
X55921429Y-52464286D01*
X55683333Y-52464286D01*
X55492857Y-52416667D01*
X55397619Y-52369048D01*
X55350000Y-52321429D01*
X55302381Y-52226191D01*
X56302381Y-51464286D02*
X55302381Y-51464286D01*
X55921429Y-51369048D02*
X56302381Y-51083333D01*
X55635714Y-51083333D02*
X56016667Y-51464286D01*
X70102381Y-48416666D02*
X69626190Y-48750000D01*
X70102381Y-48988095D02*
X69102381Y-48988095D01*
X69102381Y-48607142D01*
X69150000Y-48511904D01*
X69197619Y-48464285D01*
X69292857Y-48416666D01*
X69435714Y-48416666D01*
X69530952Y-48464285D01*
X69578571Y-48511904D01*
X69626190Y-48607142D01*
X69626190Y-48988095D01*
X69530952Y-47845238D02*
X69483333Y-47940476D01*
X69435714Y-47988095D01*
X69340476Y-48035714D01*
X69292857Y-48035714D01*
X69197619Y-47988095D01*
X69150000Y-47940476D01*
X69102381Y-47845238D01*
X69102381Y-47654761D01*
X69150000Y-47559523D01*
X69197619Y-47511904D01*
X69292857Y-47464285D01*
X69340476Y-47464285D01*
X69435714Y-47511904D01*
X69483333Y-47559523D01*
X69530952Y-47654761D01*
X69530952Y-47845238D01*
X69578571Y-47940476D01*
X69626190Y-47988095D01*
X69721429Y-48035714D01*
X69911905Y-48035714D01*
X70007143Y-47988095D01*
X70054762Y-47940476D01*
X70102381Y-47845238D01*
X70102381Y-47654761D01*
X70054762Y-47559523D01*
X70007143Y-47511904D01*
X69911905Y-47464285D01*
X69721429Y-47464285D01*
X69626190Y-47511904D01*
X69578571Y-47559523D01*
X69530952Y-47654761D01*
X68402381Y-51470238D02*
X68402381Y-52041667D01*
X68402381Y-51755953D02*
X67402381Y-51755953D01*
X67545238Y-51851191D01*
X67640476Y-51946429D01*
X67688095Y-52041667D01*
X67402381Y-50851191D02*
X67402381Y-50755952D01*
X67450000Y-50660714D01*
X67497619Y-50613095D01*
X67592857Y-50565476D01*
X67783333Y-50517857D01*
X68021429Y-50517857D01*
X68211905Y-50565476D01*
X68307143Y-50613095D01*
X68354762Y-50660714D01*
X68402381Y-50755952D01*
X68402381Y-50851191D01*
X68354762Y-50946429D01*
X68307143Y-50994048D01*
X68211905Y-51041667D01*
X68021429Y-51089286D01*
X67783333Y-51089286D01*
X67592857Y-51041667D01*
X67497619Y-50994048D01*
X67450000Y-50946429D01*
X67402381Y-50851191D01*
X68402381Y-50089286D02*
X67402381Y-50089286D01*
X68021429Y-49994048D02*
X68402381Y-49708333D01*
X67735714Y-49708333D02*
X68116667Y-50089286D01*
X45807143Y-42852381D02*
X45473809Y-42376190D01*
X45235714Y-42852381D02*
X45235714Y-41852381D01*
X45616667Y-41852381D01*
X45711905Y-41900000D01*
X45759524Y-41947619D01*
X45807143Y-42042857D01*
X45807143Y-42185714D01*
X45759524Y-42280952D01*
X45711905Y-42328571D01*
X45616667Y-42376190D01*
X45235714Y-42376190D01*
X46759524Y-42852381D02*
X46188095Y-42852381D01*
X46473809Y-42852381D02*
X46473809Y-41852381D01*
X46378571Y-41995238D01*
X46283333Y-42090476D01*
X46188095Y-42138095D01*
X47092857Y-41852381D02*
X47711905Y-41852381D01*
X47378571Y-42233333D01*
X47521429Y-42233333D01*
X47616667Y-42280952D01*
X47664286Y-42328571D01*
X47711905Y-42423810D01*
X47711905Y-42661905D01*
X47664286Y-42757143D01*
X47616667Y-42804762D01*
X47521429Y-42852381D01*
X47235714Y-42852381D01*
X47140476Y-42804762D01*
X47092857Y-42757143D01*
X69802381Y-39592857D02*
X69326190Y-39926191D01*
X69802381Y-40164286D02*
X68802381Y-40164286D01*
X68802381Y-39783333D01*
X68850000Y-39688095D01*
X68897619Y-39640476D01*
X68992857Y-39592857D01*
X69135714Y-39592857D01*
X69230952Y-39640476D01*
X69278571Y-39688095D01*
X69326190Y-39783333D01*
X69326190Y-40164286D01*
X69802381Y-38640476D02*
X69802381Y-39211905D01*
X69802381Y-38926191D02*
X68802381Y-38926191D01*
X68945238Y-39021429D01*
X69040476Y-39116667D01*
X69088095Y-39211905D01*
X68802381Y-37735714D02*
X68802381Y-38211905D01*
X69278571Y-38259524D01*
X69230952Y-38211905D01*
X69183333Y-38116667D01*
X69183333Y-37878571D01*
X69230952Y-37783333D01*
X69278571Y-37735714D01*
X69373810Y-37688095D01*
X69611905Y-37688095D01*
X69707143Y-37735714D01*
X69754762Y-37783333D01*
X69802381Y-37878571D01*
X69802381Y-38116667D01*
X69754762Y-38211905D01*
X69707143Y-38259524D01*
X77488095Y-59002381D02*
X77488095Y-59811905D01*
X77535714Y-59907143D01*
X77583333Y-59954762D01*
X77678571Y-60002381D01*
X77869048Y-60002381D01*
X77964286Y-59954762D01*
X78011905Y-59907143D01*
X78059524Y-59811905D01*
X78059524Y-59002381D01*
X79059524Y-60002381D02*
X78488095Y-60002381D01*
X78773809Y-60002381D02*
X78773809Y-59002381D01*
X78678571Y-59145238D01*
X78583333Y-59240476D01*
X78488095Y-59288095D01*
X58188095Y-58902381D02*
X58188095Y-59711905D01*
X58235714Y-59807143D01*
X58283333Y-59854762D01*
X58378571Y-59902381D01*
X58569048Y-59902381D01*
X58664286Y-59854762D01*
X58711905Y-59807143D01*
X58759524Y-59711905D01*
X58759524Y-58902381D01*
X59188095Y-58997619D02*
X59235714Y-58950000D01*
X59330952Y-58902381D01*
X59569048Y-58902381D01*
X59664286Y-58950000D01*
X59711905Y-58997619D01*
X59759524Y-59092857D01*
X59759524Y-59188095D01*
X59711905Y-59330952D01*
X59140476Y-59902381D01*
X59759524Y-59902381D01*
X87788095Y-28202381D02*
X87788095Y-29011905D01*
X87835714Y-29107143D01*
X87883333Y-29154762D01*
X87978571Y-29202381D01*
X88169048Y-29202381D01*
X88264286Y-29154762D01*
X88311905Y-29107143D01*
X88359524Y-29011905D01*
X88359524Y-28202381D01*
X88740476Y-28202381D02*
X89359524Y-28202381D01*
X89026190Y-28583333D01*
X89169048Y-28583333D01*
X89264286Y-28630952D01*
X89311905Y-28678571D01*
X89359524Y-28773810D01*
X89359524Y-29011905D01*
X89311905Y-29107143D01*
X89264286Y-29154762D01*
X89169048Y-29202381D01*
X88883333Y-29202381D01*
X88788095Y-29154762D01*
X88740476Y-29107143D01*
X81138095Y-49202381D02*
X81138095Y-50011905D01*
X81185714Y-50107143D01*
X81233333Y-50154762D01*
X81328571Y-50202381D01*
X81519048Y-50202381D01*
X81614286Y-50154762D01*
X81661905Y-50107143D01*
X81709524Y-50011905D01*
X81709524Y-49202381D01*
X82614286Y-49535714D02*
X82614286Y-50202381D01*
X82376190Y-49154762D02*
X82138095Y-49869048D01*
X82757143Y-49869048D01*
X52088095Y-49202381D02*
X52088095Y-50011905D01*
X52135714Y-50107143D01*
X52183333Y-50154762D01*
X52278571Y-50202381D01*
X52469048Y-50202381D01*
X52564286Y-50154762D01*
X52611905Y-50107143D01*
X52659524Y-50011905D01*
X52659524Y-49202381D01*
X53611905Y-49202381D02*
X53135714Y-49202381D01*
X53088095Y-49678571D01*
X53135714Y-49630952D01*
X53230952Y-49583333D01*
X53469048Y-49583333D01*
X53564286Y-49630952D01*
X53611905Y-49678571D01*
X53659524Y-49773810D01*
X53659524Y-50011905D01*
X53611905Y-50107143D01*
X53564286Y-50154762D01*
X53469048Y-50202381D01*
X53230952Y-50202381D01*
X53135714Y-50154762D01*
X53088095Y-50107143D01*
X75288095Y-49102381D02*
X75288095Y-49911905D01*
X75335714Y-50007143D01*
X75383333Y-50054762D01*
X75478571Y-50102381D01*
X75669048Y-50102381D01*
X75764286Y-50054762D01*
X75811905Y-50007143D01*
X75859524Y-49911905D01*
X75859524Y-49102381D01*
X76764286Y-49102381D02*
X76573809Y-49102381D01*
X76478571Y-49150000D01*
X76430952Y-49197619D01*
X76335714Y-49340476D01*
X76288095Y-49530952D01*
X76288095Y-49911905D01*
X76335714Y-50007143D01*
X76383333Y-50054762D01*
X76478571Y-50102381D01*
X76669048Y-50102381D01*
X76764286Y-50054762D01*
X76811905Y-50007143D01*
X76859524Y-49911905D01*
X76859524Y-49673810D01*
X76811905Y-49578571D01*
X76764286Y-49530952D01*
X76669048Y-49483333D01*
X76478571Y-49483333D01*
X76383333Y-49530952D01*
X76335714Y-49578571D01*
X76288095Y-49673810D01*
X63788095Y-47802381D02*
X63788095Y-48611905D01*
X63835714Y-48707143D01*
X63883333Y-48754762D01*
X63978571Y-48802381D01*
X64169048Y-48802381D01*
X64264286Y-48754762D01*
X64311905Y-48707143D01*
X64359524Y-48611905D01*
X64359524Y-47802381D01*
X64740476Y-47802381D02*
X65407143Y-47802381D01*
X64978571Y-48802381D01*
X42676190Y-35776191D02*
X43152381Y-35776191D01*
X42152381Y-36109524D02*
X42676190Y-35776191D01*
X42152381Y-35442857D01*
X43152381Y-34585714D02*
X43152381Y-35157143D01*
X43152381Y-34871429D02*
X42152381Y-34871429D01*
X42295238Y-34966667D01*
X42390476Y-35061905D01*
X42438095Y-35157143D01*
X84657143Y-51657143D02*
X84609524Y-51704762D01*
X84466667Y-51752381D01*
X84371429Y-51752381D01*
X84228571Y-51704762D01*
X84133333Y-51609524D01*
X84085714Y-51514286D01*
X84038095Y-51323810D01*
X84038095Y-51180952D01*
X84085714Y-50990476D01*
X84133333Y-50895238D01*
X84228571Y-50800000D01*
X84371429Y-50752381D01*
X84466667Y-50752381D01*
X84609524Y-50800000D01*
X84657143Y-50847619D01*
X85038095Y-50847619D02*
X85085714Y-50800000D01*
X85180952Y-50752381D01*
X85419048Y-50752381D01*
X85514286Y-50800000D01*
X85561905Y-50847619D01*
X85609524Y-50942857D01*
X85609524Y-51038095D01*
X85561905Y-51180952D01*
X84990476Y-51752381D01*
X85609524Y-51752381D01*
X86561905Y-51752381D02*
X85990476Y-51752381D01*
X86276190Y-51752381D02*
X86276190Y-50752381D01*
X86180952Y-50895238D01*
X86085714Y-50990476D01*
X85990476Y-51038095D01*
X84507143Y-49757143D02*
X84459524Y-49804762D01*
X84316667Y-49852381D01*
X84221429Y-49852381D01*
X84078571Y-49804762D01*
X83983333Y-49709524D01*
X83935714Y-49614286D01*
X83888095Y-49423810D01*
X83888095Y-49280952D01*
X83935714Y-49090476D01*
X83983333Y-48995238D01*
X84078571Y-48900000D01*
X84221429Y-48852381D01*
X84316667Y-48852381D01*
X84459524Y-48900000D01*
X84507143Y-48947619D01*
X84888095Y-48947619D02*
X84935714Y-48900000D01*
X85030952Y-48852381D01*
X85269048Y-48852381D01*
X85364286Y-48900000D01*
X85411905Y-48947619D01*
X85459524Y-49042857D01*
X85459524Y-49138095D01*
X85411905Y-49280952D01*
X84840476Y-49852381D01*
X85459524Y-49852381D01*
X85840476Y-48947619D02*
X85888095Y-48900000D01*
X85983333Y-48852381D01*
X86221429Y-48852381D01*
X86316667Y-48900000D01*
X86364286Y-48947619D01*
X86411905Y-49042857D01*
X86411905Y-49138095D01*
X86364286Y-49280952D01*
X85792857Y-49852381D01*
X86411905Y-49852381D01*
X84507143Y-47807143D02*
X84459524Y-47854762D01*
X84316667Y-47902381D01*
X84221429Y-47902381D01*
X84078571Y-47854762D01*
X83983333Y-47759524D01*
X83935714Y-47664286D01*
X83888095Y-47473810D01*
X83888095Y-47330952D01*
X83935714Y-47140476D01*
X83983333Y-47045238D01*
X84078571Y-46950000D01*
X84221429Y-46902381D01*
X84316667Y-46902381D01*
X84459524Y-46950000D01*
X84507143Y-46997619D01*
X84888095Y-46997619D02*
X84935714Y-46950000D01*
X85030952Y-46902381D01*
X85269048Y-46902381D01*
X85364286Y-46950000D01*
X85411905Y-46997619D01*
X85459524Y-47092857D01*
X85459524Y-47188095D01*
X85411905Y-47330952D01*
X84840476Y-47902381D01*
X85459524Y-47902381D01*
X85792857Y-46902381D02*
X86411905Y-46902381D01*
X86078571Y-47283333D01*
X86221429Y-47283333D01*
X86316667Y-47330952D01*
X86364286Y-47378571D01*
X86411905Y-47473810D01*
X86411905Y-47711905D01*
X86364286Y-47807143D01*
X86316667Y-47854762D01*
X86221429Y-47902381D01*
X85935714Y-47902381D01*
X85840476Y-47854762D01*
X85792857Y-47807143D01*
X91557143Y-43657143D02*
X91509524Y-43704762D01*
X91366667Y-43752381D01*
X91271429Y-43752381D01*
X91128571Y-43704762D01*
X91033333Y-43609524D01*
X90985714Y-43514286D01*
X90938095Y-43323810D01*
X90938095Y-43180952D01*
X90985714Y-42990476D01*
X91033333Y-42895238D01*
X91128571Y-42800000D01*
X91271429Y-42752381D01*
X91366667Y-42752381D01*
X91509524Y-42800000D01*
X91557143Y-42847619D01*
X91938095Y-42847619D02*
X91985714Y-42800000D01*
X92080952Y-42752381D01*
X92319048Y-42752381D01*
X92414286Y-42800000D01*
X92461905Y-42847619D01*
X92509524Y-42942857D01*
X92509524Y-43038095D01*
X92461905Y-43180952D01*
X91890476Y-43752381D01*
X92509524Y-43752381D01*
X93366667Y-43085714D02*
X93366667Y-43752381D01*
X93128571Y-42704762D02*
X92890476Y-43419048D01*
X93509524Y-43419048D01*
X91557143Y-44907143D02*
X91509524Y-44954762D01*
X91366667Y-45002381D01*
X91271429Y-45002381D01*
X91128571Y-44954762D01*
X91033333Y-44859524D01*
X90985714Y-44764286D01*
X90938095Y-44573810D01*
X90938095Y-44430952D01*
X90985714Y-44240476D01*
X91033333Y-44145238D01*
X91128571Y-44050000D01*
X91271429Y-44002381D01*
X91366667Y-44002381D01*
X91509524Y-44050000D01*
X91557143Y-44097619D01*
X91938095Y-44097619D02*
X91985714Y-44050000D01*
X92080952Y-44002381D01*
X92319048Y-44002381D01*
X92414286Y-44050000D01*
X92461905Y-44097619D01*
X92509524Y-44192857D01*
X92509524Y-44288095D01*
X92461905Y-44430952D01*
X91890476Y-45002381D01*
X92509524Y-45002381D01*
X93414286Y-44002381D02*
X92938095Y-44002381D01*
X92890476Y-44478571D01*
X92938095Y-44430952D01*
X93033333Y-44383333D01*
X93271429Y-44383333D01*
X93366667Y-44430952D01*
X93414286Y-44478571D01*
X93461905Y-44573810D01*
X93461905Y-44811905D01*
X93414286Y-44907143D01*
X93366667Y-44954762D01*
X93271429Y-45002381D01*
X93033333Y-45002381D01*
X92938095Y-44954762D01*
X92890476Y-44907143D01*
X91557143Y-46157143D02*
X91509524Y-46204762D01*
X91366667Y-46252381D01*
X91271429Y-46252381D01*
X91128571Y-46204762D01*
X91033333Y-46109524D01*
X90985714Y-46014286D01*
X90938095Y-45823810D01*
X90938095Y-45680952D01*
X90985714Y-45490476D01*
X91033333Y-45395238D01*
X91128571Y-45300000D01*
X91271429Y-45252381D01*
X91366667Y-45252381D01*
X91509524Y-45300000D01*
X91557143Y-45347619D01*
X91938095Y-45347619D02*
X91985714Y-45300000D01*
X92080952Y-45252381D01*
X92319048Y-45252381D01*
X92414286Y-45300000D01*
X92461905Y-45347619D01*
X92509524Y-45442857D01*
X92509524Y-45538095D01*
X92461905Y-45680952D01*
X91890476Y-46252381D01*
X92509524Y-46252381D01*
X93366667Y-45252381D02*
X93176190Y-45252381D01*
X93080952Y-45300000D01*
X93033333Y-45347619D01*
X92938095Y-45490476D01*
X92890476Y-45680952D01*
X92890476Y-46061905D01*
X92938095Y-46157143D01*
X92985714Y-46204762D01*
X93080952Y-46252381D01*
X93271429Y-46252381D01*
X93366667Y-46204762D01*
X93414286Y-46157143D01*
X93461905Y-46061905D01*
X93461905Y-45823810D01*
X93414286Y-45728571D01*
X93366667Y-45680952D01*
X93271429Y-45633333D01*
X93080952Y-45633333D01*
X92985714Y-45680952D01*
X92938095Y-45728571D01*
X92890476Y-45823810D01*
X109182381Y-47533333D02*
X109896667Y-47533333D01*
X110039524Y-47580953D01*
X110134762Y-47676191D01*
X110182381Y-47819048D01*
X110182381Y-47914286D01*
X109277619Y-47104762D02*
X109230000Y-47057143D01*
X109182381Y-46961905D01*
X109182381Y-46723809D01*
X109230000Y-46628571D01*
X109277619Y-46580952D01*
X109372857Y-46533333D01*
X109468095Y-46533333D01*
X109610952Y-46580952D01*
X110182381Y-47152381D01*
X110182381Y-46533333D01*
X101352381Y-38733333D02*
X102066667Y-38733333D01*
X102209524Y-38780953D01*
X102304762Y-38876191D01*
X102352381Y-39019048D01*
X102352381Y-39114286D01*
X101685714Y-37828571D02*
X102352381Y-37828571D01*
X101304762Y-38066667D02*
X102019048Y-38304762D01*
X102019048Y-37685714D01*
X84657143Y-53902381D02*
X84323809Y-53426190D01*
X84085714Y-53902381D02*
X84085714Y-52902381D01*
X84466667Y-52902381D01*
X84561905Y-52950000D01*
X84609524Y-52997619D01*
X84657143Y-53092857D01*
X84657143Y-53235714D01*
X84609524Y-53330952D01*
X84561905Y-53378571D01*
X84466667Y-53426190D01*
X84085714Y-53426190D01*
X85609524Y-53902381D02*
X85038095Y-53902381D01*
X85323809Y-53902381D02*
X85323809Y-52902381D01*
X85228571Y-53045238D01*
X85133333Y-53140476D01*
X85038095Y-53188095D01*
X86466667Y-52902381D02*
X86276190Y-52902381D01*
X86180952Y-52950000D01*
X86133333Y-52997619D01*
X86038095Y-53140476D01*
X85990476Y-53330952D01*
X85990476Y-53711905D01*
X86038095Y-53807143D01*
X86085714Y-53854762D01*
X86180952Y-53902381D01*
X86371429Y-53902381D01*
X86466667Y-53854762D01*
X86514286Y-53807143D01*
X86561905Y-53711905D01*
X86561905Y-53473810D01*
X86514286Y-53378571D01*
X86466667Y-53330952D01*
X86371429Y-53283333D01*
X86180952Y-53283333D01*
X86085714Y-53330952D01*
X86038095Y-53378571D01*
X85990476Y-53473810D01*
X91557143Y-55602381D02*
X91223809Y-55126190D01*
X90985714Y-55602381D02*
X90985714Y-54602381D01*
X91366667Y-54602381D01*
X91461905Y-54650000D01*
X91509524Y-54697619D01*
X91557143Y-54792857D01*
X91557143Y-54935714D01*
X91509524Y-55030952D01*
X91461905Y-55078571D01*
X91366667Y-55126190D01*
X90985714Y-55126190D01*
X92509524Y-55602381D02*
X91938095Y-55602381D01*
X92223809Y-55602381D02*
X92223809Y-54602381D01*
X92128571Y-54745238D01*
X92033333Y-54840476D01*
X91938095Y-54888095D01*
X92842857Y-54602381D02*
X93509524Y-54602381D01*
X93080952Y-55602381D01*
X32191667Y-46202381D02*
X32191667Y-46916667D01*
X32144047Y-47059524D01*
X32048809Y-47154762D01*
X31905952Y-47202381D01*
X31810714Y-47202381D01*
X32572619Y-46202381D02*
X33191667Y-46202381D01*
X32858333Y-46583333D01*
X33001191Y-46583333D01*
X33096429Y-46630952D01*
X33144048Y-46678571D01*
X33191667Y-46773810D01*
X33191667Y-47011905D01*
X33144048Y-47107143D01*
X33096429Y-47154762D01*
X33001191Y-47202381D01*
X32715476Y-47202381D01*
X32620238Y-47154762D01*
X32572619Y-47107143D01*
X41588095Y-51972381D02*
X41588095Y-52781905D01*
X41635714Y-52877143D01*
X41683333Y-52924762D01*
X41778571Y-52972381D01*
X41969048Y-52972381D01*
X42064286Y-52924762D01*
X42111905Y-52877143D01*
X42159524Y-52781905D01*
X42159524Y-51972381D01*
X42683333Y-52972381D02*
X42873809Y-52972381D01*
X42969048Y-52924762D01*
X43016667Y-52877143D01*
X43111905Y-52734286D01*
X43159524Y-52543810D01*
X43159524Y-52162857D01*
X43111905Y-52067619D01*
X43064286Y-52020000D01*
X42969048Y-51972381D01*
X42778571Y-51972381D01*
X42683333Y-52020000D01*
X42635714Y-52067619D01*
X42588095Y-52162857D01*
X42588095Y-52400952D01*
X42635714Y-52496190D01*
X42683333Y-52543810D01*
X42778571Y-52591429D01*
X42969048Y-52591429D01*
X43064286Y-52543810D01*
X43111905Y-52496190D01*
X43159524Y-52400952D01*
X55166667Y-58952381D02*
X55166667Y-59666667D01*
X55119047Y-59809524D01*
X55023809Y-59904762D01*
X54880952Y-59952381D01*
X54785714Y-59952381D01*
X55642857Y-59952381D02*
X55642857Y-58952381D01*
X56023810Y-58952381D01*
X56119048Y-59000000D01*
X56166667Y-59047619D01*
X56214286Y-59142857D01*
X56214286Y-59285714D01*
X56166667Y-59380952D01*
X56119048Y-59428571D01*
X56023810Y-59476190D01*
X55642857Y-59476190D01*
X56595238Y-59047619D02*
X56642857Y-59000000D01*
X56738095Y-58952381D01*
X56976191Y-58952381D01*
X57071429Y-59000000D01*
X57119048Y-59047619D01*
X57166667Y-59142857D01*
X57166667Y-59238095D01*
X57119048Y-59380952D01*
X56547619Y-59952381D01*
X57166667Y-59952381D01*
X45083334Y-97607143D02*
X45035715Y-97654762D01*
X44892858Y-97702381D01*
X44797620Y-97702381D01*
X44654762Y-97654762D01*
X44559524Y-97559524D01*
X44511905Y-97464286D01*
X44464286Y-97273810D01*
X44464286Y-97130952D01*
X44511905Y-96940476D01*
X44559524Y-96845238D01*
X44654762Y-96750000D01*
X44797620Y-96702381D01*
X44892858Y-96702381D01*
X45035715Y-96750000D01*
X45083334Y-96797619D01*
X46035715Y-97702381D02*
X45464286Y-97702381D01*
X45750000Y-97702381D02*
X45750000Y-96702381D01*
X45654762Y-96845238D01*
X45559524Y-96940476D01*
X45464286Y-96988095D01*
X45083334Y-84107143D02*
X45035715Y-84154762D01*
X44892858Y-84202381D01*
X44797620Y-84202381D01*
X44654762Y-84154762D01*
X44559524Y-84059524D01*
X44511905Y-83964286D01*
X44464286Y-83773810D01*
X44464286Y-83630952D01*
X44511905Y-83440476D01*
X44559524Y-83345238D01*
X44654762Y-83250000D01*
X44797620Y-83202381D01*
X44892858Y-83202381D01*
X45035715Y-83250000D01*
X45083334Y-83297619D01*
X45464286Y-83297619D02*
X45511905Y-83250000D01*
X45607143Y-83202381D01*
X45845239Y-83202381D01*
X45940477Y-83250000D01*
X45988096Y-83297619D01*
X46035715Y-83392857D01*
X46035715Y-83488095D01*
X45988096Y-83630952D01*
X45416667Y-84202381D01*
X46035715Y-84202381D01*
X63333334Y-73357143D02*
X63285715Y-73404762D01*
X63142858Y-73452381D01*
X63047620Y-73452381D01*
X62904762Y-73404762D01*
X62809524Y-73309524D01*
X62761905Y-73214286D01*
X62714286Y-73023810D01*
X62714286Y-72880952D01*
X62761905Y-72690476D01*
X62809524Y-72595238D01*
X62904762Y-72500000D01*
X63047620Y-72452381D01*
X63142858Y-72452381D01*
X63285715Y-72500000D01*
X63333334Y-72547619D01*
X63666667Y-72452381D02*
X64285715Y-72452381D01*
X63952381Y-72833333D01*
X64095239Y-72833333D01*
X64190477Y-72880952D01*
X64238096Y-72928571D01*
X64285715Y-73023810D01*
X64285715Y-73261905D01*
X64238096Y-73357143D01*
X64190477Y-73404762D01*
X64095239Y-73452381D01*
X63809524Y-73452381D01*
X63714286Y-73404762D01*
X63666667Y-73357143D01*
X82607143Y-87416666D02*
X82654762Y-87464285D01*
X82702381Y-87607142D01*
X82702381Y-87702380D01*
X82654762Y-87845238D01*
X82559524Y-87940476D01*
X82464286Y-87988095D01*
X82273810Y-88035714D01*
X82130952Y-88035714D01*
X81940476Y-87988095D01*
X81845238Y-87940476D01*
X81750000Y-87845238D01*
X81702381Y-87702380D01*
X81702381Y-87607142D01*
X81750000Y-87464285D01*
X81797619Y-87416666D01*
X82035714Y-86559523D02*
X82702381Y-86559523D01*
X81654762Y-86797619D02*
X82369048Y-87035714D01*
X82369048Y-86416666D01*
X77857143Y-84416666D02*
X77904762Y-84464285D01*
X77952381Y-84607142D01*
X77952381Y-84702380D01*
X77904762Y-84845238D01*
X77809524Y-84940476D01*
X77714286Y-84988095D01*
X77523810Y-85035714D01*
X77380952Y-85035714D01*
X77190476Y-84988095D01*
X77095238Y-84940476D01*
X77000000Y-84845238D01*
X76952381Y-84702380D01*
X76952381Y-84607142D01*
X77000000Y-84464285D01*
X77047619Y-84416666D01*
X76952381Y-83511904D02*
X76952381Y-83988095D01*
X77428571Y-84035714D01*
X77380952Y-83988095D01*
X77333333Y-83892857D01*
X77333333Y-83654761D01*
X77380952Y-83559523D01*
X77428571Y-83511904D01*
X77523810Y-83464285D01*
X77761905Y-83464285D01*
X77857143Y-83511904D01*
X77904762Y-83559523D01*
X77952381Y-83654761D01*
X77952381Y-83892857D01*
X77904762Y-83988095D01*
X77857143Y-84035714D01*
X87357143Y-81666666D02*
X87404762Y-81714285D01*
X87452381Y-81857142D01*
X87452381Y-81952380D01*
X87404762Y-82095238D01*
X87309524Y-82190476D01*
X87214286Y-82238095D01*
X87023810Y-82285714D01*
X86880952Y-82285714D01*
X86690476Y-82238095D01*
X86595238Y-82190476D01*
X86500000Y-82095238D01*
X86452381Y-81952380D01*
X86452381Y-81857142D01*
X86500000Y-81714285D01*
X86547619Y-81666666D01*
X86452381Y-80809523D02*
X86452381Y-81000000D01*
X86500000Y-81095238D01*
X86547619Y-81142857D01*
X86690476Y-81238095D01*
X86880952Y-81285714D01*
X87261905Y-81285714D01*
X87357143Y-81238095D01*
X87404762Y-81190476D01*
X87452381Y-81095238D01*
X87452381Y-80904761D01*
X87404762Y-80809523D01*
X87357143Y-80761904D01*
X87261905Y-80714285D01*
X87023810Y-80714285D01*
X86928571Y-80761904D01*
X86880952Y-80809523D01*
X86833333Y-80904761D01*
X86833333Y-81095238D01*
X86880952Y-81190476D01*
X86928571Y-81238095D01*
X87023810Y-81285714D01*
X91607143Y-81666666D02*
X91654762Y-81714285D01*
X91702381Y-81857142D01*
X91702381Y-81952380D01*
X91654762Y-82095238D01*
X91559524Y-82190476D01*
X91464286Y-82238095D01*
X91273810Y-82285714D01*
X91130952Y-82285714D01*
X90940476Y-82238095D01*
X90845238Y-82190476D01*
X90750000Y-82095238D01*
X90702381Y-81952380D01*
X90702381Y-81857142D01*
X90750000Y-81714285D01*
X90797619Y-81666666D01*
X90702381Y-81333333D02*
X90702381Y-80666666D01*
X91702381Y-81095238D01*
X63357143Y-81666666D02*
X63404762Y-81714285D01*
X63452381Y-81857142D01*
X63452381Y-81952380D01*
X63404762Y-82095238D01*
X63309524Y-82190476D01*
X63214286Y-82238095D01*
X63023810Y-82285714D01*
X62880952Y-82285714D01*
X62690476Y-82238095D01*
X62595238Y-82190476D01*
X62500000Y-82095238D01*
X62452381Y-81952380D01*
X62452381Y-81857142D01*
X62500000Y-81714285D01*
X62547619Y-81666666D01*
X62880952Y-81095238D02*
X62833333Y-81190476D01*
X62785714Y-81238095D01*
X62690476Y-81285714D01*
X62642857Y-81285714D01*
X62547619Y-81238095D01*
X62500000Y-81190476D01*
X62452381Y-81095238D01*
X62452381Y-80904761D01*
X62500000Y-80809523D01*
X62547619Y-80761904D01*
X62642857Y-80714285D01*
X62690476Y-80714285D01*
X62785714Y-80761904D01*
X62833333Y-80809523D01*
X62880952Y-80904761D01*
X62880952Y-81095238D01*
X62928571Y-81190476D01*
X62976190Y-81238095D01*
X63071429Y-81285714D01*
X63261905Y-81285714D01*
X63357143Y-81238095D01*
X63404762Y-81190476D01*
X63452381Y-81095238D01*
X63452381Y-80904761D01*
X63404762Y-80809523D01*
X63357143Y-80761904D01*
X63261905Y-80714285D01*
X63071429Y-80714285D01*
X62976190Y-80761904D01*
X62928571Y-80809523D01*
X62880952Y-80904761D01*
X55702381Y-96238095D02*
X54702381Y-96238095D01*
X54702381Y-96000000D01*
X54750000Y-95857142D01*
X54845238Y-95761904D01*
X54940476Y-95714285D01*
X55130952Y-95666666D01*
X55273810Y-95666666D01*
X55464286Y-95714285D01*
X55559524Y-95761904D01*
X55654762Y-95857142D01*
X55702381Y-96000000D01*
X55702381Y-96238095D01*
X55702381Y-94714285D02*
X55702381Y-95285714D01*
X55702381Y-95000000D02*
X54702381Y-95000000D01*
X54845238Y-95095238D01*
X54940476Y-95190476D01*
X54988095Y-95285714D01*
X55702381Y-87238095D02*
X54702381Y-87238095D01*
X54702381Y-87000000D01*
X54750000Y-86857142D01*
X54845238Y-86761904D01*
X54940476Y-86714285D01*
X55130952Y-86666666D01*
X55273810Y-86666666D01*
X55464286Y-86714285D01*
X55559524Y-86761904D01*
X55654762Y-86857142D01*
X55702381Y-87000000D01*
X55702381Y-87238095D01*
X54797619Y-86285714D02*
X54750000Y-86238095D01*
X54702381Y-86142857D01*
X54702381Y-85904761D01*
X54750000Y-85809523D01*
X54797619Y-85761904D01*
X54892857Y-85714285D01*
X54988095Y-85714285D01*
X55130952Y-85761904D01*
X55702381Y-86333333D01*
X55702381Y-85714285D01*
X55702381Y-84988095D02*
X54702381Y-84988095D01*
X54702381Y-84750000D01*
X54750000Y-84607142D01*
X54845238Y-84511904D01*
X54940476Y-84464285D01*
X55130952Y-84416666D01*
X55273810Y-84416666D01*
X55464286Y-84464285D01*
X55559524Y-84511904D01*
X55654762Y-84607142D01*
X55702381Y-84750000D01*
X55702381Y-84988095D01*
X54702381Y-84083333D02*
X54702381Y-83464285D01*
X55083333Y-83797619D01*
X55083333Y-83654761D01*
X55130952Y-83559523D01*
X55178571Y-83511904D01*
X55273810Y-83464285D01*
X55511905Y-83464285D01*
X55607143Y-83511904D01*
X55654762Y-83559523D01*
X55702381Y-83654761D01*
X55702381Y-83940476D01*
X55654762Y-84035714D01*
X55607143Y-84083333D01*
X55702381Y-74988095D02*
X54702381Y-74988095D01*
X54702381Y-74750000D01*
X54750000Y-74607142D01*
X54845238Y-74511904D01*
X54940476Y-74464285D01*
X55130952Y-74416666D01*
X55273810Y-74416666D01*
X55464286Y-74464285D01*
X55559524Y-74511904D01*
X55654762Y-74607142D01*
X55702381Y-74750000D01*
X55702381Y-74988095D01*
X55035714Y-73559523D02*
X55702381Y-73559523D01*
X54654762Y-73797619D02*
X55369048Y-74035714D01*
X55369048Y-73416666D01*
X87261905Y-85752381D02*
X87261905Y-84752381D01*
X87500000Y-84752381D01*
X87642858Y-84800000D01*
X87738096Y-84895238D01*
X87785715Y-84990476D01*
X87833334Y-85180952D01*
X87833334Y-85323810D01*
X87785715Y-85514286D01*
X87738096Y-85609524D01*
X87642858Y-85704762D01*
X87500000Y-85752381D01*
X87261905Y-85752381D01*
X88738096Y-84752381D02*
X88261905Y-84752381D01*
X88214286Y-85228571D01*
X88261905Y-85180952D01*
X88357143Y-85133333D01*
X88595239Y-85133333D01*
X88690477Y-85180952D01*
X88738096Y-85228571D01*
X88785715Y-85323810D01*
X88785715Y-85561905D01*
X88738096Y-85657143D01*
X88690477Y-85704762D01*
X88595239Y-85752381D01*
X88357143Y-85752381D01*
X88261905Y-85704762D01*
X88214286Y-85657143D01*
X33166667Y-85952381D02*
X33166667Y-86666667D01*
X33119047Y-86809524D01*
X33023809Y-86904762D01*
X32880952Y-86952381D01*
X32785714Y-86952381D01*
X34166667Y-86952381D02*
X33595238Y-86952381D01*
X33880952Y-86952381D02*
X33880952Y-85952381D01*
X33785714Y-86095238D01*
X33690476Y-86190476D01*
X33595238Y-86238095D01*
X33166667Y-73952381D02*
X33166667Y-74666667D01*
X33119047Y-74809524D01*
X33023809Y-74904762D01*
X32880952Y-74952381D01*
X32785714Y-74952381D01*
X33595238Y-74047619D02*
X33642857Y-74000000D01*
X33738095Y-73952381D01*
X33976191Y-73952381D01*
X34071429Y-74000000D01*
X34119048Y-74047619D01*
X34166667Y-74142857D01*
X34166667Y-74238095D01*
X34119048Y-74380952D01*
X33547619Y-74952381D01*
X34166667Y-74952381D01*
X88032381Y-68333333D02*
X88746667Y-68333333D01*
X88889524Y-68380953D01*
X88984762Y-68476191D01*
X89032381Y-68619048D01*
X89032381Y-68714286D01*
X88032381Y-67952381D02*
X88032381Y-67333333D01*
X88413333Y-67666667D01*
X88413333Y-67523809D01*
X88460952Y-67428571D01*
X88508571Y-67380952D01*
X88603810Y-67333333D01*
X88841905Y-67333333D01*
X88937143Y-67380952D01*
X88984762Y-67428571D01*
X89032381Y-67523809D01*
X89032381Y-67809524D01*
X88984762Y-67904762D01*
X88937143Y-67952381D01*
X82416667Y-69952381D02*
X82750000Y-70952381D01*
X83083334Y-69952381D01*
X83988096Y-70857143D02*
X83940477Y-70904762D01*
X83797620Y-70952381D01*
X83702382Y-70952381D01*
X83559524Y-70904762D01*
X83464286Y-70809524D01*
X83416667Y-70714286D01*
X83369048Y-70523810D01*
X83369048Y-70380952D01*
X83416667Y-70190476D01*
X83464286Y-70095238D01*
X83559524Y-70000000D01*
X83702382Y-69952381D01*
X83797620Y-69952381D01*
X83940477Y-70000000D01*
X83988096Y-70047619D01*
X84988096Y-70857143D02*
X84940477Y-70904762D01*
X84797620Y-70952381D01*
X84702382Y-70952381D01*
X84559524Y-70904762D01*
X84464286Y-70809524D01*
X84416667Y-70714286D01*
X84369048Y-70523810D01*
X84369048Y-70380952D01*
X84416667Y-70190476D01*
X84464286Y-70095238D01*
X84559524Y-70000000D01*
X84702382Y-69952381D01*
X84797620Y-69952381D01*
X84940477Y-70000000D01*
X84988096Y-70047619D01*
X88032381Y-103333333D02*
X88746667Y-103333333D01*
X88889524Y-103380953D01*
X88984762Y-103476191D01*
X89032381Y-103619048D01*
X89032381Y-103714286D01*
X88365714Y-102428571D02*
X89032381Y-102428571D01*
X87984762Y-102666667D02*
X88699048Y-102904762D01*
X88699048Y-102285714D01*
X82988096Y-100250000D02*
X82892858Y-100202381D01*
X82750001Y-100202381D01*
X82607143Y-100250000D01*
X82511905Y-100345238D01*
X82464286Y-100440476D01*
X82416667Y-100630952D01*
X82416667Y-100773810D01*
X82464286Y-100964286D01*
X82511905Y-101059524D01*
X82607143Y-101154762D01*
X82750001Y-101202381D01*
X82845239Y-101202381D01*
X82988096Y-101154762D01*
X83035715Y-101107143D01*
X83035715Y-100773810D01*
X82845239Y-100773810D01*
X83464286Y-101202381D02*
X83464286Y-100202381D01*
X84035715Y-101202381D01*
X84035715Y-100202381D01*
X84511905Y-101202381D02*
X84511905Y-100202381D01*
X84750000Y-100202381D01*
X84892858Y-100250000D01*
X84988096Y-100345238D01*
X85035715Y-100440476D01*
X85083334Y-100630952D01*
X85083334Y-100773810D01*
X85035715Y-100964286D01*
X84988096Y-101059524D01*
X84892858Y-101154762D01*
X84750000Y-101202381D01*
X84511905Y-101202381D01*
X93452381Y-74333333D02*
X94166667Y-74333333D01*
X94309524Y-74380953D01*
X94404762Y-74476191D01*
X94452381Y-74619048D01*
X94452381Y-74714286D01*
X93452381Y-73380952D02*
X93452381Y-73857143D01*
X93928571Y-73904762D01*
X93880952Y-73857143D01*
X93833333Y-73761905D01*
X93833333Y-73523809D01*
X93880952Y-73428571D01*
X93928571Y-73380952D01*
X94023810Y-73333333D01*
X94261905Y-73333333D01*
X94357143Y-73380952D01*
X94404762Y-73428571D01*
X94452381Y-73523809D01*
X94452381Y-73761905D01*
X94404762Y-73857143D01*
X94357143Y-73904762D01*
X58916667Y-65452381D02*
X58916667Y-66166667D01*
X58869047Y-66309524D01*
X58773809Y-66404762D01*
X58630952Y-66452381D01*
X58535714Y-66452381D01*
X59392857Y-66452381D02*
X59392857Y-65452381D01*
X59773810Y-65452381D01*
X59869048Y-65500000D01*
X59916667Y-65547619D01*
X59964286Y-65642857D01*
X59964286Y-65785714D01*
X59916667Y-65880952D01*
X59869048Y-65928571D01*
X59773810Y-65976190D01*
X59392857Y-65976190D01*
X60916667Y-66452381D02*
X60345238Y-66452381D01*
X60630952Y-66452381D02*
X60630952Y-65452381D01*
X60535714Y-65595238D01*
X60440476Y-65690476D01*
X60345238Y-65738095D01*
X91833334Y-76052381D02*
X91357143Y-76052381D01*
X91357143Y-75052381D01*
X92690477Y-76052381D02*
X92119048Y-76052381D01*
X92404762Y-76052381D02*
X92404762Y-75052381D01*
X92309524Y-75195238D01*
X92214286Y-75290476D01*
X92119048Y-75338095D01*
X44035714Y-91202381D02*
X44035714Y-90202381D01*
X44607143Y-91202381D01*
X44607143Y-90202381D01*
X45083333Y-90678571D02*
X45416667Y-90678571D01*
X45559524Y-91202381D02*
X45083333Y-91202381D01*
X45083333Y-90202381D01*
X45559524Y-90202381D01*
X46511905Y-91202381D02*
X45940476Y-91202381D01*
X46226190Y-91202381D02*
X46226190Y-90202381D01*
X46130952Y-90345238D01*
X46035714Y-90440476D01*
X45940476Y-90488095D01*
X44035714Y-77702381D02*
X44035714Y-76702381D01*
X44607143Y-77702381D01*
X44607143Y-76702381D01*
X45083333Y-77178571D02*
X45416667Y-77178571D01*
X45559524Y-77702381D02*
X45083333Y-77702381D01*
X45083333Y-76702381D01*
X45559524Y-76702381D01*
X45940476Y-76797619D02*
X45988095Y-76750000D01*
X46083333Y-76702381D01*
X46321429Y-76702381D01*
X46416667Y-76750000D01*
X46464286Y-76797619D01*
X46511905Y-76892857D01*
X46511905Y-76988095D01*
X46464286Y-77130952D01*
X45892857Y-77702381D01*
X46511905Y-77702381D01*
X52952381Y-95666666D02*
X52476190Y-96000000D01*
X52952381Y-96238095D02*
X51952381Y-96238095D01*
X51952381Y-95857142D01*
X52000000Y-95761904D01*
X52047619Y-95714285D01*
X52142857Y-95666666D01*
X52285714Y-95666666D01*
X52380952Y-95714285D01*
X52428571Y-95761904D01*
X52476190Y-95857142D01*
X52476190Y-96238095D01*
X52952381Y-94714285D02*
X52952381Y-95285714D01*
X52952381Y-95000000D02*
X51952381Y-95000000D01*
X52095238Y-95095238D01*
X52190476Y-95190476D01*
X52238095Y-95285714D01*
X52952381Y-86666666D02*
X52476190Y-87000000D01*
X52952381Y-87238095D02*
X51952381Y-87238095D01*
X51952381Y-86857142D01*
X52000000Y-86761904D01*
X52047619Y-86714285D01*
X52142857Y-86666666D01*
X52285714Y-86666666D01*
X52380952Y-86714285D01*
X52428571Y-86761904D01*
X52476190Y-86857142D01*
X52476190Y-87238095D01*
X52047619Y-86285714D02*
X52000000Y-86238095D01*
X51952381Y-86142857D01*
X51952381Y-85904761D01*
X52000000Y-85809523D01*
X52047619Y-85761904D01*
X52142857Y-85714285D01*
X52238095Y-85714285D01*
X52380952Y-85761904D01*
X52952381Y-86333333D01*
X52952381Y-85714285D01*
X52952381Y-84416666D02*
X52476190Y-84750000D01*
X52952381Y-84988095D02*
X51952381Y-84988095D01*
X51952381Y-84607142D01*
X52000000Y-84511904D01*
X52047619Y-84464285D01*
X52142857Y-84416666D01*
X52285714Y-84416666D01*
X52380952Y-84464285D01*
X52428571Y-84511904D01*
X52476190Y-84607142D01*
X52476190Y-84988095D01*
X51952381Y-84083333D02*
X51952381Y-83464285D01*
X52333333Y-83797619D01*
X52333333Y-83654761D01*
X52380952Y-83559523D01*
X52428571Y-83511904D01*
X52523810Y-83464285D01*
X52761905Y-83464285D01*
X52857143Y-83511904D01*
X52904762Y-83559523D01*
X52952381Y-83654761D01*
X52952381Y-83940476D01*
X52904762Y-84035714D01*
X52857143Y-84083333D01*
X52952381Y-74416666D02*
X52476190Y-74750000D01*
X52952381Y-74988095D02*
X51952381Y-74988095D01*
X51952381Y-74607142D01*
X52000000Y-74511904D01*
X52047619Y-74464285D01*
X52142857Y-74416666D01*
X52285714Y-74416666D01*
X52380952Y-74464285D01*
X52428571Y-74511904D01*
X52476190Y-74607142D01*
X52476190Y-74988095D01*
X52285714Y-73559523D02*
X52952381Y-73559523D01*
X51904762Y-73797619D02*
X52619048Y-74035714D01*
X52619048Y-73416666D01*
X66583334Y-66802381D02*
X66250000Y-66326190D01*
X66011905Y-66802381D02*
X66011905Y-65802381D01*
X66392858Y-65802381D01*
X66488096Y-65850000D01*
X66535715Y-65897619D01*
X66583334Y-65992857D01*
X66583334Y-66135714D01*
X66535715Y-66230952D01*
X66488096Y-66278571D01*
X66392858Y-66326190D01*
X66011905Y-66326190D01*
X67488096Y-65802381D02*
X67011905Y-65802381D01*
X66964286Y-66278571D01*
X67011905Y-66230952D01*
X67107143Y-66183333D01*
X67345239Y-66183333D01*
X67440477Y-66230952D01*
X67488096Y-66278571D01*
X67535715Y-66373810D01*
X67535715Y-66611905D01*
X67488096Y-66707143D01*
X67440477Y-66754762D01*
X67345239Y-66802381D01*
X67107143Y-66802381D01*
X67011905Y-66754762D01*
X66964286Y-66707143D01*
X66630953Y-70202381D02*
X66059524Y-70202381D01*
X66345238Y-70202381D02*
X66345238Y-69202381D01*
X66250000Y-69345238D01*
X66154762Y-69440476D01*
X66059524Y-69488095D01*
X67059524Y-70202381D02*
X67059524Y-69202381D01*
X67154762Y-69821429D02*
X67440477Y-70202381D01*
X67440477Y-69535714D02*
X67059524Y-69916667D01*
X65952381Y-81666666D02*
X65476190Y-82000000D01*
X65952381Y-82238095D02*
X64952381Y-82238095D01*
X64952381Y-81857142D01*
X65000000Y-81761904D01*
X65047619Y-81714285D01*
X65142857Y-81666666D01*
X65285714Y-81666666D01*
X65380952Y-81714285D01*
X65428571Y-81761904D01*
X65476190Y-81857142D01*
X65476190Y-82238095D01*
X64952381Y-80809523D02*
X64952381Y-81000000D01*
X65000000Y-81095238D01*
X65047619Y-81142857D01*
X65190476Y-81238095D01*
X65380952Y-81285714D01*
X65761905Y-81285714D01*
X65857143Y-81238095D01*
X65904762Y-81190476D01*
X65952381Y-81095238D01*
X65952381Y-80904761D01*
X65904762Y-80809523D01*
X65857143Y-80761904D01*
X65761905Y-80714285D01*
X65523810Y-80714285D01*
X65428571Y-80761904D01*
X65380952Y-80809523D01*
X65333333Y-80904761D01*
X65333333Y-81095238D01*
X65380952Y-81190476D01*
X65428571Y-81238095D01*
X65523810Y-81285714D01*
X53333334Y-66702381D02*
X53000000Y-66226190D01*
X52761905Y-66702381D02*
X52761905Y-65702381D01*
X53142858Y-65702381D01*
X53238096Y-65750000D01*
X53285715Y-65797619D01*
X53333334Y-65892857D01*
X53333334Y-66035714D01*
X53285715Y-66130952D01*
X53238096Y-66178571D01*
X53142858Y-66226190D01*
X52761905Y-66226190D01*
X53666667Y-65702381D02*
X54333334Y-65702381D01*
X53904762Y-66702381D01*
X52904762Y-70202381D02*
X52333333Y-70202381D01*
X52619047Y-70202381D02*
X52619047Y-69202381D01*
X52523809Y-69345238D01*
X52428571Y-69440476D01*
X52333333Y-69488095D01*
X53523809Y-69202381D02*
X53619048Y-69202381D01*
X53714286Y-69250000D01*
X53761905Y-69297619D01*
X53809524Y-69392857D01*
X53857143Y-69583333D01*
X53857143Y-69821429D01*
X53809524Y-70011905D01*
X53761905Y-70107143D01*
X53714286Y-70154762D01*
X53619048Y-70202381D01*
X53523809Y-70202381D01*
X53428571Y-70154762D01*
X53380952Y-70107143D01*
X53333333Y-70011905D01*
X53285714Y-69821429D01*
X53285714Y-69583333D01*
X53333333Y-69392857D01*
X53380952Y-69297619D01*
X53428571Y-69250000D01*
X53523809Y-69202381D01*
X54285714Y-70202381D02*
X54285714Y-69202381D01*
X54380952Y-69821429D02*
X54666667Y-70202381D01*
X54666667Y-69535714D02*
X54285714Y-69916667D01*
X87583334Y-75952381D02*
X87250000Y-75476190D01*
X87011905Y-75952381D02*
X87011905Y-74952381D01*
X87392858Y-74952381D01*
X87488096Y-75000000D01*
X87535715Y-75047619D01*
X87583334Y-75142857D01*
X87583334Y-75285714D01*
X87535715Y-75380952D01*
X87488096Y-75428571D01*
X87392858Y-75476190D01*
X87011905Y-75476190D01*
X88154762Y-75380952D02*
X88059524Y-75333333D01*
X88011905Y-75285714D01*
X87964286Y-75190476D01*
X87964286Y-75142857D01*
X88011905Y-75047619D01*
X88059524Y-75000000D01*
X88154762Y-74952381D01*
X88345239Y-74952381D01*
X88440477Y-75000000D01*
X88488096Y-75047619D01*
X88535715Y-75142857D01*
X88535715Y-75190476D01*
X88488096Y-75285714D01*
X88440477Y-75333333D01*
X88345239Y-75380952D01*
X88154762Y-75380952D01*
X88059524Y-75428571D01*
X88011905Y-75476190D01*
X87964286Y-75571429D01*
X87964286Y-75761905D01*
X88011905Y-75857143D01*
X88059524Y-75904762D01*
X88154762Y-75952381D01*
X88345239Y-75952381D01*
X88440477Y-75904762D01*
X88488096Y-75857143D01*
X88535715Y-75761905D01*
X88535715Y-75571429D01*
X88488096Y-75476190D01*
X88440477Y-75428571D01*
X88345239Y-75380952D01*
X91833334Y-85702381D02*
X91500000Y-85226190D01*
X91261905Y-85702381D02*
X91261905Y-84702381D01*
X91642858Y-84702381D01*
X91738096Y-84750000D01*
X91785715Y-84797619D01*
X91833334Y-84892857D01*
X91833334Y-85035714D01*
X91785715Y-85130952D01*
X91738096Y-85178571D01*
X91642858Y-85226190D01*
X91261905Y-85226190D01*
X92309524Y-85702381D02*
X92500000Y-85702381D01*
X92595239Y-85654762D01*
X92642858Y-85607143D01*
X92738096Y-85464286D01*
X92785715Y-85273810D01*
X92785715Y-84892857D01*
X92738096Y-84797619D01*
X92690477Y-84750000D01*
X92595239Y-84702381D01*
X92404762Y-84702381D01*
X92309524Y-84750000D01*
X92261905Y-84797619D01*
X92214286Y-84892857D01*
X92214286Y-85130952D01*
X92261905Y-85226190D01*
X92309524Y-85273810D01*
X92404762Y-85321429D01*
X92595239Y-85321429D01*
X92690477Y-85273810D01*
X92738096Y-85226190D01*
X92785715Y-85130952D01*
X61352381Y-91761905D02*
X62161905Y-91761905D01*
X62257143Y-91714286D01*
X62304762Y-91666667D01*
X62352381Y-91571429D01*
X62352381Y-91380952D01*
X62304762Y-91285714D01*
X62257143Y-91238095D01*
X62161905Y-91190476D01*
X61352381Y-91190476D01*
X62352381Y-90190476D02*
X62352381Y-90761905D01*
X62352381Y-90476191D02*
X61352381Y-90476191D01*
X61495238Y-90571429D01*
X61590476Y-90666667D01*
X61638095Y-90761905D01*
X58952381Y-82761905D02*
X59761905Y-82761905D01*
X59857143Y-82714286D01*
X59904762Y-82666667D01*
X59952381Y-82571429D01*
X59952381Y-82380952D01*
X59904762Y-82285714D01*
X59857143Y-82238095D01*
X59761905Y-82190476D01*
X58952381Y-82190476D01*
X59047619Y-81761905D02*
X59000000Y-81714286D01*
X58952381Y-81619048D01*
X58952381Y-81380952D01*
X59000000Y-81285714D01*
X59047619Y-81238095D01*
X59142857Y-81190476D01*
X59238095Y-81190476D01*
X59380952Y-81238095D01*
X59952381Y-81809524D01*
X59952381Y-81190476D01*
M02*
