G04 #@! TF.FileFunction,Soldermask,Top*
%FSLAX46Y46*%
G04 Gerber Fmt 4.6, Leading zero omitted, Abs format (unit mm)*
G04 Created by KiCad (PCBNEW 4.0.6) date Fri Apr 28 14:46:48 2017*
%MOMM*%
%LPD*%
G01*
G04 APERTURE LIST*
%ADD10C,0.100000*%
%ADD11R,1.500000X0.280000*%
%ADD12R,0.280000X1.500000*%
%ADD13C,4.064000*%
%ADD14R,2.000000X2.000000*%
%ADD15C,2.000000*%
%ADD16R,1.000000X1.250000*%
%ADD17R,1.800000X2.150000*%
%ADD18R,1.250000X1.000000*%
%ADD19R,2.150000X1.800000*%
%ADD20R,0.450000X0.600000*%
%ADD21R,0.600000X0.450000*%
%ADD22R,1.060000X0.650000*%
%ADD23R,1.200000X1.200000*%
%ADD24C,3.650000*%
%ADD25R,1.500000X1.500000*%
%ADD26C,1.500000*%
%ADD27R,1.700000X1.700000*%
%ADD28O,1.700000X1.700000*%
%ADD29R,1.300000X0.700000*%
%ADD30R,0.700000X1.300000*%
%ADD31R,2.000000X3.800000*%
%ADD32R,2.000000X1.500000*%
%ADD33R,1.350000X0.400000*%
%ADD34O,0.950000X1.250000*%
%ADD35O,1.550000X1.000000*%
%ADD36C,2.200000*%
%ADD37R,0.508000X1.143000*%
%ADD38R,2.700000X2.950000*%
%ADD39R,0.650000X1.060000*%
%ADD40C,0.500000*%
G04 APERTURE END LIST*
D10*
D11*
X50450000Y-29525000D03*
X50450000Y-30025000D03*
X50450000Y-30525000D03*
X50450000Y-31025000D03*
X50450000Y-31525000D03*
X50450000Y-32025000D03*
X50450000Y-32525000D03*
X50450000Y-33025000D03*
X50450000Y-33525000D03*
X50450000Y-34025000D03*
X50450000Y-34525000D03*
X50450000Y-35025000D03*
X50450000Y-35525000D03*
X50450000Y-36025000D03*
X50450000Y-36525000D03*
X50450000Y-37025000D03*
X50450000Y-37525000D03*
X50450000Y-38025000D03*
X50450000Y-38525000D03*
X50450000Y-39025000D03*
X50450000Y-39525000D03*
X50450000Y-40025000D03*
X50450000Y-40525000D03*
X50450000Y-41025000D03*
X50450000Y-41525000D03*
D12*
X52350000Y-43425000D03*
X52850000Y-43425000D03*
X53350000Y-43425000D03*
X53850000Y-43425000D03*
X54350000Y-43425000D03*
X54850000Y-43425000D03*
X55350000Y-43425000D03*
X55850000Y-43425000D03*
X56350000Y-43425000D03*
X56850000Y-43425000D03*
X57350000Y-43425000D03*
X57850000Y-43425000D03*
X58350000Y-43425000D03*
X58850000Y-43425000D03*
X59350000Y-43425000D03*
X59850000Y-43425000D03*
X60350000Y-43425000D03*
X60850000Y-43425000D03*
X61350000Y-43425000D03*
X61850000Y-43425000D03*
X62350000Y-43425000D03*
X62850000Y-43425000D03*
X63350000Y-43425000D03*
X63850000Y-43425000D03*
X64350000Y-43425000D03*
D11*
X66250000Y-41525000D03*
X66250000Y-41025000D03*
X66250000Y-40525000D03*
X66250000Y-40025000D03*
X66250000Y-39525000D03*
X66250000Y-39025000D03*
X66250000Y-38525000D03*
X66250000Y-38025000D03*
X66250000Y-37525000D03*
X66250000Y-37025000D03*
X66250000Y-36525000D03*
X66250000Y-36025000D03*
X66250000Y-35525000D03*
X66250000Y-35025000D03*
X66250000Y-34525000D03*
X66250000Y-34025000D03*
X66250000Y-33525000D03*
X66250000Y-33025000D03*
X66250000Y-32525000D03*
X66250000Y-32025000D03*
X66250000Y-31525000D03*
X66250000Y-31025000D03*
X66250000Y-30525000D03*
X66250000Y-30025000D03*
X66250000Y-29525000D03*
D12*
X64350000Y-27625000D03*
X63850000Y-27625000D03*
X63350000Y-27625000D03*
X62850000Y-27625000D03*
X62350000Y-27625000D03*
X61850000Y-27625000D03*
X61350000Y-27625000D03*
X60850000Y-27625000D03*
X60350000Y-27625000D03*
X59850000Y-27625000D03*
X59350000Y-27625000D03*
X58850000Y-27625000D03*
X58350000Y-27625000D03*
X57850000Y-27625000D03*
X57350000Y-27625000D03*
X56850000Y-27625000D03*
X56350000Y-27625000D03*
X55850000Y-27625000D03*
X55350000Y-27625000D03*
X54850000Y-27625000D03*
X54350000Y-27625000D03*
X53850000Y-27625000D03*
X53350000Y-27625000D03*
X52850000Y-27625000D03*
X52350000Y-27625000D03*
D13*
X92750000Y-59750000D03*
X42750000Y-59750000D03*
X92750000Y-24750000D03*
D14*
X73250000Y-34950000D03*
D15*
X80850000Y-34950000D03*
D16*
X101100000Y-36150000D03*
X99100000Y-36150000D03*
D17*
X96050000Y-34175000D03*
X96050000Y-30925000D03*
D16*
X87550000Y-42050000D03*
X89550000Y-42050000D03*
X71950000Y-47850000D03*
X73950000Y-47850000D03*
D18*
X60875000Y-49950000D03*
X60875000Y-51950000D03*
D19*
X67175000Y-56175000D03*
X70425000Y-56175000D03*
X86825000Y-38750000D03*
X90075000Y-38750000D03*
D20*
X83000000Y-55800000D03*
X83000000Y-57900000D03*
X54600000Y-55800000D03*
X54600000Y-57900000D03*
D21*
X73075000Y-54000000D03*
X75175000Y-54000000D03*
D22*
X101000000Y-33350000D03*
X101000000Y-32400000D03*
X101000000Y-31450000D03*
X98800000Y-31450000D03*
X98800000Y-33350000D03*
X98800000Y-32400000D03*
D21*
X64625000Y-54000000D03*
X62525000Y-54000000D03*
D23*
X57250000Y-23650000D03*
X59450000Y-23650000D03*
X62150000Y-23650000D03*
X64350000Y-23650000D03*
X67050000Y-23650000D03*
X69250000Y-23650000D03*
X71950000Y-23650000D03*
X74150000Y-23650000D03*
X52350000Y-23650000D03*
X54550000Y-23650000D03*
D24*
X30400000Y-43380000D03*
X30400000Y-31510000D03*
D25*
X36750000Y-33000000D03*
D26*
X39290000Y-34270000D03*
X36750000Y-35540000D03*
X39290000Y-36810000D03*
X36750000Y-38080000D03*
X39290000Y-39350000D03*
X36750000Y-40620000D03*
X39290000Y-41890000D03*
D27*
X79150000Y-25050000D03*
D28*
X81690000Y-25050000D03*
X84230000Y-25050000D03*
X86770000Y-25050000D03*
D29*
X80800000Y-46950000D03*
X80800000Y-45050000D03*
X73650000Y-56000000D03*
X73650000Y-57900000D03*
X63850000Y-56000000D03*
X63850000Y-57900000D03*
X86050000Y-55800000D03*
X86050000Y-57700000D03*
X51000000Y-55825000D03*
X51000000Y-57725000D03*
X78350000Y-51300000D03*
X78350000Y-53200000D03*
X57425000Y-53200000D03*
X57425000Y-51300000D03*
X69700000Y-49925000D03*
X69700000Y-51825000D03*
D30*
X45500000Y-44050000D03*
X47400000Y-44050000D03*
D29*
X69350000Y-36900000D03*
X69350000Y-35000000D03*
D22*
X79350000Y-57900000D03*
X79350000Y-56950000D03*
X79350000Y-56000000D03*
X77150000Y-56000000D03*
X77150000Y-57900000D03*
X77150000Y-56950000D03*
X60050000Y-57850000D03*
X60050000Y-56900000D03*
X60050000Y-55950000D03*
X57850000Y-55950000D03*
X57850000Y-57850000D03*
X57850000Y-56900000D03*
D31*
X85400000Y-32950000D03*
D32*
X91700000Y-32950000D03*
X91700000Y-30650000D03*
X91700000Y-35250000D03*
D22*
X83000000Y-53200000D03*
X83000000Y-52250000D03*
X83000000Y-51300000D03*
X80800000Y-51300000D03*
X80800000Y-53200000D03*
X80800000Y-52250000D03*
X53950000Y-53200000D03*
X53950000Y-52250000D03*
X53950000Y-51300000D03*
X51750000Y-51300000D03*
X51750000Y-53200000D03*
X51750000Y-52250000D03*
X74200000Y-51700000D03*
X74200000Y-50750000D03*
X74200000Y-49800000D03*
X72000000Y-49800000D03*
X72000000Y-51700000D03*
X72000000Y-50750000D03*
X65600000Y-51700000D03*
X65600000Y-50750000D03*
X65600000Y-49800000D03*
X63400000Y-49800000D03*
X63400000Y-51700000D03*
X63400000Y-50750000D03*
D26*
X46350000Y-32775000D03*
X46350000Y-37655000D03*
D13*
X42750000Y-24750000D03*
D16*
X89300000Y-51350000D03*
X87300000Y-51350000D03*
X89300000Y-49400000D03*
X87300000Y-49400000D03*
X89300000Y-47450000D03*
X87300000Y-47450000D03*
X91200000Y-47500000D03*
X93200000Y-47500000D03*
X91200000Y-49400000D03*
X93200000Y-49400000D03*
X91200000Y-51350000D03*
X93200000Y-51350000D03*
D24*
X104900000Y-41520000D03*
X104900000Y-53390000D03*
D25*
X98550000Y-51900000D03*
D26*
X96010000Y-50630000D03*
X98550000Y-49360000D03*
X96010000Y-48090000D03*
X98550000Y-46820000D03*
X96010000Y-45550000D03*
X98550000Y-44280000D03*
X96010000Y-43010000D03*
D33*
X103600000Y-35550000D03*
X103600000Y-34900000D03*
X103600000Y-34250000D03*
X103600000Y-33600000D03*
X103600000Y-32950000D03*
D34*
X103600000Y-36750000D03*
X103600000Y-31750000D03*
D35*
X106300000Y-37750000D03*
X106300000Y-30750000D03*
D30*
X89250000Y-53500000D03*
X87350000Y-53500000D03*
X93150000Y-53500000D03*
X91250000Y-53500000D03*
D36*
X30010000Y-53390000D03*
X30010000Y-48310000D03*
X35090000Y-48310000D03*
X35090000Y-53390000D03*
D15*
X32550000Y-50850000D03*
D37*
X46160000Y-47948000D03*
X44890000Y-47948000D03*
X43620000Y-47948000D03*
X42350000Y-47948000D03*
X41080000Y-47948000D03*
X39810000Y-47948000D03*
X38540000Y-47948000D03*
X38540000Y-54298000D03*
X39810000Y-54298000D03*
X42350000Y-54298000D03*
X43620000Y-54298000D03*
X44890000Y-54298000D03*
X46160000Y-54298000D03*
X41080000Y-54298000D03*
D27*
X53250000Y-60500000D03*
D28*
X50710000Y-60500000D03*
X48170000Y-60500000D03*
D13*
X92750000Y-103000000D03*
X92750000Y-68000000D03*
X42750000Y-103000000D03*
D15*
X49000000Y-89000000D03*
X41500000Y-89000000D03*
X49000000Y-82000000D03*
X41500000Y-82000000D03*
D19*
X57875000Y-73000000D03*
X61125000Y-73000000D03*
D38*
X82250000Y-77375000D03*
X82250000Y-84125000D03*
D18*
X77500000Y-80000000D03*
X77500000Y-82000000D03*
X88750000Y-80500000D03*
X88750000Y-82500000D03*
X93000000Y-80500000D03*
X93000000Y-82500000D03*
X63000000Y-77750000D03*
X63000000Y-79750000D03*
D20*
X55250000Y-94050000D03*
X55250000Y-91950000D03*
X55250000Y-89800000D03*
X55250000Y-87700000D03*
X55250000Y-82050000D03*
X55250000Y-79950000D03*
X55250000Y-77800000D03*
X55250000Y-75700000D03*
D23*
X89100000Y-86750000D03*
X86900000Y-86750000D03*
D36*
X30960000Y-94040000D03*
X30960000Y-88960000D03*
X36040000Y-88960000D03*
X36040000Y-94040000D03*
D15*
X33500000Y-91500000D03*
D36*
X30960000Y-82040000D03*
X30960000Y-76960000D03*
X36040000Y-76960000D03*
X36040000Y-82040000D03*
D15*
X33500000Y-79500000D03*
D27*
X86250000Y-68000000D03*
D28*
X83710000Y-68000000D03*
X81170000Y-68000000D03*
D27*
X86250000Y-103000000D03*
D28*
X83710000Y-103000000D03*
X81170000Y-103000000D03*
D24*
X105100000Y-74620000D03*
X105100000Y-86490000D03*
D25*
X98750000Y-85000000D03*
D26*
X96210000Y-83730000D03*
X98750000Y-82460000D03*
X96210000Y-81190000D03*
X98750000Y-79920000D03*
X96210000Y-78650000D03*
X98750000Y-77380000D03*
X96210000Y-76110000D03*
D27*
X57500000Y-68000000D03*
D28*
X60040000Y-68000000D03*
X62580000Y-68000000D03*
D30*
X91050000Y-77250000D03*
X92950000Y-77250000D03*
D15*
X42750000Y-95500000D03*
X47750000Y-95500000D03*
X42750000Y-75500000D03*
X47750000Y-75500000D03*
D29*
X52500000Y-93950000D03*
X52500000Y-92050000D03*
X52500000Y-89700000D03*
X52500000Y-87800000D03*
X52500000Y-81950000D03*
X52500000Y-80050000D03*
X52500000Y-77700000D03*
X52500000Y-75800000D03*
D30*
X65800000Y-68000000D03*
X67700000Y-68000000D03*
D29*
X65500000Y-77800000D03*
X65500000Y-79700000D03*
D30*
X54450000Y-68000000D03*
X52550000Y-68000000D03*
X88700000Y-77250000D03*
X86800000Y-77250000D03*
X92950000Y-86750000D03*
X91050000Y-86750000D03*
D39*
X59950000Y-89900000D03*
X59000000Y-89900000D03*
X58050000Y-89900000D03*
X58050000Y-92100000D03*
X59950000Y-92100000D03*
X59000000Y-92100000D03*
X60450000Y-77650000D03*
X59500000Y-77650000D03*
X58550000Y-77650000D03*
X58550000Y-79850000D03*
X60450000Y-79850000D03*
X59500000Y-79850000D03*
D13*
X42750000Y-68000000D03*
D40*
X67500000Y-62250000D03*
X68770000Y-62250000D03*
X66230000Y-62250000D03*
X67500000Y-65000000D03*
X68770000Y-65000000D03*
X66230000Y-65000000D03*
M02*
