M48
;DRILL file {KiCad 4.0.6} date Fri Apr 28 14:46:51 2017
;FORMAT={-:-/ absolute / metric / decimal}
FMAT,2
METRIC,TZ
T1C0.400
T2C0.500
T3C0.550
T4C0.800
T5C0.900
T6C1.000
T7C1.500
T8C1.700
T9C3.048
T10C0.500
T11C3.250
%
G90
G05
M71
T1
X40.95Y-40.75
X40.95Y-43.15
X42.75Y-40.
X43.25Y-43.65
X43.25Y-45.2
X43.75Y-41.75
X45.35Y-35.25
X45.975Y-50.925
X47.95Y-27.1
X48.65Y-33.35
X49.475Y-42.55
X49.75Y-54.65
X50.825Y-42.425
X50.95Y-25.55
X51.25Y-48.15
X51.4Y-43.525
X51.95Y-54.65
X52.1Y-40.925
X52.2Y-32.025
X52.2Y-34.525
X52.2Y-38.125
X52.3Y-29.725
X52.5Y-83.25
X52.5Y-95.25
X54.75Y-45.5
X55.1Y-38.425
X55.25Y-83.25
X55.25Y-95.25
X55.3Y-52.25
X55.65Y-25.55
X55.85Y-45.05
X56.3Y-38.625
X56.8Y-41.525
X57.475Y-49.7
X57.5Y-81.
X57.65Y-47.85
X57.75Y-29.95
X58.Y-75.25
X58.65Y-45.55
X58.8Y-37.05
X58.9Y-41.6
X59.75Y-29.95
X60.45Y-25.55
X60.5Y-81.25
X60.95Y-53.45
X61.15Y-35.05
X61.35Y-26.2
X61.65Y-56.95
X62.225Y-41.975
X62.25Y-33.75
X63.15Y-36.25
X63.475Y-42.
X63.75Y-60.
X64.35Y-33.75
X64.5Y-30.025
X64.5Y-32.025
X64.775Y-42.075
X65.35Y-25.55
X65.95Y-26.75
X66.55Y-52.75
X66.975Y-50.75
X67.Y-43.9
X67.5Y-77.75
X67.75Y-86.25
X68.65Y-31.05
X68.75Y-53.
X68.95Y-29.05
X69.2Y-44.975
X69.65Y-31.75
X69.675Y-48.7
X70.35Y-25.55
X70.4Y-58.55
X71.25Y-33.15
X72.Y-44.975
X73.9Y-44.975
X74.25Y-37.45
X75.15Y-25.55
X75.65Y-47.85
X75.65Y-50.75
X76.05Y-41.9
X78.75Y-32.95
X80.75Y-56.95
X81.75Y-28.55
X81.75Y-31.95
X82.25Y-74.5
X83.375Y-41.875
X84.5Y-52.25
X85.95Y-49.45
X86.2Y-53.5
X88.4Y-29.85
X91.825Y-44.05
X92.25Y-38.75
X94.45Y-35.6
X94.6Y-53.5
X97.05Y-36.6
X98.05Y-30.35
X99.1Y-37.75
X101.4Y-43.45
X101.45Y-38.9
X102.1Y-50.6
X102.4Y-44.1
X104.4Y-45.55
X104.45Y-47.7
X105.Y-31.95
X106.15Y-36.1
X106.2Y-32.
T4
X46.35Y-32.775
X46.35Y-37.655
T5
X36.75Y-33.
X36.75Y-35.54
X36.75Y-38.08
X36.75Y-40.62
X39.29Y-34.27
X39.29Y-36.81
X39.29Y-39.35
X39.29Y-41.89
X96.01Y-43.01
X96.01Y-45.55
X96.01Y-48.09
X96.01Y-50.63
X96.21Y-76.11
X96.21Y-78.65
X96.21Y-81.19
X96.21Y-83.73
X98.55Y-44.28
X98.55Y-46.82
X98.55Y-49.36
X98.55Y-51.9
X98.75Y-77.38
X98.75Y-79.92
X98.75Y-82.46
X98.75Y-85.
T6
X41.5Y-82.
X41.5Y-89.
X42.75Y-75.5
X42.75Y-95.5
X47.75Y-75.5
X47.75Y-95.5
X48.17Y-60.5
X49.Y-82.
X49.Y-89.
X50.71Y-60.5
X53.25Y-60.5
X57.5Y-68.
X60.04Y-68.
X62.58Y-68.
X73.25Y-34.95
X79.15Y-25.05
X80.85Y-34.95
X81.17Y-68.
X81.17Y-103.
X81.69Y-25.05
X83.71Y-68.
X83.71Y-103.
X84.23Y-25.05
X86.25Y-68.
X86.25Y-103.
X86.77Y-25.05
T7
X32.55Y-50.85
X33.5Y-79.5
X33.5Y-91.5
T8
X30.01Y-48.31
X30.01Y-53.39
X30.96Y-76.96
X30.96Y-82.04
X30.96Y-88.96
X30.96Y-94.04
X35.09Y-48.31
X35.09Y-53.39
X36.04Y-76.96
X36.04Y-82.04
X36.04Y-88.96
X36.04Y-94.04
T9
X42.75Y-24.75
X42.75Y-59.75
X42.75Y-68.
X42.75Y-103.
X92.75Y-24.75
X92.75Y-59.75
X92.75Y-68.
X92.75Y-103.
T10
X66.23Y-62.25
X66.23Y-65.
X67.5Y-62.25
X67.5Y-65.
X68.77Y-62.25
X68.77Y-65.
T11
X30.4Y-31.51
X30.4Y-43.38
X104.9Y-41.52
X104.9Y-53.39
X105.1Y-74.62
X105.1Y-86.49
T2
X106.625Y-30.75G85X105.975Y-30.75
G05
X106.625Y-37.75G85X105.975Y-37.75
G05
T3
X103.6Y-31.9G85X103.6Y-31.6
G05
X103.6Y-36.9G85X103.6Y-36.6
G05
T0
M30
