G04 #@! TF.FileFunction,Soldermask,Bot*
%FSLAX46Y46*%
G04 Gerber Fmt 4.6, Leading zero omitted, Abs format (unit mm)*
G04 Created by KiCad (PCBNEW 4.0.7) date Wed Feb 14 18:29:33 2018*
%MOMM*%
%LPD*%
G01*
G04 APERTURE LIST*
%ADD10C,0.100000*%
%ADD11C,4.064000*%
%ADD12C,2.000000*%
%ADD13C,2.200000*%
%ADD14R,1.700000X1.700000*%
%ADD15O,1.700000X1.700000*%
%ADD16C,3.650000*%
%ADD17R,1.500000X1.500000*%
%ADD18C,1.500000*%
%ADD19R,2.000000X2.000000*%
%ADD20R,1.000000X1.250000*%
%ADD21R,1.250000X1.000000*%
%ADD22R,1.270000X0.970000*%
%ADD23R,1.300000X0.700000*%
%ADD24R,0.700000X1.300000*%
%ADD25R,0.650000X1.060000*%
%ADD26O,0.950000X1.250000*%
%ADD27O,1.550000X1.000000*%
%ADD28C,0.500000*%
G04 APERTURE END LIST*
D10*
D11*
X89809000Y-56642000D03*
X89809000Y-21642000D03*
X39809000Y-56642000D03*
D12*
X46059000Y-42642000D03*
X38559000Y-42642000D03*
X46059000Y-35642000D03*
X38559000Y-35642000D03*
D13*
X28019000Y-47682000D03*
X28019000Y-42602000D03*
X33099000Y-42602000D03*
X33099000Y-47682000D03*
D12*
X30559000Y-45142000D03*
D13*
X28019000Y-35682000D03*
X28019000Y-30602000D03*
X33099000Y-30602000D03*
X33099000Y-35682000D03*
D12*
X30559000Y-33142000D03*
D14*
X83309000Y-21642000D03*
D15*
X80769000Y-21642000D03*
X78229000Y-21642000D03*
D14*
X83309000Y-56642000D03*
D15*
X80769000Y-56642000D03*
X78229000Y-56642000D03*
D16*
X102159000Y-28262000D03*
X102159000Y-40132000D03*
D17*
X95809000Y-38642000D03*
D18*
X93269000Y-37372000D03*
X95809000Y-36102000D03*
X93269000Y-34832000D03*
X95809000Y-33562000D03*
X93269000Y-32292000D03*
X95809000Y-31022000D03*
X93269000Y-29752000D03*
D14*
X54559000Y-21642000D03*
D15*
X57099000Y-21642000D03*
X59639000Y-21642000D03*
D12*
X39809000Y-49142000D03*
X44809000Y-49142000D03*
X39809000Y-29142000D03*
X44809000Y-29142000D03*
D11*
X39809000Y-21642000D03*
X89778000Y-101838500D03*
X39778000Y-101838500D03*
X89778000Y-66838500D03*
D19*
X70278000Y-77038500D03*
D12*
X77878000Y-77038500D03*
D20*
X50528000Y-74113500D03*
X52528000Y-74113500D03*
X50528000Y-71813500D03*
X52528000Y-71813500D03*
X60328000Y-72113500D03*
X58328000Y-72113500D03*
X50528000Y-78313500D03*
X52528000Y-78313500D03*
X50528000Y-76613500D03*
X52528000Y-76613500D03*
X52428000Y-83613500D03*
X50428000Y-83613500D03*
X61128000Y-82638500D03*
X59128000Y-82638500D03*
X52328000Y-81913500D03*
X54328000Y-81913500D03*
X61128000Y-80863500D03*
X59128000Y-80863500D03*
X60328000Y-74113500D03*
X58328000Y-74113500D03*
D21*
X41128000Y-74113500D03*
X41128000Y-76113500D03*
X41128000Y-80613500D03*
X41128000Y-78613500D03*
X50628000Y-82013500D03*
X50628000Y-80013500D03*
D16*
X27428000Y-85468500D03*
X27428000Y-73598500D03*
D17*
X33778000Y-75088500D03*
D18*
X36318000Y-76358500D03*
X33778000Y-77628500D03*
X36318000Y-78898500D03*
X33778000Y-80168500D03*
X36318000Y-81438500D03*
X33778000Y-82708500D03*
X36318000Y-83978500D03*
D14*
X76178000Y-67138500D03*
D15*
X78718000Y-67138500D03*
X81258000Y-67138500D03*
X83798000Y-67138500D03*
D22*
X79728000Y-87398500D03*
X79728000Y-88678500D03*
D23*
X103178000Y-75138500D03*
X103178000Y-77038500D03*
D24*
X61328000Y-67638500D03*
X59428000Y-67638500D03*
X66328000Y-67638500D03*
X64428000Y-67638500D03*
X71128000Y-67638500D03*
X69228000Y-67638500D03*
X56328000Y-67638500D03*
X54428000Y-67638500D03*
X51528000Y-67638500D03*
X49628000Y-67638500D03*
D18*
X43378000Y-74863500D03*
X43378000Y-79743500D03*
D11*
X39778000Y-66838500D03*
D25*
X100378000Y-89738500D03*
X99428000Y-89738500D03*
X98478000Y-89738500D03*
X98478000Y-87538500D03*
X100378000Y-87538500D03*
X99428000Y-87538500D03*
D16*
X101917500Y-83600000D03*
X101917500Y-95470000D03*
D17*
X95567500Y-93980000D03*
D18*
X93027500Y-92710000D03*
X95567500Y-91440000D03*
X93027500Y-90170000D03*
X95567500Y-88900000D03*
X93027500Y-87630000D03*
X95567500Y-86360000D03*
X93027500Y-85090000D03*
D26*
X100628000Y-78838500D03*
X100628000Y-73838500D03*
D27*
X103328000Y-79838500D03*
X103328000Y-72838500D03*
D13*
X27038000Y-95478500D03*
X27038000Y-90398500D03*
X32118000Y-90398500D03*
X32118000Y-95478500D03*
D12*
X29578000Y-92938500D03*
D14*
X47758000Y-102158500D03*
D15*
X47758000Y-99618500D03*
X47758000Y-97078500D03*
D28*
X48387000Y-59626500D03*
X49657000Y-59626500D03*
X47117000Y-59626500D03*
X48387000Y-64135000D03*
X49657000Y-64135000D03*
X47117000Y-64135000D03*
X80454500Y-59626500D03*
X81724500Y-59626500D03*
X79184500Y-59626500D03*
X80454500Y-64071500D03*
X81724500Y-64071500D03*
X79184500Y-64071500D03*
M02*
