G04 #@! TF.FileFunction,Legend,Bot*
%FSLAX46Y46*%
G04 Gerber Fmt 4.6, Leading zero omitted, Abs format (unit mm)*
G04 Created by KiCad (PCBNEW 4.0.7) date Wed Feb 14 18:29:33 2018*
%MOMM*%
%LPD*%
G01*
G04 APERTURE LIST*
%ADD10C,0.100000*%
%ADD11C,0.300000*%
%ADD12C,0.120000*%
%ADD13C,0.150000*%
G04 APERTURE END LIST*
D10*
D11*
X65428214Y-92196071D02*
X65142500Y-92196071D01*
X64999642Y-92267500D01*
X64856785Y-92410357D01*
X64785357Y-92696071D01*
X64785357Y-93196071D01*
X64856785Y-93481786D01*
X64999642Y-93624643D01*
X65142500Y-93696071D01*
X65428214Y-93696071D01*
X65571071Y-93624643D01*
X65713928Y-93481786D01*
X65785357Y-93196071D01*
X65785357Y-92696071D01*
X65713928Y-92410357D01*
X65571071Y-92267500D01*
X65428214Y-92196071D01*
X64142499Y-92696071D02*
X64142499Y-94196071D01*
X64142499Y-92767500D02*
X63999642Y-92696071D01*
X63713928Y-92696071D01*
X63571071Y-92767500D01*
X63499642Y-92838929D01*
X63428213Y-92981786D01*
X63428213Y-93410357D01*
X63499642Y-93553214D01*
X63571071Y-93624643D01*
X63713928Y-93696071D01*
X63999642Y-93696071D01*
X64142499Y-93624643D01*
X62213928Y-93624643D02*
X62356785Y-93696071D01*
X62642499Y-93696071D01*
X62785356Y-93624643D01*
X62856785Y-93481786D01*
X62856785Y-92910357D01*
X62785356Y-92767500D01*
X62642499Y-92696071D01*
X62356785Y-92696071D01*
X62213928Y-92767500D01*
X62142499Y-92910357D01*
X62142499Y-93053214D01*
X62856785Y-93196071D01*
X61499642Y-92696071D02*
X61499642Y-93696071D01*
X61499642Y-92838929D02*
X61428214Y-92767500D01*
X61285356Y-92696071D01*
X61071071Y-92696071D01*
X60928214Y-92767500D01*
X60856785Y-92910357D01*
X60856785Y-93696071D01*
X59428213Y-93696071D02*
X60142499Y-93696071D01*
X60142499Y-92196071D01*
X58928213Y-93696071D02*
X58928213Y-92196071D01*
X58571070Y-92196071D01*
X58356785Y-92267500D01*
X58213927Y-92410357D01*
X58142499Y-92553214D01*
X58071070Y-92838929D01*
X58071070Y-93053214D01*
X58142499Y-93338929D01*
X58213927Y-93481786D01*
X58356785Y-93624643D01*
X58571070Y-93696071D01*
X58928213Y-93696071D01*
X57499642Y-93624643D02*
X57285356Y-93696071D01*
X56928213Y-93696071D01*
X56785356Y-93624643D01*
X56713927Y-93553214D01*
X56642499Y-93410357D01*
X56642499Y-93267500D01*
X56713927Y-93124643D01*
X56785356Y-93053214D01*
X56928213Y-92981786D01*
X57213927Y-92910357D01*
X57356785Y-92838929D01*
X57428213Y-92767500D01*
X57499642Y-92624643D01*
X57499642Y-92481786D01*
X57428213Y-92338929D01*
X57356785Y-92267500D01*
X57213927Y-92196071D01*
X56856785Y-92196071D01*
X56642499Y-92267500D01*
X70178214Y-96246071D02*
X70321072Y-96174643D01*
X70392500Y-96031786D01*
X70392500Y-94746071D01*
X69606786Y-96246071D02*
X69606786Y-95246071D01*
X69606786Y-94746071D02*
X69678215Y-94817500D01*
X69606786Y-94888929D01*
X69535358Y-94817500D01*
X69606786Y-94746071D01*
X69606786Y-94888929D01*
X68249643Y-95246071D02*
X68249643Y-96460357D01*
X68321072Y-96603214D01*
X68392500Y-96674643D01*
X68535357Y-96746071D01*
X68749643Y-96746071D01*
X68892500Y-96674643D01*
X68249643Y-96174643D02*
X68392500Y-96246071D01*
X68678214Y-96246071D01*
X68821072Y-96174643D01*
X68892500Y-96103214D01*
X68963929Y-95960357D01*
X68963929Y-95531786D01*
X68892500Y-95388929D01*
X68821072Y-95317500D01*
X68678214Y-95246071D01*
X68392500Y-95246071D01*
X68249643Y-95317500D01*
X67535357Y-96246071D02*
X67535357Y-94746071D01*
X66892500Y-96246071D02*
X66892500Y-95460357D01*
X66963929Y-95317500D01*
X67106786Y-95246071D01*
X67321071Y-95246071D01*
X67463929Y-95317500D01*
X67535357Y-95388929D01*
X66392500Y-95246071D02*
X65821071Y-95246071D01*
X66178214Y-94746071D02*
X66178214Y-96031786D01*
X66106786Y-96174643D01*
X65963928Y-96246071D01*
X65821071Y-96246071D01*
X65321071Y-95246071D02*
X65321071Y-96246071D01*
X65321071Y-95388929D02*
X65249643Y-95317500D01*
X65106785Y-95246071D01*
X64892500Y-95246071D01*
X64749643Y-95317500D01*
X64678214Y-95460357D01*
X64678214Y-96246071D01*
X63963928Y-96246071D02*
X63963928Y-95246071D01*
X63963928Y-94746071D02*
X64035357Y-94817500D01*
X63963928Y-94888929D01*
X63892500Y-94817500D01*
X63963928Y-94746071D01*
X63963928Y-94888929D01*
X63249642Y-95246071D02*
X63249642Y-96246071D01*
X63249642Y-95388929D02*
X63178214Y-95317500D01*
X63035356Y-95246071D01*
X62821071Y-95246071D01*
X62678214Y-95317500D01*
X62606785Y-95460357D01*
X62606785Y-96246071D01*
X61249642Y-95246071D02*
X61249642Y-96460357D01*
X61321071Y-96603214D01*
X61392499Y-96674643D01*
X61535356Y-96746071D01*
X61749642Y-96746071D01*
X61892499Y-96674643D01*
X61249642Y-96174643D02*
X61392499Y-96246071D01*
X61678213Y-96246071D01*
X61821071Y-96174643D01*
X61892499Y-96103214D01*
X61963928Y-95960357D01*
X61963928Y-95531786D01*
X61892499Y-95388929D01*
X61821071Y-95317500D01*
X61678213Y-95246071D01*
X61392499Y-95246071D01*
X61249642Y-95317500D01*
X58749642Y-96246071D02*
X58749642Y-94746071D01*
X58749642Y-96174643D02*
X58892499Y-96246071D01*
X59178213Y-96246071D01*
X59321071Y-96174643D01*
X59392499Y-96103214D01*
X59463928Y-95960357D01*
X59463928Y-95531786D01*
X59392499Y-95388929D01*
X59321071Y-95317500D01*
X59178213Y-95246071D01*
X58892499Y-95246071D01*
X58749642Y-95317500D01*
X57463928Y-96174643D02*
X57606785Y-96246071D01*
X57892499Y-96246071D01*
X58035356Y-96174643D01*
X58106785Y-96031786D01*
X58106785Y-95460357D01*
X58035356Y-95317500D01*
X57892499Y-95246071D01*
X57606785Y-95246071D01*
X57463928Y-95317500D01*
X57392499Y-95460357D01*
X57392499Y-95603214D01*
X58106785Y-95746071D01*
X56963928Y-95246071D02*
X56392499Y-95246071D01*
X56749642Y-94746071D02*
X56749642Y-96031786D01*
X56678214Y-96174643D01*
X56535356Y-96246071D01*
X56392499Y-96246071D01*
X55321071Y-96174643D02*
X55463928Y-96246071D01*
X55749642Y-96246071D01*
X55892499Y-96174643D01*
X55963928Y-96031786D01*
X55963928Y-95460357D01*
X55892499Y-95317500D01*
X55749642Y-95246071D01*
X55463928Y-95246071D01*
X55321071Y-95317500D01*
X55249642Y-95460357D01*
X55249642Y-95603214D01*
X55963928Y-95746071D01*
X53963928Y-96174643D02*
X54106785Y-96246071D01*
X54392499Y-96246071D01*
X54535357Y-96174643D01*
X54606785Y-96103214D01*
X54678214Y-95960357D01*
X54678214Y-95531786D01*
X54606785Y-95388929D01*
X54535357Y-95317500D01*
X54392499Y-95246071D01*
X54106785Y-95246071D01*
X53963928Y-95317500D01*
X53535357Y-95246071D02*
X52963928Y-95246071D01*
X53321071Y-94746071D02*
X53321071Y-96031786D01*
X53249643Y-96174643D01*
X53106785Y-96246071D01*
X52963928Y-96246071D01*
X52249642Y-96246071D02*
X52392500Y-96174643D01*
X52463928Y-96103214D01*
X52535357Y-95960357D01*
X52535357Y-95531786D01*
X52463928Y-95388929D01*
X52392500Y-95317500D01*
X52249642Y-95246071D01*
X52035357Y-95246071D01*
X51892500Y-95317500D01*
X51821071Y-95388929D01*
X51749642Y-95531786D01*
X51749642Y-95960357D01*
X51821071Y-96103214D01*
X51892500Y-96174643D01*
X52035357Y-96246071D01*
X52249642Y-96246071D01*
X51106785Y-96246071D02*
X51106785Y-95246071D01*
X51106785Y-95531786D02*
X51035357Y-95388929D01*
X50963928Y-95317500D01*
X50821071Y-95246071D01*
X50678214Y-95246071D01*
X70392500Y-98796071D02*
X70392500Y-97796071D01*
X70392500Y-97938929D02*
X70321072Y-97867500D01*
X70178214Y-97796071D01*
X69963929Y-97796071D01*
X69821072Y-97867500D01*
X69749643Y-98010357D01*
X69749643Y-98796071D01*
X69749643Y-98010357D02*
X69678214Y-97867500D01*
X69535357Y-97796071D01*
X69321072Y-97796071D01*
X69178214Y-97867500D01*
X69106786Y-98010357D01*
X69106786Y-98796071D01*
X67749643Y-98796071D02*
X67749643Y-98010357D01*
X67821072Y-97867500D01*
X67963929Y-97796071D01*
X68249643Y-97796071D01*
X68392500Y-97867500D01*
X67749643Y-98724643D02*
X67892500Y-98796071D01*
X68249643Y-98796071D01*
X68392500Y-98724643D01*
X68463929Y-98581786D01*
X68463929Y-98438929D01*
X68392500Y-98296071D01*
X68249643Y-98224643D01*
X67892500Y-98224643D01*
X67749643Y-98153214D01*
X67035357Y-98796071D02*
X67035357Y-97796071D01*
X67035357Y-97296071D02*
X67106786Y-97367500D01*
X67035357Y-97438929D01*
X66963929Y-97367500D01*
X67035357Y-97296071D01*
X67035357Y-97438929D01*
X66321071Y-97796071D02*
X66321071Y-98796071D01*
X66321071Y-97938929D02*
X66249643Y-97867500D01*
X66106785Y-97796071D01*
X65892500Y-97796071D01*
X65749643Y-97867500D01*
X65678214Y-98010357D01*
X65678214Y-98796071D01*
X63821071Y-98796071D02*
X63821071Y-97296071D01*
X63821071Y-97867500D02*
X63678214Y-97796071D01*
X63392500Y-97796071D01*
X63249643Y-97867500D01*
X63178214Y-97938929D01*
X63106785Y-98081786D01*
X63106785Y-98510357D01*
X63178214Y-98653214D01*
X63249643Y-98724643D01*
X63392500Y-98796071D01*
X63678214Y-98796071D01*
X63821071Y-98724643D01*
X62249642Y-98796071D02*
X62392500Y-98724643D01*
X62463928Y-98653214D01*
X62535357Y-98510357D01*
X62535357Y-98081786D01*
X62463928Y-97938929D01*
X62392500Y-97867500D01*
X62249642Y-97796071D01*
X62035357Y-97796071D01*
X61892500Y-97867500D01*
X61821071Y-97938929D01*
X61749642Y-98081786D01*
X61749642Y-98510357D01*
X61821071Y-98653214D01*
X61892500Y-98724643D01*
X62035357Y-98796071D01*
X62249642Y-98796071D01*
X60463928Y-98796071D02*
X60463928Y-98010357D01*
X60535357Y-97867500D01*
X60678214Y-97796071D01*
X60963928Y-97796071D01*
X61106785Y-97867500D01*
X60463928Y-98724643D02*
X60606785Y-98796071D01*
X60963928Y-98796071D01*
X61106785Y-98724643D01*
X61178214Y-98581786D01*
X61178214Y-98438929D01*
X61106785Y-98296071D01*
X60963928Y-98224643D01*
X60606785Y-98224643D01*
X60463928Y-98153214D01*
X59749642Y-98796071D02*
X59749642Y-97796071D01*
X59749642Y-98081786D02*
X59678214Y-97938929D01*
X59606785Y-97867500D01*
X59463928Y-97796071D01*
X59321071Y-97796071D01*
X58178214Y-98796071D02*
X58178214Y-97296071D01*
X58178214Y-98724643D02*
X58321071Y-98796071D01*
X58606785Y-98796071D01*
X58749643Y-98724643D01*
X58821071Y-98653214D01*
X58892500Y-98510357D01*
X58892500Y-98081786D01*
X58821071Y-97938929D01*
X58749643Y-97867500D01*
X58606785Y-97796071D01*
X58321071Y-97796071D01*
X58178214Y-97867500D01*
X57392500Y-98724643D02*
X57392500Y-98796071D01*
X57463928Y-98938929D01*
X57535357Y-99010357D01*
X55749642Y-97796071D02*
X55392499Y-98796071D01*
X55035357Y-97796071D01*
X54463928Y-98653214D02*
X54392500Y-98724643D01*
X54463928Y-98796071D01*
X54535357Y-98724643D01*
X54463928Y-98653214D01*
X54463928Y-98796071D01*
X52963928Y-98796071D02*
X53821071Y-98796071D01*
X53392499Y-98796071D02*
X53392499Y-97296071D01*
X53535356Y-97510357D01*
X53678214Y-97653214D01*
X53821071Y-97724643D01*
X52321071Y-98653214D02*
X52249643Y-98724643D01*
X52321071Y-98796071D01*
X52392500Y-98724643D01*
X52321071Y-98653214D01*
X52321071Y-98796071D01*
X50821071Y-98796071D02*
X51678214Y-98796071D01*
X51249642Y-98796071D02*
X51249642Y-97296071D01*
X51392499Y-97510357D01*
X51535357Y-97653214D01*
X51678214Y-97724643D01*
D12*
X52028000Y-74963500D02*
X51028000Y-74963500D01*
X51028000Y-73263500D02*
X52028000Y-73263500D01*
X52028000Y-72663500D02*
X51028000Y-72663500D01*
X51028000Y-70963500D02*
X52028000Y-70963500D01*
X58828000Y-71263500D02*
X59828000Y-71263500D01*
X59828000Y-72963500D02*
X58828000Y-72963500D01*
X52028000Y-79163500D02*
X51028000Y-79163500D01*
X51028000Y-77463500D02*
X52028000Y-77463500D01*
X52028000Y-77463500D02*
X51028000Y-77463500D01*
X51028000Y-75763500D02*
X52028000Y-75763500D01*
X50928000Y-82763500D02*
X51928000Y-82763500D01*
X51928000Y-84463500D02*
X50928000Y-84463500D01*
X59628000Y-81788500D02*
X60628000Y-81788500D01*
X60628000Y-83488500D02*
X59628000Y-83488500D01*
X53828000Y-82763500D02*
X52828000Y-82763500D01*
X52828000Y-81063500D02*
X53828000Y-81063500D01*
X59628000Y-80013500D02*
X60628000Y-80013500D01*
X60628000Y-81713500D02*
X59628000Y-81713500D01*
X58828000Y-73263500D02*
X59828000Y-73263500D01*
X59828000Y-74963500D02*
X58828000Y-74963500D01*
X40278000Y-75613500D02*
X40278000Y-74613500D01*
X41978000Y-74613500D02*
X41978000Y-75613500D01*
X41978000Y-79113500D02*
X41978000Y-80113500D01*
X40278000Y-80113500D02*
X40278000Y-79113500D01*
X51478000Y-80513500D02*
X51478000Y-81513500D01*
X49778000Y-81513500D02*
X49778000Y-80513500D01*
X80618000Y-86768500D02*
X80618000Y-89308500D01*
X78838000Y-89308500D02*
X78838000Y-86768500D01*
X78838000Y-89308500D02*
X80618000Y-89308500D01*
X80618000Y-86768500D02*
X78838000Y-86768500D01*
X104058000Y-76688500D02*
X104058000Y-75488500D01*
X102298000Y-75488500D02*
X102298000Y-76688500D01*
X59778000Y-68518500D02*
X60978000Y-68518500D01*
X60978000Y-66758500D02*
X59778000Y-66758500D01*
X64778000Y-68518500D02*
X65978000Y-68518500D01*
X65978000Y-66758500D02*
X64778000Y-66758500D01*
X69578000Y-68518500D02*
X70778000Y-68518500D01*
X70778000Y-66758500D02*
X69578000Y-66758500D01*
X54778000Y-68518500D02*
X55978000Y-68518500D01*
X55978000Y-66758500D02*
X54778000Y-66758500D01*
X49978000Y-68518500D02*
X51178000Y-68518500D01*
X51178000Y-66758500D02*
X49978000Y-66758500D01*
X97818000Y-89538500D02*
X97818000Y-87738500D01*
X101038000Y-87738500D02*
X101038000Y-90188500D01*
D13*
X48844666Y-74495643D02*
X48892285Y-74543262D01*
X49035142Y-74590881D01*
X49130380Y-74590881D01*
X49273238Y-74543262D01*
X49368476Y-74448024D01*
X49416095Y-74352786D01*
X49463714Y-74162310D01*
X49463714Y-74019452D01*
X49416095Y-73828976D01*
X49368476Y-73733738D01*
X49273238Y-73638500D01*
X49130380Y-73590881D01*
X49035142Y-73590881D01*
X48892285Y-73638500D01*
X48844666Y-73686119D01*
X47892285Y-74590881D02*
X48463714Y-74590881D01*
X48178000Y-74590881D02*
X48178000Y-73590881D01*
X48273238Y-73733738D01*
X48368476Y-73828976D01*
X48463714Y-73876595D01*
X48944666Y-72195643D02*
X48992285Y-72243262D01*
X49135142Y-72290881D01*
X49230380Y-72290881D01*
X49373238Y-72243262D01*
X49468476Y-72148024D01*
X49516095Y-72052786D01*
X49563714Y-71862310D01*
X49563714Y-71719452D01*
X49516095Y-71528976D01*
X49468476Y-71433738D01*
X49373238Y-71338500D01*
X49230380Y-71290881D01*
X49135142Y-71290881D01*
X48992285Y-71338500D01*
X48944666Y-71386119D01*
X48087523Y-71624214D02*
X48087523Y-72290881D01*
X48325619Y-71243262D02*
X48563714Y-71957548D01*
X47944666Y-71957548D01*
X62544666Y-72495643D02*
X62592285Y-72543262D01*
X62735142Y-72590881D01*
X62830380Y-72590881D01*
X62973238Y-72543262D01*
X63068476Y-72448024D01*
X63116095Y-72352786D01*
X63163714Y-72162310D01*
X63163714Y-72019452D01*
X63116095Y-71828976D01*
X63068476Y-71733738D01*
X62973238Y-71638500D01*
X62830380Y-71590881D01*
X62735142Y-71590881D01*
X62592285Y-71638500D01*
X62544666Y-71686119D01*
X61639904Y-71590881D02*
X62116095Y-71590881D01*
X62163714Y-72067071D01*
X62116095Y-72019452D01*
X62020857Y-71971833D01*
X61782761Y-71971833D01*
X61687523Y-72019452D01*
X61639904Y-72067071D01*
X61592285Y-72162310D01*
X61592285Y-72400405D01*
X61639904Y-72495643D01*
X61687523Y-72543262D01*
X61782761Y-72590881D01*
X62020857Y-72590881D01*
X62116095Y-72543262D01*
X62163714Y-72495643D01*
X48744666Y-78795643D02*
X48792285Y-78843262D01*
X48935142Y-78890881D01*
X49030380Y-78890881D01*
X49173238Y-78843262D01*
X49268476Y-78748024D01*
X49316095Y-78652786D01*
X49363714Y-78462310D01*
X49363714Y-78319452D01*
X49316095Y-78128976D01*
X49268476Y-78033738D01*
X49173238Y-77938500D01*
X49030380Y-77890881D01*
X48935142Y-77890881D01*
X48792285Y-77938500D01*
X48744666Y-77986119D01*
X47887523Y-77890881D02*
X48078000Y-77890881D01*
X48173238Y-77938500D01*
X48220857Y-77986119D01*
X48316095Y-78128976D01*
X48363714Y-78319452D01*
X48363714Y-78700405D01*
X48316095Y-78795643D01*
X48268476Y-78843262D01*
X48173238Y-78890881D01*
X47982761Y-78890881D01*
X47887523Y-78843262D01*
X47839904Y-78795643D01*
X47792285Y-78700405D01*
X47792285Y-78462310D01*
X47839904Y-78367071D01*
X47887523Y-78319452D01*
X47982761Y-78271833D01*
X48173238Y-78271833D01*
X48268476Y-78319452D01*
X48316095Y-78367071D01*
X48363714Y-78462310D01*
X48844666Y-77095643D02*
X48892285Y-77143262D01*
X49035142Y-77190881D01*
X49130380Y-77190881D01*
X49273238Y-77143262D01*
X49368476Y-77048024D01*
X49416095Y-76952786D01*
X49463714Y-76762310D01*
X49463714Y-76619452D01*
X49416095Y-76428976D01*
X49368476Y-76333738D01*
X49273238Y-76238500D01*
X49130380Y-76190881D01*
X49035142Y-76190881D01*
X48892285Y-76238500D01*
X48844666Y-76286119D01*
X48273238Y-76619452D02*
X48368476Y-76571833D01*
X48416095Y-76524214D01*
X48463714Y-76428976D01*
X48463714Y-76381357D01*
X48416095Y-76286119D01*
X48368476Y-76238500D01*
X48273238Y-76190881D01*
X48082761Y-76190881D01*
X47987523Y-76238500D01*
X47939904Y-76286119D01*
X47892285Y-76381357D01*
X47892285Y-76428976D01*
X47939904Y-76524214D01*
X47987523Y-76571833D01*
X48082761Y-76619452D01*
X48273238Y-76619452D01*
X48368476Y-76667071D01*
X48416095Y-76714690D01*
X48463714Y-76809929D01*
X48463714Y-77000405D01*
X48416095Y-77095643D01*
X48368476Y-77143262D01*
X48273238Y-77190881D01*
X48082761Y-77190881D01*
X47987523Y-77143262D01*
X47939904Y-77095643D01*
X47892285Y-77000405D01*
X47892285Y-76809929D01*
X47939904Y-76714690D01*
X47987523Y-76667071D01*
X48082761Y-76619452D01*
X48544666Y-83995643D02*
X48592285Y-84043262D01*
X48735142Y-84090881D01*
X48830380Y-84090881D01*
X48973238Y-84043262D01*
X49068476Y-83948024D01*
X49116095Y-83852786D01*
X49163714Y-83662310D01*
X49163714Y-83519452D01*
X49116095Y-83328976D01*
X49068476Y-83233738D01*
X48973238Y-83138500D01*
X48830380Y-83090881D01*
X48735142Y-83090881D01*
X48592285Y-83138500D01*
X48544666Y-83186119D01*
X48068476Y-84090881D02*
X47878000Y-84090881D01*
X47782761Y-84043262D01*
X47735142Y-83995643D01*
X47639904Y-83852786D01*
X47592285Y-83662310D01*
X47592285Y-83281357D01*
X47639904Y-83186119D01*
X47687523Y-83138500D01*
X47782761Y-83090881D01*
X47973238Y-83090881D01*
X48068476Y-83138500D01*
X48116095Y-83186119D01*
X48163714Y-83281357D01*
X48163714Y-83519452D01*
X48116095Y-83614690D01*
X48068476Y-83662310D01*
X47973238Y-83709929D01*
X47782761Y-83709929D01*
X47687523Y-83662310D01*
X47639904Y-83614690D01*
X47592285Y-83519452D01*
X64220857Y-83095643D02*
X64268476Y-83143262D01*
X64411333Y-83190881D01*
X64506571Y-83190881D01*
X64649429Y-83143262D01*
X64744667Y-83048024D01*
X64792286Y-82952786D01*
X64839905Y-82762310D01*
X64839905Y-82619452D01*
X64792286Y-82428976D01*
X64744667Y-82333738D01*
X64649429Y-82238500D01*
X64506571Y-82190881D01*
X64411333Y-82190881D01*
X64268476Y-82238500D01*
X64220857Y-82286119D01*
X63268476Y-83190881D02*
X63839905Y-83190881D01*
X63554191Y-83190881D02*
X63554191Y-82190881D01*
X63649429Y-82333738D01*
X63744667Y-82428976D01*
X63839905Y-82476595D01*
X62649429Y-82190881D02*
X62554190Y-82190881D01*
X62458952Y-82238500D01*
X62411333Y-82286119D01*
X62363714Y-82381357D01*
X62316095Y-82571833D01*
X62316095Y-82809929D01*
X62363714Y-83000405D01*
X62411333Y-83095643D01*
X62458952Y-83143262D01*
X62554190Y-83190881D01*
X62649429Y-83190881D01*
X62744667Y-83143262D01*
X62792286Y-83095643D01*
X62839905Y-83000405D01*
X62887524Y-82809929D01*
X62887524Y-82571833D01*
X62839905Y-82381357D01*
X62792286Y-82286119D01*
X62744667Y-82238500D01*
X62649429Y-82190881D01*
X57120857Y-82295643D02*
X57168476Y-82343262D01*
X57311333Y-82390881D01*
X57406571Y-82390881D01*
X57549429Y-82343262D01*
X57644667Y-82248024D01*
X57692286Y-82152786D01*
X57739905Y-81962310D01*
X57739905Y-81819452D01*
X57692286Y-81628976D01*
X57644667Y-81533738D01*
X57549429Y-81438500D01*
X57406571Y-81390881D01*
X57311333Y-81390881D01*
X57168476Y-81438500D01*
X57120857Y-81486119D01*
X56168476Y-82390881D02*
X56739905Y-82390881D01*
X56454191Y-82390881D02*
X56454191Y-81390881D01*
X56549429Y-81533738D01*
X56644667Y-81628976D01*
X56739905Y-81676595D01*
X55835143Y-81390881D02*
X55216095Y-81390881D01*
X55549429Y-81771833D01*
X55406571Y-81771833D01*
X55311333Y-81819452D01*
X55263714Y-81867071D01*
X55216095Y-81962310D01*
X55216095Y-82200405D01*
X55263714Y-82295643D01*
X55311333Y-82343262D01*
X55406571Y-82390881D01*
X55692286Y-82390881D01*
X55787524Y-82343262D01*
X55835143Y-82295643D01*
X64220857Y-81195643D02*
X64268476Y-81243262D01*
X64411333Y-81290881D01*
X64506571Y-81290881D01*
X64649429Y-81243262D01*
X64744667Y-81148024D01*
X64792286Y-81052786D01*
X64839905Y-80862310D01*
X64839905Y-80719452D01*
X64792286Y-80528976D01*
X64744667Y-80433738D01*
X64649429Y-80338500D01*
X64506571Y-80290881D01*
X64411333Y-80290881D01*
X64268476Y-80338500D01*
X64220857Y-80386119D01*
X63268476Y-81290881D02*
X63839905Y-81290881D01*
X63554191Y-81290881D02*
X63554191Y-80290881D01*
X63649429Y-80433738D01*
X63744667Y-80528976D01*
X63839905Y-80576595D01*
X62411333Y-80624214D02*
X62411333Y-81290881D01*
X62649429Y-80243262D02*
X62887524Y-80957548D01*
X62268476Y-80957548D01*
X63520857Y-74495643D02*
X63568476Y-74543262D01*
X63711333Y-74590881D01*
X63806571Y-74590881D01*
X63949429Y-74543262D01*
X64044667Y-74448024D01*
X64092286Y-74352786D01*
X64139905Y-74162310D01*
X64139905Y-74019452D01*
X64092286Y-73828976D01*
X64044667Y-73733738D01*
X63949429Y-73638500D01*
X63806571Y-73590881D01*
X63711333Y-73590881D01*
X63568476Y-73638500D01*
X63520857Y-73686119D01*
X62568476Y-74590881D02*
X63139905Y-74590881D01*
X62854191Y-74590881D02*
X62854191Y-73590881D01*
X62949429Y-73733738D01*
X63044667Y-73828976D01*
X63139905Y-73876595D01*
X61663714Y-73590881D02*
X62139905Y-73590881D01*
X62187524Y-74067071D01*
X62139905Y-74019452D01*
X62044667Y-73971833D01*
X61806571Y-73971833D01*
X61711333Y-74019452D01*
X61663714Y-74067071D01*
X61616095Y-74162310D01*
X61616095Y-74400405D01*
X61663714Y-74495643D01*
X61711333Y-74543262D01*
X61806571Y-74590881D01*
X62044667Y-74590881D01*
X62139905Y-74543262D01*
X62187524Y-74495643D01*
X39985143Y-74470643D02*
X40032762Y-74423024D01*
X40080381Y-74280167D01*
X40080381Y-74184929D01*
X40032762Y-74042071D01*
X39937524Y-73946833D01*
X39842286Y-73899214D01*
X39651810Y-73851595D01*
X39508952Y-73851595D01*
X39318476Y-73899214D01*
X39223238Y-73946833D01*
X39128000Y-74042071D01*
X39080381Y-74184929D01*
X39080381Y-74280167D01*
X39128000Y-74423024D01*
X39175619Y-74470643D01*
X40080381Y-75423024D02*
X40080381Y-74851595D01*
X40080381Y-75137309D02*
X39080381Y-75137309D01*
X39223238Y-75042071D01*
X39318476Y-74946833D01*
X39366095Y-74851595D01*
X39080381Y-76280167D02*
X39080381Y-76089690D01*
X39128000Y-75994452D01*
X39175619Y-75946833D01*
X39318476Y-75851595D01*
X39508952Y-75803976D01*
X39889905Y-75803976D01*
X39985143Y-75851595D01*
X40032762Y-75899214D01*
X40080381Y-75994452D01*
X40080381Y-76184929D01*
X40032762Y-76280167D01*
X39985143Y-76327786D01*
X39889905Y-76375405D01*
X39651810Y-76375405D01*
X39556571Y-76327786D01*
X39508952Y-76280167D01*
X39461333Y-76184929D01*
X39461333Y-75994452D01*
X39508952Y-75899214D01*
X39556571Y-75851595D01*
X39651810Y-75803976D01*
X39935143Y-78995643D02*
X39982762Y-78948024D01*
X40030381Y-78805167D01*
X40030381Y-78709929D01*
X39982762Y-78567071D01*
X39887524Y-78471833D01*
X39792286Y-78424214D01*
X39601810Y-78376595D01*
X39458952Y-78376595D01*
X39268476Y-78424214D01*
X39173238Y-78471833D01*
X39078000Y-78567071D01*
X39030381Y-78709929D01*
X39030381Y-78805167D01*
X39078000Y-78948024D01*
X39125619Y-78995643D01*
X40030381Y-79948024D02*
X40030381Y-79376595D01*
X40030381Y-79662309D02*
X39030381Y-79662309D01*
X39173238Y-79567071D01*
X39268476Y-79471833D01*
X39316095Y-79376595D01*
X39030381Y-80281357D02*
X39030381Y-80948024D01*
X40030381Y-80519452D01*
X49135143Y-80295643D02*
X49182762Y-80248024D01*
X49230381Y-80105167D01*
X49230381Y-80009929D01*
X49182762Y-79867071D01*
X49087524Y-79771833D01*
X48992286Y-79724214D01*
X48801810Y-79676595D01*
X48658952Y-79676595D01*
X48468476Y-79724214D01*
X48373238Y-79771833D01*
X48278000Y-79867071D01*
X48230381Y-80009929D01*
X48230381Y-80105167D01*
X48278000Y-80248024D01*
X48325619Y-80295643D01*
X49230381Y-81248024D02*
X49230381Y-80676595D01*
X49230381Y-80962309D02*
X48230381Y-80962309D01*
X48373238Y-80867071D01*
X48468476Y-80771833D01*
X48516095Y-80676595D01*
X49230381Y-81724214D02*
X49230381Y-81914690D01*
X49182762Y-82009929D01*
X49135143Y-82057548D01*
X48992286Y-82152786D01*
X48801810Y-82200405D01*
X48420857Y-82200405D01*
X48325619Y-82152786D01*
X48278000Y-82105167D01*
X48230381Y-82009929D01*
X48230381Y-81819452D01*
X48278000Y-81724214D01*
X48325619Y-81676595D01*
X48420857Y-81628976D01*
X48658952Y-81628976D01*
X48754190Y-81676595D01*
X48801810Y-81724214D01*
X48849429Y-81819452D01*
X48849429Y-82009929D01*
X48801810Y-82105167D01*
X48754190Y-82152786D01*
X48658952Y-82200405D01*
X77400381Y-87205167D02*
X78114667Y-87205167D01*
X78257524Y-87157547D01*
X78352762Y-87062309D01*
X78400381Y-86919452D01*
X78400381Y-86824214D01*
X78400381Y-87681357D02*
X77400381Y-87681357D01*
X77400381Y-88062310D01*
X77448000Y-88157548D01*
X77495619Y-88205167D01*
X77590857Y-88252786D01*
X77733714Y-88252786D01*
X77828952Y-88205167D01*
X77876571Y-88157548D01*
X77924190Y-88062310D01*
X77924190Y-87681357D01*
X78400381Y-89205167D02*
X78400381Y-88633738D01*
X78400381Y-88919452D02*
X77400381Y-88919452D01*
X77543238Y-88824214D01*
X77638476Y-88728976D01*
X77686095Y-88633738D01*
X100655381Y-75946834D02*
X100179190Y-75613500D01*
X100655381Y-75375405D02*
X99655381Y-75375405D01*
X99655381Y-75756358D01*
X99703000Y-75851596D01*
X99750619Y-75899215D01*
X99845857Y-75946834D01*
X99988714Y-75946834D01*
X100083952Y-75899215D01*
X100131571Y-75851596D01*
X100179190Y-75756358D01*
X100179190Y-75375405D01*
X99655381Y-76280167D02*
X99655381Y-76946834D01*
X100655381Y-76518262D01*
X102030381Y-75330167D02*
X102030381Y-74758738D01*
X102030381Y-75044452D02*
X101030381Y-75044452D01*
X101173238Y-74949214D01*
X101268476Y-74853976D01*
X101316095Y-74758738D01*
X101935143Y-75758738D02*
X101982762Y-75806357D01*
X102030381Y-75758738D01*
X101982762Y-75711119D01*
X101935143Y-75758738D01*
X102030381Y-75758738D01*
X101030381Y-76711119D02*
X101030381Y-76234928D01*
X101506571Y-76187309D01*
X101458952Y-76234928D01*
X101411333Y-76330166D01*
X101411333Y-76568262D01*
X101458952Y-76663500D01*
X101506571Y-76711119D01*
X101601810Y-76758738D01*
X101839905Y-76758738D01*
X101935143Y-76711119D01*
X101982762Y-76663500D01*
X102030381Y-76568262D01*
X102030381Y-76330166D01*
X101982762Y-76234928D01*
X101935143Y-76187309D01*
X102030381Y-77187309D02*
X101030381Y-77187309D01*
X101649429Y-77282547D02*
X102030381Y-77568262D01*
X101363714Y-77568262D02*
X101744667Y-77187309D01*
X60544666Y-66440881D02*
X60878000Y-65964690D01*
X61116095Y-66440881D02*
X61116095Y-65440881D01*
X60735142Y-65440881D01*
X60639904Y-65488500D01*
X60592285Y-65536119D01*
X60544666Y-65631357D01*
X60544666Y-65774214D01*
X60592285Y-65869452D01*
X60639904Y-65917071D01*
X60735142Y-65964690D01*
X61116095Y-65964690D01*
X60068476Y-66440881D02*
X59878000Y-66440881D01*
X59782761Y-66393262D01*
X59735142Y-66345643D01*
X59639904Y-66202786D01*
X59592285Y-66012310D01*
X59592285Y-65631357D01*
X59639904Y-65536119D01*
X59687523Y-65488500D01*
X59782761Y-65440881D01*
X59973238Y-65440881D01*
X60068476Y-65488500D01*
X60116095Y-65536119D01*
X60163714Y-65631357D01*
X60163714Y-65869452D01*
X60116095Y-65964690D01*
X60068476Y-66012310D01*
X59973238Y-66059929D01*
X59782761Y-66059929D01*
X59687523Y-66012310D01*
X59639904Y-65964690D01*
X59592285Y-65869452D01*
X66020857Y-66440881D02*
X66354191Y-65964690D01*
X66592286Y-66440881D02*
X66592286Y-65440881D01*
X66211333Y-65440881D01*
X66116095Y-65488500D01*
X66068476Y-65536119D01*
X66020857Y-65631357D01*
X66020857Y-65774214D01*
X66068476Y-65869452D01*
X66116095Y-65917071D01*
X66211333Y-65964690D01*
X66592286Y-65964690D01*
X65068476Y-66440881D02*
X65639905Y-66440881D01*
X65354191Y-66440881D02*
X65354191Y-65440881D01*
X65449429Y-65583738D01*
X65544667Y-65678976D01*
X65639905Y-65726595D01*
X64449429Y-65440881D02*
X64354190Y-65440881D01*
X64258952Y-65488500D01*
X64211333Y-65536119D01*
X64163714Y-65631357D01*
X64116095Y-65821833D01*
X64116095Y-66059929D01*
X64163714Y-66250405D01*
X64211333Y-66345643D01*
X64258952Y-66393262D01*
X64354190Y-66440881D01*
X64449429Y-66440881D01*
X64544667Y-66393262D01*
X64592286Y-66345643D01*
X64639905Y-66250405D01*
X64687524Y-66059929D01*
X64687524Y-65821833D01*
X64639905Y-65631357D01*
X64592286Y-65536119D01*
X64544667Y-65488500D01*
X64449429Y-65440881D01*
X70820857Y-66440881D02*
X71154191Y-65964690D01*
X71392286Y-66440881D02*
X71392286Y-65440881D01*
X71011333Y-65440881D01*
X70916095Y-65488500D01*
X70868476Y-65536119D01*
X70820857Y-65631357D01*
X70820857Y-65774214D01*
X70868476Y-65869452D01*
X70916095Y-65917071D01*
X71011333Y-65964690D01*
X71392286Y-65964690D01*
X69868476Y-66440881D02*
X70439905Y-66440881D01*
X70154191Y-66440881D02*
X70154191Y-65440881D01*
X70249429Y-65583738D01*
X70344667Y-65678976D01*
X70439905Y-65726595D01*
X68916095Y-66440881D02*
X69487524Y-66440881D01*
X69201810Y-66440881D02*
X69201810Y-65440881D01*
X69297048Y-65583738D01*
X69392286Y-65678976D01*
X69487524Y-65726595D01*
X56020857Y-66440881D02*
X56354191Y-65964690D01*
X56592286Y-66440881D02*
X56592286Y-65440881D01*
X56211333Y-65440881D01*
X56116095Y-65488500D01*
X56068476Y-65536119D01*
X56020857Y-65631357D01*
X56020857Y-65774214D01*
X56068476Y-65869452D01*
X56116095Y-65917071D01*
X56211333Y-65964690D01*
X56592286Y-65964690D01*
X55068476Y-66440881D02*
X55639905Y-66440881D01*
X55354191Y-66440881D02*
X55354191Y-65440881D01*
X55449429Y-65583738D01*
X55544667Y-65678976D01*
X55639905Y-65726595D01*
X54687524Y-65536119D02*
X54639905Y-65488500D01*
X54544667Y-65440881D01*
X54306571Y-65440881D01*
X54211333Y-65488500D01*
X54163714Y-65536119D01*
X54116095Y-65631357D01*
X54116095Y-65726595D01*
X54163714Y-65869452D01*
X54735143Y-66440881D01*
X54116095Y-66440881D01*
X51220857Y-66440881D02*
X51554191Y-65964690D01*
X51792286Y-66440881D02*
X51792286Y-65440881D01*
X51411333Y-65440881D01*
X51316095Y-65488500D01*
X51268476Y-65536119D01*
X51220857Y-65631357D01*
X51220857Y-65774214D01*
X51268476Y-65869452D01*
X51316095Y-65917071D01*
X51411333Y-65964690D01*
X51792286Y-65964690D01*
X50268476Y-66440881D02*
X50839905Y-66440881D01*
X50554191Y-66440881D02*
X50554191Y-65440881D01*
X50649429Y-65583738D01*
X50744667Y-65678976D01*
X50839905Y-65726595D01*
X49411333Y-65774214D02*
X49411333Y-66440881D01*
X49649429Y-65393262D02*
X49887524Y-66107548D01*
X49268476Y-66107548D01*
X101080381Y-90924214D02*
X100080381Y-90924214D01*
X100080381Y-91162309D01*
X100128000Y-91305167D01*
X100223238Y-91400405D01*
X100318476Y-91448024D01*
X100508952Y-91495643D01*
X100651810Y-91495643D01*
X100842286Y-91448024D01*
X100937524Y-91400405D01*
X101032762Y-91305167D01*
X101080381Y-91162309D01*
X101080381Y-90924214D01*
X101080381Y-92448024D02*
X101080381Y-91876595D01*
X101080381Y-92162309D02*
X100080381Y-92162309D01*
X100223238Y-92067071D01*
X100318476Y-91971833D01*
X100366095Y-91876595D01*
X101080381Y-93400405D02*
X101080381Y-92828976D01*
X101080381Y-93114690D02*
X100080381Y-93114690D01*
X100223238Y-93019452D01*
X100318476Y-92924214D01*
X100366095Y-92828976D01*
M02*
