M48
;DRILL file {KiCad 4.0.7} date Wed Feb 14 18:25:57 2018
;FORMAT={-:-/ absolute / metric / decimal}
FMAT,2
METRIC,TZ
T1C0.400
T2C0.500
T3C0.550
T4C0.800
T5C0.900
T6C1.000
T7C1.500
T8C1.700
T9C3.048
T10C0.500
T11C3.250
%
G90
G05
M71
T1
X30.208Y-75.088
X30.248Y-77.629
X30.268Y-80.168
X30.268Y-82.709
X37.978Y-82.588
X39.828Y-82.038
X40.228Y-87.938
X40.278Y-85.739
X40.578Y-83.888
X42.378Y-77.338
X42.578Y-88.338
X43.003Y-93.013
X44.978Y-69.188
X45.328Y-87.989
X45.378Y-85.188
X45.678Y-75.438
X46.178Y-84.338
X46.778Y-86.588
X47.278Y-93.438
X47.853Y-84.513
X47.978Y-67.638
X48.178Y-86.688
X48.828Y-91.338
X49.098Y-94.379
X49.128Y-83.013
X49.228Y-74.114
X49.228Y-76.614
X49.228Y-80.213
X49.328Y-71.813
X49.559Y-36.892
X49.559Y-48.892
X49.948Y-97.008
X51.028Y-89.739
X51.978Y-88.088
X52.078Y-91.388
X52.128Y-80.513
X52.309Y-36.892
X52.309Y-48.892
X52.358Y-100.008
X52.678Y-67.638
X52.798Y-95.028
X53.328Y-80.713
X53.828Y-83.614
X54.178Y-87.138
X54.778Y-72.038
X55.828Y-79.138
X55.928Y-83.688
X56.128Y-92.239
X56.178Y-95.438
X56.178Y-99.739
X56.228Y-93.788
X56.228Y-97.388
X56.228Y-100.938
X56.278Y-74.388
X57.478Y-67.638
X58.178Y-77.138
X58.209Y-36.782
X58.378Y-68.288
X58.478Y-97.388
X58.778Y-90.838
X58.778Y-94.638
X58.878Y-100.989
X59.253Y-84.063
X59.278Y-75.788
X60.178Y-78.338
X60.309Y-32.202
X60.503Y-84.088
X61.378Y-75.838
X61.528Y-72.114
X61.528Y-74.114
X61.803Y-84.163
X62.378Y-67.638
X62.978Y-68.838
X64.028Y-85.989
X64.629Y-44.202
X64.728Y-92.103
X64.778Y-94.638
X64.778Y-98.453
X64.778Y-100.989
X65.678Y-73.138
X65.919Y-35.012
X65.978Y-71.138
X66.028Y-83.938
X66.228Y-87.063
X66.678Y-73.838
X67.028Y-90.834
X67.378Y-67.638
X67.478Y-94.239
X67.478Y-97.183
X67.478Y-100.588
X69.499Y-45.452
X70.389Y-31.472
X70.678Y-95.588
X71.278Y-79.538
X72.178Y-67.638
X73.078Y-76.288
X73.928Y-102.989
X74.528Y-77.838
X74.678Y-99.788
X74.728Y-90.838
X74.728Y-93.388
X74.728Y-97.239
X74.728Y-98.489
X74.778Y-92.138
X75.278Y-101.088
X75.458Y-87.588
X75.778Y-75.038
X77.578Y-90.788
X77.578Y-94.638
X77.628Y-97.239
X77.628Y-101.038
X78.378Y-102.239
X78.778Y-70.638
X78.778Y-74.038
X79.309Y-28.142
X80.328Y-96.188
X80.403Y-83.963
X81.678Y-92.138
X82.978Y-91.538
X83.228Y-95.588
X85.428Y-71.938
X88.853Y-86.138
X89.278Y-80.838
X91.478Y-77.688
X91.628Y-95.588
X94.078Y-78.688
X95.078Y-72.438
X96.128Y-79.838
X98.428Y-85.538
X98.478Y-80.989
X99.128Y-92.688
X99.428Y-86.188
X101.428Y-87.638
X101.478Y-89.788
X102.028Y-74.038
X103.178Y-78.188
X103.228Y-74.088
T4
X43.378Y-74.864
X43.378Y-79.743
T5
X33.778Y-75.088
X33.778Y-77.629
X33.778Y-80.168
X33.778Y-82.709
X36.318Y-76.358
X36.318Y-78.898
X36.318Y-81.438
X36.318Y-83.978
X93.027Y-85.09
X93.027Y-87.63
X93.027Y-90.17
X93.027Y-92.71
X93.269Y-29.752
X93.269Y-32.292
X93.269Y-34.832
X93.269Y-37.372
X95.567Y-86.36
X95.567Y-88.9
X95.567Y-91.44
X95.567Y-93.98
X95.809Y-31.022
X95.809Y-33.562
X95.809Y-36.102
X95.809Y-38.642
T6
X38.559Y-35.642
X38.559Y-42.642
X39.809Y-29.142
X39.809Y-49.142
X44.809Y-29.142
X44.809Y-49.142
X46.059Y-35.642
X46.059Y-42.642
X47.758Y-97.078
X47.758Y-99.618
X47.758Y-102.158
X54.559Y-21.642
X57.099Y-21.642
X59.639Y-21.642
X70.278Y-77.038
X76.178Y-67.138
X77.878Y-77.038
X78.229Y-21.642
X78.229Y-56.642
X78.718Y-67.138
X80.769Y-21.642
X80.769Y-56.642
X81.258Y-67.138
X83.309Y-21.642
X83.309Y-56.642
X83.798Y-67.138
T7
X29.578Y-92.938
X30.559Y-33.142
X30.559Y-45.142
T8
X27.038Y-90.398
X27.038Y-95.478
X28.019Y-30.602
X28.019Y-35.682
X28.019Y-42.602
X28.019Y-47.682
X32.118Y-90.398
X32.118Y-95.478
X33.099Y-30.602
X33.099Y-35.682
X33.099Y-42.602
X33.099Y-47.682
T9
X39.778Y-66.838
X39.778Y-101.838
X39.809Y-21.642
X39.809Y-56.642
X89.778Y-66.838
X89.778Y-101.838
X89.809Y-21.642
X89.809Y-56.642
T10
X47.117Y-59.627
X47.117Y-64.135
X48.387Y-59.627
X48.387Y-64.135
X49.657Y-59.627
X49.657Y-64.135
X79.184Y-59.627
X79.184Y-64.072
X80.454Y-59.627
X80.454Y-64.072
X81.724Y-59.627
X81.724Y-64.072
T11
X27.428Y-73.599
X27.428Y-85.468
X101.917Y-83.6
X101.917Y-95.47
X102.159Y-28.262
X102.159Y-40.132
T2
X103.653Y-72.838G85X103.003Y-72.838
G05
X103.653Y-79.838G85X103.003Y-79.838
G05
T3
X100.628Y-73.989G85X100.628Y-73.688
G05
X100.628Y-78.989G85X100.628Y-78.688
G05
T0
M30
