M48
;DRILL file {KiCad 5.0.1} date Вт 19 мар 2019 18:19:37
;FORMAT={-:-/ absolute / metric / decimal}
FMAT,2
METRIC,TZ
T1C0.400
T2C0.500
T3C0.550
T4C0.800
T5C0.900
T6C1.000
T7C1.500
T8C1.700
T9C3.048
T10C3.250
%
G90
G05
M71
T1
X28.43Y-33.75
X28.47Y-36.29
X28.49Y-38.83
X28.49Y-41.37
X36.2Y-41.25
X38.05Y-40.7
X38.45Y-46.6
X38.5Y-44.4
X38.8Y-42.55
X40.6Y-36.
X40.8Y-47.
X41.225Y-51.675
X43.2Y-27.85
X43.55Y-46.65
X43.6Y-43.85
X43.9Y-34.1
X44.4Y-43.
X45.Y-45.25
X45.5Y-52.1
X46.075Y-43.175
X46.2Y-26.3
X46.4Y-45.35
X47.05Y-50.
X47.32Y-53.04
X47.35Y-41.675
X47.45Y-32.775
X47.45Y-35.275
X47.45Y-38.875
X47.55Y-30.475
X48.17Y-55.67
X49.25Y-48.4
X50.2Y-46.75
X50.3Y-50.05
X50.35Y-39.175
X50.58Y-58.67
X50.9Y-26.3
X51.02Y-53.69
X51.55Y-39.375
X52.05Y-42.275
X52.4Y-45.8
X53.Y-30.7
X54.05Y-37.8
X54.15Y-42.35
X54.35Y-50.9
X54.4Y-54.1
X54.45Y-56.05
X54.45Y-59.6
X54.5Y-33.05
X55.7Y-26.3
X56.4Y-35.8
X56.6Y-26.95
X56.7Y-56.05
X57.Y-49.5
X57.Y-53.3
X57.1Y-59.65
X57.475Y-42.725
X57.5Y-34.45
X58.4Y-37.
X58.725Y-42.75
X59.6Y-34.5
X59.75Y-30.775
X59.75Y-32.775
X60.025Y-42.825
X60.6Y-26.3
X61.2Y-27.5
X61.976Y-50.165
X61.976Y-51.968
X61.976Y-56.769
X62.027Y-58.522
X62.25Y-44.65
X63.119Y-61.468
X63.9Y-31.8
X64.2Y-29.8
X64.25Y-42.6
X64.45Y-45.725
X64.9Y-32.5
X65.151Y-48.26
X65.151Y-54.356
X65.6Y-26.3
X66.904Y-55.931
X66.929Y-49.276
X66.929Y-53.086
X66.954Y-59.69
X67.46Y-51.539
X68.377Y-60.858
X68.557Y-50.442
X69.5Y-38.2
X69.698Y-55.931
X69.723Y-49.276
X69.723Y-53.086
X69.748Y-59.69
X70.4Y-26.3
X71.3Y-34.95
X71.374Y-54.038
X72.523Y-53.971
X72.75Y-36.5
X73.68Y-46.25
X73.812Y-60.757
X74.Y-33.7
X75.047Y-54.057
X75.54Y-55.88
X75.565Y-53.086
X75.565Y-60.452
X75.692Y-49.276
X75.946Y-51.943
X76.898Y-57.925
X77.Y-29.3
X77.Y-32.7
X77.851Y-51.943
X78.232Y-49.276
X78.232Y-50.546
X78.232Y-53.086
X78.384Y-55.88
X78.588Y-59.741
X78.625Y-42.625
X79.08Y-55.027
X80.854Y-54.102
X82.461Y-59.182
X83.65Y-30.6
X84.023Y-61.57
X84.836Y-60.579
X87.5Y-39.5
X88.646Y-45.466
X89.7Y-36.35
X90.551Y-53.086
X90.551Y-54.356
X92.3Y-37.35
X93.3Y-31.1
X94.35Y-38.5
X96.65Y-44.2
X96.7Y-39.65
X97.35Y-51.35
X97.65Y-44.85
X99.65Y-46.3
X100.25Y-32.7
X101.4Y-36.85
X101.45Y-32.75
T4
X41.6Y-33.525
X41.6Y-38.405
T5
X91.26Y-43.76
X91.26Y-46.3
X91.26Y-48.84
X91.26Y-51.38
X93.8Y-45.03
X93.8Y-47.57
X93.8Y-50.11
X93.8Y-52.65
X32.Y-33.75
X32.Y-36.29
X32.Y-38.83
X32.Y-41.37
X34.54Y-35.02
X34.54Y-37.56
X34.54Y-40.1
X34.54Y-42.64
T6
X45.98Y-55.74
X45.98Y-58.28
X45.98Y-60.82
X68.5Y-35.7
X76.1Y-35.7
X74.4Y-25.8
X76.94Y-25.8
X79.48Y-25.8
X82.02Y-25.8
T7
X27.8Y-51.6
T8
X25.26Y-49.06
X25.26Y-54.14
X30.34Y-49.06
X30.34Y-54.14
T9
X38.Y-60.5
X38.Y-25.5
X88.Y-60.5
X88.Y-25.5
T10
X100.15Y-42.27
X100.15Y-54.14
X25.65Y-32.26
X25.65Y-44.13
T2
X101.875Y-31.5G85X101.225Y-31.5
G05
X101.875Y-38.5G85X101.225Y-38.5
G05
T3
X98.85Y-32.65G85X98.85Y-32.35
G05
X98.85Y-37.65G85X98.85Y-37.35
G05
T0
M30
