G04 #@! TF.GenerationSoftware,KiCad,Pcbnew,5.0.1*
G04 #@! TF.CreationDate,2019-03-19T18:21:43+03:00*
G04 #@! TF.ProjectId,gps-timestamper,6770732D74696D657374616D7065722E,rev?*
G04 #@! TF.SameCoordinates,Original*
G04 #@! TF.FileFunction,Legend,Bot*
G04 #@! TF.FilePolarity,Positive*
%FSLAX46Y46*%
G04 Gerber Fmt 4.6, Leading zero omitted, Abs format (unit mm)*
G04 Created by KiCad (PCBNEW 5.0.1) date Вт 19 мар 2019 18:21:43*
%MOMM*%
%LPD*%
G01*
G04 APERTURE LIST*
%ADD10C,0.300000*%
%ADD11C,0.120000*%
%ADD12C,0.150000*%
G04 APERTURE END LIST*
D10*
X81378428Y-32595214D02*
X82878428Y-32595214D01*
X81378428Y-31738071D01*
X82878428Y-31738071D01*
X81378428Y-30166642D02*
X82092714Y-30666642D01*
X81378428Y-31023785D02*
X82878428Y-31023785D01*
X82878428Y-30452357D01*
X82807000Y-30309500D01*
X82735571Y-30238071D01*
X82592714Y-30166642D01*
X82378428Y-30166642D01*
X82235571Y-30238071D01*
X82164142Y-30309500D01*
X82092714Y-30452357D01*
X82092714Y-31023785D01*
X81449857Y-29595214D02*
X81378428Y-29380928D01*
X81378428Y-29023785D01*
X81449857Y-28880928D01*
X81521285Y-28809500D01*
X81664142Y-28738071D01*
X81807000Y-28738071D01*
X81949857Y-28809500D01*
X82021285Y-28880928D01*
X82092714Y-29023785D01*
X82164142Y-29309500D01*
X82235571Y-29452357D01*
X82307000Y-29523785D01*
X82449857Y-29595214D01*
X82592714Y-29595214D01*
X82735571Y-29523785D01*
X82807000Y-29452357D01*
X82878428Y-29309500D01*
X82878428Y-28952357D01*
X82807000Y-28738071D01*
X82878428Y-28309500D02*
X82878428Y-27452357D01*
X81378428Y-27880928D02*
X82878428Y-27880928D01*
X78899857Y-34380928D02*
X78828428Y-34166642D01*
X78828428Y-33809500D01*
X78899857Y-33666642D01*
X78971285Y-33595214D01*
X79114142Y-33523785D01*
X79257000Y-33523785D01*
X79399857Y-33595214D01*
X79471285Y-33666642D01*
X79542714Y-33809500D01*
X79614142Y-34095214D01*
X79685571Y-34238071D01*
X79757000Y-34309500D01*
X79899857Y-34380928D01*
X80042714Y-34380928D01*
X80185571Y-34309500D01*
X80257000Y-34238071D01*
X80328428Y-34095214D01*
X80328428Y-33738071D01*
X80257000Y-33523785D01*
X80328428Y-33023785D02*
X78828428Y-32666642D01*
X79899857Y-32380928D01*
X78828428Y-32095214D01*
X80328428Y-31738071D01*
X78971285Y-30309500D02*
X78899857Y-30380928D01*
X78828428Y-30595214D01*
X78828428Y-30738071D01*
X78899857Y-30952357D01*
X79042714Y-31095214D01*
X79185571Y-31166642D01*
X79471285Y-31238071D01*
X79685571Y-31238071D01*
X79971285Y-31166642D01*
X80114142Y-31095214D01*
X80257000Y-30952357D01*
X80328428Y-30738071D01*
X80328428Y-30595214D01*
X80257000Y-30380928D01*
X80185571Y-30309500D01*
X78828428Y-28952357D02*
X78828428Y-29666642D01*
X80328428Y-29666642D01*
X78828428Y-28452357D02*
X80328428Y-28452357D01*
X78828428Y-27595214D02*
X79685571Y-28238071D01*
X80328428Y-27595214D02*
X79471285Y-28452357D01*
X76349857Y-33952357D02*
X76278428Y-33738071D01*
X76278428Y-33380928D01*
X76349857Y-33238071D01*
X76421285Y-33166642D01*
X76564142Y-33095214D01*
X76707000Y-33095214D01*
X76849857Y-33166642D01*
X76921285Y-33238071D01*
X76992714Y-33380928D01*
X77064142Y-33666642D01*
X77135571Y-33809500D01*
X77207000Y-33880928D01*
X77349857Y-33952357D01*
X77492714Y-33952357D01*
X77635571Y-33880928D01*
X77707000Y-33809500D01*
X77778428Y-33666642D01*
X77778428Y-33309500D01*
X77707000Y-33095214D01*
X77778428Y-32595214D02*
X76278428Y-32238071D01*
X77349857Y-31952357D01*
X76278428Y-31666642D01*
X77778428Y-31309500D01*
X76278428Y-30738071D02*
X77778428Y-30738071D01*
X77778428Y-30380928D01*
X77707000Y-30166642D01*
X77564142Y-30023785D01*
X77421285Y-29952357D01*
X77135571Y-29880928D01*
X76921285Y-29880928D01*
X76635571Y-29952357D01*
X76492714Y-30023785D01*
X76349857Y-30166642D01*
X76278428Y-30380928D01*
X76278428Y-30738071D01*
X76278428Y-29238071D02*
X77778428Y-29238071D01*
X77778428Y-28238071D02*
X77778428Y-27952357D01*
X77707000Y-27809500D01*
X77564142Y-27666642D01*
X77278428Y-27595214D01*
X76778428Y-27595214D01*
X76492714Y-27666642D01*
X76349857Y-27809500D01*
X76278428Y-27952357D01*
X76278428Y-28238071D01*
X76349857Y-28380928D01*
X76492714Y-28523785D01*
X76778428Y-28595214D01*
X77278428Y-28595214D01*
X77564142Y-28523785D01*
X77707000Y-28380928D01*
X77778428Y-28238071D01*
X75157000Y-30738071D02*
X75228428Y-30880928D01*
X75228428Y-31095214D01*
X75157000Y-31309500D01*
X75014142Y-31452357D01*
X74871285Y-31523785D01*
X74585571Y-31595214D01*
X74371285Y-31595214D01*
X74085571Y-31523785D01*
X73942714Y-31452357D01*
X73799857Y-31309500D01*
X73728428Y-31095214D01*
X73728428Y-30952357D01*
X73799857Y-30738071D01*
X73871285Y-30666642D01*
X74371285Y-30666642D01*
X74371285Y-30952357D01*
X73728428Y-30023785D02*
X75228428Y-30023785D01*
X73728428Y-29166642D01*
X75228428Y-29166642D01*
X73728428Y-28452357D02*
X75228428Y-28452357D01*
X75228428Y-28095214D01*
X75157000Y-27880928D01*
X75014142Y-27738071D01*
X74871285Y-27666642D01*
X74585571Y-27595214D01*
X74371285Y-27595214D01*
X74085571Y-27666642D01*
X73942714Y-27738071D01*
X73799857Y-27880928D01*
X73728428Y-28095214D01*
X73728428Y-28452357D01*
X96500071Y-33655142D02*
X95000071Y-33655142D01*
X95000071Y-34226571D01*
X95071500Y-34369428D01*
X95142928Y-34440857D01*
X95285785Y-34512285D01*
X95500071Y-34512285D01*
X95642928Y-34440857D01*
X95714357Y-34369428D01*
X95785785Y-34226571D01*
X95785785Y-33655142D01*
X96357214Y-36012285D02*
X96428642Y-35940857D01*
X96500071Y-35726571D01*
X96500071Y-35583714D01*
X96428642Y-35369428D01*
X96285785Y-35226571D01*
X96142928Y-35155142D01*
X95857214Y-35083714D01*
X95642928Y-35083714D01*
X95357214Y-35155142D01*
X95214357Y-35226571D01*
X95071500Y-35369428D01*
X95000071Y-35583714D01*
X95000071Y-35726571D01*
X95071500Y-35940857D01*
X95142928Y-36012285D01*
X35275357Y-53978642D02*
X35203928Y-53764357D01*
X35203928Y-53407214D01*
X35275357Y-53264357D01*
X35346785Y-53192928D01*
X35489642Y-53121500D01*
X35632500Y-53121500D01*
X35775357Y-53192928D01*
X35846785Y-53264357D01*
X35918214Y-53407214D01*
X35989642Y-53692928D01*
X36061071Y-53835785D01*
X36132500Y-53907214D01*
X36275357Y-53978642D01*
X36418214Y-53978642D01*
X36561071Y-53907214D01*
X36632500Y-53835785D01*
X36703928Y-53692928D01*
X36703928Y-53335785D01*
X36632500Y-53121500D01*
X35918214Y-52192928D02*
X35203928Y-52192928D01*
X36703928Y-52692928D02*
X35918214Y-52192928D01*
X36703928Y-51692928D01*
X35203928Y-51192928D02*
X36703928Y-51192928D01*
X35203928Y-50335785D01*
X36703928Y-50335785D01*
X35346785Y-48764357D02*
X35275357Y-48835785D01*
X35203928Y-49050071D01*
X35203928Y-49192928D01*
X35275357Y-49407214D01*
X35418214Y-49550071D01*
X35561071Y-49621500D01*
X35846785Y-49692928D01*
X36061071Y-49692928D01*
X36346785Y-49621500D01*
X36489642Y-49550071D01*
X36632500Y-49407214D01*
X36703928Y-49192928D01*
X36703928Y-49050071D01*
X36632500Y-48835785D01*
X36561071Y-48764357D01*
X34153928Y-52871500D02*
X34153928Y-52585785D01*
X34082500Y-52442928D01*
X33939642Y-52300071D01*
X33653928Y-52228642D01*
X33153928Y-52228642D01*
X32868214Y-52300071D01*
X32725357Y-52442928D01*
X32653928Y-52585785D01*
X32653928Y-52871500D01*
X32725357Y-53014357D01*
X32868214Y-53157214D01*
X33153928Y-53228642D01*
X33653928Y-53228642D01*
X33939642Y-53157214D01*
X34082500Y-53014357D01*
X34153928Y-52871500D01*
X34153928Y-51585785D02*
X32939642Y-51585785D01*
X32796785Y-51514357D01*
X32725357Y-51442928D01*
X32653928Y-51300071D01*
X32653928Y-51014357D01*
X32725357Y-50871500D01*
X32796785Y-50800071D01*
X32939642Y-50728642D01*
X34153928Y-50728642D01*
X34153928Y-50228642D02*
X34153928Y-49371500D01*
X32653928Y-49800071D02*
X34153928Y-49800071D01*
X102080142Y-44752071D02*
X102151571Y-44966357D01*
X102151571Y-45323500D01*
X102080142Y-45466357D01*
X102008714Y-45537785D01*
X101865857Y-45609214D01*
X101723000Y-45609214D01*
X101580142Y-45537785D01*
X101508714Y-45466357D01*
X101437285Y-45323500D01*
X101365857Y-45037785D01*
X101294428Y-44894928D01*
X101223000Y-44823500D01*
X101080142Y-44752071D01*
X100937285Y-44752071D01*
X100794428Y-44823500D01*
X100723000Y-44894928D01*
X100651571Y-45037785D01*
X100651571Y-45394928D01*
X100723000Y-45609214D01*
X102151571Y-46252071D02*
X100651571Y-46252071D01*
X100723000Y-47752071D02*
X100651571Y-47609214D01*
X100651571Y-47394928D01*
X100723000Y-47180642D01*
X100865857Y-47037785D01*
X101008714Y-46966357D01*
X101294428Y-46894928D01*
X101508714Y-46894928D01*
X101794428Y-46966357D01*
X101937285Y-47037785D01*
X102080142Y-47180642D01*
X102151571Y-47394928D01*
X102151571Y-47537785D01*
X102080142Y-47752071D01*
X102008714Y-47823500D01*
X101508714Y-47823500D01*
X101508714Y-47537785D01*
X102151571Y-48466357D02*
X100651571Y-48466357D01*
X102151571Y-49323500D01*
X100651571Y-49323500D01*
X101723000Y-49966357D02*
X101723000Y-50680642D01*
X102151571Y-49823500D02*
X100651571Y-50323500D01*
X102151571Y-50823500D01*
X102151571Y-52037785D02*
X102151571Y-51323500D01*
X100651571Y-51323500D01*
X25324500Y-39044428D02*
X25395928Y-39187285D01*
X25395928Y-39401571D01*
X25324500Y-39615857D01*
X25181642Y-39758714D01*
X25038785Y-39830142D01*
X24753071Y-39901571D01*
X24538785Y-39901571D01*
X24253071Y-39830142D01*
X24110214Y-39758714D01*
X23967357Y-39615857D01*
X23895928Y-39401571D01*
X23895928Y-39258714D01*
X23967357Y-39044428D01*
X24038785Y-38973000D01*
X24538785Y-38973000D01*
X24538785Y-39258714D01*
X23895928Y-38330142D02*
X25395928Y-38330142D01*
X25395928Y-37758714D01*
X25324500Y-37615857D01*
X25253071Y-37544428D01*
X25110214Y-37473000D01*
X24895928Y-37473000D01*
X24753071Y-37544428D01*
X24681642Y-37615857D01*
X24610214Y-37758714D01*
X24610214Y-38330142D01*
X23967357Y-36901571D02*
X23895928Y-36687285D01*
X23895928Y-36330142D01*
X23967357Y-36187285D01*
X24038785Y-36115857D01*
X24181642Y-36044428D01*
X24324500Y-36044428D01*
X24467357Y-36115857D01*
X24538785Y-36187285D01*
X24610214Y-36330142D01*
X24681642Y-36615857D01*
X24753071Y-36758714D01*
X24824500Y-36830142D01*
X24967357Y-36901571D01*
X25110214Y-36901571D01*
X25253071Y-36830142D01*
X25324500Y-36758714D01*
X25395928Y-36615857D01*
X25395928Y-36258714D01*
X25324500Y-36044428D01*
X63459785Y-51048071D02*
X63174071Y-51048071D01*
X63031214Y-51119500D01*
X62888357Y-51262357D01*
X62816928Y-51548071D01*
X62816928Y-52048071D01*
X62888357Y-52333785D01*
X63031214Y-52476642D01*
X63174071Y-52548071D01*
X63459785Y-52548071D01*
X63602642Y-52476642D01*
X63745500Y-52333785D01*
X63816928Y-52048071D01*
X63816928Y-51548071D01*
X63745500Y-51262357D01*
X63602642Y-51119500D01*
X63459785Y-51048071D01*
X62174071Y-51548071D02*
X62174071Y-53048071D01*
X62174071Y-51619500D02*
X62031214Y-51548071D01*
X61745500Y-51548071D01*
X61602642Y-51619500D01*
X61531214Y-51690928D01*
X61459785Y-51833785D01*
X61459785Y-52262357D01*
X61531214Y-52405214D01*
X61602642Y-52476642D01*
X61745500Y-52548071D01*
X62031214Y-52548071D01*
X62174071Y-52476642D01*
X60245500Y-52476642D02*
X60388357Y-52548071D01*
X60674071Y-52548071D01*
X60816928Y-52476642D01*
X60888357Y-52333785D01*
X60888357Y-51762357D01*
X60816928Y-51619500D01*
X60674071Y-51548071D01*
X60388357Y-51548071D01*
X60245500Y-51619500D01*
X60174071Y-51762357D01*
X60174071Y-51905214D01*
X60888357Y-52048071D01*
X59531214Y-51548071D02*
X59531214Y-52548071D01*
X59531214Y-51690928D02*
X59459785Y-51619500D01*
X59316928Y-51548071D01*
X59102642Y-51548071D01*
X58959785Y-51619500D01*
X58888357Y-51762357D01*
X58888357Y-52548071D01*
X57459785Y-52548071D02*
X58174071Y-52548071D01*
X58174071Y-51048071D01*
X56959785Y-52548071D02*
X56959785Y-51048071D01*
X56602642Y-51048071D01*
X56388357Y-51119500D01*
X56245500Y-51262357D01*
X56174071Y-51405214D01*
X56102642Y-51690928D01*
X56102642Y-51905214D01*
X56174071Y-52190928D01*
X56245500Y-52333785D01*
X56388357Y-52476642D01*
X56602642Y-52548071D01*
X56959785Y-52548071D01*
X55531214Y-52476642D02*
X55316928Y-52548071D01*
X54959785Y-52548071D01*
X54816928Y-52476642D01*
X54745500Y-52405214D01*
X54674071Y-52262357D01*
X54674071Y-52119500D01*
X54745500Y-51976642D01*
X54816928Y-51905214D01*
X54959785Y-51833785D01*
X55245500Y-51762357D01*
X55388357Y-51690928D01*
X55459785Y-51619500D01*
X55531214Y-51476642D01*
X55531214Y-51333785D01*
X55459785Y-51190928D01*
X55388357Y-51119500D01*
X55245500Y-51048071D01*
X54888357Y-51048071D01*
X54674071Y-51119500D01*
X68781214Y-55098071D02*
X68924071Y-55026642D01*
X68995500Y-54883785D01*
X68995500Y-53598071D01*
X68209785Y-55098071D02*
X68209785Y-54098071D01*
X68209785Y-53598071D02*
X68281214Y-53669500D01*
X68209785Y-53740928D01*
X68138357Y-53669500D01*
X68209785Y-53598071D01*
X68209785Y-53740928D01*
X66852642Y-54098071D02*
X66852642Y-55312357D01*
X66924071Y-55455214D01*
X66995500Y-55526642D01*
X67138357Y-55598071D01*
X67352642Y-55598071D01*
X67495500Y-55526642D01*
X66852642Y-55026642D02*
X66995500Y-55098071D01*
X67281214Y-55098071D01*
X67424071Y-55026642D01*
X67495500Y-54955214D01*
X67566928Y-54812357D01*
X67566928Y-54383785D01*
X67495500Y-54240928D01*
X67424071Y-54169500D01*
X67281214Y-54098071D01*
X66995500Y-54098071D01*
X66852642Y-54169500D01*
X66138357Y-55098071D02*
X66138357Y-53598071D01*
X65495500Y-55098071D02*
X65495500Y-54312357D01*
X65566928Y-54169500D01*
X65709785Y-54098071D01*
X65924071Y-54098071D01*
X66066928Y-54169500D01*
X66138357Y-54240928D01*
X64995500Y-54098071D02*
X64424071Y-54098071D01*
X64781214Y-53598071D02*
X64781214Y-54883785D01*
X64709785Y-55026642D01*
X64566928Y-55098071D01*
X64424071Y-55098071D01*
X63924071Y-54098071D02*
X63924071Y-55098071D01*
X63924071Y-54240928D02*
X63852642Y-54169500D01*
X63709785Y-54098071D01*
X63495500Y-54098071D01*
X63352642Y-54169500D01*
X63281214Y-54312357D01*
X63281214Y-55098071D01*
X62566928Y-55098071D02*
X62566928Y-54098071D01*
X62566928Y-53598071D02*
X62638357Y-53669500D01*
X62566928Y-53740928D01*
X62495500Y-53669500D01*
X62566928Y-53598071D01*
X62566928Y-53740928D01*
X61852642Y-54098071D02*
X61852642Y-55098071D01*
X61852642Y-54240928D02*
X61781214Y-54169500D01*
X61638357Y-54098071D01*
X61424071Y-54098071D01*
X61281214Y-54169500D01*
X61209785Y-54312357D01*
X61209785Y-55098071D01*
X59852642Y-54098071D02*
X59852642Y-55312357D01*
X59924071Y-55455214D01*
X59995500Y-55526642D01*
X60138357Y-55598071D01*
X60352642Y-55598071D01*
X60495500Y-55526642D01*
X59852642Y-55026642D02*
X59995500Y-55098071D01*
X60281214Y-55098071D01*
X60424071Y-55026642D01*
X60495500Y-54955214D01*
X60566928Y-54812357D01*
X60566928Y-54383785D01*
X60495500Y-54240928D01*
X60424071Y-54169500D01*
X60281214Y-54098071D01*
X59995500Y-54098071D01*
X59852642Y-54169500D01*
X57352642Y-55098071D02*
X57352642Y-53598071D01*
X57352642Y-55026642D02*
X57495500Y-55098071D01*
X57781214Y-55098071D01*
X57924071Y-55026642D01*
X57995500Y-54955214D01*
X58066928Y-54812357D01*
X58066928Y-54383785D01*
X57995500Y-54240928D01*
X57924071Y-54169500D01*
X57781214Y-54098071D01*
X57495500Y-54098071D01*
X57352642Y-54169500D01*
X56066928Y-55026642D02*
X56209785Y-55098071D01*
X56495500Y-55098071D01*
X56638357Y-55026642D01*
X56709785Y-54883785D01*
X56709785Y-54312357D01*
X56638357Y-54169500D01*
X56495500Y-54098071D01*
X56209785Y-54098071D01*
X56066928Y-54169500D01*
X55995500Y-54312357D01*
X55995500Y-54455214D01*
X56709785Y-54598071D01*
X55566928Y-54098071D02*
X54995500Y-54098071D01*
X55352642Y-53598071D02*
X55352642Y-54883785D01*
X55281214Y-55026642D01*
X55138357Y-55098071D01*
X54995500Y-55098071D01*
X53924071Y-55026642D02*
X54066928Y-55098071D01*
X54352642Y-55098071D01*
X54495500Y-55026642D01*
X54566928Y-54883785D01*
X54566928Y-54312357D01*
X54495500Y-54169500D01*
X54352642Y-54098071D01*
X54066928Y-54098071D01*
X53924071Y-54169500D01*
X53852642Y-54312357D01*
X53852642Y-54455214D01*
X54566928Y-54598071D01*
X52566928Y-55026642D02*
X52709785Y-55098071D01*
X52995500Y-55098071D01*
X53138357Y-55026642D01*
X53209785Y-54955214D01*
X53281214Y-54812357D01*
X53281214Y-54383785D01*
X53209785Y-54240928D01*
X53138357Y-54169500D01*
X52995500Y-54098071D01*
X52709785Y-54098071D01*
X52566928Y-54169500D01*
X52138357Y-54098071D02*
X51566928Y-54098071D01*
X51924071Y-53598071D02*
X51924071Y-54883785D01*
X51852642Y-55026642D01*
X51709785Y-55098071D01*
X51566928Y-55098071D01*
X50852642Y-55098071D02*
X50995500Y-55026642D01*
X51066928Y-54955214D01*
X51138357Y-54812357D01*
X51138357Y-54383785D01*
X51066928Y-54240928D01*
X50995500Y-54169500D01*
X50852642Y-54098071D01*
X50638357Y-54098071D01*
X50495500Y-54169500D01*
X50424071Y-54240928D01*
X50352642Y-54383785D01*
X50352642Y-54812357D01*
X50424071Y-54955214D01*
X50495500Y-55026642D01*
X50638357Y-55098071D01*
X50852642Y-55098071D01*
X49709785Y-55098071D02*
X49709785Y-54098071D01*
X49709785Y-54383785D02*
X49638357Y-54240928D01*
X49566928Y-54169500D01*
X49424071Y-54098071D01*
X49281214Y-54098071D01*
X68638357Y-57648071D02*
X68638357Y-56648071D01*
X68638357Y-56790928D02*
X68566928Y-56719500D01*
X68424071Y-56648071D01*
X68209785Y-56648071D01*
X68066928Y-56719500D01*
X67995500Y-56862357D01*
X67995500Y-57648071D01*
X67995500Y-56862357D02*
X67924071Y-56719500D01*
X67781214Y-56648071D01*
X67566928Y-56648071D01*
X67424071Y-56719500D01*
X67352642Y-56862357D01*
X67352642Y-57648071D01*
X65995500Y-57648071D02*
X65995500Y-56862357D01*
X66066928Y-56719500D01*
X66209785Y-56648071D01*
X66495500Y-56648071D01*
X66638357Y-56719500D01*
X65995500Y-57576642D02*
X66138357Y-57648071D01*
X66495500Y-57648071D01*
X66638357Y-57576642D01*
X66709785Y-57433785D01*
X66709785Y-57290928D01*
X66638357Y-57148071D01*
X66495500Y-57076642D01*
X66138357Y-57076642D01*
X65995500Y-57005214D01*
X65281214Y-57648071D02*
X65281214Y-56648071D01*
X65281214Y-56148071D02*
X65352642Y-56219500D01*
X65281214Y-56290928D01*
X65209785Y-56219500D01*
X65281214Y-56148071D01*
X65281214Y-56290928D01*
X64566928Y-56648071D02*
X64566928Y-57648071D01*
X64566928Y-56790928D02*
X64495500Y-56719500D01*
X64352642Y-56648071D01*
X64138357Y-56648071D01*
X63995500Y-56719500D01*
X63924071Y-56862357D01*
X63924071Y-57648071D01*
X62066928Y-57648071D02*
X62066928Y-56148071D01*
X62066928Y-56719500D02*
X61924071Y-56648071D01*
X61638357Y-56648071D01*
X61495500Y-56719500D01*
X61424071Y-56790928D01*
X61352642Y-56933785D01*
X61352642Y-57362357D01*
X61424071Y-57505214D01*
X61495500Y-57576642D01*
X61638357Y-57648071D01*
X61924071Y-57648071D01*
X62066928Y-57576642D01*
X60495500Y-57648071D02*
X60638357Y-57576642D01*
X60709785Y-57505214D01*
X60781214Y-57362357D01*
X60781214Y-56933785D01*
X60709785Y-56790928D01*
X60638357Y-56719500D01*
X60495500Y-56648071D01*
X60281214Y-56648071D01*
X60138357Y-56719500D01*
X60066928Y-56790928D01*
X59995500Y-56933785D01*
X59995500Y-57362357D01*
X60066928Y-57505214D01*
X60138357Y-57576642D01*
X60281214Y-57648071D01*
X60495500Y-57648071D01*
X58709785Y-57648071D02*
X58709785Y-56862357D01*
X58781214Y-56719500D01*
X58924071Y-56648071D01*
X59209785Y-56648071D01*
X59352642Y-56719500D01*
X58709785Y-57576642D02*
X58852642Y-57648071D01*
X59209785Y-57648071D01*
X59352642Y-57576642D01*
X59424071Y-57433785D01*
X59424071Y-57290928D01*
X59352642Y-57148071D01*
X59209785Y-57076642D01*
X58852642Y-57076642D01*
X58709785Y-57005214D01*
X57995500Y-57648071D02*
X57995500Y-56648071D01*
X57995500Y-56933785D02*
X57924071Y-56790928D01*
X57852642Y-56719500D01*
X57709785Y-56648071D01*
X57566928Y-56648071D01*
X56424071Y-57648071D02*
X56424071Y-56148071D01*
X56424071Y-57576642D02*
X56566928Y-57648071D01*
X56852642Y-57648071D01*
X56995500Y-57576642D01*
X57066928Y-57505214D01*
X57138357Y-57362357D01*
X57138357Y-56933785D01*
X57066928Y-56790928D01*
X56995500Y-56719500D01*
X56852642Y-56648071D01*
X56566928Y-56648071D01*
X56424071Y-56719500D01*
X55638357Y-57576642D02*
X55638357Y-57648071D01*
X55709785Y-57790928D01*
X55781214Y-57862357D01*
X53995500Y-56648071D02*
X53638357Y-57648071D01*
X53281214Y-56648071D01*
X51924071Y-57648071D02*
X52781214Y-57648071D01*
X52352642Y-57648071D02*
X52352642Y-56148071D01*
X52495500Y-56362357D01*
X52638357Y-56505214D01*
X52781214Y-56576642D01*
X51281214Y-57505214D02*
X51209785Y-57576642D01*
X51281214Y-57648071D01*
X51352642Y-57576642D01*
X51281214Y-57505214D01*
X51281214Y-57648071D01*
X50638357Y-56290928D02*
X50566928Y-56219500D01*
X50424071Y-56148071D01*
X50066928Y-56148071D01*
X49924071Y-56219500D01*
X49852642Y-56290928D01*
X49781214Y-56433785D01*
X49781214Y-56576642D01*
X49852642Y-56790928D01*
X50709785Y-57648071D01*
X49781214Y-57648071D01*
D11*
G04 #@! TO.C,C1*
X50250000Y-33625000D02*
X49250000Y-33625000D01*
X49250000Y-31925000D02*
X50250000Y-31925000D01*
G04 #@! TO.C,C4*
X50250000Y-31325000D02*
X49250000Y-31325000D01*
X49250000Y-29625000D02*
X50250000Y-29625000D01*
G04 #@! TO.C,C5*
X57050000Y-29925000D02*
X58050000Y-29925000D01*
X58050000Y-31625000D02*
X57050000Y-31625000D01*
G04 #@! TO.C,C6*
X50250000Y-37825000D02*
X49250000Y-37825000D01*
X49250000Y-36125000D02*
X50250000Y-36125000D01*
G04 #@! TO.C,C8*
X50250000Y-36125000D02*
X49250000Y-36125000D01*
X49250000Y-34425000D02*
X50250000Y-34425000D01*
G04 #@! TO.C,C9*
X49150000Y-41425000D02*
X50150000Y-41425000D01*
X50150000Y-43125000D02*
X49150000Y-43125000D01*
G04 #@! TO.C,C10*
X57850000Y-40450000D02*
X58850000Y-40450000D01*
X58850000Y-42150000D02*
X57850000Y-42150000D01*
G04 #@! TO.C,C13*
X52050000Y-41425000D02*
X51050000Y-41425000D01*
X51050000Y-39725000D02*
X52050000Y-39725000D01*
G04 #@! TO.C,C14*
X57850000Y-38675000D02*
X58850000Y-38675000D01*
X58850000Y-40375000D02*
X57850000Y-40375000D01*
G04 #@! TO.C,C15*
X57050000Y-31925000D02*
X58050000Y-31925000D01*
X58050000Y-33625000D02*
X57050000Y-33625000D01*
G04 #@! TO.C,C16*
X38500000Y-34275000D02*
X38500000Y-33275000D01*
X40200000Y-33275000D02*
X40200000Y-34275000D01*
G04 #@! TO.C,C17*
X40200000Y-37775000D02*
X40200000Y-38775000D01*
X38500000Y-38775000D02*
X38500000Y-37775000D01*
G04 #@! TO.C,C19*
X49700000Y-39175000D02*
X49700000Y-40175000D01*
X48000000Y-40175000D02*
X48000000Y-39175000D01*
G04 #@! TO.C,JP1*
X78840000Y-45430000D02*
X78840000Y-47970000D01*
X77060000Y-47970000D02*
X77060000Y-45430000D01*
X77060000Y-47970000D02*
X78840000Y-47970000D01*
X78840000Y-45430000D02*
X77060000Y-45430000D01*
G04 #@! TO.C,R7*
X102280000Y-35350000D02*
X102280000Y-34150000D01*
X100520000Y-34150000D02*
X100520000Y-35350000D01*
G04 #@! TO.C,R9*
X58000000Y-27180000D02*
X59200000Y-27180000D01*
X59200000Y-25420000D02*
X58000000Y-25420000D01*
G04 #@! TO.C,R10*
X63000000Y-27180000D02*
X64200000Y-27180000D01*
X64200000Y-25420000D02*
X63000000Y-25420000D01*
G04 #@! TO.C,R11*
X67800000Y-27180000D02*
X69000000Y-27180000D01*
X69000000Y-25420000D02*
X67800000Y-25420000D01*
G04 #@! TO.C,R12*
X53000000Y-27180000D02*
X54200000Y-27180000D01*
X54200000Y-25420000D02*
X53000000Y-25420000D01*
G04 #@! TO.C,R14*
X48200000Y-27180000D02*
X49400000Y-27180000D01*
X49400000Y-25420000D02*
X48200000Y-25420000D01*
G04 #@! TO.C,D11*
X96040000Y-48200000D02*
X96040000Y-46400000D01*
X99260000Y-46400000D02*
X99260000Y-48850000D01*
G04 #@! TO.C,C27*
X82288000Y-54903000D02*
X83288000Y-54903000D01*
X83288000Y-56603000D02*
X82288000Y-56603000D01*
G04 #@! TO.C,C28*
X90131000Y-49935000D02*
X90131000Y-50935000D01*
X88431000Y-50935000D02*
X88431000Y-49935000D01*
G04 #@! TO.C,R18*
X87214000Y-52841000D02*
X86014000Y-52841000D01*
X86014000Y-54601000D02*
X87214000Y-54601000D01*
G04 #@! TO.C,R19*
X82204000Y-54601000D02*
X83404000Y-54601000D01*
X83404000Y-52841000D02*
X82204000Y-52841000D01*
D12*
G04 #@! TO.C,U10*
X84709000Y-47752000D02*
X84709000Y-47244000D01*
X83439000Y-47752000D02*
X84709000Y-47752000D01*
X83439000Y-47244000D02*
X83439000Y-47752000D01*
X86487000Y-47244000D02*
X81915000Y-47244000D01*
X86487000Y-52324000D02*
X86487000Y-47244000D01*
X81915000Y-52324000D02*
X86487000Y-52324000D01*
X81915000Y-47244000D02*
X81915000Y-52324000D01*
G04 #@! TO.C,C1*
X47066666Y-33157142D02*
X47114285Y-33204761D01*
X47257142Y-33252380D01*
X47352380Y-33252380D01*
X47495238Y-33204761D01*
X47590476Y-33109523D01*
X47638095Y-33014285D01*
X47685714Y-32823809D01*
X47685714Y-32680952D01*
X47638095Y-32490476D01*
X47590476Y-32395238D01*
X47495238Y-32300000D01*
X47352380Y-32252380D01*
X47257142Y-32252380D01*
X47114285Y-32300000D01*
X47066666Y-32347619D01*
X46114285Y-33252380D02*
X46685714Y-33252380D01*
X46400000Y-33252380D02*
X46400000Y-32252380D01*
X46495238Y-32395238D01*
X46590476Y-32490476D01*
X46685714Y-32538095D01*
G04 #@! TO.C,C4*
X47166666Y-30857142D02*
X47214285Y-30904761D01*
X47357142Y-30952380D01*
X47452380Y-30952380D01*
X47595238Y-30904761D01*
X47690476Y-30809523D01*
X47738095Y-30714285D01*
X47785714Y-30523809D01*
X47785714Y-30380952D01*
X47738095Y-30190476D01*
X47690476Y-30095238D01*
X47595238Y-30000000D01*
X47452380Y-29952380D01*
X47357142Y-29952380D01*
X47214285Y-30000000D01*
X47166666Y-30047619D01*
X46309523Y-30285714D02*
X46309523Y-30952380D01*
X46547619Y-29904761D02*
X46785714Y-30619047D01*
X46166666Y-30619047D01*
G04 #@! TO.C,C5*
X60766666Y-31157142D02*
X60814285Y-31204761D01*
X60957142Y-31252380D01*
X61052380Y-31252380D01*
X61195238Y-31204761D01*
X61290476Y-31109523D01*
X61338095Y-31014285D01*
X61385714Y-30823809D01*
X61385714Y-30680952D01*
X61338095Y-30490476D01*
X61290476Y-30395238D01*
X61195238Y-30300000D01*
X61052380Y-30252380D01*
X60957142Y-30252380D01*
X60814285Y-30300000D01*
X60766666Y-30347619D01*
X59861904Y-30252380D02*
X60338095Y-30252380D01*
X60385714Y-30728571D01*
X60338095Y-30680952D01*
X60242857Y-30633333D01*
X60004761Y-30633333D01*
X59909523Y-30680952D01*
X59861904Y-30728571D01*
X59814285Y-30823809D01*
X59814285Y-31061904D01*
X59861904Y-31157142D01*
X59909523Y-31204761D01*
X60004761Y-31252380D01*
X60242857Y-31252380D01*
X60338095Y-31204761D01*
X60385714Y-31157142D01*
G04 #@! TO.C,C6*
X46966666Y-37457142D02*
X47014285Y-37504761D01*
X47157142Y-37552380D01*
X47252380Y-37552380D01*
X47395238Y-37504761D01*
X47490476Y-37409523D01*
X47538095Y-37314285D01*
X47585714Y-37123809D01*
X47585714Y-36980952D01*
X47538095Y-36790476D01*
X47490476Y-36695238D01*
X47395238Y-36600000D01*
X47252380Y-36552380D01*
X47157142Y-36552380D01*
X47014285Y-36600000D01*
X46966666Y-36647619D01*
X46109523Y-36552380D02*
X46300000Y-36552380D01*
X46395238Y-36600000D01*
X46442857Y-36647619D01*
X46538095Y-36790476D01*
X46585714Y-36980952D01*
X46585714Y-37361904D01*
X46538095Y-37457142D01*
X46490476Y-37504761D01*
X46395238Y-37552380D01*
X46204761Y-37552380D01*
X46109523Y-37504761D01*
X46061904Y-37457142D01*
X46014285Y-37361904D01*
X46014285Y-37123809D01*
X46061904Y-37028571D01*
X46109523Y-36980952D01*
X46204761Y-36933333D01*
X46395238Y-36933333D01*
X46490476Y-36980952D01*
X46538095Y-37028571D01*
X46585714Y-37123809D01*
G04 #@! TO.C,C8*
X47066666Y-35757142D02*
X47114285Y-35804761D01*
X47257142Y-35852380D01*
X47352380Y-35852380D01*
X47495238Y-35804761D01*
X47590476Y-35709523D01*
X47638095Y-35614285D01*
X47685714Y-35423809D01*
X47685714Y-35280952D01*
X47638095Y-35090476D01*
X47590476Y-34995238D01*
X47495238Y-34900000D01*
X47352380Y-34852380D01*
X47257142Y-34852380D01*
X47114285Y-34900000D01*
X47066666Y-34947619D01*
X46495238Y-35280952D02*
X46590476Y-35233333D01*
X46638095Y-35185714D01*
X46685714Y-35090476D01*
X46685714Y-35042857D01*
X46638095Y-34947619D01*
X46590476Y-34900000D01*
X46495238Y-34852380D01*
X46304761Y-34852380D01*
X46209523Y-34900000D01*
X46161904Y-34947619D01*
X46114285Y-35042857D01*
X46114285Y-35090476D01*
X46161904Y-35185714D01*
X46209523Y-35233333D01*
X46304761Y-35280952D01*
X46495238Y-35280952D01*
X46590476Y-35328571D01*
X46638095Y-35376190D01*
X46685714Y-35471428D01*
X46685714Y-35661904D01*
X46638095Y-35757142D01*
X46590476Y-35804761D01*
X46495238Y-35852380D01*
X46304761Y-35852380D01*
X46209523Y-35804761D01*
X46161904Y-35757142D01*
X46114285Y-35661904D01*
X46114285Y-35471428D01*
X46161904Y-35376190D01*
X46209523Y-35328571D01*
X46304761Y-35280952D01*
G04 #@! TO.C,C9*
X46766666Y-42657142D02*
X46814285Y-42704761D01*
X46957142Y-42752380D01*
X47052380Y-42752380D01*
X47195238Y-42704761D01*
X47290476Y-42609523D01*
X47338095Y-42514285D01*
X47385714Y-42323809D01*
X47385714Y-42180952D01*
X47338095Y-41990476D01*
X47290476Y-41895238D01*
X47195238Y-41800000D01*
X47052380Y-41752380D01*
X46957142Y-41752380D01*
X46814285Y-41800000D01*
X46766666Y-41847619D01*
X46290476Y-42752380D02*
X46100000Y-42752380D01*
X46004761Y-42704761D01*
X45957142Y-42657142D01*
X45861904Y-42514285D01*
X45814285Y-42323809D01*
X45814285Y-41942857D01*
X45861904Y-41847619D01*
X45909523Y-41800000D01*
X46004761Y-41752380D01*
X46195238Y-41752380D01*
X46290476Y-41800000D01*
X46338095Y-41847619D01*
X46385714Y-41942857D01*
X46385714Y-42180952D01*
X46338095Y-42276190D01*
X46290476Y-42323809D01*
X46195238Y-42371428D01*
X46004761Y-42371428D01*
X45909523Y-42323809D01*
X45861904Y-42276190D01*
X45814285Y-42180952D01*
G04 #@! TO.C,C10*
X62442857Y-41757142D02*
X62490476Y-41804761D01*
X62633333Y-41852380D01*
X62728571Y-41852380D01*
X62871428Y-41804761D01*
X62966666Y-41709523D01*
X63014285Y-41614285D01*
X63061904Y-41423809D01*
X63061904Y-41280952D01*
X63014285Y-41090476D01*
X62966666Y-40995238D01*
X62871428Y-40900000D01*
X62728571Y-40852380D01*
X62633333Y-40852380D01*
X62490476Y-40900000D01*
X62442857Y-40947619D01*
X61490476Y-41852380D02*
X62061904Y-41852380D01*
X61776190Y-41852380D02*
X61776190Y-40852380D01*
X61871428Y-40995238D01*
X61966666Y-41090476D01*
X62061904Y-41138095D01*
X60871428Y-40852380D02*
X60776190Y-40852380D01*
X60680952Y-40900000D01*
X60633333Y-40947619D01*
X60585714Y-41042857D01*
X60538095Y-41233333D01*
X60538095Y-41471428D01*
X60585714Y-41661904D01*
X60633333Y-41757142D01*
X60680952Y-41804761D01*
X60776190Y-41852380D01*
X60871428Y-41852380D01*
X60966666Y-41804761D01*
X61014285Y-41757142D01*
X61061904Y-41661904D01*
X61109523Y-41471428D01*
X61109523Y-41233333D01*
X61061904Y-41042857D01*
X61014285Y-40947619D01*
X60966666Y-40900000D01*
X60871428Y-40852380D01*
G04 #@! TO.C,C13*
X55342857Y-40957142D02*
X55390476Y-41004761D01*
X55533333Y-41052380D01*
X55628571Y-41052380D01*
X55771428Y-41004761D01*
X55866666Y-40909523D01*
X55914285Y-40814285D01*
X55961904Y-40623809D01*
X55961904Y-40480952D01*
X55914285Y-40290476D01*
X55866666Y-40195238D01*
X55771428Y-40100000D01*
X55628571Y-40052380D01*
X55533333Y-40052380D01*
X55390476Y-40100000D01*
X55342857Y-40147619D01*
X54390476Y-41052380D02*
X54961904Y-41052380D01*
X54676190Y-41052380D02*
X54676190Y-40052380D01*
X54771428Y-40195238D01*
X54866666Y-40290476D01*
X54961904Y-40338095D01*
X54057142Y-40052380D02*
X53438095Y-40052380D01*
X53771428Y-40433333D01*
X53628571Y-40433333D01*
X53533333Y-40480952D01*
X53485714Y-40528571D01*
X53438095Y-40623809D01*
X53438095Y-40861904D01*
X53485714Y-40957142D01*
X53533333Y-41004761D01*
X53628571Y-41052380D01*
X53914285Y-41052380D01*
X54009523Y-41004761D01*
X54057142Y-40957142D01*
G04 #@! TO.C,C14*
X62442857Y-39857142D02*
X62490476Y-39904761D01*
X62633333Y-39952380D01*
X62728571Y-39952380D01*
X62871428Y-39904761D01*
X62966666Y-39809523D01*
X63014285Y-39714285D01*
X63061904Y-39523809D01*
X63061904Y-39380952D01*
X63014285Y-39190476D01*
X62966666Y-39095238D01*
X62871428Y-39000000D01*
X62728571Y-38952380D01*
X62633333Y-38952380D01*
X62490476Y-39000000D01*
X62442857Y-39047619D01*
X61490476Y-39952380D02*
X62061904Y-39952380D01*
X61776190Y-39952380D02*
X61776190Y-38952380D01*
X61871428Y-39095238D01*
X61966666Y-39190476D01*
X62061904Y-39238095D01*
X60633333Y-39285714D02*
X60633333Y-39952380D01*
X60871428Y-38904761D02*
X61109523Y-39619047D01*
X60490476Y-39619047D01*
G04 #@! TO.C,C15*
X61742857Y-33157142D02*
X61790476Y-33204761D01*
X61933333Y-33252380D01*
X62028571Y-33252380D01*
X62171428Y-33204761D01*
X62266666Y-33109523D01*
X62314285Y-33014285D01*
X62361904Y-32823809D01*
X62361904Y-32680952D01*
X62314285Y-32490476D01*
X62266666Y-32395238D01*
X62171428Y-32300000D01*
X62028571Y-32252380D01*
X61933333Y-32252380D01*
X61790476Y-32300000D01*
X61742857Y-32347619D01*
X60790476Y-33252380D02*
X61361904Y-33252380D01*
X61076190Y-33252380D02*
X61076190Y-32252380D01*
X61171428Y-32395238D01*
X61266666Y-32490476D01*
X61361904Y-32538095D01*
X59885714Y-32252380D02*
X60361904Y-32252380D01*
X60409523Y-32728571D01*
X60361904Y-32680952D01*
X60266666Y-32633333D01*
X60028571Y-32633333D01*
X59933333Y-32680952D01*
X59885714Y-32728571D01*
X59838095Y-32823809D01*
X59838095Y-33061904D01*
X59885714Y-33157142D01*
X59933333Y-33204761D01*
X60028571Y-33252380D01*
X60266666Y-33252380D01*
X60361904Y-33204761D01*
X60409523Y-33157142D01*
G04 #@! TO.C,C16*
X38207142Y-33132142D02*
X38254761Y-33084523D01*
X38302380Y-32941666D01*
X38302380Y-32846428D01*
X38254761Y-32703571D01*
X38159523Y-32608333D01*
X38064285Y-32560714D01*
X37873809Y-32513095D01*
X37730952Y-32513095D01*
X37540476Y-32560714D01*
X37445238Y-32608333D01*
X37350000Y-32703571D01*
X37302380Y-32846428D01*
X37302380Y-32941666D01*
X37350000Y-33084523D01*
X37397619Y-33132142D01*
X38302380Y-34084523D02*
X38302380Y-33513095D01*
X38302380Y-33798809D02*
X37302380Y-33798809D01*
X37445238Y-33703571D01*
X37540476Y-33608333D01*
X37588095Y-33513095D01*
X37302380Y-34941666D02*
X37302380Y-34751190D01*
X37350000Y-34655952D01*
X37397619Y-34608333D01*
X37540476Y-34513095D01*
X37730952Y-34465476D01*
X38111904Y-34465476D01*
X38207142Y-34513095D01*
X38254761Y-34560714D01*
X38302380Y-34655952D01*
X38302380Y-34846428D01*
X38254761Y-34941666D01*
X38207142Y-34989285D01*
X38111904Y-35036904D01*
X37873809Y-35036904D01*
X37778571Y-34989285D01*
X37730952Y-34941666D01*
X37683333Y-34846428D01*
X37683333Y-34655952D01*
X37730952Y-34560714D01*
X37778571Y-34513095D01*
X37873809Y-34465476D01*
G04 #@! TO.C,C17*
X38157142Y-37657142D02*
X38204761Y-37609523D01*
X38252380Y-37466666D01*
X38252380Y-37371428D01*
X38204761Y-37228571D01*
X38109523Y-37133333D01*
X38014285Y-37085714D01*
X37823809Y-37038095D01*
X37680952Y-37038095D01*
X37490476Y-37085714D01*
X37395238Y-37133333D01*
X37300000Y-37228571D01*
X37252380Y-37371428D01*
X37252380Y-37466666D01*
X37300000Y-37609523D01*
X37347619Y-37657142D01*
X38252380Y-38609523D02*
X38252380Y-38038095D01*
X38252380Y-38323809D02*
X37252380Y-38323809D01*
X37395238Y-38228571D01*
X37490476Y-38133333D01*
X37538095Y-38038095D01*
X37252380Y-38942857D02*
X37252380Y-39609523D01*
X38252380Y-39180952D01*
G04 #@! TO.C,C19*
X47357142Y-38957142D02*
X47404761Y-38909523D01*
X47452380Y-38766666D01*
X47452380Y-38671428D01*
X47404761Y-38528571D01*
X47309523Y-38433333D01*
X47214285Y-38385714D01*
X47023809Y-38338095D01*
X46880952Y-38338095D01*
X46690476Y-38385714D01*
X46595238Y-38433333D01*
X46500000Y-38528571D01*
X46452380Y-38671428D01*
X46452380Y-38766666D01*
X46500000Y-38909523D01*
X46547619Y-38957142D01*
X47452380Y-39909523D02*
X47452380Y-39338095D01*
X47452380Y-39623809D02*
X46452380Y-39623809D01*
X46595238Y-39528571D01*
X46690476Y-39433333D01*
X46738095Y-39338095D01*
X47452380Y-40385714D02*
X47452380Y-40576190D01*
X47404761Y-40671428D01*
X47357142Y-40719047D01*
X47214285Y-40814285D01*
X47023809Y-40861904D01*
X46642857Y-40861904D01*
X46547619Y-40814285D01*
X46500000Y-40766666D01*
X46452380Y-40671428D01*
X46452380Y-40480952D01*
X46500000Y-40385714D01*
X46547619Y-40338095D01*
X46642857Y-40290476D01*
X46880952Y-40290476D01*
X46976190Y-40338095D01*
X47023809Y-40385714D01*
X47071428Y-40480952D01*
X47071428Y-40671428D01*
X47023809Y-40766666D01*
X46976190Y-40814285D01*
X46880952Y-40861904D01*
G04 #@! TO.C,JP1*
X75622380Y-45866666D02*
X76336666Y-45866666D01*
X76479523Y-45819047D01*
X76574761Y-45723809D01*
X76622380Y-45580952D01*
X76622380Y-45485714D01*
X76622380Y-46342857D02*
X75622380Y-46342857D01*
X75622380Y-46723809D01*
X75670000Y-46819047D01*
X75717619Y-46866666D01*
X75812857Y-46914285D01*
X75955714Y-46914285D01*
X76050952Y-46866666D01*
X76098571Y-46819047D01*
X76146190Y-46723809D01*
X76146190Y-46342857D01*
X76622380Y-47866666D02*
X76622380Y-47295238D01*
X76622380Y-47580952D02*
X75622380Y-47580952D01*
X75765238Y-47485714D01*
X75860476Y-47390476D01*
X75908095Y-47295238D01*
G04 #@! TO.C,R7*
X98877380Y-34608333D02*
X98401190Y-34275000D01*
X98877380Y-34036904D02*
X97877380Y-34036904D01*
X97877380Y-34417857D01*
X97925000Y-34513095D01*
X97972619Y-34560714D01*
X98067857Y-34608333D01*
X98210714Y-34608333D01*
X98305952Y-34560714D01*
X98353571Y-34513095D01*
X98401190Y-34417857D01*
X98401190Y-34036904D01*
X97877380Y-34941666D02*
X97877380Y-35608333D01*
X98877380Y-35179761D01*
X100252380Y-33991666D02*
X100252380Y-33420238D01*
X100252380Y-33705952D02*
X99252380Y-33705952D01*
X99395238Y-33610714D01*
X99490476Y-33515476D01*
X99538095Y-33420238D01*
X100157142Y-34420238D02*
X100204761Y-34467857D01*
X100252380Y-34420238D01*
X100204761Y-34372619D01*
X100157142Y-34420238D01*
X100252380Y-34420238D01*
X99252380Y-35372619D02*
X99252380Y-34896428D01*
X99728571Y-34848809D01*
X99680952Y-34896428D01*
X99633333Y-34991666D01*
X99633333Y-35229761D01*
X99680952Y-35325000D01*
X99728571Y-35372619D01*
X99823809Y-35420238D01*
X100061904Y-35420238D01*
X100157142Y-35372619D01*
X100204761Y-35325000D01*
X100252380Y-35229761D01*
X100252380Y-34991666D01*
X100204761Y-34896428D01*
X100157142Y-34848809D01*
X100252380Y-35848809D02*
X99252380Y-35848809D01*
X99871428Y-35944047D02*
X100252380Y-36229761D01*
X99585714Y-36229761D02*
X99966666Y-35848809D01*
G04 #@! TO.C,R9*
X58766666Y-25102380D02*
X59100000Y-24626190D01*
X59338095Y-25102380D02*
X59338095Y-24102380D01*
X58957142Y-24102380D01*
X58861904Y-24150000D01*
X58814285Y-24197619D01*
X58766666Y-24292857D01*
X58766666Y-24435714D01*
X58814285Y-24530952D01*
X58861904Y-24578571D01*
X58957142Y-24626190D01*
X59338095Y-24626190D01*
X58290476Y-25102380D02*
X58100000Y-25102380D01*
X58004761Y-25054761D01*
X57957142Y-25007142D01*
X57861904Y-24864285D01*
X57814285Y-24673809D01*
X57814285Y-24292857D01*
X57861904Y-24197619D01*
X57909523Y-24150000D01*
X58004761Y-24102380D01*
X58195238Y-24102380D01*
X58290476Y-24150000D01*
X58338095Y-24197619D01*
X58385714Y-24292857D01*
X58385714Y-24530952D01*
X58338095Y-24626190D01*
X58290476Y-24673809D01*
X58195238Y-24721428D01*
X58004761Y-24721428D01*
X57909523Y-24673809D01*
X57861904Y-24626190D01*
X57814285Y-24530952D01*
G04 #@! TO.C,R10*
X64242857Y-25102380D02*
X64576190Y-24626190D01*
X64814285Y-25102380D02*
X64814285Y-24102380D01*
X64433333Y-24102380D01*
X64338095Y-24150000D01*
X64290476Y-24197619D01*
X64242857Y-24292857D01*
X64242857Y-24435714D01*
X64290476Y-24530952D01*
X64338095Y-24578571D01*
X64433333Y-24626190D01*
X64814285Y-24626190D01*
X63290476Y-25102380D02*
X63861904Y-25102380D01*
X63576190Y-25102380D02*
X63576190Y-24102380D01*
X63671428Y-24245238D01*
X63766666Y-24340476D01*
X63861904Y-24388095D01*
X62671428Y-24102380D02*
X62576190Y-24102380D01*
X62480952Y-24150000D01*
X62433333Y-24197619D01*
X62385714Y-24292857D01*
X62338095Y-24483333D01*
X62338095Y-24721428D01*
X62385714Y-24911904D01*
X62433333Y-25007142D01*
X62480952Y-25054761D01*
X62576190Y-25102380D01*
X62671428Y-25102380D01*
X62766666Y-25054761D01*
X62814285Y-25007142D01*
X62861904Y-24911904D01*
X62909523Y-24721428D01*
X62909523Y-24483333D01*
X62861904Y-24292857D01*
X62814285Y-24197619D01*
X62766666Y-24150000D01*
X62671428Y-24102380D01*
G04 #@! TO.C,R11*
X69042857Y-25102380D02*
X69376190Y-24626190D01*
X69614285Y-25102380D02*
X69614285Y-24102380D01*
X69233333Y-24102380D01*
X69138095Y-24150000D01*
X69090476Y-24197619D01*
X69042857Y-24292857D01*
X69042857Y-24435714D01*
X69090476Y-24530952D01*
X69138095Y-24578571D01*
X69233333Y-24626190D01*
X69614285Y-24626190D01*
X68090476Y-25102380D02*
X68661904Y-25102380D01*
X68376190Y-25102380D02*
X68376190Y-24102380D01*
X68471428Y-24245238D01*
X68566666Y-24340476D01*
X68661904Y-24388095D01*
X67138095Y-25102380D02*
X67709523Y-25102380D01*
X67423809Y-25102380D02*
X67423809Y-24102380D01*
X67519047Y-24245238D01*
X67614285Y-24340476D01*
X67709523Y-24388095D01*
G04 #@! TO.C,R12*
X54242857Y-25102380D02*
X54576190Y-24626190D01*
X54814285Y-25102380D02*
X54814285Y-24102380D01*
X54433333Y-24102380D01*
X54338095Y-24150000D01*
X54290476Y-24197619D01*
X54242857Y-24292857D01*
X54242857Y-24435714D01*
X54290476Y-24530952D01*
X54338095Y-24578571D01*
X54433333Y-24626190D01*
X54814285Y-24626190D01*
X53290476Y-25102380D02*
X53861904Y-25102380D01*
X53576190Y-25102380D02*
X53576190Y-24102380D01*
X53671428Y-24245238D01*
X53766666Y-24340476D01*
X53861904Y-24388095D01*
X52909523Y-24197619D02*
X52861904Y-24150000D01*
X52766666Y-24102380D01*
X52528571Y-24102380D01*
X52433333Y-24150000D01*
X52385714Y-24197619D01*
X52338095Y-24292857D01*
X52338095Y-24388095D01*
X52385714Y-24530952D01*
X52957142Y-25102380D01*
X52338095Y-25102380D01*
G04 #@! TO.C,R14*
X49442857Y-25102380D02*
X49776190Y-24626190D01*
X50014285Y-25102380D02*
X50014285Y-24102380D01*
X49633333Y-24102380D01*
X49538095Y-24150000D01*
X49490476Y-24197619D01*
X49442857Y-24292857D01*
X49442857Y-24435714D01*
X49490476Y-24530952D01*
X49538095Y-24578571D01*
X49633333Y-24626190D01*
X50014285Y-24626190D01*
X48490476Y-25102380D02*
X49061904Y-25102380D01*
X48776190Y-25102380D02*
X48776190Y-24102380D01*
X48871428Y-24245238D01*
X48966666Y-24340476D01*
X49061904Y-24388095D01*
X47633333Y-24435714D02*
X47633333Y-25102380D01*
X47871428Y-24054761D02*
X48109523Y-24769047D01*
X47490476Y-24769047D01*
G04 #@! TO.C,D11*
X99302380Y-49585714D02*
X98302380Y-49585714D01*
X98302380Y-49823809D01*
X98350000Y-49966666D01*
X98445238Y-50061904D01*
X98540476Y-50109523D01*
X98730952Y-50157142D01*
X98873809Y-50157142D01*
X99064285Y-50109523D01*
X99159523Y-50061904D01*
X99254761Y-49966666D01*
X99302380Y-49823809D01*
X99302380Y-49585714D01*
X99302380Y-51109523D02*
X99302380Y-50538095D01*
X99302380Y-50823809D02*
X98302380Y-50823809D01*
X98445238Y-50728571D01*
X98540476Y-50633333D01*
X98588095Y-50538095D01*
X99302380Y-52061904D02*
X99302380Y-51490476D01*
X99302380Y-51776190D02*
X98302380Y-51776190D01*
X98445238Y-51680952D01*
X98540476Y-51585714D01*
X98588095Y-51490476D01*
G04 #@! TO.C,C27*
X80271857Y-56110142D02*
X80319476Y-56157761D01*
X80462333Y-56205380D01*
X80557571Y-56205380D01*
X80700428Y-56157761D01*
X80795666Y-56062523D01*
X80843285Y-55967285D01*
X80890904Y-55776809D01*
X80890904Y-55633952D01*
X80843285Y-55443476D01*
X80795666Y-55348238D01*
X80700428Y-55253000D01*
X80557571Y-55205380D01*
X80462333Y-55205380D01*
X80319476Y-55253000D01*
X80271857Y-55300619D01*
X79890904Y-55300619D02*
X79843285Y-55253000D01*
X79748047Y-55205380D01*
X79509952Y-55205380D01*
X79414714Y-55253000D01*
X79367095Y-55300619D01*
X79319476Y-55395857D01*
X79319476Y-55491095D01*
X79367095Y-55633952D01*
X79938523Y-56205380D01*
X79319476Y-56205380D01*
X78986142Y-55205380D02*
X78319476Y-55205380D01*
X78748047Y-56205380D01*
G04 #@! TO.C,C28*
X89574642Y-46601142D02*
X89622261Y-46553523D01*
X89669880Y-46410666D01*
X89669880Y-46315428D01*
X89622261Y-46172571D01*
X89527023Y-46077333D01*
X89431785Y-46029714D01*
X89241309Y-45982095D01*
X89098452Y-45982095D01*
X88907976Y-46029714D01*
X88812738Y-46077333D01*
X88717500Y-46172571D01*
X88669880Y-46315428D01*
X88669880Y-46410666D01*
X88717500Y-46553523D01*
X88765119Y-46601142D01*
X88765119Y-46982095D02*
X88717500Y-47029714D01*
X88669880Y-47124952D01*
X88669880Y-47363047D01*
X88717500Y-47458285D01*
X88765119Y-47505904D01*
X88860357Y-47553523D01*
X88955595Y-47553523D01*
X89098452Y-47505904D01*
X89669880Y-46934476D01*
X89669880Y-47553523D01*
X89098452Y-48124952D02*
X89050833Y-48029714D01*
X89003214Y-47982095D01*
X88907976Y-47934476D01*
X88860357Y-47934476D01*
X88765119Y-47982095D01*
X88717500Y-48029714D01*
X88669880Y-48124952D01*
X88669880Y-48315428D01*
X88717500Y-48410666D01*
X88765119Y-48458285D01*
X88860357Y-48505904D01*
X88907976Y-48505904D01*
X89003214Y-48458285D01*
X89050833Y-48410666D01*
X89098452Y-48315428D01*
X89098452Y-48124952D01*
X89146071Y-48029714D01*
X89193690Y-47982095D01*
X89288928Y-47934476D01*
X89479404Y-47934476D01*
X89574642Y-47982095D01*
X89622261Y-48029714D01*
X89669880Y-48124952D01*
X89669880Y-48315428D01*
X89622261Y-48410666D01*
X89574642Y-48458285D01*
X89479404Y-48505904D01*
X89288928Y-48505904D01*
X89193690Y-48458285D01*
X89146071Y-48410666D01*
X89098452Y-48315428D01*
G04 #@! TO.C,R18*
X87320357Y-55887880D02*
X87653690Y-55411690D01*
X87891785Y-55887880D02*
X87891785Y-54887880D01*
X87510833Y-54887880D01*
X87415595Y-54935500D01*
X87367976Y-54983119D01*
X87320357Y-55078357D01*
X87320357Y-55221214D01*
X87367976Y-55316452D01*
X87415595Y-55364071D01*
X87510833Y-55411690D01*
X87891785Y-55411690D01*
X86367976Y-55887880D02*
X86939404Y-55887880D01*
X86653690Y-55887880D02*
X86653690Y-54887880D01*
X86748928Y-55030738D01*
X86844166Y-55125976D01*
X86939404Y-55173595D01*
X85796547Y-55316452D02*
X85891785Y-55268833D01*
X85939404Y-55221214D01*
X85987023Y-55125976D01*
X85987023Y-55078357D01*
X85939404Y-54983119D01*
X85891785Y-54935500D01*
X85796547Y-54887880D01*
X85606071Y-54887880D01*
X85510833Y-54935500D01*
X85463214Y-54983119D01*
X85415595Y-55078357D01*
X85415595Y-55125976D01*
X85463214Y-55221214D01*
X85510833Y-55268833D01*
X85606071Y-55316452D01*
X85796547Y-55316452D01*
X85891785Y-55364071D01*
X85939404Y-55411690D01*
X85987023Y-55506928D01*
X85987023Y-55697404D01*
X85939404Y-55792642D01*
X85891785Y-55840261D01*
X85796547Y-55887880D01*
X85606071Y-55887880D01*
X85510833Y-55840261D01*
X85463214Y-55792642D01*
X85415595Y-55697404D01*
X85415595Y-55506928D01*
X85463214Y-55411690D01*
X85510833Y-55364071D01*
X85606071Y-55316452D01*
G04 #@! TO.C,R19*
X80462357Y-54173380D02*
X80795690Y-53697190D01*
X81033785Y-54173380D02*
X81033785Y-53173380D01*
X80652833Y-53173380D01*
X80557595Y-53221000D01*
X80509976Y-53268619D01*
X80462357Y-53363857D01*
X80462357Y-53506714D01*
X80509976Y-53601952D01*
X80557595Y-53649571D01*
X80652833Y-53697190D01*
X81033785Y-53697190D01*
X79509976Y-54173380D02*
X80081404Y-54173380D01*
X79795690Y-54173380D02*
X79795690Y-53173380D01*
X79890928Y-53316238D01*
X79986166Y-53411476D01*
X80081404Y-53459095D01*
X79033785Y-54173380D02*
X78843309Y-54173380D01*
X78748071Y-54125761D01*
X78700452Y-54078142D01*
X78605214Y-53935285D01*
X78557595Y-53744809D01*
X78557595Y-53363857D01*
X78605214Y-53268619D01*
X78652833Y-53221000D01*
X78748071Y-53173380D01*
X78938547Y-53173380D01*
X79033785Y-53221000D01*
X79081404Y-53268619D01*
X79129023Y-53363857D01*
X79129023Y-53601952D01*
X79081404Y-53697190D01*
X79033785Y-53744809D01*
X78938547Y-53792428D01*
X78748071Y-53792428D01*
X78652833Y-53744809D01*
X78605214Y-53697190D01*
X78557595Y-53601952D01*
G04 #@! TO.C,U10*
X82383380Y-48545904D02*
X83192904Y-48545904D01*
X83288142Y-48593523D01*
X83335761Y-48641142D01*
X83383380Y-48736380D01*
X83383380Y-48926857D01*
X83335761Y-49022095D01*
X83288142Y-49069714D01*
X83192904Y-49117333D01*
X82383380Y-49117333D01*
X83383380Y-50117333D02*
X83383380Y-49545904D01*
X83383380Y-49831619D02*
X82383380Y-49831619D01*
X82526238Y-49736380D01*
X82621476Y-49641142D01*
X82669095Y-49545904D01*
X82383380Y-50736380D02*
X82383380Y-50831619D01*
X82431000Y-50926857D01*
X82478619Y-50974476D01*
X82573857Y-51022095D01*
X82764333Y-51069714D01*
X83002428Y-51069714D01*
X83192904Y-51022095D01*
X83288142Y-50974476D01*
X83335761Y-50926857D01*
X83383380Y-50831619D01*
X83383380Y-50736380D01*
X83335761Y-50641142D01*
X83288142Y-50593523D01*
X83192904Y-50545904D01*
X83002428Y-50498285D01*
X82764333Y-50498285D01*
X82573857Y-50545904D01*
X82478619Y-50593523D01*
X82431000Y-50641142D01*
X82383380Y-50736380D01*
G04 #@! TD*
M02*
