G04 #@! TF.GenerationSoftware,KiCad,Pcbnew,5.0.1*
G04 #@! TF.CreationDate,2019-03-19T18:21:43+03:00*
G04 #@! TF.ProjectId,gps-timestamper,6770732D74696D657374616D7065722E,rev?*
G04 #@! TF.SameCoordinates,Original*
G04 #@! TF.FileFunction,Soldermask,Top*
G04 #@! TF.FilePolarity,Negative*
%FSLAX46Y46*%
G04 Gerber Fmt 4.6, Leading zero omitted, Abs format (unit mm)*
G04 Created by KiCad (PCBNEW 5.0.1) date Вт 19 мар 2019 18:21:43*
%MOMM*%
%LPD*%
G01*
G04 APERTURE LIST*
%ADD10C,0.100000*%
G04 APERTURE END LIST*
D10*
G36*
X88592712Y-58546088D02*
X88962510Y-58699263D01*
X88962513Y-58699265D01*
X89295325Y-58921643D01*
X89578357Y-59204675D01*
X89709537Y-59401000D01*
X89800737Y-59537490D01*
X89953912Y-59907288D01*
X90032000Y-60299864D01*
X90032000Y-60700136D01*
X89953912Y-61092712D01*
X89800737Y-61462510D01*
X89800735Y-61462513D01*
X89578357Y-61795325D01*
X89295325Y-62078357D01*
X88962513Y-62300735D01*
X88962510Y-62300737D01*
X88592712Y-62453912D01*
X88200136Y-62532000D01*
X87799864Y-62532000D01*
X87407288Y-62453912D01*
X87037490Y-62300737D01*
X87037487Y-62300735D01*
X86704675Y-62078357D01*
X86421643Y-61795325D01*
X86199265Y-61462513D01*
X86199263Y-61462510D01*
X86046088Y-61092712D01*
X85968000Y-60700136D01*
X85968000Y-60299864D01*
X86046088Y-59907288D01*
X86199263Y-59537490D01*
X86290463Y-59401000D01*
X86421643Y-59204675D01*
X86704675Y-58921643D01*
X87037487Y-58699265D01*
X87037490Y-58699263D01*
X87407288Y-58546088D01*
X87799864Y-58468000D01*
X88200136Y-58468000D01*
X88592712Y-58546088D01*
X88592712Y-58546088D01*
G37*
G36*
X38592712Y-58546088D02*
X38962510Y-58699263D01*
X38962513Y-58699265D01*
X39295325Y-58921643D01*
X39578357Y-59204675D01*
X39709537Y-59401000D01*
X39800737Y-59537490D01*
X39953912Y-59907288D01*
X40032000Y-60299864D01*
X40032000Y-60700136D01*
X39953912Y-61092712D01*
X39800737Y-61462510D01*
X39800735Y-61462513D01*
X39578357Y-61795325D01*
X39295325Y-62078357D01*
X38962513Y-62300735D01*
X38962510Y-62300737D01*
X38592712Y-62453912D01*
X38200136Y-62532000D01*
X37799864Y-62532000D01*
X37407288Y-62453912D01*
X37037490Y-62300737D01*
X37037487Y-62300735D01*
X36704675Y-62078357D01*
X36421643Y-61795325D01*
X36199265Y-61462513D01*
X36199263Y-61462510D01*
X36046088Y-61092712D01*
X35968000Y-60700136D01*
X35968000Y-60299864D01*
X36046088Y-59907288D01*
X36199263Y-59537490D01*
X36290463Y-59401000D01*
X36421643Y-59204675D01*
X36704675Y-58921643D01*
X37037487Y-58699265D01*
X37037490Y-58699263D01*
X37407288Y-58546088D01*
X37799864Y-58468000D01*
X38200136Y-58468000D01*
X38592712Y-58546088D01*
X38592712Y-58546088D01*
G37*
G36*
X82950800Y-62270400D02*
X82250800Y-62270400D01*
X82250800Y-60970400D01*
X82950800Y-60970400D01*
X82950800Y-62270400D01*
X82950800Y-62270400D01*
G37*
G36*
X77342400Y-62270400D02*
X76642400Y-62270400D01*
X76642400Y-60970400D01*
X77342400Y-60970400D01*
X77342400Y-62270400D01*
X77342400Y-62270400D01*
G37*
G36*
X79242400Y-62270400D02*
X78542400Y-62270400D01*
X78542400Y-60970400D01*
X79242400Y-60970400D01*
X79242400Y-62270400D01*
X79242400Y-62270400D01*
G37*
G36*
X81050800Y-62270400D02*
X80350800Y-62270400D01*
X80350800Y-60970400D01*
X81050800Y-60970400D01*
X81050800Y-62270400D01*
X81050800Y-62270400D01*
G37*
G36*
X46830000Y-61670000D02*
X45130000Y-61670000D01*
X45130000Y-59970000D01*
X46830000Y-59970000D01*
X46830000Y-61670000D01*
X46830000Y-61670000D01*
G37*
G36*
X61426800Y-60543200D02*
X60726800Y-60543200D01*
X60726800Y-59243200D01*
X61426800Y-59243200D01*
X61426800Y-60543200D01*
X61426800Y-60543200D01*
G37*
G36*
X63326800Y-60543200D02*
X62626800Y-60543200D01*
X62626800Y-59243200D01*
X63326800Y-59243200D01*
X63326800Y-60543200D01*
X63326800Y-60543200D01*
G37*
G36*
X74358500Y-59969400D02*
X73215500Y-59969400D01*
X73215500Y-59461400D01*
X74358500Y-59461400D01*
X74358500Y-59969400D01*
X74358500Y-59969400D01*
G37*
G36*
X80708500Y-59969400D02*
X79565500Y-59969400D01*
X79565500Y-59461400D01*
X80708500Y-59461400D01*
X80708500Y-59969400D01*
X80708500Y-59969400D01*
G37*
G36*
X72021700Y-59969400D02*
X70878700Y-59969400D01*
X70878700Y-59461400D01*
X72021700Y-59461400D01*
X72021700Y-59969400D01*
X72021700Y-59969400D01*
G37*
G36*
X65671700Y-59969400D02*
X64528700Y-59969400D01*
X64528700Y-59461400D01*
X65671700Y-59461400D01*
X65671700Y-59969400D01*
X65671700Y-59969400D01*
G37*
G36*
X59446500Y-59909000D02*
X58303500Y-59909000D01*
X58303500Y-59401000D01*
X59446500Y-59401000D01*
X59446500Y-59909000D01*
X59446500Y-59909000D01*
G37*
G36*
X53096500Y-59909000D02*
X51953500Y-59909000D01*
X51953500Y-59401000D01*
X53096500Y-59401000D01*
X53096500Y-59909000D01*
X53096500Y-59909000D01*
G37*
G36*
X46146630Y-57442299D02*
X46306855Y-57490903D01*
X46454520Y-57569831D01*
X46583949Y-57676051D01*
X46690169Y-57805480D01*
X46769097Y-57953145D01*
X46817701Y-58113370D01*
X46834112Y-58280000D01*
X46817701Y-58446630D01*
X46769097Y-58606855D01*
X46690169Y-58754520D01*
X46583949Y-58883949D01*
X46454520Y-58990169D01*
X46306855Y-59069097D01*
X46146630Y-59117701D01*
X46021752Y-59130000D01*
X45938248Y-59130000D01*
X45813370Y-59117701D01*
X45653145Y-59069097D01*
X45505480Y-58990169D01*
X45376051Y-58883949D01*
X45269831Y-58754520D01*
X45190903Y-58606855D01*
X45142299Y-58446630D01*
X45125888Y-58280000D01*
X45142299Y-58113370D01*
X45190903Y-57953145D01*
X45269831Y-57805480D01*
X45376051Y-57676051D01*
X45505480Y-57569831D01*
X45653145Y-57490903D01*
X45813370Y-57442299D01*
X45938248Y-57430000D01*
X46021752Y-57430000D01*
X46146630Y-57442299D01*
X46146630Y-57442299D01*
G37*
G36*
X80708500Y-58699400D02*
X79565500Y-58699400D01*
X79565500Y-58191400D01*
X80708500Y-58191400D01*
X80708500Y-58699400D01*
X80708500Y-58699400D01*
G37*
G36*
X72021700Y-58699400D02*
X70878700Y-58699400D01*
X70878700Y-58191400D01*
X72021700Y-58191400D01*
X72021700Y-58699400D01*
X72021700Y-58699400D01*
G37*
G36*
X65671700Y-58699400D02*
X64528700Y-58699400D01*
X64528700Y-58191400D01*
X65671700Y-58191400D01*
X65671700Y-58699400D01*
X65671700Y-58699400D01*
G37*
G36*
X74358500Y-58699400D02*
X73215500Y-58699400D01*
X73215500Y-58191400D01*
X74358500Y-58191400D01*
X74358500Y-58699400D01*
X74358500Y-58699400D01*
G37*
G36*
X59446500Y-58639000D02*
X58303500Y-58639000D01*
X58303500Y-58131000D01*
X59446500Y-58131000D01*
X59446500Y-58639000D01*
X59446500Y-58639000D01*
G37*
G36*
X53096500Y-58639000D02*
X51953500Y-58639000D01*
X51953500Y-58131000D01*
X53096500Y-58131000D01*
X53096500Y-58639000D01*
X53096500Y-58639000D01*
G37*
G36*
X83454000Y-58257000D02*
X82154000Y-58257000D01*
X82154000Y-57557000D01*
X83454000Y-57557000D01*
X83454000Y-58257000D01*
X83454000Y-58257000D01*
G37*
G36*
X61276800Y-57984600D02*
X60676800Y-57984600D01*
X60676800Y-57534600D01*
X61276800Y-57534600D01*
X61276800Y-57984600D01*
X61276800Y-57984600D01*
G37*
G36*
X63376800Y-57984600D02*
X62776800Y-57984600D01*
X62776800Y-57534600D01*
X63376800Y-57534600D01*
X63376800Y-57984600D01*
X63376800Y-57984600D01*
G37*
G36*
X51225000Y-57600000D02*
X49975000Y-57600000D01*
X49975000Y-56600000D01*
X51225000Y-56600000D01*
X51225000Y-57600000D01*
X51225000Y-57600000D01*
G37*
G36*
X72021700Y-57429400D02*
X70878700Y-57429400D01*
X70878700Y-56921400D01*
X72021700Y-56921400D01*
X72021700Y-57429400D01*
X72021700Y-57429400D01*
G37*
G36*
X65671700Y-57429400D02*
X64528700Y-57429400D01*
X64528700Y-56921400D01*
X65671700Y-56921400D01*
X65671700Y-57429400D01*
X65671700Y-57429400D01*
G37*
G36*
X74358500Y-57429400D02*
X73215500Y-57429400D01*
X73215500Y-56921400D01*
X74358500Y-56921400D01*
X74358500Y-57429400D01*
X74358500Y-57429400D01*
G37*
G36*
X80708500Y-57429400D02*
X79565500Y-57429400D01*
X79565500Y-56921400D01*
X80708500Y-56921400D01*
X80708500Y-57429400D01*
X80708500Y-57429400D01*
G37*
G36*
X59446500Y-57369000D02*
X58303500Y-57369000D01*
X58303500Y-56861000D01*
X59446500Y-56861000D01*
X59446500Y-57369000D01*
X59446500Y-57369000D01*
G37*
G36*
X53096500Y-57369000D02*
X51953500Y-57369000D01*
X51953500Y-56861000D01*
X53096500Y-56861000D01*
X53096500Y-57369000D01*
X53096500Y-57369000D01*
G37*
G36*
X86710000Y-56911000D02*
X86010000Y-56911000D01*
X86010000Y-55611000D01*
X86710000Y-55611000D01*
X86710000Y-56911000D01*
X86710000Y-56911000D01*
G37*
G36*
X84810000Y-56911000D02*
X84110000Y-56911000D01*
X84110000Y-55611000D01*
X84810000Y-55611000D01*
X84810000Y-56911000D01*
X84810000Y-56911000D01*
G37*
G36*
X46146630Y-54902299D02*
X46306855Y-54950903D01*
X46454520Y-55029831D01*
X46583949Y-55136051D01*
X46690169Y-55265480D01*
X46769097Y-55413145D01*
X46817701Y-55573370D01*
X46834112Y-55740000D01*
X46817701Y-55906630D01*
X46769097Y-56066855D01*
X46690169Y-56214520D01*
X46583949Y-56343949D01*
X46454520Y-56450169D01*
X46306855Y-56529097D01*
X46146630Y-56577701D01*
X46021752Y-56590000D01*
X45938248Y-56590000D01*
X45813370Y-56577701D01*
X45653145Y-56529097D01*
X45505480Y-56450169D01*
X45376051Y-56343949D01*
X45269831Y-56214520D01*
X45190903Y-56066855D01*
X45142299Y-55906630D01*
X45125888Y-55740000D01*
X45142299Y-55573370D01*
X45190903Y-55413145D01*
X45269831Y-55265480D01*
X45376051Y-55136051D01*
X45505480Y-55029831D01*
X45653145Y-54950903D01*
X45813370Y-54902299D01*
X45938248Y-54890000D01*
X46021752Y-54890000D01*
X46146630Y-54902299D01*
X46146630Y-54902299D01*
G37*
G36*
X83454000Y-56357000D02*
X82154000Y-56357000D01*
X82154000Y-55657000D01*
X83454000Y-55657000D01*
X83454000Y-56357000D01*
X83454000Y-56357000D01*
G37*
G36*
X80708500Y-56159400D02*
X79565500Y-56159400D01*
X79565500Y-55651400D01*
X80708500Y-55651400D01*
X80708500Y-56159400D01*
X80708500Y-56159400D01*
G37*
G36*
X72021700Y-56159400D02*
X70878700Y-56159400D01*
X70878700Y-55651400D01*
X72021700Y-55651400D01*
X72021700Y-56159400D01*
X72021700Y-56159400D01*
G37*
G36*
X74358500Y-56159400D02*
X73215500Y-56159400D01*
X73215500Y-55651400D01*
X74358500Y-55651400D01*
X74358500Y-56159400D01*
X74358500Y-56159400D01*
G37*
G36*
X65671700Y-56159400D02*
X64528700Y-56159400D01*
X64528700Y-55651400D01*
X65671700Y-55651400D01*
X65671700Y-56159400D01*
X65671700Y-56159400D01*
G37*
G36*
X59446500Y-56099000D02*
X58303500Y-56099000D01*
X58303500Y-55591000D01*
X59446500Y-55591000D01*
X59446500Y-56099000D01*
X59446500Y-56099000D01*
G37*
G36*
X53096500Y-56099000D02*
X51953500Y-56099000D01*
X51953500Y-55591000D01*
X53096500Y-55591000D01*
X53096500Y-56099000D01*
X53096500Y-56099000D01*
G37*
G36*
X100506040Y-52350067D02*
X100682333Y-52385134D01*
X101014461Y-52522706D01*
X101264834Y-52690000D01*
X101313372Y-52722432D01*
X101567568Y-52976628D01*
X101567570Y-52976631D01*
X101767294Y-53275539D01*
X101904866Y-53607667D01*
X101975000Y-53960253D01*
X101975000Y-54319747D01*
X101904866Y-54672333D01*
X101767294Y-55004461D01*
X101638158Y-55197727D01*
X101567568Y-55303372D01*
X101313372Y-55557568D01*
X101313369Y-55557570D01*
X101014461Y-55757294D01*
X100682333Y-55894866D01*
X100506040Y-55929933D01*
X100329748Y-55965000D01*
X99970252Y-55965000D01*
X99793960Y-55929933D01*
X99617667Y-55894866D01*
X99285539Y-55757294D01*
X98986631Y-55557570D01*
X98986628Y-55557568D01*
X98732432Y-55303372D01*
X98661842Y-55197727D01*
X98532706Y-55004461D01*
X98395134Y-54672333D01*
X98325000Y-54319747D01*
X98325000Y-53960253D01*
X98395134Y-53607667D01*
X98532706Y-53275539D01*
X98732430Y-52976631D01*
X98732432Y-52976628D01*
X98986628Y-52722432D01*
X99035166Y-52690000D01*
X99285539Y-52522706D01*
X99617667Y-52385134D01*
X99793960Y-52350067D01*
X99970252Y-52315000D01*
X100329748Y-52315000D01*
X100506040Y-52350067D01*
X100506040Y-52350067D01*
G37*
G36*
X61276800Y-55800200D02*
X60676800Y-55800200D01*
X60676800Y-55350200D01*
X61276800Y-55350200D01*
X61276800Y-55800200D01*
X61276800Y-55800200D01*
G37*
G36*
X63376800Y-55800200D02*
X62776800Y-55800200D01*
X62776800Y-55350200D01*
X63376800Y-55350200D01*
X63376800Y-55800200D01*
X63376800Y-55800200D01*
G37*
G36*
X40394000Y-55619500D02*
X39886000Y-55619500D01*
X39886000Y-54476500D01*
X40394000Y-54476500D01*
X40394000Y-55619500D01*
X40394000Y-55619500D01*
G37*
G36*
X36584000Y-55619500D02*
X36076000Y-55619500D01*
X36076000Y-54476500D01*
X36584000Y-54476500D01*
X36584000Y-55619500D01*
X36584000Y-55619500D01*
G37*
G36*
X35314000Y-55619500D02*
X34806000Y-55619500D01*
X34806000Y-54476500D01*
X35314000Y-54476500D01*
X35314000Y-55619500D01*
X35314000Y-55619500D01*
G37*
G36*
X41664000Y-55619500D02*
X41156000Y-55619500D01*
X41156000Y-54476500D01*
X41664000Y-54476500D01*
X41664000Y-55619500D01*
X41664000Y-55619500D01*
G37*
G36*
X34044000Y-55619500D02*
X33536000Y-55619500D01*
X33536000Y-54476500D01*
X34044000Y-54476500D01*
X34044000Y-55619500D01*
X34044000Y-55619500D01*
G37*
G36*
X37854000Y-55619500D02*
X37346000Y-55619500D01*
X37346000Y-54476500D01*
X37854000Y-54476500D01*
X37854000Y-55619500D01*
X37854000Y-55619500D01*
G37*
G36*
X39124000Y-55619500D02*
X38616000Y-55619500D01*
X38616000Y-54476500D01*
X39124000Y-54476500D01*
X39124000Y-55619500D01*
X39124000Y-55619500D01*
G37*
G36*
X51225000Y-55600000D02*
X49975000Y-55600000D01*
X49975000Y-54600000D01*
X51225000Y-54600000D01*
X51225000Y-55600000D01*
X51225000Y-55600000D01*
G37*
G36*
X30660857Y-53082272D02*
X30861042Y-53165191D01*
X30861045Y-53165193D01*
X31026191Y-53275540D01*
X31041213Y-53285578D01*
X31194422Y-53438787D01*
X31314809Y-53618958D01*
X31397728Y-53819143D01*
X31440000Y-54031658D01*
X31440000Y-54248342D01*
X31397728Y-54460857D01*
X31314809Y-54661042D01*
X31194422Y-54841213D01*
X31041213Y-54994422D01*
X31041210Y-54994424D01*
X31041209Y-54994425D01*
X30861045Y-55114807D01*
X30861042Y-55114809D01*
X30660857Y-55197728D01*
X30448342Y-55240000D01*
X30231658Y-55240000D01*
X30019143Y-55197728D01*
X29818958Y-55114809D01*
X29818955Y-55114807D01*
X29638791Y-54994425D01*
X29638790Y-54994424D01*
X29638787Y-54994422D01*
X29485578Y-54841213D01*
X29365191Y-54661042D01*
X29282272Y-54460857D01*
X29240000Y-54248342D01*
X29240000Y-54031658D01*
X29282272Y-53819143D01*
X29365191Y-53618958D01*
X29485578Y-53438787D01*
X29638787Y-53285578D01*
X29653810Y-53275540D01*
X29818955Y-53165193D01*
X29818958Y-53165191D01*
X30019143Y-53082272D01*
X30231658Y-53040000D01*
X30448342Y-53040000D01*
X30660857Y-53082272D01*
X30660857Y-53082272D01*
G37*
G36*
X25580857Y-53082272D02*
X25781042Y-53165191D01*
X25781045Y-53165193D01*
X25946191Y-53275540D01*
X25961213Y-53285578D01*
X26114422Y-53438787D01*
X26234809Y-53618958D01*
X26317728Y-53819143D01*
X26360000Y-54031658D01*
X26360000Y-54248342D01*
X26317728Y-54460857D01*
X26234809Y-54661042D01*
X26114422Y-54841213D01*
X25961213Y-54994422D01*
X25961210Y-54994424D01*
X25961209Y-54994425D01*
X25781045Y-55114807D01*
X25781042Y-55114809D01*
X25580857Y-55197728D01*
X25368342Y-55240000D01*
X25151658Y-55240000D01*
X24939143Y-55197728D01*
X24738958Y-55114809D01*
X24738955Y-55114807D01*
X24558791Y-54994425D01*
X24558790Y-54994424D01*
X24558787Y-54994422D01*
X24405578Y-54841213D01*
X24285191Y-54661042D01*
X24202272Y-54460857D01*
X24160000Y-54248342D01*
X24160000Y-54031658D01*
X24202272Y-53819143D01*
X24285191Y-53618958D01*
X24405578Y-53438787D01*
X24558787Y-53285578D01*
X24573810Y-53275540D01*
X24738955Y-53165193D01*
X24738958Y-53165191D01*
X24939143Y-53082272D01*
X25151658Y-53040000D01*
X25368342Y-53040000D01*
X25580857Y-53082272D01*
X25580857Y-53082272D01*
G37*
G36*
X84850000Y-54900000D02*
X84150000Y-54900000D01*
X84150000Y-53600000D01*
X84850000Y-53600000D01*
X84850000Y-54900000D01*
X84850000Y-54900000D01*
G37*
G36*
X88750000Y-54900000D02*
X88050000Y-54900000D01*
X88050000Y-53600000D01*
X88750000Y-53600000D01*
X88750000Y-54900000D01*
X88750000Y-54900000D01*
G37*
G36*
X86850000Y-54900000D02*
X86150000Y-54900000D01*
X86150000Y-53600000D01*
X86850000Y-53600000D01*
X86850000Y-54900000D01*
X86850000Y-54900000D01*
G37*
G36*
X82950000Y-54900000D02*
X82250000Y-54900000D01*
X82250000Y-53600000D01*
X82950000Y-53600000D01*
X82950000Y-54900000D01*
X82950000Y-54900000D01*
G37*
G36*
X63291200Y-53990000D02*
X62591200Y-53990000D01*
X62591200Y-52690000D01*
X63291200Y-52690000D01*
X63291200Y-53990000D01*
X63291200Y-53990000D01*
G37*
G36*
X61391200Y-53990000D02*
X60691200Y-53990000D01*
X60691200Y-52690000D01*
X61391200Y-52690000D01*
X61391200Y-53990000D01*
X61391200Y-53990000D01*
G37*
G36*
X53096500Y-53559000D02*
X51953500Y-53559000D01*
X51953500Y-53051000D01*
X53096500Y-53051000D01*
X53096500Y-53559000D01*
X53096500Y-53559000D01*
G37*
G36*
X59446500Y-53559000D02*
X58303500Y-53559000D01*
X58303500Y-53051000D01*
X59446500Y-53051000D01*
X59446500Y-53559000D01*
X59446500Y-53559000D01*
G37*
G36*
X94550000Y-53400000D02*
X93050000Y-53400000D01*
X93050000Y-51900000D01*
X94550000Y-51900000D01*
X94550000Y-53400000D01*
X94550000Y-53400000D01*
G37*
G36*
X80708500Y-53365400D02*
X79565500Y-53365400D01*
X79565500Y-52857400D01*
X80708500Y-52857400D01*
X80708500Y-53365400D01*
X80708500Y-53365400D01*
G37*
G36*
X74358500Y-53365400D02*
X73215500Y-53365400D01*
X73215500Y-52857400D01*
X74358500Y-52857400D01*
X74358500Y-53365400D01*
X74358500Y-53365400D01*
G37*
G36*
X72021700Y-53314600D02*
X70878700Y-53314600D01*
X70878700Y-52806600D01*
X72021700Y-52806600D01*
X72021700Y-53314600D01*
X72021700Y-53314600D01*
G37*
G36*
X65671700Y-53314600D02*
X64528700Y-53314600D01*
X64528700Y-52806600D01*
X65671700Y-52806600D01*
X65671700Y-53314600D01*
X65671700Y-53314600D01*
G37*
G36*
X86950000Y-52725000D02*
X85950000Y-52725000D01*
X85950000Y-51475000D01*
X86950000Y-51475000D01*
X86950000Y-52725000D01*
X86950000Y-52725000D01*
G37*
G36*
X88950000Y-52725000D02*
X87950000Y-52725000D01*
X87950000Y-51475000D01*
X88950000Y-51475000D01*
X88950000Y-52725000D01*
X88950000Y-52725000D01*
G37*
G36*
X83050000Y-52725000D02*
X82050000Y-52725000D01*
X82050000Y-51475000D01*
X83050000Y-51475000D01*
X83050000Y-52725000D01*
X83050000Y-52725000D01*
G37*
G36*
X85050000Y-52725000D02*
X84050000Y-52725000D01*
X84050000Y-51475000D01*
X85050000Y-51475000D01*
X85050000Y-52725000D01*
X85050000Y-52725000D01*
G37*
G36*
X27975770Y-50615372D02*
X28091689Y-50638429D01*
X28273678Y-50713811D01*
X28437463Y-50823249D01*
X28576751Y-50962537D01*
X28686189Y-51126322D01*
X28761571Y-51308311D01*
X28800000Y-51501509D01*
X28800000Y-51698491D01*
X28761571Y-51891689D01*
X28686189Y-52073678D01*
X28576751Y-52237463D01*
X28437463Y-52376751D01*
X28273678Y-52486189D01*
X28091689Y-52561571D01*
X27975770Y-52584628D01*
X27898493Y-52600000D01*
X27701507Y-52600000D01*
X27624230Y-52584628D01*
X27508311Y-52561571D01*
X27326322Y-52486189D01*
X27162537Y-52376751D01*
X27023249Y-52237463D01*
X26913811Y-52073678D01*
X26838429Y-51891689D01*
X26800000Y-51698491D01*
X26800000Y-51501509D01*
X26838429Y-51308311D01*
X26913811Y-51126322D01*
X27023249Y-50962537D01*
X27162537Y-50823249D01*
X27326322Y-50713811D01*
X27508311Y-50638429D01*
X27624230Y-50615372D01*
X27701507Y-50600000D01*
X27898493Y-50600000D01*
X27975770Y-50615372D01*
X27975770Y-50615372D01*
G37*
G36*
X53096500Y-52289000D02*
X51953500Y-52289000D01*
X51953500Y-51781000D01*
X53096500Y-51781000D01*
X53096500Y-52289000D01*
X53096500Y-52289000D01*
G37*
G36*
X59446500Y-52289000D02*
X58303500Y-52289000D01*
X58303500Y-51781000D01*
X59446500Y-51781000D01*
X59446500Y-52289000D01*
X59446500Y-52289000D01*
G37*
G36*
X91406318Y-50644411D02*
X91478767Y-50658822D01*
X91535303Y-50682240D01*
X91615257Y-50715358D01*
X91738100Y-50797439D01*
X91842561Y-50901900D01*
X91924642Y-51024743D01*
X91981178Y-51161234D01*
X92010000Y-51306130D01*
X92010000Y-51453870D01*
X91981178Y-51598766D01*
X91924642Y-51735257D01*
X91842561Y-51858100D01*
X91738100Y-51962561D01*
X91615257Y-52044642D01*
X91545157Y-52073678D01*
X91478767Y-52101178D01*
X91406318Y-52115589D01*
X91333870Y-52130000D01*
X91186130Y-52130000D01*
X91113682Y-52115589D01*
X91041233Y-52101178D01*
X90974843Y-52073678D01*
X90904743Y-52044642D01*
X90781900Y-51962561D01*
X90677439Y-51858100D01*
X90595358Y-51735257D01*
X90538822Y-51598766D01*
X90510000Y-51453870D01*
X90510000Y-51306130D01*
X90538822Y-51161234D01*
X90595358Y-51024743D01*
X90677439Y-50901900D01*
X90781900Y-50797439D01*
X90904743Y-50715358D01*
X90984697Y-50682240D01*
X91041233Y-50658822D01*
X91113682Y-50644411D01*
X91186130Y-50630000D01*
X91333870Y-50630000D01*
X91406318Y-50644411D01*
X91406318Y-50644411D01*
G37*
G36*
X80708500Y-52095400D02*
X79565500Y-52095400D01*
X79565500Y-51587400D01*
X80708500Y-51587400D01*
X80708500Y-52095400D01*
X80708500Y-52095400D01*
G37*
G36*
X74358500Y-52095400D02*
X73215500Y-52095400D01*
X73215500Y-51587400D01*
X74358500Y-51587400D01*
X74358500Y-52095400D01*
X74358500Y-52095400D01*
G37*
G36*
X72021700Y-52044600D02*
X70878700Y-52044600D01*
X70878700Y-51536600D01*
X72021700Y-51536600D01*
X72021700Y-52044600D01*
X72021700Y-52044600D01*
G37*
G36*
X65671700Y-52044600D02*
X64528700Y-52044600D01*
X64528700Y-51536600D01*
X65671700Y-51536600D01*
X65671700Y-52044600D01*
X65671700Y-52044600D01*
G37*
G36*
X50600000Y-51475000D02*
X50000000Y-51475000D01*
X50000000Y-51025000D01*
X50600000Y-51025000D01*
X50600000Y-51475000D01*
X50600000Y-51475000D01*
G37*
G36*
X48500000Y-51475000D02*
X47900000Y-51475000D01*
X47900000Y-51025000D01*
X48500000Y-51025000D01*
X48500000Y-51475000D01*
X48500000Y-51475000D01*
G37*
G36*
X61226000Y-51431400D02*
X60626000Y-51431400D01*
X60626000Y-50981400D01*
X61226000Y-50981400D01*
X61226000Y-51431400D01*
X61226000Y-51431400D01*
G37*
G36*
X63326000Y-51431400D02*
X62726000Y-51431400D01*
X62726000Y-50981400D01*
X63326000Y-50981400D01*
X63326000Y-51431400D01*
X63326000Y-51431400D01*
G37*
G36*
X46150000Y-51200000D02*
X44850000Y-51200000D01*
X44850000Y-50500000D01*
X46150000Y-50500000D01*
X46150000Y-51200000D01*
X46150000Y-51200000D01*
G37*
G36*
X59446500Y-51019000D02*
X58303500Y-51019000D01*
X58303500Y-50511000D01*
X59446500Y-50511000D01*
X59446500Y-51019000D01*
X59446500Y-51019000D01*
G37*
G36*
X53096500Y-51019000D02*
X51953500Y-51019000D01*
X51953500Y-50511000D01*
X53096500Y-50511000D01*
X53096500Y-51019000D01*
X53096500Y-51019000D01*
G37*
G36*
X93946318Y-49374411D02*
X94018767Y-49388822D01*
X94075303Y-49412240D01*
X94155257Y-49445358D01*
X94278100Y-49527439D01*
X94382561Y-49631900D01*
X94464642Y-49754743D01*
X94497760Y-49834697D01*
X94521178Y-49891233D01*
X94525791Y-49914425D01*
X94550000Y-50036130D01*
X94550000Y-50183870D01*
X94521178Y-50328766D01*
X94464642Y-50465257D01*
X94382561Y-50588100D01*
X94278100Y-50692561D01*
X94155257Y-50774642D01*
X94075303Y-50807760D01*
X94018767Y-50831178D01*
X93946318Y-50845589D01*
X93873870Y-50860000D01*
X93726130Y-50860000D01*
X93653682Y-50845589D01*
X93581233Y-50831178D01*
X93524697Y-50807760D01*
X93444743Y-50774642D01*
X93321900Y-50692561D01*
X93217439Y-50588100D01*
X93135358Y-50465257D01*
X93078822Y-50328766D01*
X93050000Y-50183870D01*
X93050000Y-50036130D01*
X93074209Y-49914425D01*
X93078822Y-49891233D01*
X93102240Y-49834697D01*
X93135358Y-49754743D01*
X93217439Y-49631900D01*
X93321900Y-49527439D01*
X93444743Y-49445358D01*
X93524697Y-49412240D01*
X93581233Y-49388822D01*
X93653682Y-49374411D01*
X93726130Y-49360000D01*
X93873870Y-49360000D01*
X93946318Y-49374411D01*
X93946318Y-49374411D01*
G37*
G36*
X74358500Y-50825400D02*
X73215500Y-50825400D01*
X73215500Y-50317400D01*
X74358500Y-50317400D01*
X74358500Y-50825400D01*
X74358500Y-50825400D01*
G37*
G36*
X80708500Y-50825400D02*
X79565500Y-50825400D01*
X79565500Y-50317400D01*
X80708500Y-50317400D01*
X80708500Y-50825400D01*
X80708500Y-50825400D01*
G37*
G36*
X85050000Y-50775000D02*
X84050000Y-50775000D01*
X84050000Y-49525000D01*
X85050000Y-49525000D01*
X85050000Y-50775000D01*
X85050000Y-50775000D01*
G37*
G36*
X83050000Y-50775000D02*
X82050000Y-50775000D01*
X82050000Y-49525000D01*
X83050000Y-49525000D01*
X83050000Y-50775000D01*
X83050000Y-50775000D01*
G37*
G36*
X86950000Y-50775000D02*
X85950000Y-50775000D01*
X85950000Y-49525000D01*
X86950000Y-49525000D01*
X86950000Y-50775000D01*
X86950000Y-50775000D01*
G37*
G36*
X88950000Y-50775000D02*
X87950000Y-50775000D01*
X87950000Y-49525000D01*
X88950000Y-49525000D01*
X88950000Y-50775000D01*
X88950000Y-50775000D01*
G37*
G36*
X72021700Y-50774600D02*
X70878700Y-50774600D01*
X70878700Y-50266600D01*
X72021700Y-50266600D01*
X72021700Y-50774600D01*
X72021700Y-50774600D01*
G37*
G36*
X65671700Y-50774600D02*
X64528700Y-50774600D01*
X64528700Y-50266600D01*
X65671700Y-50266600D01*
X65671700Y-50774600D01*
X65671700Y-50774600D01*
G37*
G36*
X25580857Y-48002272D02*
X25781042Y-48085191D01*
X25781045Y-48085193D01*
X25915988Y-48175359D01*
X25961213Y-48205578D01*
X26114422Y-48358787D01*
X26114424Y-48358790D01*
X26114425Y-48358791D01*
X26198583Y-48484742D01*
X26234809Y-48538958D01*
X26317728Y-48739143D01*
X26360000Y-48951658D01*
X26360000Y-49168342D01*
X26317728Y-49380857D01*
X26234809Y-49581042D01*
X26114422Y-49761213D01*
X25961213Y-49914422D01*
X25781042Y-50034809D01*
X25580857Y-50117728D01*
X25368342Y-50160000D01*
X25151658Y-50160000D01*
X24939143Y-50117728D01*
X24738958Y-50034809D01*
X24558787Y-49914422D01*
X24405578Y-49761213D01*
X24285191Y-49581042D01*
X24202272Y-49380857D01*
X24160000Y-49168342D01*
X24160000Y-48951658D01*
X24202272Y-48739143D01*
X24285191Y-48538958D01*
X24321417Y-48484742D01*
X24405575Y-48358791D01*
X24405576Y-48358790D01*
X24405578Y-48358787D01*
X24558787Y-48205578D01*
X24604013Y-48175359D01*
X24738955Y-48085193D01*
X24738958Y-48085191D01*
X24939143Y-48002272D01*
X25151658Y-47960000D01*
X25368342Y-47960000D01*
X25580857Y-48002272D01*
X25580857Y-48002272D01*
G37*
G36*
X30660857Y-48002272D02*
X30861042Y-48085191D01*
X30861045Y-48085193D01*
X30995988Y-48175359D01*
X31041213Y-48205578D01*
X31194422Y-48358787D01*
X31194424Y-48358790D01*
X31194425Y-48358791D01*
X31278583Y-48484742D01*
X31314809Y-48538958D01*
X31397728Y-48739143D01*
X31440000Y-48951658D01*
X31440000Y-49168342D01*
X31397728Y-49380857D01*
X31314809Y-49581042D01*
X31194422Y-49761213D01*
X31041213Y-49914422D01*
X30861042Y-50034809D01*
X30660857Y-50117728D01*
X30448342Y-50160000D01*
X30231658Y-50160000D01*
X30019143Y-50117728D01*
X29818958Y-50034809D01*
X29638787Y-49914422D01*
X29485578Y-49761213D01*
X29365191Y-49581042D01*
X29282272Y-49380857D01*
X29240000Y-49168342D01*
X29240000Y-48951658D01*
X29282272Y-48739143D01*
X29365191Y-48538958D01*
X29401417Y-48484742D01*
X29485575Y-48358791D01*
X29485576Y-48358790D01*
X29485578Y-48358787D01*
X29638787Y-48205578D01*
X29684013Y-48175359D01*
X29818955Y-48085193D01*
X29818958Y-48085191D01*
X30019143Y-48002272D01*
X30231658Y-47960000D01*
X30448342Y-47960000D01*
X30660857Y-48002272D01*
X30660857Y-48002272D01*
G37*
G36*
X59446500Y-49749000D02*
X58303500Y-49749000D01*
X58303500Y-49241000D01*
X59446500Y-49241000D01*
X59446500Y-49749000D01*
X59446500Y-49749000D01*
G37*
G36*
X53096500Y-49749000D02*
X51953500Y-49749000D01*
X51953500Y-49241000D01*
X53096500Y-49241000D01*
X53096500Y-49749000D01*
X53096500Y-49749000D01*
G37*
G36*
X91406318Y-48104411D02*
X91478767Y-48118822D01*
X91535303Y-48142240D01*
X91615257Y-48175358D01*
X91738100Y-48257439D01*
X91842561Y-48361900D01*
X91924642Y-48484743D01*
X91981178Y-48621234D01*
X92010000Y-48766130D01*
X92010000Y-48913870D01*
X91981178Y-49058766D01*
X91924642Y-49195257D01*
X91842561Y-49318100D01*
X91738100Y-49422561D01*
X91615257Y-49504642D01*
X91535303Y-49537760D01*
X91478767Y-49561178D01*
X91406318Y-49575589D01*
X91333870Y-49590000D01*
X91186130Y-49590000D01*
X91113682Y-49575589D01*
X91041233Y-49561178D01*
X90984697Y-49537760D01*
X90904743Y-49504642D01*
X90781900Y-49422561D01*
X90677439Y-49318100D01*
X90595358Y-49195257D01*
X90538822Y-49058766D01*
X90510000Y-48913870D01*
X90510000Y-48766130D01*
X90538822Y-48621234D01*
X90595358Y-48484743D01*
X90677439Y-48361900D01*
X90781900Y-48257439D01*
X90904743Y-48175358D01*
X90984697Y-48142240D01*
X91041233Y-48118822D01*
X91113682Y-48104411D01*
X91186130Y-48090000D01*
X91333870Y-48090000D01*
X91406318Y-48104411D01*
X91406318Y-48104411D01*
G37*
G36*
X80708500Y-49555400D02*
X79565500Y-49555400D01*
X79565500Y-49047400D01*
X80708500Y-49047400D01*
X80708500Y-49555400D01*
X80708500Y-49555400D01*
G37*
G36*
X74358500Y-49555400D02*
X73215500Y-49555400D01*
X73215500Y-49047400D01*
X74358500Y-49047400D01*
X74358500Y-49555400D01*
X74358500Y-49555400D01*
G37*
G36*
X72021700Y-49504600D02*
X70878700Y-49504600D01*
X70878700Y-48996600D01*
X72021700Y-48996600D01*
X72021700Y-49504600D01*
X72021700Y-49504600D01*
G37*
G36*
X65671700Y-49504600D02*
X64528700Y-49504600D01*
X64528700Y-48996600D01*
X65671700Y-48996600D01*
X65671700Y-49504600D01*
X65671700Y-49504600D01*
G37*
G36*
X46150000Y-49300000D02*
X44850000Y-49300000D01*
X44850000Y-48600000D01*
X46150000Y-48600000D01*
X46150000Y-49300000D01*
X46150000Y-49300000D01*
G37*
G36*
X39124000Y-49269500D02*
X38616000Y-49269500D01*
X38616000Y-48126500D01*
X39124000Y-48126500D01*
X39124000Y-49269500D01*
X39124000Y-49269500D01*
G37*
G36*
X40394000Y-49269500D02*
X39886000Y-49269500D01*
X39886000Y-48126500D01*
X40394000Y-48126500D01*
X40394000Y-49269500D01*
X40394000Y-49269500D01*
G37*
G36*
X34044000Y-49269500D02*
X33536000Y-49269500D01*
X33536000Y-48126500D01*
X34044000Y-48126500D01*
X34044000Y-49269500D01*
X34044000Y-49269500D01*
G37*
G36*
X35314000Y-49269500D02*
X34806000Y-49269500D01*
X34806000Y-48126500D01*
X35314000Y-48126500D01*
X35314000Y-49269500D01*
X35314000Y-49269500D01*
G37*
G36*
X36584000Y-49269500D02*
X36076000Y-49269500D01*
X36076000Y-48126500D01*
X36584000Y-48126500D01*
X36584000Y-49269500D01*
X36584000Y-49269500D01*
G37*
G36*
X37854000Y-49269500D02*
X37346000Y-49269500D01*
X37346000Y-48126500D01*
X37854000Y-48126500D01*
X37854000Y-49269500D01*
X37854000Y-49269500D01*
G37*
G36*
X41664000Y-49269500D02*
X41156000Y-49269500D01*
X41156000Y-48126500D01*
X41664000Y-48126500D01*
X41664000Y-49269500D01*
X41664000Y-49269500D01*
G37*
G36*
X61226000Y-49247000D02*
X60626000Y-49247000D01*
X60626000Y-48797000D01*
X61226000Y-48797000D01*
X61226000Y-49247000D01*
X61226000Y-49247000D01*
G37*
G36*
X63326000Y-49247000D02*
X62726000Y-49247000D01*
X62726000Y-48797000D01*
X63326000Y-48797000D01*
X63326000Y-49247000D01*
X63326000Y-49247000D01*
G37*
G36*
X48500000Y-49225000D02*
X47900000Y-49225000D01*
X47900000Y-48775000D01*
X48500000Y-48775000D01*
X48500000Y-49225000D01*
X48500000Y-49225000D01*
G37*
G36*
X50600000Y-49225000D02*
X50000000Y-49225000D01*
X50000000Y-48775000D01*
X50600000Y-48775000D01*
X50600000Y-49225000D01*
X50600000Y-49225000D01*
G37*
G36*
X86950000Y-48875000D02*
X85950000Y-48875000D01*
X85950000Y-47625000D01*
X86950000Y-47625000D01*
X86950000Y-48875000D01*
X86950000Y-48875000D01*
G37*
G36*
X88950000Y-48875000D02*
X87950000Y-48875000D01*
X87950000Y-47625000D01*
X88950000Y-47625000D01*
X88950000Y-48875000D01*
X88950000Y-48875000D01*
G37*
G36*
X85050000Y-48825000D02*
X84050000Y-48825000D01*
X84050000Y-47575000D01*
X85050000Y-47575000D01*
X85050000Y-48825000D01*
X85050000Y-48825000D01*
G37*
G36*
X83050000Y-48825000D02*
X82050000Y-48825000D01*
X82050000Y-47575000D01*
X83050000Y-47575000D01*
X83050000Y-48825000D01*
X83050000Y-48825000D01*
G37*
G36*
X57200000Y-48375000D02*
X56200000Y-48375000D01*
X56200000Y-47125000D01*
X57200000Y-47125000D01*
X57200000Y-48375000D01*
X57200000Y-48375000D01*
G37*
G36*
X55200000Y-48375000D02*
X54200000Y-48375000D01*
X54200000Y-47125000D01*
X55200000Y-47125000D01*
X55200000Y-48375000D01*
X55200000Y-48375000D01*
G37*
G36*
X93946318Y-46834411D02*
X94018767Y-46848822D01*
X94075303Y-46872240D01*
X94155257Y-46905358D01*
X94278100Y-46987439D01*
X94382561Y-47091900D01*
X94464642Y-47214743D01*
X94521178Y-47351234D01*
X94550000Y-47496130D01*
X94550000Y-47643870D01*
X94521178Y-47788766D01*
X94464642Y-47925257D01*
X94382561Y-48048100D01*
X94278100Y-48152561D01*
X94155257Y-48234642D01*
X94075303Y-48267760D01*
X94018767Y-48291178D01*
X93946318Y-48305589D01*
X93873870Y-48320000D01*
X93726130Y-48320000D01*
X93653682Y-48305589D01*
X93581233Y-48291178D01*
X93524697Y-48267760D01*
X93444743Y-48234642D01*
X93321900Y-48152561D01*
X93217439Y-48048100D01*
X93135358Y-47925257D01*
X93078822Y-47788766D01*
X93050000Y-47643870D01*
X93050000Y-47496130D01*
X93078822Y-47351234D01*
X93135358Y-47214743D01*
X93217439Y-47091900D01*
X93321900Y-46987439D01*
X93444743Y-46905358D01*
X93524697Y-46872240D01*
X93581233Y-46848822D01*
X93653682Y-46834411D01*
X93726130Y-46820000D01*
X93873870Y-46820000D01*
X93946318Y-46834411D01*
X93946318Y-46834411D01*
G37*
G36*
X76700000Y-48050000D02*
X75400000Y-48050000D01*
X75400000Y-47350000D01*
X76700000Y-47350000D01*
X76700000Y-48050000D01*
X76700000Y-48050000D01*
G37*
G36*
X68790000Y-47150000D02*
X66640000Y-47150000D01*
X66640000Y-45350000D01*
X68790000Y-45350000D01*
X68790000Y-47150000D01*
X68790000Y-47150000D01*
G37*
G36*
X72040000Y-47150000D02*
X69890000Y-47150000D01*
X69890000Y-45350000D01*
X72040000Y-45350000D01*
X72040000Y-47150000D01*
X72040000Y-47150000D01*
G37*
G36*
X91406318Y-45564411D02*
X91478767Y-45578822D01*
X91535303Y-45602240D01*
X91615257Y-45635358D01*
X91738100Y-45717439D01*
X91842561Y-45821900D01*
X91924642Y-45944743D01*
X91981178Y-46081234D01*
X92010000Y-46226130D01*
X92010000Y-46373870D01*
X91981178Y-46518766D01*
X91924642Y-46655257D01*
X91842561Y-46778100D01*
X91738100Y-46882561D01*
X91615257Y-46964642D01*
X91535303Y-46997760D01*
X91478767Y-47021178D01*
X91406318Y-47035589D01*
X91333870Y-47050000D01*
X91186130Y-47050000D01*
X91113682Y-47035589D01*
X91041233Y-47021178D01*
X90984697Y-46997760D01*
X90904743Y-46964642D01*
X90781900Y-46882561D01*
X90677439Y-46778100D01*
X90595358Y-46655257D01*
X90538822Y-46518766D01*
X90510000Y-46373870D01*
X90510000Y-46226130D01*
X90538822Y-46081234D01*
X90595358Y-45944743D01*
X90677439Y-45821900D01*
X90781900Y-45717439D01*
X90904743Y-45635358D01*
X90984697Y-45602240D01*
X91041233Y-45578822D01*
X91113682Y-45564411D01*
X91186130Y-45550000D01*
X91333870Y-45550000D01*
X91406318Y-45564411D01*
X91406318Y-45564411D01*
G37*
G36*
X76700000Y-46150000D02*
X75400000Y-46150000D01*
X75400000Y-45450000D01*
X76700000Y-45450000D01*
X76700000Y-46150000D01*
X76700000Y-46150000D01*
G37*
G36*
X26006040Y-42340067D02*
X26182333Y-42375134D01*
X26514461Y-42512706D01*
X26811356Y-42711085D01*
X26813372Y-42712432D01*
X27067568Y-42966628D01*
X27067570Y-42966631D01*
X27267294Y-43265539D01*
X27404866Y-43597667D01*
X27404866Y-43597668D01*
X27475000Y-43950252D01*
X27475000Y-44309748D01*
X27463938Y-44365358D01*
X27404866Y-44662333D01*
X27267294Y-44994461D01*
X27194189Y-45103870D01*
X27067568Y-45293372D01*
X26813372Y-45547568D01*
X26813369Y-45547570D01*
X26514461Y-45747294D01*
X26182333Y-45884866D01*
X26006040Y-45919933D01*
X25829748Y-45955000D01*
X25470252Y-45955000D01*
X25293960Y-45919933D01*
X25117667Y-45884866D01*
X24785539Y-45747294D01*
X24486631Y-45547570D01*
X24486628Y-45547568D01*
X24232432Y-45293372D01*
X24105811Y-45103870D01*
X24032706Y-44994461D01*
X23895134Y-44662333D01*
X23836062Y-44365358D01*
X23825000Y-44309748D01*
X23825000Y-43950252D01*
X23895134Y-43597668D01*
X23895134Y-43597667D01*
X24032706Y-43265539D01*
X24232430Y-42966631D01*
X24232432Y-42966628D01*
X24486628Y-42712432D01*
X24488644Y-42711085D01*
X24785539Y-42512706D01*
X25117667Y-42375134D01*
X25293960Y-42340067D01*
X25470252Y-42305000D01*
X25829748Y-42305000D01*
X26006040Y-42340067D01*
X26006040Y-42340067D01*
G37*
G36*
X93946318Y-44294411D02*
X94018767Y-44308822D01*
X94075303Y-44332240D01*
X94155257Y-44365358D01*
X94278100Y-44447439D01*
X94382561Y-44551900D01*
X94464642Y-44674743D01*
X94521178Y-44811234D01*
X94550000Y-44956130D01*
X94550000Y-45103870D01*
X94521178Y-45248766D01*
X94464642Y-45385257D01*
X94382561Y-45508100D01*
X94278100Y-45612561D01*
X94155257Y-45694642D01*
X94075303Y-45727760D01*
X94018767Y-45751178D01*
X93946318Y-45765589D01*
X93873870Y-45780000D01*
X93726130Y-45780000D01*
X93653682Y-45765589D01*
X93581233Y-45751178D01*
X93524697Y-45727760D01*
X93444743Y-45694642D01*
X93321900Y-45612561D01*
X93217439Y-45508100D01*
X93135358Y-45385257D01*
X93078822Y-45248766D01*
X93050000Y-45103870D01*
X93050000Y-44956130D01*
X93078822Y-44811234D01*
X93135358Y-44674743D01*
X93217439Y-44551900D01*
X93321900Y-44447439D01*
X93444743Y-44365358D01*
X93524697Y-44332240D01*
X93581233Y-44308822D01*
X93653682Y-44294411D01*
X93726130Y-44280000D01*
X93873870Y-44280000D01*
X93946318Y-44294411D01*
X93946318Y-44294411D01*
G37*
G36*
X43000000Y-45450000D02*
X42300000Y-45450000D01*
X42300000Y-44150000D01*
X43000000Y-44150000D01*
X43000000Y-45450000D01*
X43000000Y-45450000D01*
G37*
G36*
X41100000Y-45450000D02*
X40400000Y-45450000D01*
X40400000Y-44150000D01*
X41100000Y-44150000D01*
X41100000Y-45450000D01*
X41100000Y-45450000D01*
G37*
G36*
X59740000Y-44925000D02*
X47460000Y-44925000D01*
X47460000Y-43425000D01*
X59740000Y-43425000D01*
X59740000Y-44925000D01*
X59740000Y-44925000D01*
G37*
G36*
X91406318Y-43024411D02*
X91478767Y-43038822D01*
X91535303Y-43062240D01*
X91615257Y-43095358D01*
X91738100Y-43177439D01*
X91842561Y-43281900D01*
X91924642Y-43404743D01*
X91981178Y-43541234D01*
X92010000Y-43686130D01*
X92010000Y-43833870D01*
X91981178Y-43978766D01*
X91924642Y-44115257D01*
X91842561Y-44238100D01*
X91738100Y-44342561D01*
X91615257Y-44424642D01*
X91535303Y-44457760D01*
X91478767Y-44481178D01*
X91406318Y-44495589D01*
X91333870Y-44510000D01*
X91186130Y-44510000D01*
X91113682Y-44495589D01*
X91041233Y-44481178D01*
X90984697Y-44457760D01*
X90904743Y-44424642D01*
X90781900Y-44342561D01*
X90677439Y-44238100D01*
X90595358Y-44115257D01*
X90538822Y-43978766D01*
X90510000Y-43833870D01*
X90510000Y-43686130D01*
X90538822Y-43541234D01*
X90595358Y-43404743D01*
X90677439Y-43281900D01*
X90781900Y-43177439D01*
X90904743Y-43095358D01*
X90984697Y-43062240D01*
X91041233Y-43038822D01*
X91113682Y-43024411D01*
X91186130Y-43010000D01*
X91333870Y-43010000D01*
X91406318Y-43024411D01*
X91406318Y-43024411D01*
G37*
G36*
X100506040Y-40480067D02*
X100682333Y-40515134D01*
X101014461Y-40652706D01*
X101181985Y-40764642D01*
X101313372Y-40852432D01*
X101567568Y-41106628D01*
X101567570Y-41106631D01*
X101767294Y-41405539D01*
X101899726Y-41725258D01*
X101904866Y-41737668D01*
X101968473Y-42057437D01*
X101975000Y-42090253D01*
X101975000Y-42449747D01*
X101904866Y-42802333D01*
X101767294Y-43134461D01*
X101615806Y-43361178D01*
X101567568Y-43433372D01*
X101313372Y-43687568D01*
X101313369Y-43687570D01*
X101014461Y-43887294D01*
X100682333Y-44024866D01*
X100506040Y-44059933D01*
X100329748Y-44095000D01*
X99970252Y-44095000D01*
X99793960Y-44059933D01*
X99617667Y-44024866D01*
X99285539Y-43887294D01*
X98986631Y-43687570D01*
X98986628Y-43687568D01*
X98732432Y-43433372D01*
X98684194Y-43361178D01*
X98532706Y-43134461D01*
X98395134Y-42802333D01*
X98325000Y-42449747D01*
X98325000Y-42090253D01*
X98331528Y-42057437D01*
X98395134Y-41737668D01*
X98400274Y-41725258D01*
X98532706Y-41405539D01*
X98732430Y-41106631D01*
X98732432Y-41106628D01*
X98986628Y-40852432D01*
X99118015Y-40764642D01*
X99285539Y-40652706D01*
X99617667Y-40515134D01*
X99793960Y-40480067D01*
X99970252Y-40445000D01*
X100329748Y-40445000D01*
X100506040Y-40480067D01*
X100506040Y-40480067D01*
G37*
G36*
X85300000Y-43425000D02*
X84300000Y-43425000D01*
X84300000Y-42175000D01*
X85300000Y-42175000D01*
X85300000Y-43425000D01*
X85300000Y-43425000D01*
G37*
G36*
X83300000Y-43425000D02*
X82300000Y-43425000D01*
X82300000Y-42175000D01*
X83300000Y-42175000D01*
X83300000Y-43425000D01*
X83300000Y-43425000D01*
G37*
G36*
X34686318Y-41904411D02*
X34758767Y-41918822D01*
X34815303Y-41942240D01*
X34895257Y-41975358D01*
X35018100Y-42057439D01*
X35122561Y-42161900D01*
X35204642Y-42284743D01*
X35261178Y-42421234D01*
X35290000Y-42566130D01*
X35290000Y-42713870D01*
X35261178Y-42858766D01*
X35204642Y-42995257D01*
X35122561Y-43118100D01*
X35018100Y-43222561D01*
X34895257Y-43304642D01*
X34815303Y-43337760D01*
X34758767Y-43361178D01*
X34686318Y-43375589D01*
X34613870Y-43390000D01*
X34466130Y-43390000D01*
X34393682Y-43375589D01*
X34321233Y-43361178D01*
X34264697Y-43337760D01*
X34184743Y-43304642D01*
X34061900Y-43222561D01*
X33957439Y-43118100D01*
X33875358Y-42995257D01*
X33818822Y-42858766D01*
X33790000Y-42713870D01*
X33790000Y-42566130D01*
X33818822Y-42421234D01*
X33875358Y-42284743D01*
X33957439Y-42161900D01*
X34061900Y-42057439D01*
X34184743Y-41975358D01*
X34264697Y-41942240D01*
X34321233Y-41918822D01*
X34393682Y-41904411D01*
X34466130Y-41890000D01*
X34613870Y-41890000D01*
X34686318Y-41904411D01*
X34686318Y-41904411D01*
G37*
G36*
X46450000Y-42415000D02*
X44950000Y-42415000D01*
X44950000Y-30135000D01*
X46450000Y-30135000D01*
X46450000Y-42415000D01*
X46450000Y-42415000D01*
G37*
G36*
X62250000Y-42415000D02*
X60750000Y-42415000D01*
X60750000Y-30135000D01*
X62250000Y-30135000D01*
X62250000Y-42415000D01*
X62250000Y-42415000D01*
G37*
G36*
X32146318Y-40634411D02*
X32218767Y-40648822D01*
X32275303Y-40672240D01*
X32355257Y-40705358D01*
X32478100Y-40787439D01*
X32582561Y-40891900D01*
X32664642Y-41014743D01*
X32721178Y-41151234D01*
X32750000Y-41296130D01*
X32750000Y-41443870D01*
X32721178Y-41588766D01*
X32664642Y-41725257D01*
X32582561Y-41848100D01*
X32478100Y-41952561D01*
X32355257Y-42034642D01*
X32275303Y-42067760D01*
X32218767Y-42091178D01*
X32146318Y-42105589D01*
X32073870Y-42120000D01*
X31926130Y-42120000D01*
X31853682Y-42105589D01*
X31781233Y-42091178D01*
X31724697Y-42067760D01*
X31644743Y-42034642D01*
X31521900Y-41952561D01*
X31417439Y-41848100D01*
X31335358Y-41725257D01*
X31278822Y-41588766D01*
X31250000Y-41443870D01*
X31250000Y-41296130D01*
X31278822Y-41151234D01*
X31335358Y-41014743D01*
X31417439Y-40891900D01*
X31521900Y-40787439D01*
X31644743Y-40705358D01*
X31724697Y-40672240D01*
X31781233Y-40648822D01*
X31853682Y-40634411D01*
X31926130Y-40620000D01*
X32073870Y-40620000D01*
X32146318Y-40634411D01*
X32146318Y-40634411D01*
G37*
G36*
X34686318Y-39364411D02*
X34758767Y-39378822D01*
X34815303Y-39402240D01*
X34895257Y-39435358D01*
X35018100Y-39517439D01*
X35122561Y-39621900D01*
X35204642Y-39744743D01*
X35261178Y-39881234D01*
X35290000Y-40026130D01*
X35290000Y-40173870D01*
X35261178Y-40318766D01*
X35204642Y-40455257D01*
X35122561Y-40578100D01*
X35018100Y-40682561D01*
X34895257Y-40764642D01*
X34815303Y-40797760D01*
X34758767Y-40821178D01*
X34686318Y-40835589D01*
X34613870Y-40850000D01*
X34466130Y-40850000D01*
X34393682Y-40835589D01*
X34321233Y-40821178D01*
X34264697Y-40797760D01*
X34184743Y-40764642D01*
X34061900Y-40682561D01*
X33957439Y-40578100D01*
X33875358Y-40455257D01*
X33818822Y-40318766D01*
X33790000Y-40173870D01*
X33790000Y-40026130D01*
X33818822Y-39881234D01*
X33875358Y-39744743D01*
X33957439Y-39621900D01*
X34061900Y-39517439D01*
X34184743Y-39435358D01*
X34264697Y-39402240D01*
X34321233Y-39378822D01*
X34393682Y-39364411D01*
X34466130Y-39350000D01*
X34613870Y-39350000D01*
X34686318Y-39364411D01*
X34686318Y-39364411D01*
G37*
G36*
X86400000Y-40400000D02*
X84250000Y-40400000D01*
X84250000Y-38600000D01*
X86400000Y-38600000D01*
X86400000Y-40400000D01*
X86400000Y-40400000D01*
G37*
G36*
X83150000Y-40400000D02*
X81000000Y-40400000D01*
X81000000Y-38600000D01*
X83150000Y-38600000D01*
X83150000Y-40400000D01*
X83150000Y-40400000D01*
G37*
G36*
X32085201Y-38082254D02*
X32218767Y-38108822D01*
X32275303Y-38132240D01*
X32355257Y-38165358D01*
X32478100Y-38247439D01*
X32582561Y-38351900D01*
X32664642Y-38474743D01*
X32697760Y-38554697D01*
X32721178Y-38611233D01*
X32750000Y-38756131D01*
X32750000Y-38903869D01*
X32721178Y-39048767D01*
X32712531Y-39069642D01*
X32664642Y-39185257D01*
X32582561Y-39308100D01*
X32478100Y-39412561D01*
X32355257Y-39494642D01*
X32275303Y-39527760D01*
X32218767Y-39551178D01*
X32146318Y-39565589D01*
X32073870Y-39580000D01*
X31926130Y-39580000D01*
X31853682Y-39565589D01*
X31781233Y-39551178D01*
X31724697Y-39527760D01*
X31644743Y-39494642D01*
X31521900Y-39412561D01*
X31417439Y-39308100D01*
X31335358Y-39185257D01*
X31287469Y-39069642D01*
X31278822Y-39048767D01*
X31250000Y-38903869D01*
X31250000Y-38756131D01*
X31278822Y-38611233D01*
X31302240Y-38554697D01*
X31335358Y-38474743D01*
X31417439Y-38351900D01*
X31521900Y-38247439D01*
X31644743Y-38165358D01*
X31724697Y-38132240D01*
X31781233Y-38108822D01*
X31914799Y-38082254D01*
X31926130Y-38080000D01*
X32073870Y-38080000D01*
X32085201Y-38082254D01*
X32085201Y-38082254D01*
G37*
G36*
X41746318Y-37669411D02*
X41818767Y-37683822D01*
X41875303Y-37707240D01*
X41955257Y-37740358D01*
X42078100Y-37822439D01*
X42182561Y-37926900D01*
X42264642Y-38049743D01*
X42281717Y-38090966D01*
X42321178Y-38186233D01*
X42350000Y-38331131D01*
X42350000Y-38478869D01*
X42325906Y-38600000D01*
X42321178Y-38623766D01*
X42264642Y-38760257D01*
X42182561Y-38883100D01*
X42078100Y-38987561D01*
X41955257Y-39069642D01*
X41875303Y-39102760D01*
X41818767Y-39126178D01*
X41746318Y-39140589D01*
X41673870Y-39155000D01*
X41526130Y-39155000D01*
X41453682Y-39140589D01*
X41381233Y-39126178D01*
X41324697Y-39102760D01*
X41244743Y-39069642D01*
X41121900Y-38987561D01*
X41017439Y-38883100D01*
X40935358Y-38760257D01*
X40878822Y-38623766D01*
X40874095Y-38600000D01*
X40850000Y-38478869D01*
X40850000Y-38331131D01*
X40878822Y-38186233D01*
X40918283Y-38090966D01*
X40935358Y-38049743D01*
X41017439Y-37926900D01*
X41121900Y-37822439D01*
X41244743Y-37740358D01*
X41324697Y-37707240D01*
X41381233Y-37683822D01*
X41453682Y-37669411D01*
X41526130Y-37655000D01*
X41673870Y-37655000D01*
X41746318Y-37669411D01*
X41746318Y-37669411D01*
G37*
G36*
X101923015Y-38007234D02*
X102017268Y-38035825D01*
X102037912Y-38046860D01*
X102104129Y-38082254D01*
X102180264Y-38144736D01*
X102242746Y-38220871D01*
X102256946Y-38247437D01*
X102289175Y-38307732D01*
X102317766Y-38401985D01*
X102327419Y-38500000D01*
X102317766Y-38598015D01*
X102289175Y-38692268D01*
X102264357Y-38738697D01*
X102242746Y-38779129D01*
X102180264Y-38855264D01*
X102104129Y-38917746D01*
X102063697Y-38939357D01*
X102017268Y-38964175D01*
X101923015Y-38992766D01*
X101849564Y-39000000D01*
X101250436Y-39000000D01*
X101176985Y-38992766D01*
X101082732Y-38964175D01*
X101036303Y-38939357D01*
X100995871Y-38917746D01*
X100919736Y-38855264D01*
X100857254Y-38779129D01*
X100835643Y-38738697D01*
X100810825Y-38692268D01*
X100782234Y-38598015D01*
X100772581Y-38500000D01*
X100782234Y-38401985D01*
X100810825Y-38307732D01*
X100843054Y-38247437D01*
X100857254Y-38220871D01*
X100919736Y-38144736D01*
X100995871Y-38082254D01*
X101062088Y-38046860D01*
X101082732Y-38035825D01*
X101176985Y-38007234D01*
X101250436Y-38000000D01*
X101849564Y-38000000D01*
X101923015Y-38007234D01*
X101923015Y-38007234D01*
G37*
G36*
X34686318Y-36824411D02*
X34758767Y-36838822D01*
X34815303Y-36862240D01*
X34895257Y-36895358D01*
X35018100Y-36977439D01*
X35122561Y-37081900D01*
X35204642Y-37204743D01*
X35226239Y-37256884D01*
X35255145Y-37326667D01*
X35261178Y-37341234D01*
X35290000Y-37486130D01*
X35290000Y-37633870D01*
X35261178Y-37778766D01*
X35204642Y-37915257D01*
X35122561Y-38038100D01*
X35018100Y-38142561D01*
X34895257Y-38224642D01*
X34815303Y-38257760D01*
X34758767Y-38281178D01*
X34686318Y-38295589D01*
X34613870Y-38310000D01*
X34466130Y-38310000D01*
X34393682Y-38295589D01*
X34321233Y-38281178D01*
X34264697Y-38257760D01*
X34184743Y-38224642D01*
X34061900Y-38142561D01*
X33957439Y-38038100D01*
X33875358Y-37915257D01*
X33818822Y-37778766D01*
X33790000Y-37633870D01*
X33790000Y-37486130D01*
X33818822Y-37341234D01*
X33824856Y-37326667D01*
X33853761Y-37256884D01*
X33875358Y-37204743D01*
X33957439Y-37081900D01*
X34061900Y-36977439D01*
X34184743Y-36895358D01*
X34264697Y-36862240D01*
X34321233Y-36838822D01*
X34393682Y-36824411D01*
X34466130Y-36810000D01*
X34613870Y-36810000D01*
X34686318Y-36824411D01*
X34686318Y-36824411D01*
G37*
G36*
X98943116Y-36881873D02*
X98987570Y-36895358D01*
X99032658Y-36909035D01*
X99115173Y-36953140D01*
X99187501Y-37012499D01*
X99246860Y-37084827D01*
X99290965Y-37167342D01*
X99290966Y-37167346D01*
X99318127Y-37256884D01*
X99325000Y-37326668D01*
X99325000Y-37673332D01*
X99318399Y-37740359D01*
X99318127Y-37743115D01*
X99290965Y-37832658D01*
X99246860Y-37915173D01*
X99187504Y-37987498D01*
X99187502Y-37987499D01*
X99187501Y-37987501D01*
X99115173Y-38046859D01*
X99115169Y-38046861D01*
X99115168Y-38046862D01*
X99032657Y-38090965D01*
X98995680Y-38102182D01*
X98943115Y-38118127D01*
X98850000Y-38127298D01*
X98756884Y-38118127D01*
X98704319Y-38102182D01*
X98667342Y-38090965D01*
X98584827Y-38046860D01*
X98512502Y-37987504D01*
X98512501Y-37987502D01*
X98512499Y-37987501D01*
X98453141Y-37915173D01*
X98453138Y-37915168D01*
X98409035Y-37832657D01*
X98392688Y-37778766D01*
X98381873Y-37743115D01*
X98375000Y-37673331D01*
X98375000Y-37326668D01*
X98377627Y-37300000D01*
X98381873Y-37256885D01*
X98409034Y-37167345D01*
X98453142Y-37084826D01*
X98512500Y-37012499D01*
X98584828Y-36953140D01*
X98667343Y-36909035D01*
X98712431Y-36895358D01*
X98756885Y-36881873D01*
X98850000Y-36872702D01*
X98943116Y-36881873D01*
X98943116Y-36881873D01*
G37*
G36*
X65250000Y-38000000D02*
X63950000Y-38000000D01*
X63950000Y-37300000D01*
X65250000Y-37300000D01*
X65250000Y-38000000D01*
X65250000Y-38000000D01*
G37*
G36*
X96850000Y-37525000D02*
X95850000Y-37525000D01*
X95850000Y-36275000D01*
X96850000Y-36275000D01*
X96850000Y-37525000D01*
X96850000Y-37525000D01*
G37*
G36*
X94850000Y-37525000D02*
X93850000Y-37525000D01*
X93850000Y-36275000D01*
X94850000Y-36275000D01*
X94850000Y-37525000D01*
X94850000Y-37525000D01*
G37*
G36*
X32146318Y-35554411D02*
X32218767Y-35568822D01*
X32275303Y-35592240D01*
X32355257Y-35625358D01*
X32478100Y-35707439D01*
X32582561Y-35811900D01*
X32664642Y-35934743D01*
X32721178Y-36071234D01*
X32750000Y-36216130D01*
X32750000Y-36363870D01*
X32721178Y-36508766D01*
X32664642Y-36645257D01*
X32582561Y-36768100D01*
X32478100Y-36872561D01*
X32355257Y-36954642D01*
X32275303Y-36987760D01*
X32218767Y-37011178D01*
X32146318Y-37025589D01*
X32073870Y-37040000D01*
X31926130Y-37040000D01*
X31853682Y-37025589D01*
X31781233Y-37011178D01*
X31724697Y-36987760D01*
X31644743Y-36954642D01*
X31521900Y-36872561D01*
X31417439Y-36768100D01*
X31335358Y-36645257D01*
X31278822Y-36508766D01*
X31250000Y-36363870D01*
X31250000Y-36216130D01*
X31278822Y-36071234D01*
X31335358Y-35934743D01*
X31417439Y-35811900D01*
X31521900Y-35707439D01*
X31644743Y-35625358D01*
X31724697Y-35592240D01*
X31781233Y-35568822D01*
X31853682Y-35554411D01*
X31926130Y-35540000D01*
X32073870Y-35540000D01*
X32146318Y-35554411D01*
X32146318Y-35554411D01*
G37*
G36*
X87950000Y-36750000D02*
X85950000Y-36750000D01*
X85950000Y-35250000D01*
X87950000Y-35250000D01*
X87950000Y-36750000D01*
X87950000Y-36750000D01*
G37*
G36*
X76275770Y-34715372D02*
X76391689Y-34738429D01*
X76573678Y-34813811D01*
X76737463Y-34923249D01*
X76876751Y-35062537D01*
X76986189Y-35226322D01*
X77061571Y-35408311D01*
X77069863Y-35450000D01*
X77100000Y-35601507D01*
X77100000Y-35798493D01*
X77089754Y-35850000D01*
X77061571Y-35991689D01*
X76986189Y-36173678D01*
X76876751Y-36337463D01*
X76737463Y-36476751D01*
X76573678Y-36586189D01*
X76391689Y-36661571D01*
X76275770Y-36684628D01*
X76198493Y-36700000D01*
X76001507Y-36700000D01*
X75924230Y-36684628D01*
X75808311Y-36661571D01*
X75626322Y-36586189D01*
X75462537Y-36476751D01*
X75323249Y-36337463D01*
X75213811Y-36173678D01*
X75138429Y-35991689D01*
X75110246Y-35850000D01*
X75100000Y-35798493D01*
X75100000Y-35601507D01*
X75130137Y-35450000D01*
X75138429Y-35408311D01*
X75213811Y-35226322D01*
X75323249Y-35062537D01*
X75462537Y-34923249D01*
X75626322Y-34813811D01*
X75808311Y-34738429D01*
X75924230Y-34715372D01*
X76001507Y-34700000D01*
X76198493Y-34700000D01*
X76275770Y-34715372D01*
X76275770Y-34715372D01*
G37*
G36*
X69500000Y-36700000D02*
X67500000Y-36700000D01*
X67500000Y-34700000D01*
X69500000Y-34700000D01*
X69500000Y-36700000D01*
X69500000Y-36700000D01*
G37*
G36*
X99525000Y-36500000D02*
X98175000Y-36500000D01*
X98175000Y-33500000D01*
X99525000Y-33500000D01*
X99525000Y-36500000D01*
X99525000Y-36500000D01*
G37*
G36*
X65250000Y-36100000D02*
X63950000Y-36100000D01*
X63950000Y-35400000D01*
X65250000Y-35400000D01*
X65250000Y-36100000D01*
X65250000Y-36100000D01*
G37*
G36*
X92200000Y-36000000D02*
X90400000Y-36000000D01*
X90400000Y-33850000D01*
X92200000Y-33850000D01*
X92200000Y-36000000D01*
X92200000Y-36000000D01*
G37*
G36*
X34639006Y-34275000D02*
X34758767Y-34298822D01*
X34815303Y-34322240D01*
X34895257Y-34355358D01*
X35018100Y-34437439D01*
X35122561Y-34541900D01*
X35204642Y-34664743D01*
X35261178Y-34801234D01*
X35290000Y-34946130D01*
X35290000Y-35093870D01*
X35261178Y-35238766D01*
X35204642Y-35375257D01*
X35122561Y-35498100D01*
X35018100Y-35602561D01*
X34895257Y-35684642D01*
X34815303Y-35717760D01*
X34758767Y-35741178D01*
X34686318Y-35755589D01*
X34613870Y-35770000D01*
X34466130Y-35770000D01*
X34393682Y-35755589D01*
X34321233Y-35741178D01*
X34264697Y-35717760D01*
X34184743Y-35684642D01*
X34061900Y-35602561D01*
X33957439Y-35498100D01*
X33875358Y-35375257D01*
X33818822Y-35238766D01*
X33790000Y-35093870D01*
X33790000Y-34946130D01*
X33818822Y-34801234D01*
X33875358Y-34664743D01*
X33957439Y-34541900D01*
X34061900Y-34437439D01*
X34184743Y-34355358D01*
X34264697Y-34322240D01*
X34321233Y-34298822D01*
X34440994Y-34275000D01*
X34466130Y-34270000D01*
X34613870Y-34270000D01*
X34639006Y-34275000D01*
X34639006Y-34275000D01*
G37*
G36*
X81650000Y-35600000D02*
X79650000Y-35600000D01*
X79650000Y-31800000D01*
X81650000Y-31800000D01*
X81650000Y-35600000D01*
X81650000Y-35600000D01*
G37*
G36*
X32750000Y-34500000D02*
X31250000Y-34500000D01*
X31250000Y-33000000D01*
X32750000Y-33000000D01*
X32750000Y-34500000D01*
X32750000Y-34500000D01*
G37*
G36*
X87950000Y-34450000D02*
X85950000Y-34450000D01*
X85950000Y-32950000D01*
X87950000Y-32950000D01*
X87950000Y-34450000D01*
X87950000Y-34450000D01*
G37*
G36*
X96780000Y-34425000D02*
X95720000Y-34425000D01*
X95720000Y-33775000D01*
X96780000Y-33775000D01*
X96780000Y-34425000D01*
X96780000Y-34425000D01*
G37*
G36*
X94580000Y-34425000D02*
X93520000Y-34425000D01*
X93520000Y-33775000D01*
X94580000Y-33775000D01*
X94580000Y-34425000D01*
X94580000Y-34425000D01*
G37*
G36*
X41746318Y-32789411D02*
X41818767Y-32803822D01*
X41869895Y-32825000D01*
X41955257Y-32860358D01*
X42078100Y-32942439D01*
X42182561Y-33046900D01*
X42264642Y-33169743D01*
X42321178Y-33306234D01*
X42350000Y-33451130D01*
X42350000Y-33598870D01*
X42321178Y-33743766D01*
X42264642Y-33880257D01*
X42182561Y-34003100D01*
X42078100Y-34107561D01*
X41955257Y-34189642D01*
X41875303Y-34222760D01*
X41818767Y-34246178D01*
X41746318Y-34260589D01*
X41673870Y-34275000D01*
X41526130Y-34275000D01*
X41453682Y-34260589D01*
X41381233Y-34246178D01*
X41324697Y-34222760D01*
X41244743Y-34189642D01*
X41121900Y-34107561D01*
X41017439Y-34003100D01*
X40935358Y-33880257D01*
X40878822Y-33743766D01*
X40850000Y-33598870D01*
X40850000Y-33451130D01*
X40878822Y-33306234D01*
X40935358Y-33169743D01*
X41017439Y-33046900D01*
X41121900Y-32942439D01*
X41244743Y-32860358D01*
X41330105Y-32825000D01*
X41381233Y-32803822D01*
X41453682Y-32789411D01*
X41526130Y-32775000D01*
X41673870Y-32775000D01*
X41746318Y-32789411D01*
X41746318Y-32789411D01*
G37*
G36*
X26006040Y-30470067D02*
X26182333Y-30505134D01*
X26514461Y-30642706D01*
X26811356Y-30841085D01*
X26813372Y-30842432D01*
X27067568Y-31096628D01*
X27067570Y-31096631D01*
X27267294Y-31395539D01*
X27390203Y-31692268D01*
X27404866Y-31727668D01*
X27457598Y-31992765D01*
X27475000Y-32080253D01*
X27475000Y-32439747D01*
X27404866Y-32792333D01*
X27267294Y-33124461D01*
X27145838Y-33306233D01*
X27067568Y-33423372D01*
X26813372Y-33677568D01*
X26813369Y-33677570D01*
X26514461Y-33877294D01*
X26182333Y-34014866D01*
X26006040Y-34049933D01*
X25829748Y-34085000D01*
X25470252Y-34085000D01*
X25293960Y-34049933D01*
X25117667Y-34014866D01*
X24785539Y-33877294D01*
X24486631Y-33677570D01*
X24486628Y-33677568D01*
X24232432Y-33423372D01*
X24154162Y-33306233D01*
X24032706Y-33124461D01*
X23895134Y-32792333D01*
X23825000Y-32439747D01*
X23825000Y-32080253D01*
X23842403Y-31992765D01*
X23895134Y-31727668D01*
X23909797Y-31692268D01*
X24032706Y-31395539D01*
X24232430Y-31096631D01*
X24232432Y-31096628D01*
X24486628Y-30842432D01*
X24488644Y-30841085D01*
X24785539Y-30642706D01*
X25117667Y-30505134D01*
X25293960Y-30470067D01*
X25470252Y-30435000D01*
X25829748Y-30435000D01*
X26006040Y-30470067D01*
X26006040Y-30470067D01*
G37*
G36*
X94580000Y-33475000D02*
X93520000Y-33475000D01*
X93520000Y-32825000D01*
X94580000Y-32825000D01*
X94580000Y-33475000D01*
X94580000Y-33475000D01*
G37*
G36*
X96780000Y-33475000D02*
X95720000Y-33475000D01*
X95720000Y-32825000D01*
X96780000Y-32825000D01*
X96780000Y-33475000D01*
X96780000Y-33475000D01*
G37*
G36*
X98943116Y-31881873D02*
X98995681Y-31897818D01*
X99032658Y-31909035D01*
X99115173Y-31953140D01*
X99187501Y-32012499D01*
X99246860Y-32084827D01*
X99290965Y-32167342D01*
X99318127Y-32256885D01*
X99325000Y-32326668D01*
X99325000Y-32673333D01*
X99318127Y-32743115D01*
X99290965Y-32832658D01*
X99246860Y-32915173D01*
X99187504Y-32987498D01*
X99187502Y-32987499D01*
X99187501Y-32987501D01*
X99115173Y-33046859D01*
X99115169Y-33046861D01*
X99115168Y-33046862D01*
X99032657Y-33090965D01*
X98995680Y-33102182D01*
X98943115Y-33118127D01*
X98850000Y-33127298D01*
X98756884Y-33118127D01*
X98704319Y-33102182D01*
X98667342Y-33090965D01*
X98584827Y-33046860D01*
X98512502Y-32987504D01*
X98512501Y-32987502D01*
X98512499Y-32987501D01*
X98453141Y-32915173D01*
X98453138Y-32915168D01*
X98409035Y-32832657D01*
X98383962Y-32750000D01*
X98381873Y-32743115D01*
X98375000Y-32673331D01*
X98375000Y-32326668D01*
X98381873Y-32256884D01*
X98387001Y-32239979D01*
X98409034Y-32167345D01*
X98453142Y-32084826D01*
X98512500Y-32012499D01*
X98584828Y-31953140D01*
X98667343Y-31909035D01*
X98704320Y-31897818D01*
X98756885Y-31881873D01*
X98850000Y-31872702D01*
X98943116Y-31881873D01*
X98943116Y-31881873D01*
G37*
G36*
X92200000Y-32750000D02*
X90400000Y-32750000D01*
X90400000Y-30600000D01*
X92200000Y-30600000D01*
X92200000Y-32750000D01*
X92200000Y-32750000D01*
G37*
G36*
X94580000Y-32525000D02*
X93520000Y-32525000D01*
X93520000Y-31875000D01*
X94580000Y-31875000D01*
X94580000Y-32525000D01*
X94580000Y-32525000D01*
G37*
G36*
X96780000Y-32525000D02*
X95720000Y-32525000D01*
X95720000Y-31875000D01*
X96780000Y-31875000D01*
X96780000Y-32525000D01*
X96780000Y-32525000D01*
G37*
G36*
X87950000Y-32150000D02*
X85950000Y-32150000D01*
X85950000Y-30650000D01*
X87950000Y-30650000D01*
X87950000Y-32150000D01*
X87950000Y-32150000D01*
G37*
G36*
X101923015Y-31007234D02*
X102017268Y-31035825D01*
X102063697Y-31060643D01*
X102104129Y-31082254D01*
X102168401Y-31135000D01*
X102180264Y-31144736D01*
X102242745Y-31220870D01*
X102289175Y-31307732D01*
X102317766Y-31401985D01*
X102327419Y-31500000D01*
X102317766Y-31598015D01*
X102289175Y-31692268D01*
X102270253Y-31727667D01*
X102242746Y-31779129D01*
X102180264Y-31855264D01*
X102104129Y-31917746D01*
X102063697Y-31939357D01*
X102017268Y-31964175D01*
X101923015Y-31992766D01*
X101849564Y-32000000D01*
X101250436Y-32000000D01*
X101176985Y-31992766D01*
X101082732Y-31964175D01*
X101036303Y-31939357D01*
X100995871Y-31917746D01*
X100919736Y-31855264D01*
X100857254Y-31779129D01*
X100829747Y-31727667D01*
X100810825Y-31692268D01*
X100782234Y-31598015D01*
X100772581Y-31500000D01*
X100782234Y-31401985D01*
X100810825Y-31307732D01*
X100857255Y-31220870D01*
X100919736Y-31144736D01*
X100931599Y-31135000D01*
X100995871Y-31082254D01*
X101036303Y-31060643D01*
X101082732Y-31035825D01*
X101176985Y-31007234D01*
X101250436Y-31000000D01*
X101849564Y-31000000D01*
X101923015Y-31007234D01*
X101923015Y-31007234D01*
G37*
G36*
X59740000Y-29125000D02*
X47460000Y-29125000D01*
X47460000Y-27625000D01*
X59740000Y-27625000D01*
X59740000Y-29125000D01*
X59740000Y-29125000D01*
G37*
G36*
X38592712Y-23546088D02*
X38962510Y-23699263D01*
X38962513Y-23699265D01*
X39295325Y-23921643D01*
X39578357Y-24204675D01*
X39800735Y-24537487D01*
X39800737Y-24537490D01*
X39953912Y-24907288D01*
X40032000Y-25299864D01*
X40032000Y-25700136D01*
X39953912Y-26092712D01*
X39800737Y-26462510D01*
X39800735Y-26462513D01*
X39578357Y-26795325D01*
X39295325Y-27078357D01*
X38962513Y-27300735D01*
X38962510Y-27300737D01*
X38592712Y-27453912D01*
X38200136Y-27532000D01*
X37799864Y-27532000D01*
X37407288Y-27453912D01*
X37037490Y-27300737D01*
X37037487Y-27300735D01*
X36704675Y-27078357D01*
X36421643Y-26795325D01*
X36199265Y-26462513D01*
X36199263Y-26462510D01*
X36046088Y-26092712D01*
X35968000Y-25700136D01*
X35968000Y-25299864D01*
X36046088Y-24907288D01*
X36199263Y-24537490D01*
X36199265Y-24537487D01*
X36421643Y-24204675D01*
X36704675Y-23921643D01*
X37037487Y-23699265D01*
X37037490Y-23699263D01*
X37407288Y-23546088D01*
X37799864Y-23468000D01*
X38200136Y-23468000D01*
X38592712Y-23546088D01*
X38592712Y-23546088D01*
G37*
G36*
X88592712Y-23546088D02*
X88962510Y-23699263D01*
X88962513Y-23699265D01*
X89295325Y-23921643D01*
X89578357Y-24204675D01*
X89800735Y-24537487D01*
X89800737Y-24537490D01*
X89953912Y-24907288D01*
X90032000Y-25299864D01*
X90032000Y-25700136D01*
X89953912Y-26092712D01*
X89800737Y-26462510D01*
X89800735Y-26462513D01*
X89578357Y-26795325D01*
X89295325Y-27078357D01*
X88962513Y-27300735D01*
X88962510Y-27300737D01*
X88592712Y-27453912D01*
X88200136Y-27532000D01*
X87799864Y-27532000D01*
X87407288Y-27453912D01*
X87037490Y-27300737D01*
X87037487Y-27300735D01*
X86704675Y-27078357D01*
X86421643Y-26795325D01*
X86199265Y-26462513D01*
X86199263Y-26462510D01*
X86046088Y-26092712D01*
X85968000Y-25700136D01*
X85968000Y-25299864D01*
X86046088Y-24907288D01*
X86199263Y-24537490D01*
X86199265Y-24537487D01*
X86421643Y-24204675D01*
X86704675Y-23921643D01*
X87037487Y-23699265D01*
X87037490Y-23699263D01*
X87407288Y-23546088D01*
X87799864Y-23468000D01*
X88200136Y-23468000D01*
X88592712Y-23546088D01*
X88592712Y-23546088D01*
G37*
G36*
X77106630Y-24962299D02*
X77266855Y-25010903D01*
X77414520Y-25089831D01*
X77543949Y-25196051D01*
X77650169Y-25325480D01*
X77729097Y-25473145D01*
X77777701Y-25633370D01*
X77794112Y-25800000D01*
X77777701Y-25966630D01*
X77729097Y-26126855D01*
X77650169Y-26274520D01*
X77543949Y-26403949D01*
X77414520Y-26510169D01*
X77266855Y-26589097D01*
X77106630Y-26637701D01*
X76981752Y-26650000D01*
X76898248Y-26650000D01*
X76773370Y-26637701D01*
X76613145Y-26589097D01*
X76465480Y-26510169D01*
X76336051Y-26403949D01*
X76229831Y-26274520D01*
X76150903Y-26126855D01*
X76102299Y-25966630D01*
X76085888Y-25800000D01*
X76102299Y-25633370D01*
X76150903Y-25473145D01*
X76229831Y-25325480D01*
X76336051Y-25196051D01*
X76465480Y-25089831D01*
X76613145Y-25010903D01*
X76773370Y-24962299D01*
X76898248Y-24950000D01*
X76981752Y-24950000D01*
X77106630Y-24962299D01*
X77106630Y-24962299D01*
G37*
G36*
X75250000Y-26650000D02*
X73550000Y-26650000D01*
X73550000Y-24950000D01*
X75250000Y-24950000D01*
X75250000Y-26650000D01*
X75250000Y-26650000D01*
G37*
G36*
X79646630Y-24962299D02*
X79806855Y-25010903D01*
X79954520Y-25089831D01*
X80083949Y-25196051D01*
X80190169Y-25325480D01*
X80269097Y-25473145D01*
X80317701Y-25633370D01*
X80334112Y-25800000D01*
X80317701Y-25966630D01*
X80269097Y-26126855D01*
X80190169Y-26274520D01*
X80083949Y-26403949D01*
X79954520Y-26510169D01*
X79806855Y-26589097D01*
X79646630Y-26637701D01*
X79521752Y-26650000D01*
X79438248Y-26650000D01*
X79313370Y-26637701D01*
X79153145Y-26589097D01*
X79005480Y-26510169D01*
X78876051Y-26403949D01*
X78769831Y-26274520D01*
X78690903Y-26126855D01*
X78642299Y-25966630D01*
X78625888Y-25800000D01*
X78642299Y-25633370D01*
X78690903Y-25473145D01*
X78769831Y-25325480D01*
X78876051Y-25196051D01*
X79005480Y-25089831D01*
X79153145Y-25010903D01*
X79313370Y-24962299D01*
X79438248Y-24950000D01*
X79521752Y-24950000D01*
X79646630Y-24962299D01*
X79646630Y-24962299D01*
G37*
G36*
X82186630Y-24962299D02*
X82346855Y-25010903D01*
X82494520Y-25089831D01*
X82623949Y-25196051D01*
X82730169Y-25325480D01*
X82809097Y-25473145D01*
X82857701Y-25633370D01*
X82874112Y-25800000D01*
X82857701Y-25966630D01*
X82809097Y-26126855D01*
X82730169Y-26274520D01*
X82623949Y-26403949D01*
X82494520Y-26510169D01*
X82346855Y-26589097D01*
X82186630Y-26637701D01*
X82061752Y-26650000D01*
X81978248Y-26650000D01*
X81853370Y-26637701D01*
X81693145Y-26589097D01*
X81545480Y-26510169D01*
X81416051Y-26403949D01*
X81309831Y-26274520D01*
X81230903Y-26126855D01*
X81182299Y-25966630D01*
X81165888Y-25800000D01*
X81182299Y-25633370D01*
X81230903Y-25473145D01*
X81309831Y-25325480D01*
X81416051Y-25196051D01*
X81545480Y-25089831D01*
X81693145Y-25010903D01*
X81853370Y-24962299D01*
X81978248Y-24950000D01*
X82061752Y-24950000D01*
X82186630Y-24962299D01*
X82186630Y-24962299D01*
G37*
G36*
X60200000Y-25000000D02*
X59000000Y-25000000D01*
X59000000Y-23800000D01*
X60200000Y-23800000D01*
X60200000Y-25000000D01*
X60200000Y-25000000D01*
G37*
G36*
X50400000Y-25000000D02*
X49200000Y-25000000D01*
X49200000Y-23800000D01*
X50400000Y-23800000D01*
X50400000Y-25000000D01*
X50400000Y-25000000D01*
G37*
G36*
X53100000Y-25000000D02*
X51900000Y-25000000D01*
X51900000Y-23800000D01*
X53100000Y-23800000D01*
X53100000Y-25000000D01*
X53100000Y-25000000D01*
G37*
G36*
X55300000Y-25000000D02*
X54100000Y-25000000D01*
X54100000Y-23800000D01*
X55300000Y-23800000D01*
X55300000Y-25000000D01*
X55300000Y-25000000D01*
G37*
G36*
X58000000Y-25000000D02*
X56800000Y-25000000D01*
X56800000Y-23800000D01*
X58000000Y-23800000D01*
X58000000Y-25000000D01*
X58000000Y-25000000D01*
G37*
G36*
X62900000Y-25000000D02*
X61700000Y-25000000D01*
X61700000Y-23800000D01*
X62900000Y-23800000D01*
X62900000Y-25000000D01*
X62900000Y-25000000D01*
G37*
G36*
X65100000Y-25000000D02*
X63900000Y-25000000D01*
X63900000Y-23800000D01*
X65100000Y-23800000D01*
X65100000Y-25000000D01*
X65100000Y-25000000D01*
G37*
G36*
X67800000Y-25000000D02*
X66600000Y-25000000D01*
X66600000Y-23800000D01*
X67800000Y-23800000D01*
X67800000Y-25000000D01*
X67800000Y-25000000D01*
G37*
G36*
X48200000Y-25000000D02*
X47000000Y-25000000D01*
X47000000Y-23800000D01*
X48200000Y-23800000D01*
X48200000Y-25000000D01*
X48200000Y-25000000D01*
G37*
G36*
X70000000Y-25000000D02*
X68800000Y-25000000D01*
X68800000Y-23800000D01*
X70000000Y-23800000D01*
X70000000Y-25000000D01*
X70000000Y-25000000D01*
G37*
M02*
