G04 #@! TF.GenerationSoftware,KiCad,Pcbnew,5.0.1*
G04 #@! TF.CreationDate,2019-03-19T18:21:43+03:00*
G04 #@! TF.ProjectId,gps-timestamper,6770732D74696D657374616D7065722E,rev?*
G04 #@! TF.SameCoordinates,Original*
G04 #@! TF.FileFunction,Legend,Top*
G04 #@! TF.FilePolarity,Positive*
%FSLAX46Y46*%
G04 Gerber Fmt 4.6, Leading zero omitted, Abs format (unit mm)*
G04 Created by KiCad (PCBNEW 5.0.1) date Вт 19 мар 2019 18:21:43*
%MOMM*%
%LPD*%
G01*
G04 APERTURE LIST*
%ADD10C,0.200000*%
%ADD11C,0.150000*%
%ADD12C,0.120000*%
G04 APERTURE END LIST*
D10*
X43954761Y-61738095D02*
X44002380Y-61595238D01*
X44002380Y-61357142D01*
X43954761Y-61261904D01*
X43907142Y-61214285D01*
X43811904Y-61166666D01*
X43716666Y-61166666D01*
X43621428Y-61214285D01*
X43573809Y-61261904D01*
X43526190Y-61357142D01*
X43478571Y-61547619D01*
X43430952Y-61642857D01*
X43383333Y-61690476D01*
X43288095Y-61738095D01*
X43192857Y-61738095D01*
X43097619Y-61690476D01*
X43050000Y-61642857D01*
X43002380Y-61547619D01*
X43002380Y-61309523D01*
X43050000Y-61166666D01*
X44002380Y-60738095D02*
X43002380Y-60738095D01*
X43050000Y-59738095D02*
X43002380Y-59833333D01*
X43002380Y-59976190D01*
X43050000Y-60119047D01*
X43145238Y-60214285D01*
X43240476Y-60261904D01*
X43430952Y-60309523D01*
X43573809Y-60309523D01*
X43764285Y-60261904D01*
X43859523Y-60214285D01*
X43954761Y-60119047D01*
X44002380Y-59976190D01*
X44002380Y-59880952D01*
X43954761Y-59738095D01*
X43907142Y-59690476D01*
X43573809Y-59690476D01*
X43573809Y-59880952D01*
X44335714Y-58261904D02*
X42907142Y-58261904D01*
X44002380Y-56785714D02*
X43002380Y-56785714D01*
X43002380Y-56404761D01*
X43050000Y-56309523D01*
X43097619Y-56261904D01*
X43192857Y-56214285D01*
X43335714Y-56214285D01*
X43430952Y-56261904D01*
X43478571Y-56309523D01*
X43526190Y-56404761D01*
X43526190Y-56785714D01*
X44002380Y-55785714D02*
X43002380Y-55785714D01*
X43002380Y-55404761D01*
X43050000Y-55309523D01*
X43097619Y-55261904D01*
X43192857Y-55214285D01*
X43335714Y-55214285D01*
X43430952Y-55261904D01*
X43478571Y-55309523D01*
X43526190Y-55404761D01*
X43526190Y-55785714D01*
X43954761Y-54833333D02*
X44002380Y-54690476D01*
X44002380Y-54452380D01*
X43954761Y-54357142D01*
X43907142Y-54309523D01*
X43811904Y-54261904D01*
X43716666Y-54261904D01*
X43621428Y-54309523D01*
X43573809Y-54357142D01*
X43526190Y-54452380D01*
X43478571Y-54642857D01*
X43430952Y-54738095D01*
X43383333Y-54785714D01*
X43288095Y-54833333D01*
X43192857Y-54833333D01*
X43097619Y-54785714D01*
X43050000Y-54738095D01*
X43002380Y-54642857D01*
X43002380Y-54404761D01*
X43050000Y-54261904D01*
X41114761Y-69222857D02*
X41162380Y-69080000D01*
X41162380Y-68841904D01*
X41114761Y-68746666D01*
X41067142Y-68699047D01*
X40971904Y-68651428D01*
X40876666Y-68651428D01*
X40781428Y-68699047D01*
X40733809Y-68746666D01*
X40686190Y-68841904D01*
X40638571Y-69032380D01*
X40590952Y-69127619D01*
X40543333Y-69175238D01*
X40448095Y-69222857D01*
X40352857Y-69222857D01*
X40257619Y-69175238D01*
X40210000Y-69127619D01*
X40162380Y-69032380D01*
X40162380Y-68794285D01*
X40210000Y-68651428D01*
X41162380Y-68222857D02*
X40495714Y-68222857D01*
X40162380Y-68222857D02*
X40210000Y-68270476D01*
X40257619Y-68222857D01*
X40210000Y-68175238D01*
X40162380Y-68222857D01*
X40257619Y-68222857D01*
X40495714Y-67318095D02*
X41305238Y-67318095D01*
X41400476Y-67365714D01*
X41448095Y-67413333D01*
X41495714Y-67508571D01*
X41495714Y-67651428D01*
X41448095Y-67746666D01*
X41114761Y-67318095D02*
X41162380Y-67413333D01*
X41162380Y-67603809D01*
X41114761Y-67699047D01*
X41067142Y-67746666D01*
X40971904Y-67794285D01*
X40686190Y-67794285D01*
X40590952Y-67746666D01*
X40543333Y-67699047D01*
X40495714Y-67603809D01*
X40495714Y-67413333D01*
X40543333Y-67318095D01*
X40495714Y-66841904D02*
X41162380Y-66841904D01*
X40590952Y-66841904D02*
X40543333Y-66794285D01*
X40495714Y-66699047D01*
X40495714Y-66556190D01*
X40543333Y-66460952D01*
X40638571Y-66413333D01*
X41162380Y-66413333D01*
X41162380Y-65508571D02*
X40638571Y-65508571D01*
X40543333Y-65556190D01*
X40495714Y-65651428D01*
X40495714Y-65841904D01*
X40543333Y-65937142D01*
X41114761Y-65508571D02*
X41162380Y-65603809D01*
X41162380Y-65841904D01*
X41114761Y-65937142D01*
X41019523Y-65984761D01*
X40924285Y-65984761D01*
X40829047Y-65937142D01*
X40781428Y-65841904D01*
X40781428Y-65603809D01*
X40733809Y-65508571D01*
X41162380Y-64889523D02*
X41114761Y-64984761D01*
X41019523Y-65032380D01*
X40162380Y-65032380D01*
D11*
G04 #@! TO.C,U8*
X46475000Y-29150000D02*
X46475000Y-29800000D01*
X60725000Y-29150000D02*
X60725000Y-29910000D01*
X60725000Y-43400000D02*
X60725000Y-42640000D01*
X46475000Y-43400000D02*
X46475000Y-42640000D01*
X46475000Y-29150000D02*
X47235000Y-29150000D01*
X46475000Y-43400000D02*
X47235000Y-43400000D01*
X60725000Y-43400000D02*
X59965000Y-43400000D01*
X60725000Y-29150000D02*
X59965000Y-29150000D01*
X46475000Y-29800000D02*
X44950000Y-29800000D01*
D12*
G04 #@! TO.C,REF\002A\002A*
X90286000Y-60500000D02*
G75*
G03X90286000Y-60500000I-2286000J0D01*
G01*
X40286000Y-60500000D02*
G75*
G03X40286000Y-60500000I-2286000J0D01*
G01*
X90286000Y-25500000D02*
G75*
G03X90286000Y-25500000I-2286000J0D01*
G01*
G04 #@! TO.C,BZ1*
X78400000Y-35700000D02*
G75*
G03X78400000Y-35700000I-6100000J0D01*
G01*
G04 #@! TO.C,C2*
X94850000Y-37750000D02*
X95850000Y-37750000D01*
X95850000Y-36050000D02*
X94850000Y-36050000D01*
G04 #@! TO.C,C3*
X89650000Y-36300000D02*
X89650000Y-31550000D01*
X92950000Y-36300000D02*
X92950000Y-31550000D01*
X89650000Y-36300000D02*
X92950000Y-36300000D01*
G04 #@! TO.C,C7*
X84300000Y-41950000D02*
X83300000Y-41950000D01*
X83300000Y-43650000D02*
X84300000Y-43650000D01*
G04 #@! TO.C,C11*
X56200000Y-46900000D02*
X55200000Y-46900000D01*
X55200000Y-48600000D02*
X56200000Y-48600000D01*
G04 #@! TO.C,C12*
X49750000Y-55600000D02*
X49750000Y-56600000D01*
X51450000Y-56600000D02*
X51450000Y-55600000D01*
G04 #@! TO.C,C18*
X66340000Y-44600000D02*
X71090000Y-44600000D01*
X66340000Y-47900000D02*
X71090000Y-47900000D01*
X66340000Y-44600000D02*
X66340000Y-47900000D01*
G04 #@! TO.C,C20*
X80700000Y-37850000D02*
X85450000Y-37850000D01*
X80700000Y-41150000D02*
X85450000Y-41150000D01*
X80700000Y-37850000D02*
X80700000Y-41150000D01*
G04 #@! TO.C,D3*
X47750000Y-48150000D02*
X47750000Y-49850000D01*
X47750000Y-49850000D02*
X50300000Y-49850000D01*
X47750000Y-48150000D02*
X50300000Y-48150000D01*
G04 #@! TO.C,D4*
X96050000Y-31540000D02*
X94250000Y-31540000D01*
X94250000Y-34760000D02*
X96700000Y-34760000D01*
G04 #@! TO.C,D5*
X47750000Y-50400000D02*
X47750000Y-52100000D01*
X47750000Y-52100000D02*
X50300000Y-52100000D01*
X47750000Y-50400000D02*
X50300000Y-50400000D01*
G04 #@! TO.C,D6*
X55400000Y-25100000D02*
X55400000Y-23700000D01*
X55400000Y-23700000D02*
X52600000Y-23700000D01*
X55400000Y-25100000D02*
X52600000Y-25100000D01*
G04 #@! TO.C,D7*
X60300000Y-25100000D02*
X60300000Y-23700000D01*
X60300000Y-23700000D02*
X57500000Y-23700000D01*
X60300000Y-25100000D02*
X57500000Y-25100000D01*
G04 #@! TO.C,D8*
X65200000Y-25100000D02*
X65200000Y-23700000D01*
X65200000Y-23700000D02*
X62400000Y-23700000D01*
X65200000Y-25100000D02*
X62400000Y-25100000D01*
G04 #@! TO.C,D9*
X70100000Y-25100000D02*
X70100000Y-23700000D01*
X70100000Y-23700000D02*
X67300000Y-23700000D01*
X70100000Y-25100000D02*
X67300000Y-25100000D01*
G04 #@! TO.C,D10*
X50500000Y-25100000D02*
X50500000Y-23700000D01*
X50500000Y-23700000D02*
X47700000Y-23700000D01*
X50500000Y-25100000D02*
X47700000Y-25100000D01*
G04 #@! TO.C,J1*
X17780000Y-30580000D02*
X17780000Y-45820000D01*
X35810000Y-45820000D02*
X26820000Y-45810000D01*
X35810000Y-45820000D02*
X35810000Y-30580000D01*
X35810000Y-30580000D02*
X26810000Y-30580000D01*
X24480000Y-45810000D02*
X17780000Y-45820000D01*
X24490000Y-30580000D02*
X17780000Y-30580000D01*
G04 #@! TO.C,J5*
X75670000Y-27130000D02*
X83350000Y-27130000D01*
X83350000Y-27130000D02*
X83350000Y-24470000D01*
X83350000Y-24470000D02*
X75670000Y-24470000D01*
X75670000Y-24470000D02*
X75670000Y-27130000D01*
X74400000Y-27130000D02*
X73070000Y-27130000D01*
X73070000Y-27130000D02*
X73070000Y-25800000D01*
G04 #@! TO.C,L1*
X76930000Y-46150000D02*
X76930000Y-47350000D01*
X75170000Y-47350000D02*
X75170000Y-46150000D01*
G04 #@! TO.C,R8*
X46380000Y-49300000D02*
X46380000Y-50500000D01*
X44620000Y-50500000D02*
X44620000Y-49300000D01*
G04 #@! TO.C,R13*
X42300000Y-45680000D02*
X41100000Y-45680000D01*
X41100000Y-43920000D02*
X42300000Y-43920000D01*
G04 #@! TO.C,R15*
X65480000Y-36100000D02*
X65480000Y-37300000D01*
X63720000Y-37300000D02*
X63720000Y-36100000D01*
G04 #@! TO.C,U3*
X81890000Y-30290000D02*
X81890000Y-31550000D01*
X81890000Y-37110000D02*
X81890000Y-35850000D01*
X85650000Y-30290000D02*
X81890000Y-30290000D01*
X87900000Y-37110000D02*
X81890000Y-37110000D01*
G04 #@! TO.C,Y1*
X44125000Y-32840000D02*
X44125000Y-39090000D01*
X39075000Y-32840000D02*
X39075000Y-39090000D01*
X39075000Y-32840000D02*
G75*
G02X44125000Y-32840000I2525000J0D01*
G01*
X39075000Y-39090000D02*
G75*
G03X44125000Y-39090000I2525000J0D01*
G01*
G04 #@! TO.C,REF\002A\002A*
X40286000Y-25500000D02*
G75*
G03X40286000Y-25500000I-2286000J0D01*
G01*
G04 #@! TO.C,C21*
X83050000Y-52950000D02*
X84050000Y-52950000D01*
X84050000Y-51250000D02*
X83050000Y-51250000D01*
G04 #@! TO.C,C22*
X83050000Y-51000000D02*
X84050000Y-51000000D01*
X84050000Y-49300000D02*
X83050000Y-49300000D01*
G04 #@! TO.C,C23*
X83050000Y-49050000D02*
X84050000Y-49050000D01*
X84050000Y-47350000D02*
X83050000Y-47350000D01*
G04 #@! TO.C,C24*
X87950000Y-47400000D02*
X86950000Y-47400000D01*
X86950000Y-49100000D02*
X87950000Y-49100000D01*
G04 #@! TO.C,C25*
X87950000Y-49300000D02*
X86950000Y-49300000D01*
X86950000Y-51000000D02*
X87950000Y-51000000D01*
G04 #@! TO.C,C26*
X87950000Y-51250000D02*
X86950000Y-51250000D01*
X86950000Y-52950000D02*
X87950000Y-52950000D01*
G04 #@! TO.C,J2*
X108020000Y-55820000D02*
X108020000Y-40580000D01*
X89990000Y-40580000D02*
X98980000Y-40590000D01*
X89990000Y-40580000D02*
X89990000Y-55820000D01*
X89990000Y-55820000D02*
X98990000Y-55820000D01*
X101320000Y-40590000D02*
X108020000Y-40580000D01*
X101310000Y-55820000D02*
X108020000Y-55820000D01*
G04 #@! TO.C,J4*
X104230000Y-39350000D02*
X104230000Y-30650000D01*
X97820000Y-39350000D02*
X97820000Y-30650000D01*
X97820000Y-30650000D02*
X104230000Y-30650000D01*
X103000000Y-30650000D02*
X103000000Y-39350000D01*
X104230000Y-39350000D02*
X97820000Y-39350000D01*
G04 #@! TO.C,R16*
X82950000Y-53370000D02*
X84150000Y-53370000D01*
X84150000Y-55130000D02*
X82950000Y-55130000D01*
G04 #@! TO.C,R17*
X86850000Y-53370000D02*
X88050000Y-53370000D01*
X88050000Y-55130000D02*
X86850000Y-55130000D01*
G04 #@! TO.C,J3*
X26800000Y-48300000D02*
X28800000Y-48300000D01*
X26800000Y-54900000D02*
X28800000Y-54900000D01*
X31100000Y-50600000D02*
X31100000Y-52600000D01*
X24500000Y-50600000D02*
X24500000Y-52600000D01*
D11*
G04 #@! TO.C,U9*
X32520000Y-54286000D02*
X32520000Y-49460000D01*
X32520000Y-49460000D02*
X42680000Y-49460000D01*
X42680000Y-49460000D02*
X42680000Y-54286000D01*
X42680000Y-54286000D02*
X32520000Y-54286000D01*
X42680000Y-52508000D02*
X42045000Y-52508000D01*
X42045000Y-52508000D02*
X42045000Y-51238000D01*
X42045000Y-51238000D02*
X42680000Y-51238000D01*
D12*
G04 #@! TO.C,JP2*
X47310000Y-59550000D02*
X47310000Y-54410000D01*
X47310000Y-54410000D02*
X44650000Y-54410000D01*
X44650000Y-54410000D02*
X44650000Y-59550000D01*
X44650000Y-59550000D02*
X47310000Y-59550000D01*
X47310000Y-60820000D02*
X47310000Y-62150000D01*
X47310000Y-62150000D02*
X45980000Y-62150000D01*
D11*
G04 #@! TO.C,U6*
X57986000Y-48860000D02*
X57986000Y-53940000D01*
X57986000Y-53940000D02*
X53414000Y-53940000D01*
X53414000Y-53940000D02*
X53414000Y-48860000D01*
X53414000Y-48860000D02*
X57986000Y-48860000D01*
X56462000Y-48860000D02*
X56462000Y-49368000D01*
X56462000Y-49368000D02*
X55192000Y-49368000D01*
X55192000Y-49368000D02*
X55192000Y-48860000D01*
G04 #@! TO.C,U7*
X57986000Y-55210000D02*
X57986000Y-60290000D01*
X57986000Y-60290000D02*
X53414000Y-60290000D01*
X53414000Y-60290000D02*
X53414000Y-55210000D01*
X53414000Y-55210000D02*
X57986000Y-55210000D01*
X56462000Y-55210000D02*
X56462000Y-55718000D01*
X56462000Y-55718000D02*
X55192000Y-55718000D01*
X55192000Y-55718000D02*
X55192000Y-55210000D01*
D12*
G04 #@! TO.C,D1*
X60526800Y-54725200D02*
X60526800Y-56425200D01*
X60526800Y-56425200D02*
X63076800Y-56425200D01*
X60526800Y-54725200D02*
X63076800Y-54725200D01*
G04 #@! TO.C,D2*
X60526800Y-56909600D02*
X60526800Y-58609600D01*
X60526800Y-58609600D02*
X63076800Y-58609600D01*
X60526800Y-56909600D02*
X63076800Y-56909600D01*
G04 #@! TO.C,D12*
X60476000Y-48172000D02*
X63026000Y-48172000D01*
X60476000Y-49872000D02*
X63026000Y-49872000D01*
X60476000Y-48172000D02*
X60476000Y-49872000D01*
G04 #@! TO.C,D13*
X60476000Y-50356400D02*
X63026000Y-50356400D01*
X60476000Y-52056400D02*
X63026000Y-52056400D01*
X60476000Y-50356400D02*
X60476000Y-52056400D01*
G04 #@! TO.C,R1*
X81050800Y-60740400D02*
X82250800Y-60740400D01*
X82250800Y-62500400D02*
X81050800Y-62500400D01*
G04 #@! TO.C,R2*
X86010000Y-57141000D02*
X84810000Y-57141000D01*
X84810000Y-55381000D02*
X86010000Y-55381000D01*
G04 #@! TO.C,R3*
X77342400Y-60740400D02*
X78542400Y-60740400D01*
X78542400Y-62500400D02*
X77342400Y-62500400D01*
G04 #@! TO.C,R4*
X81924000Y-57557000D02*
X81924000Y-56357000D01*
X83684000Y-56357000D02*
X83684000Y-57557000D01*
G04 #@! TO.C,R5*
X62626800Y-60773200D02*
X61426800Y-60773200D01*
X61426800Y-59013200D02*
X62626800Y-59013200D01*
G04 #@! TO.C,R6*
X61391200Y-52460000D02*
X62591200Y-52460000D01*
X62591200Y-54220000D02*
X61391200Y-54220000D01*
D11*
G04 #@! TO.C,U1*
X70561200Y-55270400D02*
X70561200Y-60350400D01*
X70561200Y-60350400D02*
X65989200Y-60350400D01*
X65989200Y-60350400D02*
X65989200Y-55270400D01*
X65989200Y-55270400D02*
X70561200Y-55270400D01*
X69037200Y-55270400D02*
X69037200Y-55778400D01*
X69037200Y-55778400D02*
X67767200Y-55778400D01*
X67767200Y-55778400D02*
X67767200Y-55270400D01*
G04 #@! TO.C,U2*
X76454000Y-55778400D02*
X76454000Y-55270400D01*
X77724000Y-55778400D02*
X76454000Y-55778400D01*
X77724000Y-55270400D02*
X77724000Y-55778400D01*
X74676000Y-55270400D02*
X79248000Y-55270400D01*
X74676000Y-60350400D02*
X74676000Y-55270400D01*
X79248000Y-60350400D02*
X74676000Y-60350400D01*
X79248000Y-55270400D02*
X79248000Y-60350400D01*
G04 #@! TO.C,U4*
X70561200Y-48615600D02*
X70561200Y-53695600D01*
X70561200Y-53695600D02*
X65989200Y-53695600D01*
X65989200Y-53695600D02*
X65989200Y-48615600D01*
X65989200Y-48615600D02*
X70561200Y-48615600D01*
X69037200Y-48615600D02*
X69037200Y-49123600D01*
X69037200Y-49123600D02*
X67767200Y-49123600D01*
X67767200Y-49123600D02*
X67767200Y-48615600D01*
G04 #@! TO.C,U5*
X76454000Y-49174400D02*
X76454000Y-48666400D01*
X77724000Y-49174400D02*
X76454000Y-49174400D01*
X77724000Y-48666400D02*
X77724000Y-49174400D01*
X74676000Y-48666400D02*
X79248000Y-48666400D01*
X74676000Y-53746400D02*
X74676000Y-48666400D01*
X79248000Y-53746400D02*
X74676000Y-53746400D01*
X79248000Y-48666400D02*
X79248000Y-53746400D01*
G04 #@! TO.C,U8*
X45138095Y-27852380D02*
X45138095Y-28661904D01*
X45185714Y-28757142D01*
X45233333Y-28804761D01*
X45328571Y-28852380D01*
X45519047Y-28852380D01*
X45614285Y-28804761D01*
X45661904Y-28757142D01*
X45709523Y-28661904D01*
X45709523Y-27852380D01*
X46328571Y-28280952D02*
X46233333Y-28233333D01*
X46185714Y-28185714D01*
X46138095Y-28090476D01*
X46138095Y-28042857D01*
X46185714Y-27947619D01*
X46233333Y-27900000D01*
X46328571Y-27852380D01*
X46519047Y-27852380D01*
X46614285Y-27900000D01*
X46661904Y-27947619D01*
X46709523Y-28042857D01*
X46709523Y-28090476D01*
X46661904Y-28185714D01*
X46614285Y-28233333D01*
X46519047Y-28280952D01*
X46328571Y-28280952D01*
X46233333Y-28328571D01*
X46185714Y-28376190D01*
X46138095Y-28471428D01*
X46138095Y-28661904D01*
X46185714Y-28757142D01*
X46233333Y-28804761D01*
X46328571Y-28852380D01*
X46519047Y-28852380D01*
X46614285Y-28804761D01*
X46661904Y-28757142D01*
X46709523Y-28661904D01*
X46709523Y-28471428D01*
X46661904Y-28376190D01*
X46614285Y-28328571D01*
X46519047Y-28280952D01*
G04 #@! TO.C,BZ1*
X71419047Y-28428571D02*
X71561904Y-28476190D01*
X71609523Y-28523809D01*
X71657142Y-28619047D01*
X71657142Y-28761904D01*
X71609523Y-28857142D01*
X71561904Y-28904761D01*
X71466666Y-28952380D01*
X71085714Y-28952380D01*
X71085714Y-27952380D01*
X71419047Y-27952380D01*
X71514285Y-28000000D01*
X71561904Y-28047619D01*
X71609523Y-28142857D01*
X71609523Y-28238095D01*
X71561904Y-28333333D01*
X71514285Y-28380952D01*
X71419047Y-28428571D01*
X71085714Y-28428571D01*
X71990476Y-27952380D02*
X72657142Y-27952380D01*
X71990476Y-28952380D01*
X72657142Y-28952380D01*
X73561904Y-28952380D02*
X72990476Y-28952380D01*
X73276190Y-28952380D02*
X73276190Y-27952380D01*
X73180952Y-28095238D01*
X73085714Y-28190476D01*
X72990476Y-28238095D01*
X68109047Y-33231428D02*
X68870952Y-33231428D01*
X68490000Y-33612380D02*
X68490000Y-32850476D01*
G04 #@! TO.C,C2*
X95183333Y-38907142D02*
X95135714Y-38954761D01*
X94992857Y-39002380D01*
X94897619Y-39002380D01*
X94754761Y-38954761D01*
X94659523Y-38859523D01*
X94611904Y-38764285D01*
X94564285Y-38573809D01*
X94564285Y-38430952D01*
X94611904Y-38240476D01*
X94659523Y-38145238D01*
X94754761Y-38050000D01*
X94897619Y-38002380D01*
X94992857Y-38002380D01*
X95135714Y-38050000D01*
X95183333Y-38097619D01*
X95564285Y-38097619D02*
X95611904Y-38050000D01*
X95707142Y-38002380D01*
X95945238Y-38002380D01*
X96040476Y-38050000D01*
X96088095Y-38097619D01*
X96135714Y-38192857D01*
X96135714Y-38288095D01*
X96088095Y-38430952D01*
X95516666Y-39002380D01*
X96135714Y-39002380D01*
G04 #@! TO.C,C3*
X90457142Y-29366666D02*
X90504761Y-29414285D01*
X90552380Y-29557142D01*
X90552380Y-29652380D01*
X90504761Y-29795238D01*
X90409523Y-29890476D01*
X90314285Y-29938095D01*
X90123809Y-29985714D01*
X89980952Y-29985714D01*
X89790476Y-29938095D01*
X89695238Y-29890476D01*
X89600000Y-29795238D01*
X89552380Y-29652380D01*
X89552380Y-29557142D01*
X89600000Y-29414285D01*
X89647619Y-29366666D01*
X89552380Y-29033333D02*
X89552380Y-28414285D01*
X89933333Y-28747619D01*
X89933333Y-28604761D01*
X89980952Y-28509523D01*
X90028571Y-28461904D01*
X90123809Y-28414285D01*
X90361904Y-28414285D01*
X90457142Y-28461904D01*
X90504761Y-28509523D01*
X90552380Y-28604761D01*
X90552380Y-28890476D01*
X90504761Y-28985714D01*
X90457142Y-29033333D01*
G04 #@! TO.C,C7*
X80433333Y-43157142D02*
X80385714Y-43204761D01*
X80242857Y-43252380D01*
X80147619Y-43252380D01*
X80004761Y-43204761D01*
X79909523Y-43109523D01*
X79861904Y-43014285D01*
X79814285Y-42823809D01*
X79814285Y-42680952D01*
X79861904Y-42490476D01*
X79909523Y-42395238D01*
X80004761Y-42300000D01*
X80147619Y-42252380D01*
X80242857Y-42252380D01*
X80385714Y-42300000D01*
X80433333Y-42347619D01*
X80766666Y-42252380D02*
X81433333Y-42252380D01*
X81004761Y-43252380D01*
G04 #@! TO.C,C11*
X55057142Y-46607142D02*
X55009523Y-46654761D01*
X54866666Y-46702380D01*
X54771428Y-46702380D01*
X54628571Y-46654761D01*
X54533333Y-46559523D01*
X54485714Y-46464285D01*
X54438095Y-46273809D01*
X54438095Y-46130952D01*
X54485714Y-45940476D01*
X54533333Y-45845238D01*
X54628571Y-45750000D01*
X54771428Y-45702380D01*
X54866666Y-45702380D01*
X55009523Y-45750000D01*
X55057142Y-45797619D01*
X56009523Y-46702380D02*
X55438095Y-46702380D01*
X55723809Y-46702380D02*
X55723809Y-45702380D01*
X55628571Y-45845238D01*
X55533333Y-45940476D01*
X55438095Y-45988095D01*
X56961904Y-46702380D02*
X56390476Y-46702380D01*
X56676190Y-46702380D02*
X56676190Y-45702380D01*
X56580952Y-45845238D01*
X56485714Y-45940476D01*
X56390476Y-45988095D01*
G04 #@! TO.C,C12*
X49207142Y-56742857D02*
X49254761Y-56790476D01*
X49302380Y-56933333D01*
X49302380Y-57028571D01*
X49254761Y-57171428D01*
X49159523Y-57266666D01*
X49064285Y-57314285D01*
X48873809Y-57361904D01*
X48730952Y-57361904D01*
X48540476Y-57314285D01*
X48445238Y-57266666D01*
X48350000Y-57171428D01*
X48302380Y-57028571D01*
X48302380Y-56933333D01*
X48350000Y-56790476D01*
X48397619Y-56742857D01*
X49302380Y-55790476D02*
X49302380Y-56361904D01*
X49302380Y-56076190D02*
X48302380Y-56076190D01*
X48445238Y-56171428D01*
X48540476Y-56266666D01*
X48588095Y-56361904D01*
X48397619Y-55409523D02*
X48350000Y-55361904D01*
X48302380Y-55266666D01*
X48302380Y-55028571D01*
X48350000Y-54933333D01*
X48397619Y-54885714D01*
X48492857Y-54838095D01*
X48588095Y-54838095D01*
X48730952Y-54885714D01*
X49302380Y-55457142D01*
X49302380Y-54838095D01*
G04 #@! TO.C,C18*
X68647142Y-44082142D02*
X68599523Y-44129761D01*
X68456666Y-44177380D01*
X68361428Y-44177380D01*
X68218571Y-44129761D01*
X68123333Y-44034523D01*
X68075714Y-43939285D01*
X68028095Y-43748809D01*
X68028095Y-43605952D01*
X68075714Y-43415476D01*
X68123333Y-43320238D01*
X68218571Y-43225000D01*
X68361428Y-43177380D01*
X68456666Y-43177380D01*
X68599523Y-43225000D01*
X68647142Y-43272619D01*
X69599523Y-44177380D02*
X69028095Y-44177380D01*
X69313809Y-44177380D02*
X69313809Y-43177380D01*
X69218571Y-43320238D01*
X69123333Y-43415476D01*
X69028095Y-43463095D01*
X70170952Y-43605952D02*
X70075714Y-43558333D01*
X70028095Y-43510714D01*
X69980476Y-43415476D01*
X69980476Y-43367857D01*
X70028095Y-43272619D01*
X70075714Y-43225000D01*
X70170952Y-43177380D01*
X70361428Y-43177380D01*
X70456666Y-43225000D01*
X70504285Y-43272619D01*
X70551904Y-43367857D01*
X70551904Y-43415476D01*
X70504285Y-43510714D01*
X70456666Y-43558333D01*
X70361428Y-43605952D01*
X70170952Y-43605952D01*
X70075714Y-43653571D01*
X70028095Y-43701190D01*
X69980476Y-43796428D01*
X69980476Y-43986904D01*
X70028095Y-44082142D01*
X70075714Y-44129761D01*
X70170952Y-44177380D01*
X70361428Y-44177380D01*
X70456666Y-44129761D01*
X70504285Y-44082142D01*
X70551904Y-43986904D01*
X70551904Y-43796428D01*
X70504285Y-43701190D01*
X70456666Y-43653571D01*
X70361428Y-43605952D01*
G04 #@! TO.C,C20*
X78207142Y-39857142D02*
X78159523Y-39904761D01*
X78016666Y-39952380D01*
X77921428Y-39952380D01*
X77778571Y-39904761D01*
X77683333Y-39809523D01*
X77635714Y-39714285D01*
X77588095Y-39523809D01*
X77588095Y-39380952D01*
X77635714Y-39190476D01*
X77683333Y-39095238D01*
X77778571Y-39000000D01*
X77921428Y-38952380D01*
X78016666Y-38952380D01*
X78159523Y-39000000D01*
X78207142Y-39047619D01*
X78588095Y-39047619D02*
X78635714Y-39000000D01*
X78730952Y-38952380D01*
X78969047Y-38952380D01*
X79064285Y-39000000D01*
X79111904Y-39047619D01*
X79159523Y-39142857D01*
X79159523Y-39238095D01*
X79111904Y-39380952D01*
X78540476Y-39952380D01*
X79159523Y-39952380D01*
X79778571Y-38952380D02*
X79873809Y-38952380D01*
X79969047Y-39000000D01*
X80016666Y-39047619D01*
X80064285Y-39142857D01*
X80111904Y-39333333D01*
X80111904Y-39571428D01*
X80064285Y-39761904D01*
X80016666Y-39857142D01*
X79969047Y-39904761D01*
X79873809Y-39952380D01*
X79778571Y-39952380D01*
X79683333Y-39904761D01*
X79635714Y-39857142D01*
X79588095Y-39761904D01*
X79540476Y-39571428D01*
X79540476Y-39333333D01*
X79588095Y-39142857D01*
X79635714Y-39047619D01*
X79683333Y-39000000D01*
X79778571Y-38952380D01*
G04 #@! TO.C,D3*
X48511904Y-47752380D02*
X48511904Y-46752380D01*
X48750000Y-46752380D01*
X48892857Y-46800000D01*
X48988095Y-46895238D01*
X49035714Y-46990476D01*
X49083333Y-47180952D01*
X49083333Y-47323809D01*
X49035714Y-47514285D01*
X48988095Y-47609523D01*
X48892857Y-47704761D01*
X48750000Y-47752380D01*
X48511904Y-47752380D01*
X49416666Y-46752380D02*
X50035714Y-46752380D01*
X49702380Y-47133333D01*
X49845238Y-47133333D01*
X49940476Y-47180952D01*
X49988095Y-47228571D01*
X50035714Y-47323809D01*
X50035714Y-47561904D01*
X49988095Y-47657142D01*
X49940476Y-47704761D01*
X49845238Y-47752380D01*
X49559523Y-47752380D01*
X49464285Y-47704761D01*
X49416666Y-47657142D01*
G04 #@! TO.C,D4*
X94411904Y-31227380D02*
X94411904Y-30227380D01*
X94650000Y-30227380D01*
X94792857Y-30275000D01*
X94888095Y-30370238D01*
X94935714Y-30465476D01*
X94983333Y-30655952D01*
X94983333Y-30798809D01*
X94935714Y-30989285D01*
X94888095Y-31084523D01*
X94792857Y-31179761D01*
X94650000Y-31227380D01*
X94411904Y-31227380D01*
X95840476Y-30560714D02*
X95840476Y-31227380D01*
X95602380Y-30179761D02*
X95364285Y-30894047D01*
X95983333Y-30894047D01*
G04 #@! TO.C,D5*
X48561904Y-53452380D02*
X48561904Y-52452380D01*
X48800000Y-52452380D01*
X48942857Y-52500000D01*
X49038095Y-52595238D01*
X49085714Y-52690476D01*
X49133333Y-52880952D01*
X49133333Y-53023809D01*
X49085714Y-53214285D01*
X49038095Y-53309523D01*
X48942857Y-53404761D01*
X48800000Y-53452380D01*
X48561904Y-53452380D01*
X50038095Y-52452380D02*
X49561904Y-52452380D01*
X49514285Y-52928571D01*
X49561904Y-52880952D01*
X49657142Y-52833333D01*
X49895238Y-52833333D01*
X49990476Y-52880952D01*
X50038095Y-52928571D01*
X50085714Y-53023809D01*
X50085714Y-53261904D01*
X50038095Y-53357142D01*
X49990476Y-53404761D01*
X49895238Y-53452380D01*
X49657142Y-53452380D01*
X49561904Y-53404761D01*
X49514285Y-53357142D01*
G04 #@! TO.C,D6*
X52861904Y-26302380D02*
X52861904Y-25302380D01*
X53100000Y-25302380D01*
X53242857Y-25350000D01*
X53338095Y-25445238D01*
X53385714Y-25540476D01*
X53433333Y-25730952D01*
X53433333Y-25873809D01*
X53385714Y-26064285D01*
X53338095Y-26159523D01*
X53242857Y-26254761D01*
X53100000Y-26302380D01*
X52861904Y-26302380D01*
X54290476Y-25302380D02*
X54100000Y-25302380D01*
X54004761Y-25350000D01*
X53957142Y-25397619D01*
X53861904Y-25540476D01*
X53814285Y-25730952D01*
X53814285Y-26111904D01*
X53861904Y-26207142D01*
X53909523Y-26254761D01*
X54004761Y-26302380D01*
X54195238Y-26302380D01*
X54290476Y-26254761D01*
X54338095Y-26207142D01*
X54385714Y-26111904D01*
X54385714Y-25873809D01*
X54338095Y-25778571D01*
X54290476Y-25730952D01*
X54195238Y-25683333D01*
X54004761Y-25683333D01*
X53909523Y-25730952D01*
X53861904Y-25778571D01*
X53814285Y-25873809D01*
G04 #@! TO.C,D7*
X57761904Y-26302380D02*
X57761904Y-25302380D01*
X58000000Y-25302380D01*
X58142857Y-25350000D01*
X58238095Y-25445238D01*
X58285714Y-25540476D01*
X58333333Y-25730952D01*
X58333333Y-25873809D01*
X58285714Y-26064285D01*
X58238095Y-26159523D01*
X58142857Y-26254761D01*
X58000000Y-26302380D01*
X57761904Y-26302380D01*
X58666666Y-25302380D02*
X59333333Y-25302380D01*
X58904761Y-26302380D01*
G04 #@! TO.C,D8*
X62661904Y-26302380D02*
X62661904Y-25302380D01*
X62900000Y-25302380D01*
X63042857Y-25350000D01*
X63138095Y-25445238D01*
X63185714Y-25540476D01*
X63233333Y-25730952D01*
X63233333Y-25873809D01*
X63185714Y-26064285D01*
X63138095Y-26159523D01*
X63042857Y-26254761D01*
X62900000Y-26302380D01*
X62661904Y-26302380D01*
X63804761Y-25730952D02*
X63709523Y-25683333D01*
X63661904Y-25635714D01*
X63614285Y-25540476D01*
X63614285Y-25492857D01*
X63661904Y-25397619D01*
X63709523Y-25350000D01*
X63804761Y-25302380D01*
X63995238Y-25302380D01*
X64090476Y-25350000D01*
X64138095Y-25397619D01*
X64185714Y-25492857D01*
X64185714Y-25540476D01*
X64138095Y-25635714D01*
X64090476Y-25683333D01*
X63995238Y-25730952D01*
X63804761Y-25730952D01*
X63709523Y-25778571D01*
X63661904Y-25826190D01*
X63614285Y-25921428D01*
X63614285Y-26111904D01*
X63661904Y-26207142D01*
X63709523Y-26254761D01*
X63804761Y-26302380D01*
X63995238Y-26302380D01*
X64090476Y-26254761D01*
X64138095Y-26207142D01*
X64185714Y-26111904D01*
X64185714Y-25921428D01*
X64138095Y-25826190D01*
X64090476Y-25778571D01*
X63995238Y-25730952D01*
G04 #@! TO.C,D9*
X67561904Y-26302380D02*
X67561904Y-25302380D01*
X67800000Y-25302380D01*
X67942857Y-25350000D01*
X68038095Y-25445238D01*
X68085714Y-25540476D01*
X68133333Y-25730952D01*
X68133333Y-25873809D01*
X68085714Y-26064285D01*
X68038095Y-26159523D01*
X67942857Y-26254761D01*
X67800000Y-26302380D01*
X67561904Y-26302380D01*
X68609523Y-26302380D02*
X68800000Y-26302380D01*
X68895238Y-26254761D01*
X68942857Y-26207142D01*
X69038095Y-26064285D01*
X69085714Y-25873809D01*
X69085714Y-25492857D01*
X69038095Y-25397619D01*
X68990476Y-25350000D01*
X68895238Y-25302380D01*
X68704761Y-25302380D01*
X68609523Y-25350000D01*
X68561904Y-25397619D01*
X68514285Y-25492857D01*
X68514285Y-25730952D01*
X68561904Y-25826190D01*
X68609523Y-25873809D01*
X68704761Y-25921428D01*
X68895238Y-25921428D01*
X68990476Y-25873809D01*
X69038095Y-25826190D01*
X69085714Y-25730952D01*
G04 #@! TO.C,D10*
X47485714Y-26302380D02*
X47485714Y-25302380D01*
X47723809Y-25302380D01*
X47866666Y-25350000D01*
X47961904Y-25445238D01*
X48009523Y-25540476D01*
X48057142Y-25730952D01*
X48057142Y-25873809D01*
X48009523Y-26064285D01*
X47961904Y-26159523D01*
X47866666Y-26254761D01*
X47723809Y-26302380D01*
X47485714Y-26302380D01*
X49009523Y-26302380D02*
X48438095Y-26302380D01*
X48723809Y-26302380D02*
X48723809Y-25302380D01*
X48628571Y-25445238D01*
X48533333Y-25540476D01*
X48438095Y-25588095D01*
X49628571Y-25302380D02*
X49723809Y-25302380D01*
X49819047Y-25350000D01*
X49866666Y-25397619D01*
X49914285Y-25492857D01*
X49961904Y-25683333D01*
X49961904Y-25921428D01*
X49914285Y-26111904D01*
X49866666Y-26207142D01*
X49819047Y-26254761D01*
X49723809Y-26302380D01*
X49628571Y-26302380D01*
X49533333Y-26254761D01*
X49485714Y-26207142D01*
X49438095Y-26111904D01*
X49390476Y-25921428D01*
X49390476Y-25683333D01*
X49438095Y-25492857D01*
X49485714Y-25397619D01*
X49533333Y-25350000D01*
X49628571Y-25302380D01*
G04 #@! TO.C,J1*
X36152380Y-31433333D02*
X36866666Y-31433333D01*
X37009523Y-31480952D01*
X37104761Y-31576190D01*
X37152380Y-31719047D01*
X37152380Y-31814285D01*
X37152380Y-30433333D02*
X37152380Y-31004761D01*
X37152380Y-30719047D02*
X36152380Y-30719047D01*
X36295238Y-30814285D01*
X36390476Y-30909523D01*
X36438095Y-31004761D01*
G04 #@! TO.C,J5*
X71522380Y-26133333D02*
X72236666Y-26133333D01*
X72379523Y-26180952D01*
X72474761Y-26276190D01*
X72522380Y-26419047D01*
X72522380Y-26514285D01*
X71522380Y-25180952D02*
X71522380Y-25657142D01*
X71998571Y-25704761D01*
X71950952Y-25657142D01*
X71903333Y-25561904D01*
X71903333Y-25323809D01*
X71950952Y-25228571D01*
X71998571Y-25180952D01*
X72093809Y-25133333D01*
X72331904Y-25133333D01*
X72427142Y-25180952D01*
X72474761Y-25228571D01*
X72522380Y-25323809D01*
X72522380Y-25561904D01*
X72474761Y-25657142D01*
X72427142Y-25704761D01*
X76742857Y-28304761D02*
X76885714Y-28352380D01*
X77123809Y-28352380D01*
X77219047Y-28304761D01*
X77266666Y-28257142D01*
X77314285Y-28161904D01*
X77314285Y-28066666D01*
X77266666Y-27971428D01*
X77219047Y-27923809D01*
X77123809Y-27876190D01*
X76933333Y-27828571D01*
X76838095Y-27780952D01*
X76790476Y-27733333D01*
X76742857Y-27638095D01*
X76742857Y-27542857D01*
X76790476Y-27447619D01*
X76838095Y-27400000D01*
X76933333Y-27352380D01*
X77171428Y-27352380D01*
X77314285Y-27400000D01*
X77647619Y-27352380D02*
X77885714Y-28352380D01*
X78076190Y-27638095D01*
X78266666Y-28352380D01*
X78504761Y-27352380D01*
X78885714Y-28352380D02*
X78885714Y-27352380D01*
X79123809Y-27352380D01*
X79266666Y-27400000D01*
X79361904Y-27495238D01*
X79409523Y-27590476D01*
X79457142Y-27780952D01*
X79457142Y-27923809D01*
X79409523Y-28114285D01*
X79361904Y-28209523D01*
X79266666Y-28304761D01*
X79123809Y-28352380D01*
X78885714Y-28352380D01*
G04 #@! TO.C,L1*
X74852380Y-46916666D02*
X74852380Y-47392857D01*
X73852380Y-47392857D01*
X74852380Y-46059523D02*
X74852380Y-46630952D01*
X74852380Y-46345238D02*
X73852380Y-46345238D01*
X73995238Y-46440476D01*
X74090476Y-46535714D01*
X74138095Y-46630952D01*
G04 #@! TO.C,R8*
X44302380Y-51216666D02*
X43826190Y-51550000D01*
X44302380Y-51788095D02*
X43302380Y-51788095D01*
X43302380Y-51407142D01*
X43350000Y-51311904D01*
X43397619Y-51264285D01*
X43492857Y-51216666D01*
X43635714Y-51216666D01*
X43730952Y-51264285D01*
X43778571Y-51311904D01*
X43826190Y-51407142D01*
X43826190Y-51788095D01*
X43730952Y-50645238D02*
X43683333Y-50740476D01*
X43635714Y-50788095D01*
X43540476Y-50835714D01*
X43492857Y-50835714D01*
X43397619Y-50788095D01*
X43350000Y-50740476D01*
X43302380Y-50645238D01*
X43302380Y-50454761D01*
X43350000Y-50359523D01*
X43397619Y-50311904D01*
X43492857Y-50264285D01*
X43540476Y-50264285D01*
X43635714Y-50311904D01*
X43683333Y-50359523D01*
X43730952Y-50454761D01*
X43730952Y-50645238D01*
X43778571Y-50740476D01*
X43826190Y-50788095D01*
X43921428Y-50835714D01*
X44111904Y-50835714D01*
X44207142Y-50788095D01*
X44254761Y-50740476D01*
X44302380Y-50645238D01*
X44302380Y-50454761D01*
X44254761Y-50359523D01*
X44207142Y-50311904D01*
X44111904Y-50264285D01*
X43921428Y-50264285D01*
X43826190Y-50311904D01*
X43778571Y-50359523D01*
X43730952Y-50454761D01*
X44302380Y-48845238D02*
X44302380Y-49416666D01*
X44302380Y-49130952D02*
X43302380Y-49130952D01*
X43445238Y-49226190D01*
X43540476Y-49321428D01*
X43588095Y-49416666D01*
X43302380Y-48226190D02*
X43302380Y-48130952D01*
X43350000Y-48035714D01*
X43397619Y-47988095D01*
X43492857Y-47940476D01*
X43683333Y-47892857D01*
X43921428Y-47892857D01*
X44111904Y-47940476D01*
X44207142Y-47988095D01*
X44254761Y-48035714D01*
X44302380Y-48130952D01*
X44302380Y-48226190D01*
X44254761Y-48321428D01*
X44207142Y-48369047D01*
X44111904Y-48416666D01*
X43921428Y-48464285D01*
X43683333Y-48464285D01*
X43492857Y-48416666D01*
X43397619Y-48369047D01*
X43350000Y-48321428D01*
X43302380Y-48226190D01*
X44302380Y-47464285D02*
X43302380Y-47464285D01*
X43921428Y-47369047D02*
X44302380Y-47083333D01*
X43635714Y-47083333D02*
X44016666Y-47464285D01*
G04 #@! TO.C,R13*
X41057142Y-43602380D02*
X40723809Y-43126190D01*
X40485714Y-43602380D02*
X40485714Y-42602380D01*
X40866666Y-42602380D01*
X40961904Y-42650000D01*
X41009523Y-42697619D01*
X41057142Y-42792857D01*
X41057142Y-42935714D01*
X41009523Y-43030952D01*
X40961904Y-43078571D01*
X40866666Y-43126190D01*
X40485714Y-43126190D01*
X42009523Y-43602380D02*
X41438095Y-43602380D01*
X41723809Y-43602380D02*
X41723809Y-42602380D01*
X41628571Y-42745238D01*
X41533333Y-42840476D01*
X41438095Y-42888095D01*
X42342857Y-42602380D02*
X42961904Y-42602380D01*
X42628571Y-42983333D01*
X42771428Y-42983333D01*
X42866666Y-43030952D01*
X42914285Y-43078571D01*
X42961904Y-43173809D01*
X42961904Y-43411904D01*
X42914285Y-43507142D01*
X42866666Y-43554761D01*
X42771428Y-43602380D01*
X42485714Y-43602380D01*
X42390476Y-43554761D01*
X42342857Y-43507142D01*
G04 #@! TO.C,R15*
X65052380Y-40342857D02*
X64576190Y-40676190D01*
X65052380Y-40914285D02*
X64052380Y-40914285D01*
X64052380Y-40533333D01*
X64100000Y-40438095D01*
X64147619Y-40390476D01*
X64242857Y-40342857D01*
X64385714Y-40342857D01*
X64480952Y-40390476D01*
X64528571Y-40438095D01*
X64576190Y-40533333D01*
X64576190Y-40914285D01*
X65052380Y-39390476D02*
X65052380Y-39961904D01*
X65052380Y-39676190D02*
X64052380Y-39676190D01*
X64195238Y-39771428D01*
X64290476Y-39866666D01*
X64338095Y-39961904D01*
X64052380Y-38485714D02*
X64052380Y-38961904D01*
X64528571Y-39009523D01*
X64480952Y-38961904D01*
X64433333Y-38866666D01*
X64433333Y-38628571D01*
X64480952Y-38533333D01*
X64528571Y-38485714D01*
X64623809Y-38438095D01*
X64861904Y-38438095D01*
X64957142Y-38485714D01*
X65004761Y-38533333D01*
X65052380Y-38628571D01*
X65052380Y-38866666D01*
X65004761Y-38961904D01*
X64957142Y-39009523D01*
G04 #@! TO.C,U3*
X83038095Y-28952380D02*
X83038095Y-29761904D01*
X83085714Y-29857142D01*
X83133333Y-29904761D01*
X83228571Y-29952380D01*
X83419047Y-29952380D01*
X83514285Y-29904761D01*
X83561904Y-29857142D01*
X83609523Y-29761904D01*
X83609523Y-28952380D01*
X83990476Y-28952380D02*
X84609523Y-28952380D01*
X84276190Y-29333333D01*
X84419047Y-29333333D01*
X84514285Y-29380952D01*
X84561904Y-29428571D01*
X84609523Y-29523809D01*
X84609523Y-29761904D01*
X84561904Y-29857142D01*
X84514285Y-29904761D01*
X84419047Y-29952380D01*
X84133333Y-29952380D01*
X84038095Y-29904761D01*
X83990476Y-29857142D01*
G04 #@! TO.C,Y1*
X37926190Y-36526190D02*
X38402380Y-36526190D01*
X37402380Y-36859523D02*
X37926190Y-36526190D01*
X37402380Y-36192857D01*
X38402380Y-35335714D02*
X38402380Y-35907142D01*
X38402380Y-35621428D02*
X37402380Y-35621428D01*
X37545238Y-35716666D01*
X37640476Y-35811904D01*
X37688095Y-35907142D01*
G04 #@! TO.C,C21*
X82957142Y-47107142D02*
X82909523Y-47154761D01*
X82766666Y-47202380D01*
X82671428Y-47202380D01*
X82528571Y-47154761D01*
X82433333Y-47059523D01*
X82385714Y-46964285D01*
X82338095Y-46773809D01*
X82338095Y-46630952D01*
X82385714Y-46440476D01*
X82433333Y-46345238D01*
X82528571Y-46250000D01*
X82671428Y-46202380D01*
X82766666Y-46202380D01*
X82909523Y-46250000D01*
X82957142Y-46297619D01*
X83338095Y-46297619D02*
X83385714Y-46250000D01*
X83480952Y-46202380D01*
X83719047Y-46202380D01*
X83814285Y-46250000D01*
X83861904Y-46297619D01*
X83909523Y-46392857D01*
X83909523Y-46488095D01*
X83861904Y-46630952D01*
X83290476Y-47202380D01*
X83909523Y-47202380D01*
X84861904Y-47202380D02*
X84290476Y-47202380D01*
X84576190Y-47202380D02*
X84576190Y-46202380D01*
X84480952Y-46345238D01*
X84385714Y-46440476D01*
X84290476Y-46488095D01*
G04 #@! TO.C,C22*
X82907142Y-45907142D02*
X82859523Y-45954761D01*
X82716666Y-46002380D01*
X82621428Y-46002380D01*
X82478571Y-45954761D01*
X82383333Y-45859523D01*
X82335714Y-45764285D01*
X82288095Y-45573809D01*
X82288095Y-45430952D01*
X82335714Y-45240476D01*
X82383333Y-45145238D01*
X82478571Y-45050000D01*
X82621428Y-45002380D01*
X82716666Y-45002380D01*
X82859523Y-45050000D01*
X82907142Y-45097619D01*
X83288095Y-45097619D02*
X83335714Y-45050000D01*
X83430952Y-45002380D01*
X83669047Y-45002380D01*
X83764285Y-45050000D01*
X83811904Y-45097619D01*
X83859523Y-45192857D01*
X83859523Y-45288095D01*
X83811904Y-45430952D01*
X83240476Y-46002380D01*
X83859523Y-46002380D01*
X84240476Y-45097619D02*
X84288095Y-45050000D01*
X84383333Y-45002380D01*
X84621428Y-45002380D01*
X84716666Y-45050000D01*
X84764285Y-45097619D01*
X84811904Y-45192857D01*
X84811904Y-45288095D01*
X84764285Y-45430952D01*
X84192857Y-46002380D01*
X84811904Y-46002380D01*
G04 #@! TO.C,C23*
X82907142Y-44657142D02*
X82859523Y-44704761D01*
X82716666Y-44752380D01*
X82621428Y-44752380D01*
X82478571Y-44704761D01*
X82383333Y-44609523D01*
X82335714Y-44514285D01*
X82288095Y-44323809D01*
X82288095Y-44180952D01*
X82335714Y-43990476D01*
X82383333Y-43895238D01*
X82478571Y-43800000D01*
X82621428Y-43752380D01*
X82716666Y-43752380D01*
X82859523Y-43800000D01*
X82907142Y-43847619D01*
X83288095Y-43847619D02*
X83335714Y-43800000D01*
X83430952Y-43752380D01*
X83669047Y-43752380D01*
X83764285Y-43800000D01*
X83811904Y-43847619D01*
X83859523Y-43942857D01*
X83859523Y-44038095D01*
X83811904Y-44180952D01*
X83240476Y-44752380D01*
X83859523Y-44752380D01*
X84192857Y-43752380D02*
X84811904Y-43752380D01*
X84478571Y-44133333D01*
X84621428Y-44133333D01*
X84716666Y-44180952D01*
X84764285Y-44228571D01*
X84811904Y-44323809D01*
X84811904Y-44561904D01*
X84764285Y-44657142D01*
X84716666Y-44704761D01*
X84621428Y-44752380D01*
X84335714Y-44752380D01*
X84240476Y-44704761D01*
X84192857Y-44657142D01*
G04 #@! TO.C,C24*
X86807142Y-44707142D02*
X86759523Y-44754761D01*
X86616666Y-44802380D01*
X86521428Y-44802380D01*
X86378571Y-44754761D01*
X86283333Y-44659523D01*
X86235714Y-44564285D01*
X86188095Y-44373809D01*
X86188095Y-44230952D01*
X86235714Y-44040476D01*
X86283333Y-43945238D01*
X86378571Y-43850000D01*
X86521428Y-43802380D01*
X86616666Y-43802380D01*
X86759523Y-43850000D01*
X86807142Y-43897619D01*
X87188095Y-43897619D02*
X87235714Y-43850000D01*
X87330952Y-43802380D01*
X87569047Y-43802380D01*
X87664285Y-43850000D01*
X87711904Y-43897619D01*
X87759523Y-43992857D01*
X87759523Y-44088095D01*
X87711904Y-44230952D01*
X87140476Y-44802380D01*
X87759523Y-44802380D01*
X88616666Y-44135714D02*
X88616666Y-44802380D01*
X88378571Y-43754761D02*
X88140476Y-44469047D01*
X88759523Y-44469047D01*
G04 #@! TO.C,C25*
X86807142Y-45907142D02*
X86759523Y-45954761D01*
X86616666Y-46002380D01*
X86521428Y-46002380D01*
X86378571Y-45954761D01*
X86283333Y-45859523D01*
X86235714Y-45764285D01*
X86188095Y-45573809D01*
X86188095Y-45430952D01*
X86235714Y-45240476D01*
X86283333Y-45145238D01*
X86378571Y-45050000D01*
X86521428Y-45002380D01*
X86616666Y-45002380D01*
X86759523Y-45050000D01*
X86807142Y-45097619D01*
X87188095Y-45097619D02*
X87235714Y-45050000D01*
X87330952Y-45002380D01*
X87569047Y-45002380D01*
X87664285Y-45050000D01*
X87711904Y-45097619D01*
X87759523Y-45192857D01*
X87759523Y-45288095D01*
X87711904Y-45430952D01*
X87140476Y-46002380D01*
X87759523Y-46002380D01*
X88664285Y-45002380D02*
X88188095Y-45002380D01*
X88140476Y-45478571D01*
X88188095Y-45430952D01*
X88283333Y-45383333D01*
X88521428Y-45383333D01*
X88616666Y-45430952D01*
X88664285Y-45478571D01*
X88711904Y-45573809D01*
X88711904Y-45811904D01*
X88664285Y-45907142D01*
X88616666Y-45954761D01*
X88521428Y-46002380D01*
X88283333Y-46002380D01*
X88188095Y-45954761D01*
X88140476Y-45907142D01*
G04 #@! TO.C,C26*
X86807142Y-47107142D02*
X86759523Y-47154761D01*
X86616666Y-47202380D01*
X86521428Y-47202380D01*
X86378571Y-47154761D01*
X86283333Y-47059523D01*
X86235714Y-46964285D01*
X86188095Y-46773809D01*
X86188095Y-46630952D01*
X86235714Y-46440476D01*
X86283333Y-46345238D01*
X86378571Y-46250000D01*
X86521428Y-46202380D01*
X86616666Y-46202380D01*
X86759523Y-46250000D01*
X86807142Y-46297619D01*
X87188095Y-46297619D02*
X87235714Y-46250000D01*
X87330952Y-46202380D01*
X87569047Y-46202380D01*
X87664285Y-46250000D01*
X87711904Y-46297619D01*
X87759523Y-46392857D01*
X87759523Y-46488095D01*
X87711904Y-46630952D01*
X87140476Y-47202380D01*
X87759523Y-47202380D01*
X88616666Y-46202380D02*
X88426190Y-46202380D01*
X88330952Y-46250000D01*
X88283333Y-46297619D01*
X88188095Y-46440476D01*
X88140476Y-46630952D01*
X88140476Y-47011904D01*
X88188095Y-47107142D01*
X88235714Y-47154761D01*
X88330952Y-47202380D01*
X88521428Y-47202380D01*
X88616666Y-47154761D01*
X88664285Y-47107142D01*
X88711904Y-47011904D01*
X88711904Y-46773809D01*
X88664285Y-46678571D01*
X88616666Y-46630952D01*
X88521428Y-46583333D01*
X88330952Y-46583333D01*
X88235714Y-46630952D01*
X88188095Y-46678571D01*
X88140476Y-46773809D01*
G04 #@! TO.C,J2*
X104432380Y-48283333D02*
X105146666Y-48283333D01*
X105289523Y-48330952D01*
X105384761Y-48426190D01*
X105432380Y-48569047D01*
X105432380Y-48664285D01*
X104527619Y-47854761D02*
X104480000Y-47807142D01*
X104432380Y-47711904D01*
X104432380Y-47473809D01*
X104480000Y-47378571D01*
X104527619Y-47330952D01*
X104622857Y-47283333D01*
X104718095Y-47283333D01*
X104860952Y-47330952D01*
X105432380Y-47902380D01*
X105432380Y-47283333D01*
G04 #@! TO.C,J4*
X96602380Y-39483333D02*
X97316666Y-39483333D01*
X97459523Y-39530952D01*
X97554761Y-39626190D01*
X97602380Y-39769047D01*
X97602380Y-39864285D01*
X96935714Y-38578571D02*
X97602380Y-38578571D01*
X96554761Y-38816666D02*
X97269047Y-39054761D01*
X97269047Y-38435714D01*
G04 #@! TO.C,R16*
X79240142Y-54935380D02*
X78906809Y-54459190D01*
X78668714Y-54935380D02*
X78668714Y-53935380D01*
X79049666Y-53935380D01*
X79144904Y-53983000D01*
X79192523Y-54030619D01*
X79240142Y-54125857D01*
X79240142Y-54268714D01*
X79192523Y-54363952D01*
X79144904Y-54411571D01*
X79049666Y-54459190D01*
X78668714Y-54459190D01*
X80192523Y-54935380D02*
X79621095Y-54935380D01*
X79906809Y-54935380D02*
X79906809Y-53935380D01*
X79811571Y-54078238D01*
X79716333Y-54173476D01*
X79621095Y-54221095D01*
X81049666Y-53935380D02*
X80859190Y-53935380D01*
X80763952Y-53983000D01*
X80716333Y-54030619D01*
X80621095Y-54173476D01*
X80573476Y-54363952D01*
X80573476Y-54744904D01*
X80621095Y-54840142D01*
X80668714Y-54887761D01*
X80763952Y-54935380D01*
X80954428Y-54935380D01*
X81049666Y-54887761D01*
X81097285Y-54840142D01*
X81144904Y-54744904D01*
X81144904Y-54506809D01*
X81097285Y-54411571D01*
X81049666Y-54363952D01*
X80954428Y-54316333D01*
X80763952Y-54316333D01*
X80668714Y-54363952D01*
X80621095Y-54411571D01*
X80573476Y-54506809D01*
G04 #@! TO.C,R17*
X87685642Y-56395880D02*
X87352309Y-55919690D01*
X87114214Y-56395880D02*
X87114214Y-55395880D01*
X87495166Y-55395880D01*
X87590404Y-55443500D01*
X87638023Y-55491119D01*
X87685642Y-55586357D01*
X87685642Y-55729214D01*
X87638023Y-55824452D01*
X87590404Y-55872071D01*
X87495166Y-55919690D01*
X87114214Y-55919690D01*
X88638023Y-56395880D02*
X88066595Y-56395880D01*
X88352309Y-56395880D02*
X88352309Y-55395880D01*
X88257071Y-55538738D01*
X88161833Y-55633976D01*
X88066595Y-55681595D01*
X88971357Y-55395880D02*
X89638023Y-55395880D01*
X89209452Y-56395880D01*
G04 #@! TO.C,J3*
X27441666Y-46952380D02*
X27441666Y-47666666D01*
X27394047Y-47809523D01*
X27298809Y-47904761D01*
X27155952Y-47952380D01*
X27060714Y-47952380D01*
X27822619Y-46952380D02*
X28441666Y-46952380D01*
X28108333Y-47333333D01*
X28251190Y-47333333D01*
X28346428Y-47380952D01*
X28394047Y-47428571D01*
X28441666Y-47523809D01*
X28441666Y-47761904D01*
X28394047Y-47857142D01*
X28346428Y-47904761D01*
X28251190Y-47952380D01*
X27965476Y-47952380D01*
X27870238Y-47904761D01*
X27822619Y-47857142D01*
G04 #@! TO.C,U9*
X36838095Y-56252380D02*
X36838095Y-57061904D01*
X36885714Y-57157142D01*
X36933333Y-57204761D01*
X37028571Y-57252380D01*
X37219047Y-57252380D01*
X37314285Y-57204761D01*
X37361904Y-57157142D01*
X37409523Y-57061904D01*
X37409523Y-56252380D01*
X37933333Y-57252380D02*
X38123809Y-57252380D01*
X38219047Y-57204761D01*
X38266666Y-57157142D01*
X38361904Y-57014285D01*
X38409523Y-56823809D01*
X38409523Y-56442857D01*
X38361904Y-56347619D01*
X38314285Y-56300000D01*
X38219047Y-56252380D01*
X38028571Y-56252380D01*
X37933333Y-56300000D01*
X37885714Y-56347619D01*
X37838095Y-56442857D01*
X37838095Y-56680952D01*
X37885714Y-56776190D01*
X37933333Y-56823809D01*
X38028571Y-56871428D01*
X38219047Y-56871428D01*
X38314285Y-56823809D01*
X38361904Y-56776190D01*
X38409523Y-56680952D01*
G04 #@! TO.C,JP2*
X41332380Y-58973333D02*
X42046666Y-58973333D01*
X42189523Y-59020952D01*
X42284761Y-59116190D01*
X42332380Y-59259047D01*
X42332380Y-59354285D01*
X42332380Y-58497142D02*
X41332380Y-58497142D01*
X41332380Y-58116190D01*
X41380000Y-58020952D01*
X41427619Y-57973333D01*
X41522857Y-57925714D01*
X41665714Y-57925714D01*
X41760952Y-57973333D01*
X41808571Y-58020952D01*
X41856190Y-58116190D01*
X41856190Y-58497142D01*
X41427619Y-57544761D02*
X41380000Y-57497142D01*
X41332380Y-57401904D01*
X41332380Y-57163809D01*
X41380000Y-57068571D01*
X41427619Y-57020952D01*
X41522857Y-56973333D01*
X41618095Y-56973333D01*
X41760952Y-57020952D01*
X42332380Y-57592380D01*
X42332380Y-56973333D01*
G04 #@! TO.C,U6*
X51752595Y-54062380D02*
X51752595Y-54871904D01*
X51800214Y-54967142D01*
X51847833Y-55014761D01*
X51943071Y-55062380D01*
X52133547Y-55062380D01*
X52228785Y-55014761D01*
X52276404Y-54967142D01*
X52324023Y-54871904D01*
X52324023Y-54062380D01*
X53228785Y-54062380D02*
X53038309Y-54062380D01*
X52943071Y-54110000D01*
X52895452Y-54157619D01*
X52800214Y-54300476D01*
X52752595Y-54490952D01*
X52752595Y-54871904D01*
X52800214Y-54967142D01*
X52847833Y-55014761D01*
X52943071Y-55062380D01*
X53133547Y-55062380D01*
X53228785Y-55014761D01*
X53276404Y-54967142D01*
X53324023Y-54871904D01*
X53324023Y-54633809D01*
X53276404Y-54538571D01*
X53228785Y-54490952D01*
X53133547Y-54443333D01*
X52943071Y-54443333D01*
X52847833Y-54490952D01*
X52800214Y-54538571D01*
X52752595Y-54633809D01*
G04 #@! TO.C,U7*
X54938095Y-60552380D02*
X54938095Y-61361904D01*
X54985714Y-61457142D01*
X55033333Y-61504761D01*
X55128571Y-61552380D01*
X55319047Y-61552380D01*
X55414285Y-61504761D01*
X55461904Y-61457142D01*
X55509523Y-61361904D01*
X55509523Y-60552380D01*
X55890476Y-60552380D02*
X56557142Y-60552380D01*
X56128571Y-61552380D01*
G04 #@! TO.C,D1*
X61047404Y-47696380D02*
X61047404Y-46696380D01*
X61285500Y-46696380D01*
X61428357Y-46744000D01*
X61523595Y-46839238D01*
X61571214Y-46934476D01*
X61618833Y-47124952D01*
X61618833Y-47267809D01*
X61571214Y-47458285D01*
X61523595Y-47553523D01*
X61428357Y-47648761D01*
X61285500Y-47696380D01*
X61047404Y-47696380D01*
X62571214Y-47696380D02*
X61999785Y-47696380D01*
X62285500Y-47696380D02*
X62285500Y-46696380D01*
X62190261Y-46839238D01*
X62095023Y-46934476D01*
X61999785Y-46982095D01*
G04 #@! TO.C,D2*
X62126904Y-62047380D02*
X62126904Y-61047380D01*
X62365000Y-61047380D01*
X62507857Y-61095000D01*
X62603095Y-61190238D01*
X62650714Y-61285476D01*
X62698333Y-61475952D01*
X62698333Y-61618809D01*
X62650714Y-61809285D01*
X62603095Y-61904523D01*
X62507857Y-61999761D01*
X62365000Y-62047380D01*
X62126904Y-62047380D01*
X63079285Y-61142619D02*
X63126904Y-61095000D01*
X63222142Y-61047380D01*
X63460238Y-61047380D01*
X63555476Y-61095000D01*
X63603095Y-61142619D01*
X63650714Y-61237857D01*
X63650714Y-61333095D01*
X63603095Y-61475952D01*
X63031666Y-62047380D01*
X63650714Y-62047380D01*
G04 #@! TO.C,D12*
X61079214Y-43695880D02*
X61079214Y-42695880D01*
X61317309Y-42695880D01*
X61460166Y-42743500D01*
X61555404Y-42838738D01*
X61603023Y-42933976D01*
X61650642Y-43124452D01*
X61650642Y-43267309D01*
X61603023Y-43457785D01*
X61555404Y-43553023D01*
X61460166Y-43648261D01*
X61317309Y-43695880D01*
X61079214Y-43695880D01*
X62603023Y-43695880D02*
X62031595Y-43695880D01*
X62317309Y-43695880D02*
X62317309Y-42695880D01*
X62222071Y-42838738D01*
X62126833Y-42933976D01*
X62031595Y-42981595D01*
X62983976Y-42791119D02*
X63031595Y-42743500D01*
X63126833Y-42695880D01*
X63364928Y-42695880D01*
X63460166Y-42743500D01*
X63507785Y-42791119D01*
X63555404Y-42886357D01*
X63555404Y-42981595D01*
X63507785Y-43124452D01*
X62936357Y-43695880D01*
X63555404Y-43695880D01*
G04 #@! TO.C,D13*
X61079214Y-45029380D02*
X61079214Y-44029380D01*
X61317309Y-44029380D01*
X61460166Y-44077000D01*
X61555404Y-44172238D01*
X61603023Y-44267476D01*
X61650642Y-44457952D01*
X61650642Y-44600809D01*
X61603023Y-44791285D01*
X61555404Y-44886523D01*
X61460166Y-44981761D01*
X61317309Y-45029380D01*
X61079214Y-45029380D01*
X62603023Y-45029380D02*
X62031595Y-45029380D01*
X62317309Y-45029380D02*
X62317309Y-44029380D01*
X62222071Y-44172238D01*
X62126833Y-44267476D01*
X62031595Y-44315095D01*
X62936357Y-44029380D02*
X63555404Y-44029380D01*
X63222071Y-44410333D01*
X63364928Y-44410333D01*
X63460166Y-44457952D01*
X63507785Y-44505571D01*
X63555404Y-44600809D01*
X63555404Y-44838904D01*
X63507785Y-44934142D01*
X63460166Y-44981761D01*
X63364928Y-45029380D01*
X63079214Y-45029380D01*
X62983976Y-44981761D01*
X62936357Y-44934142D01*
G04 #@! TO.C,R1*
X84224833Y-62110880D02*
X83891500Y-61634690D01*
X83653404Y-62110880D02*
X83653404Y-61110880D01*
X84034357Y-61110880D01*
X84129595Y-61158500D01*
X84177214Y-61206119D01*
X84224833Y-61301357D01*
X84224833Y-61444214D01*
X84177214Y-61539452D01*
X84129595Y-61587071D01*
X84034357Y-61634690D01*
X83653404Y-61634690D01*
X85177214Y-62110880D02*
X84605785Y-62110880D01*
X84891500Y-62110880D02*
X84891500Y-61110880D01*
X84796261Y-61253738D01*
X84701023Y-61348976D01*
X84605785Y-61396595D01*
G04 #@! TO.C,R2*
X85243333Y-58363380D02*
X84910000Y-57887190D01*
X84671904Y-58363380D02*
X84671904Y-57363380D01*
X85052857Y-57363380D01*
X85148095Y-57411000D01*
X85195714Y-57458619D01*
X85243333Y-57553857D01*
X85243333Y-57696714D01*
X85195714Y-57791952D01*
X85148095Y-57839571D01*
X85052857Y-57887190D01*
X84671904Y-57887190D01*
X85624285Y-57458619D02*
X85671904Y-57411000D01*
X85767142Y-57363380D01*
X86005238Y-57363380D01*
X86100476Y-57411000D01*
X86148095Y-57458619D01*
X86195714Y-57553857D01*
X86195714Y-57649095D01*
X86148095Y-57791952D01*
X85576666Y-58363380D01*
X86195714Y-58363380D01*
G04 #@! TO.C,R3*
X75207833Y-62491880D02*
X74874500Y-62015690D01*
X74636404Y-62491880D02*
X74636404Y-61491880D01*
X75017357Y-61491880D01*
X75112595Y-61539500D01*
X75160214Y-61587119D01*
X75207833Y-61682357D01*
X75207833Y-61825214D01*
X75160214Y-61920452D01*
X75112595Y-61968071D01*
X75017357Y-62015690D01*
X74636404Y-62015690D01*
X75541166Y-61491880D02*
X76160214Y-61491880D01*
X75826880Y-61872833D01*
X75969738Y-61872833D01*
X76064976Y-61920452D01*
X76112595Y-61968071D01*
X76160214Y-62063309D01*
X76160214Y-62301404D01*
X76112595Y-62396642D01*
X76064976Y-62444261D01*
X75969738Y-62491880D01*
X75684023Y-62491880D01*
X75588785Y-62444261D01*
X75541166Y-62396642D01*
G04 #@! TO.C,R4*
X82637333Y-59697880D02*
X82304000Y-59221690D01*
X82065904Y-59697880D02*
X82065904Y-58697880D01*
X82446857Y-58697880D01*
X82542095Y-58745500D01*
X82589714Y-58793119D01*
X82637333Y-58888357D01*
X82637333Y-59031214D01*
X82589714Y-59126452D01*
X82542095Y-59174071D01*
X82446857Y-59221690D01*
X82065904Y-59221690D01*
X83494476Y-59031214D02*
X83494476Y-59697880D01*
X83256380Y-58650261D02*
X83018285Y-59364547D01*
X83637333Y-59364547D01*
G04 #@! TO.C,R5*
X64666833Y-62809380D02*
X64333500Y-62333190D01*
X64095404Y-62809380D02*
X64095404Y-61809380D01*
X64476357Y-61809380D01*
X64571595Y-61857000D01*
X64619214Y-61904619D01*
X64666833Y-61999857D01*
X64666833Y-62142714D01*
X64619214Y-62237952D01*
X64571595Y-62285571D01*
X64476357Y-62333190D01*
X64095404Y-62333190D01*
X65571595Y-61809380D02*
X65095404Y-61809380D01*
X65047785Y-62285571D01*
X65095404Y-62237952D01*
X65190642Y-62190333D01*
X65428738Y-62190333D01*
X65523976Y-62237952D01*
X65571595Y-62285571D01*
X65619214Y-62380809D01*
X65619214Y-62618904D01*
X65571595Y-62714142D01*
X65523976Y-62761761D01*
X65428738Y-62809380D01*
X65190642Y-62809380D01*
X65095404Y-62761761D01*
X65047785Y-62714142D01*
G04 #@! TO.C,R6*
X61618833Y-46362880D02*
X61285500Y-45886690D01*
X61047404Y-46362880D02*
X61047404Y-45362880D01*
X61428357Y-45362880D01*
X61523595Y-45410500D01*
X61571214Y-45458119D01*
X61618833Y-45553357D01*
X61618833Y-45696214D01*
X61571214Y-45791452D01*
X61523595Y-45839071D01*
X61428357Y-45886690D01*
X61047404Y-45886690D01*
X62475976Y-45362880D02*
X62285500Y-45362880D01*
X62190261Y-45410500D01*
X62142642Y-45458119D01*
X62047404Y-45600976D01*
X61999785Y-45791452D01*
X61999785Y-46172404D01*
X62047404Y-46267642D01*
X62095023Y-46315261D01*
X62190261Y-46362880D01*
X62380738Y-46362880D01*
X62475976Y-46315261D01*
X62523595Y-46267642D01*
X62571214Y-46172404D01*
X62571214Y-45934309D01*
X62523595Y-45839071D01*
X62475976Y-45791452D01*
X62380738Y-45743833D01*
X62190261Y-45743833D01*
X62095023Y-45791452D01*
X62047404Y-45839071D01*
X61999785Y-45934309D01*
G04 #@! TO.C,U1*
X67627595Y-60729880D02*
X67627595Y-61539404D01*
X67675214Y-61634642D01*
X67722833Y-61682261D01*
X67818071Y-61729880D01*
X68008547Y-61729880D01*
X68103785Y-61682261D01*
X68151404Y-61634642D01*
X68199023Y-61539404D01*
X68199023Y-60729880D01*
X69199023Y-61729880D02*
X68627595Y-61729880D01*
X68913309Y-61729880D02*
X68913309Y-60729880D01*
X68818071Y-60872738D01*
X68722833Y-60967976D01*
X68627595Y-61015595D01*
G04 #@! TO.C,U2*
X72453595Y-60412380D02*
X72453595Y-61221904D01*
X72501214Y-61317142D01*
X72548833Y-61364761D01*
X72644071Y-61412380D01*
X72834547Y-61412380D01*
X72929785Y-61364761D01*
X72977404Y-61317142D01*
X73025023Y-61221904D01*
X73025023Y-60412380D01*
X73453595Y-60507619D02*
X73501214Y-60460000D01*
X73596452Y-60412380D01*
X73834547Y-60412380D01*
X73929785Y-60460000D01*
X73977404Y-60507619D01*
X74025023Y-60602857D01*
X74025023Y-60698095D01*
X73977404Y-60840952D01*
X73405976Y-61412380D01*
X74025023Y-61412380D01*
G04 #@! TO.C,U4*
X67627595Y-53935380D02*
X67627595Y-54744904D01*
X67675214Y-54840142D01*
X67722833Y-54887761D01*
X67818071Y-54935380D01*
X68008547Y-54935380D01*
X68103785Y-54887761D01*
X68151404Y-54840142D01*
X68199023Y-54744904D01*
X68199023Y-53935380D01*
X69103785Y-54268714D02*
X69103785Y-54935380D01*
X68865690Y-53887761D02*
X68627595Y-54602047D01*
X69246642Y-54602047D01*
G04 #@! TO.C,U5*
X74739595Y-53998880D02*
X74739595Y-54808404D01*
X74787214Y-54903642D01*
X74834833Y-54951261D01*
X74930071Y-54998880D01*
X75120547Y-54998880D01*
X75215785Y-54951261D01*
X75263404Y-54903642D01*
X75311023Y-54808404D01*
X75311023Y-53998880D01*
X76263404Y-53998880D02*
X75787214Y-53998880D01*
X75739595Y-54475071D01*
X75787214Y-54427452D01*
X75882452Y-54379833D01*
X76120547Y-54379833D01*
X76215785Y-54427452D01*
X76263404Y-54475071D01*
X76311023Y-54570309D01*
X76311023Y-54808404D01*
X76263404Y-54903642D01*
X76215785Y-54951261D01*
X76120547Y-54998880D01*
X75882452Y-54998880D01*
X75787214Y-54951261D01*
X75739595Y-54903642D01*
G04 #@! TD*
M02*
